<svg width="67" height="67" viewBox="0 0 67 67" fill="none" xmlns="http://www.w3.org/2000/svg">
<circle cx="33.5" cy="33.5" r="33.5" fill="#83C46C"/>
<g clip-path="url(#clip0_162_161)">
<path d="M46.61 41.52C45.0031 39.779 43.0532 38.3896 40.8829 37.4393C38.7127 36.489 36.3692 35.9984 34 35.9984C31.6308 35.9984 29.2873 36.489 27.1171 37.4393C24.9468 38.3896 22.9969 39.779 21.39 41.52C21.1419 41.7943 21.0031 42.1501 21 42.52V48.52C21.0053 48.9143 21.1656 49.2908 21.4463 49.5677C21.7271 49.8447 22.1056 50 22.5 50H45.5C45.8978 50 46.2794 49.842 46.5607 49.5607C46.842 49.2794 47 48.8978 47 48.5V42.5C46.992 42.1371 46.8536 41.7892 46.61 41.52Z" fill="white"/>
<path d="M34 34C37.866 34 41 30.866 41 27C41 23.134 37.866 20 34 20C30.134 20 27 23.134 27 27C27 30.866 30.134 34 34 34Z" fill="white"/>
</g>
<defs>
<clipPath id="clip0_162_161">
<rect width="36" height="36" fill="white" transform="translate(16 17)"/>
</clipPath>
</defs>
</svg>
