<svg width="87" height="112" viewBox="0 0 87 112" fill="none" xmlns="http://www.w3.org/2000/svg">
<rect x="8" y="6" width="67" height="67" rx="20" fill="url(#paint0_linear_711_1106)" fill-opacity="0.7"/>
<path fill-rule="evenodd" clip-rule="evenodd" d="M16.25 34.5C26.0531 34.5 34 26.5531 34 16.75C34 12.7091 32.6497 8.98354 30.3756 6H55C66.0457 6 75 14.9543 75 26V53C75 64.0457 66.0457 73 55 73H28C16.9543 73 8 64.0457 8 53V32.4703C10.4648 33.7665 13.2718 34.5 16.25 34.5Z" fill="url(#paint1_linear_711_1106)"/>
<circle cx="21.5" cy="27" r="1" fill="#83B875"/>
<circle cx="54.25" cy="16.25" r="1.25" fill="#6CA66C"/>
<circle cx="40.25" cy="23.25" r="1.25" fill="#418D54"/>
<path d="M5.23584 92V82.5298H1.69824V81.2627H10.209V82.5298H6.65674V92H5.23584ZM16.5811 91.0405C16.0928 91.4556 15.6216 91.7485 15.1675 91.9194C14.7183 92.0903 14.2349 92.1758 13.7173 92.1758C12.8628 92.1758 12.2061 91.9683 11.7471 91.5532C11.2881 91.1333 11.0586 90.5986 11.0586 89.9492C11.0586 89.5684 11.144 89.2217 11.3149 88.9092C11.4907 88.5918 11.7178 88.3379 11.9961 88.1475C12.2793 87.957 12.5967 87.813 12.9482 87.7153C13.207 87.647 13.5977 87.5811 14.1201 87.5176C15.1846 87.3906 15.9683 87.2393 16.4712 87.0635C16.4761 86.8828 16.4785 86.7681 16.4785 86.7192C16.4785 86.1821 16.354 85.8037 16.105 85.584C15.7681 85.2861 15.2676 85.1372 14.6035 85.1372C13.9834 85.1372 13.5244 85.2471 13.2266 85.4668C12.9336 85.6816 12.7163 86.0649 12.5747 86.6167L11.2856 86.4409C11.4028 85.8892 11.5957 85.4448 11.8643 85.1079C12.1328 84.7661 12.521 84.5049 13.0288 84.3242C13.5366 84.1387 14.125 84.0459 14.7939 84.0459C15.458 84.0459 15.9976 84.124 16.4126 84.2803C16.8276 84.4365 17.1328 84.6343 17.3281 84.8735C17.5234 85.1079 17.6602 85.4058 17.7383 85.7671C17.7822 85.9917 17.8042 86.397 17.8042 86.9829V88.7407C17.8042 89.9663 17.8311 90.7427 17.8848 91.0698C17.9434 91.3921 18.0557 91.7021 18.2217 92H16.8447C16.708 91.7266 16.6201 91.4067 16.5811 91.0405ZM16.4712 88.0962C15.9927 88.2915 15.2749 88.4575 14.3179 88.5942C13.7759 88.6724 13.3926 88.7603 13.168 88.8579C12.9434 88.9556 12.77 89.0996 12.6479 89.29C12.5259 89.4756 12.4648 89.6831 12.4648 89.9126C12.4648 90.2642 12.5967 90.5571 12.8604 90.7915C13.1289 91.0259 13.5195 91.1431 14.0322 91.1431C14.54 91.1431 14.9917 91.0332 15.3872 90.8135C15.7827 90.5889 16.0732 90.2837 16.2588 89.8979C16.4004 89.6001 16.4712 89.1606 16.4712 88.5796V88.0962ZM14.6621 82.0098L13.8345 83.2549H12.3257L13.9077 81.2041H15.314L16.9619 83.2549H15.4678L14.6621 82.0098ZM14.8965 78.6187H16.6616L14.9697 80.6694H13.9077L14.8965 78.6187ZM22.7334 90.8208L22.9238 91.9854C22.5527 92.0635 22.2207 92.1025 21.9277 92.1025C21.4492 92.1025 21.0781 92.0269 20.8145 91.8755C20.5508 91.7241 20.3652 91.5264 20.2578 91.2822C20.1504 91.0332 20.0967 90.5132 20.0967 89.7222V85.2471H19.1299V84.2217H20.0967V82.2954L21.4077 81.5044V84.2217H22.7334V85.2471H21.4077V89.7954C21.4077 90.1714 21.4297 90.4131 21.4736 90.5205C21.5225 90.6279 21.5981 90.7134 21.7007 90.7769C21.8081 90.8403 21.9595 90.8721 22.1548 90.8721C22.3013 90.8721 22.4941 90.855 22.7334 90.8208ZM31.083 90.8208L31.2734 91.9854C30.9023 92.0635 30.5703 92.1025 30.2773 92.1025C29.7988 92.1025 29.4277 92.0269 29.1641 91.8755C28.9004 91.7241 28.7148 91.5264 28.6074 91.2822C28.5 91.0332 28.4463 90.5132 28.4463 89.7222V85.2471H27.4795V84.2217H28.4463V82.2954L29.7573 81.5044V84.2217H31.083V85.2471H29.7573V89.7954C29.7573 90.1714 29.7793 90.4131 29.8232 90.5205C29.8721 90.6279 29.9478 90.7134 30.0503 90.7769C30.1577 90.8403 30.3091 90.8721 30.5044 90.8721C30.6509 90.8721 30.8438 90.855 31.083 90.8208ZM31.8887 88.1108C31.8887 86.6704 32.2891 85.6035 33.0898 84.9102C33.7588 84.334 34.5742 84.0459 35.5361 84.0459C36.6055 84.0459 37.4795 84.3975 38.1582 85.1006C38.8369 85.7988 39.1763 86.7656 39.1763 88.001C39.1763 89.002 39.0249 89.7905 38.7222 90.3667C38.4243 90.938 37.9873 91.3823 37.4111 91.6997C36.8398 92.0171 36.2148 92.1758 35.5361 92.1758C34.4473 92.1758 33.5659 91.8267 32.8921 91.1284C32.2231 90.4302 31.8887 89.4243 31.8887 88.1108ZM33.2437 88.1108C33.2437 89.1069 33.4609 89.854 33.8955 90.3521C34.3301 90.8452 34.877 91.0918 35.5361 91.0918C36.1904 91.0918 36.7349 90.8428 37.1694 90.3447C37.604 89.8467 37.8213 89.0874 37.8213 88.0669C37.8213 87.105 37.6016 86.3774 37.1621 85.8843C36.7275 85.3862 36.1855 85.1372 35.5361 85.1372C34.877 85.1372 34.3301 85.3838 33.8955 85.877C33.4609 86.3701 33.2437 87.1147 33.2437 88.1108ZM45.8047 91.0405C45.3164 91.4556 44.8452 91.7485 44.3911 91.9194C43.9419 92.0903 43.4585 92.1758 42.9409 92.1758C42.0864 92.1758 41.4297 91.9683 40.9707 91.5532C40.5117 91.1333 40.2822 90.5986 40.2822 89.9492C40.2822 89.5684 40.3677 89.2217 40.5386 88.9092C40.7144 88.5918 40.9414 88.3379 41.2197 88.1475C41.5029 87.957 41.8203 87.813 42.1719 87.7153C42.4307 87.647 42.8213 87.5811 43.3438 87.5176C44.4082 87.3906 45.1919 87.2393 45.6948 87.0635C45.6997 86.8828 45.7021 86.7681 45.7021 86.7192C45.7021 86.1821 45.5776 85.8037 45.3286 85.584C44.9917 85.2861 44.4912 85.1372 43.8271 85.1372C43.207 85.1372 42.748 85.2471 42.4502 85.4668C42.1572 85.6816 41.9399 86.0649 41.7983 86.6167L40.5093 86.4409C40.6265 85.8892 40.8193 85.4448 41.0879 85.1079C41.3564 84.7661 41.7446 84.5049 42.2524 84.3242C42.7603 84.1387 43.3486 84.0459 44.0176 84.0459C44.6816 84.0459 45.2212 84.124 45.6362 84.2803C46.0513 84.4365 46.3564 84.6343 46.5518 84.8735C46.7471 85.1079 46.8838 85.4058 46.9619 85.7671C47.0059 85.9917 47.0278 86.397 47.0278 86.9829V88.7407C47.0278 89.9663 47.0547 90.7427 47.1084 91.0698C47.167 91.3921 47.2793 91.7021 47.4453 92H46.0684C45.9316 91.7266 45.8438 91.4067 45.8047 91.0405ZM45.6948 88.0962C45.2163 88.2915 44.4985 88.4575 43.5415 88.5942C42.9995 88.6724 42.6162 88.7603 42.3916 88.8579C42.167 88.9556 41.9937 89.0996 41.8716 89.29C41.7495 89.4756 41.6885 89.6831 41.6885 89.9126C41.6885 90.2642 41.8203 90.5571 42.084 90.7915C42.3525 91.0259 42.7432 91.1431 43.2559 91.1431C43.7637 91.1431 44.2153 91.0332 44.6108 90.8135C45.0063 90.5889 45.2969 90.2837 45.4824 89.8979C45.624 89.6001 45.6948 89.1606 45.6948 88.5796V88.0962ZM43.1313 83.2549L44.1055 81.2041H45.834L44.2227 83.2549H43.1313ZM49.0786 92V84.2217H50.2651V85.3276C50.8364 84.4731 51.6616 84.0459 52.7407 84.0459C53.2095 84.0459 53.6392 84.1313 54.0298 84.3022C54.4253 84.4683 54.7207 84.688 54.916 84.9614C55.1113 85.2349 55.248 85.5596 55.3262 85.9355C55.375 86.1797 55.3994 86.6069 55.3994 87.2173V92H54.0811V87.2686C54.0811 86.7314 54.0298 86.3311 53.9272 86.0674C53.8247 85.7988 53.6416 85.5864 53.3779 85.4302C53.1191 85.269 52.814 85.1885 52.4624 85.1885C51.9009 85.1885 51.415 85.3667 51.0049 85.7231C50.5996 86.0796 50.397 86.7559 50.397 87.752V92H49.0786ZM64.4814 90.8208L64.6719 91.9854C64.3008 92.0635 63.9688 92.1025 63.6758 92.1025C63.1973 92.1025 62.8262 92.0269 62.5625 91.8755C62.2988 91.7241 62.1133 91.5264 62.0059 91.2822C61.8984 91.0332 61.8447 90.5132 61.8447 89.7222V85.2471H60.8779V84.2217H61.8447V82.2954L63.1558 81.5044V84.2217H64.4814V85.2471H63.1558V89.7954C63.1558 90.1714 63.1777 90.4131 63.2217 90.5205C63.2705 90.6279 63.3462 90.7134 63.4487 90.7769C63.5562 90.8403 63.7075 90.8721 63.9028 90.8721C64.0493 90.8721 64.2422 90.855 64.4814 90.8208ZM65.7852 82.7788V81.2627H67.1035V82.7788H65.7852ZM65.7852 92V84.2217H67.1035V92H65.7852ZM74.4424 89.4951L75.8047 89.6636C75.5898 90.4595 75.1919 91.0771 74.6108 91.5166C74.0298 91.9561 73.2876 92.1758 72.3843 92.1758C71.2466 92.1758 70.3433 91.8267 69.6743 91.1284C69.0103 90.4253 68.6782 89.4414 68.6782 88.1768C68.6782 86.8682 69.0151 85.8525 69.689 85.1299C70.3628 84.4072 71.2368 84.0459 72.311 84.0459C73.3511 84.0459 74.2007 84.3999 74.8599 85.1079C75.519 85.8159 75.8486 86.812 75.8486 88.0962C75.8486 88.1743 75.8462 88.2915 75.8413 88.4478H70.0405C70.0894 89.3022 70.3311 89.9565 70.7656 90.4106C71.2002 90.8647 71.7422 91.0918 72.3916 91.0918C72.875 91.0918 73.2876 90.9648 73.6294 90.7109C73.9712 90.457 74.2422 90.0518 74.4424 89.4951ZM70.1138 87.3638H74.457C74.3984 86.7095 74.2324 86.2188 73.959 85.8916C73.5391 85.3838 72.9946 85.1299 72.3257 85.1299C71.7202 85.1299 71.21 85.3325 70.7949 85.7378C70.3848 86.1431 70.1577 86.6851 70.1138 87.3638ZM72.2817 82.0098L71.4541 83.2549H69.9453L71.5273 81.2041H72.9336L74.5815 83.2549H73.0874L72.2817 82.0098ZM72.5161 78.6187H74.2812L72.5894 80.6694H71.5273L72.5161 78.6187ZM80.3457 90.8208L80.5361 91.9854C80.165 92.0635 79.833 92.1025 79.54 92.1025C79.0615 92.1025 78.6904 92.0269 78.4268 91.8755C78.1631 91.7241 77.9775 91.5264 77.8701 91.2822C77.7627 91.0332 77.709 90.5132 77.709 89.7222V85.2471H76.7422V84.2217H77.709V82.2954L79.02 81.5044V84.2217H80.3457V85.2471H79.02V89.7954C79.02 90.1714 79.042 90.4131 79.0859 90.5205C79.1348 90.6279 79.2104 90.7134 79.313 90.7769C79.4204 90.8403 79.5718 90.8721 79.7671 90.8721C79.9136 90.8721 80.1064 90.855 80.3457 90.8208ZM26.1538 109V98.2627H27.4722V104.386L30.5923 101.222H32.2988L29.3252 104.107L32.5991 109H30.9731L28.4023 105.023L27.4722 105.917V109H26.1538ZM33.6538 99.7788V98.2627H34.9722V99.7788H33.6538ZM33.6538 109V101.222H34.9722V109H33.6538ZM42.311 106.495L43.6733 106.664C43.4585 107.459 43.0605 108.077 42.4795 108.517C41.8984 108.956 41.1562 109.176 40.2529 109.176C39.1152 109.176 38.2119 108.827 37.543 108.128C36.8789 107.425 36.5469 106.441 36.5469 105.177C36.5469 103.868 36.8838 102.853 37.5576 102.13C38.2314 101.407 39.1055 101.046 40.1797 101.046C41.2197 101.046 42.0693 101.4 42.7285 102.108C43.3877 102.816 43.7173 103.812 43.7173 105.096C43.7173 105.174 43.7148 105.292 43.71 105.448H37.9092C37.958 106.302 38.1997 106.957 38.6343 107.411C39.0688 107.865 39.6108 108.092 40.2603 108.092C40.7437 108.092 41.1562 107.965 41.498 107.711C41.8398 107.457 42.1108 107.052 42.311 106.495ZM37.9824 104.364H42.3257C42.2671 103.709 42.1011 103.219 41.8276 102.892C41.4077 102.384 40.8633 102.13 40.1943 102.13C39.5889 102.13 39.0786 102.333 38.6636 102.738C38.2534 103.143 38.0264 103.685 37.9824 104.364ZM40.1504 99.0098L39.3228 100.255H37.814L39.396 98.2041H40.8022L42.4502 100.255H40.9561L40.1504 99.0098ZM39.4839 111.38V109.879H40.9854V111.38H39.4839ZM45.3359 109V101.222H46.5151V102.313C46.7593 101.932 47.084 101.627 47.4893 101.397C47.8945 101.163 48.356 101.046 48.8735 101.046C49.4497 101.046 49.9209 101.166 50.2871 101.405C50.6582 101.644 50.9194 101.979 51.0708 102.408C51.686 101.5 52.4868 101.046 53.4731 101.046C54.2446 101.046 54.8379 101.261 55.2529 101.69C55.668 102.115 55.8755 102.772 55.8755 103.661V109H54.5645V104.1C54.5645 103.573 54.5205 103.194 54.4326 102.965C54.3496 102.73 54.1958 102.542 53.9712 102.401C53.7466 102.259 53.4829 102.188 53.1802 102.188C52.6333 102.188 52.1792 102.372 51.8179 102.738C51.4565 103.099 51.2759 103.68 51.2759 104.481V109H49.9575V103.946C49.9575 103.36 49.8501 102.921 49.6353 102.628C49.4204 102.335 49.0688 102.188 48.5806 102.188C48.2095 102.188 47.8652 102.286 47.5479 102.481C47.2354 102.677 47.0083 102.962 46.8667 103.338C46.7251 103.714 46.6543 104.256 46.6543 104.964V109H45.3359Z" fill="white"/>
<circle cx="73.5" cy="13.5" r="13.5" fill="#D9D9D9" fill-opacity="0.7"/>
<path fill-rule="evenodd" clip-rule="evenodd" d="M73.714 12.8998L77.1896 9.42427L76.4825 8.71716L73.0069 12.1927L69.5314 8.71717L68.8243 9.42427L72.2998 12.8998L68.1172 17.0825L68.8243 17.7896L73.0069 13.6069L77.1896 17.7896L77.8967 17.0825L73.714 12.8998Z" fill="black"/>
<g clip-path="url(#clip0_711_1106)">
<path fill-rule="evenodd" clip-rule="evenodd" d="M42.1927 29.0248C42.2246 29.5357 42.1522 30.0477 41.98 30.5297C41.8077 31.0117 41.5393 31.4537 41.1909 31.8287C40.8425 32.2037 40.4214 32.5039 39.9533 32.7111C39.4853 32.9182 38.98 33.028 38.4681 33.0338C37.3742 33.0447 36.3179 32.6346 35.5179 31.8883C34.7179 31.1421 34.2355 30.1169 34.1704 29.0248V26.375H42.1912V29.0233L42.1927 29.0248Z" stroke="white" stroke-width="1.5"/>
<path d="M27.4082 49.3277V43.7758C27.41 41.3757 28.213 39.0448 29.6899 37.1529C31.1669 35.261 33.2332 33.9163 35.5612 33.3322C37.8891 32.748 40.3455 32.9578 42.5407 33.9282C44.7359 34.8986 46.5443 36.5742 47.679 38.6891" stroke="white" stroke-width="1.5"/>
<path d="M48.9565 53.2288H27.4067C26.8892 53.2288 26.3929 53.0232 26.027 52.6573C25.661 52.2913 25.4554 51.795 25.4554 51.2775C25.4554 50.76 25.661 50.2637 26.027 49.8978C26.3929 49.5318 26.8892 49.3263 27.4067 49.3263H31.035M36.8407 46.0275V47.5763M36.8407 37.3971V38.9458M34.9448 43.8881V44.5152C34.9448 44.9161 35.1039 45.3005 35.3872 45.5841C35.6705 45.8676 36.0548 46.0271 36.4557 46.0275H37.2315C37.6313 46.0256 38.0141 45.8654 38.2961 45.582C38.5782 45.2986 38.7365 44.915 38.7365 44.5152V44.0938C38.7366 43.8269 38.656 43.5663 38.5053 43.3461C38.3546 43.126 38.1409 42.9565 37.8921 42.86L35.7848 42.0419C35.5361 41.945 35.3224 41.7752 35.1717 41.5548C35.021 41.3344 34.9404 41.0736 34.9404 40.8067V40.4961C34.9404 40.0952 35.0996 39.7108 35.3829 39.4272C35.6662 39.1436 36.0504 38.9841 36.4513 38.9838H37.2271C37.6277 38.9845 38.0116 39.1442 38.2946 39.4277C38.5776 39.7113 38.7365 40.0955 38.7365 40.4961" stroke="white" stroke-width="1.5"/>
<path fill-rule="evenodd" clip-rule="evenodd" d="M50.5912 49.3262L48.7027 47.4377L46.8142 49.3262L45.4025 47.9146L47.2896 46.0275L45.401 44.139L46.8127 42.7273L48.7012 44.6158L50.5898 42.7273L52 44.139L50.1115 46.0275L52 47.916L50.5898 49.3277L50.5912 49.3262ZM48.7042 37.9688C47.1109 37.969 45.5536 38.4418 44.229 39.3271C42.9044 40.2125 41.8721 41.4707 41.2626 42.9428C40.6531 44.4148 40.4938 46.0345 40.8048 47.5971C41.1158 49.1597 41.8831 50.595 43.0098 51.7214C44.1365 52.8479 45.5719 53.615 47.1345 53.9257C48.6972 54.2365 50.3169 54.0768 51.7888 53.4671C53.2607 52.8573 54.5188 51.8248 55.4039 50.5C56.289 49.1753 56.7615 47.6178 56.7615 46.0246C56.7615 44.9666 56.553 43.9189 56.1481 42.9414C55.7432 41.9639 55.1496 41.0758 54.4014 40.3277C53.6532 39.5797 52.765 38.9863 51.7874 38.5815C50.8099 38.1768 49.7622 37.9686 48.7042 37.9688Z" fill="white"/>
</g>
<defs>
<linearGradient id="paint0_linear_711_1106" x1="10.75" y1="8.75" x2="28" y2="28.75" gradientUnits="userSpaceOnUse">
<stop stop-color="#7AB93C" stop-opacity="0.8"/>
<stop offset="1" stop-color="#2C8D31"/>
</linearGradient>
<linearGradient id="paint1_linear_711_1106" x1="10.9695" y1="3.31361" x2="72.5" y2="69.5" gradientUnits="userSpaceOnUse">
<stop stop-color="#85CA75"/>
<stop offset="1" stop-color="#126F2E"/>
<stop offset="1" stop-color="#737373"/>
</linearGradient>
<clipPath id="clip0_711_1106">
<rect width="35" height="35" fill="white" transform="translate(24 22)"/>
</clipPath>
</defs>
</svg>
