<svg width="104" height="101" viewBox="0 0 104 101" fill="none" xmlns="http://www.w3.org/2000/svg">
<rect x="18" y="10" width="67" height="67" rx="20" fill="url(#paint0_linear_711_957)" fill-opacity="0.7"/>
<path fill-rule="evenodd" clip-rule="evenodd" d="M26.25 38.5C36.0531 38.5 44 30.5531 44 20.75C44 16.7091 42.6497 12.9835 40.3757 10H65C76.0457 10 85 18.9543 85 30V57C85 68.0457 76.0457 77 65 77H38C26.9543 77 18 68.0457 18 57V36.4703C20.4648 37.7665 23.2718 38.5 26.25 38.5Z" fill="url(#paint1_linear_711_957)"/>
<circle cx="31.5" cy="31" r="1" fill="#83B875"/>
<circle cx="64.25" cy="20.25" r="1.25" fill="#6CA66C"/>
<circle cx="50.25" cy="27.25" r="1.25" fill="#418D54"/>
<g clip-path="url(#clip0_711_957)">
<path fill-rule="evenodd" clip-rule="evenodd" d="M52.1927 33.0248C52.2246 33.5357 52.1522 34.0477 51.98 34.5297C51.8078 35.0117 51.5393 35.4537 51.1909 35.8287C50.8425 36.2037 50.4214 36.5039 49.9534 36.7111C49.4853 36.9182 48.98 37.028 48.4681 37.0338C47.3744 37.0443 46.3185 36.634 45.5189 35.8878C44.7192 35.1416 44.2369 34.1166 44.1719 33.0248V30.375H52.1927V33.0233V33.0248Z" stroke="white" stroke-width="1.5"/>
<path d="M37.4097 53.3248V47.7729C37.4108 45.3723 38.2136 43.0409 39.6907 41.1486C41.1677 39.2562 43.2345 37.9114 45.5629 37.3274C47.8914 36.7435 50.3482 36.9539 52.5434 37.9252C54.7387 38.8966 56.5467 40.5732 57.6805 42.6891" stroke="white" stroke-width="1.5"/>
<path d="M58.9565 57.2258H37.4067C36.8892 57.2258 36.3929 57.0203 36.027 56.6543C35.661 56.2884 35.4554 55.7921 35.4554 55.2746C35.4554 54.7571 35.661 54.2608 36.027 53.8948C36.3929 53.5289 36.8892 53.3233 37.4067 53.3233H41.035M46.8421 50.026V51.5748M46.8421 41.3956V42.9444M44.9463 47.8867V48.5138C44.9463 48.9146 45.1054 49.299 45.3887 49.5826C45.672 49.8662 46.0563 50.0257 46.4571 50.026H47.2315C47.6316 50.0245 48.0147 49.8645 48.2971 49.581C48.5794 49.2976 48.7379 48.9138 48.7379 48.5138V48.0923C48.7381 47.8255 48.6575 47.5649 48.5068 47.3447C48.3561 47.1245 48.1423 46.955 47.8936 46.8585L45.7848 46.0404C45.5361 45.9435 45.3224 45.7737 45.1717 45.5533C45.021 45.3329 44.9404 45.0722 44.9404 44.8052V44.4946C44.9404 44.0938 45.0996 43.7093 45.3829 43.4258C45.6662 43.1422 46.0504 42.9827 46.4513 42.9823H47.2257C47.4243 42.9823 47.6209 43.0214 47.8044 43.0974C47.9879 43.1734 48.1546 43.2848 48.295 43.4252C48.4354 43.5657 48.5468 43.7324 48.6228 43.9159C48.6988 44.0993 48.7379 44.296 48.7379 44.4946" stroke="white" stroke-width="1.5"/>
<path fill-rule="evenodd" clip-rule="evenodd" d="M62.3704 51.025H59.7017V53.6938H57.7037V51.025H55.035V49.0285H57.7052V46.3598H59.7017V49.03H62.3704V51.025ZM58.7027 41.9688C57.1095 41.969 55.5522 42.4417 54.2277 43.327C52.9031 44.2123 51.8708 45.4705 51.2613 46.9424C50.6517 48.4144 50.4923 50.034 50.8032 51.5966C51.1141 53.1591 51.8813 54.5944 53.0078 55.7209C54.1344 56.8475 55.5696 57.6147 57.1322 57.9256C58.6947 58.2364 60.3144 58.077 61.7863 57.4675C63.2583 56.8579 64.5164 55.8256 65.4017 54.5011C66.287 53.1765 66.7597 51.6192 66.76 50.026C66.7602 48.9679 66.5519 47.9201 66.147 46.9424C65.7422 45.9648 65.1487 45.0765 64.4005 44.3282C63.6523 43.58 62.764 42.9865 61.7863 42.5817C60.8087 42.1768 59.7608 41.9686 58.7027 41.9688Z" fill="white"/>
</g>
<path d="M11.9072 97V86.2627H14.0459L16.5874 93.8652C16.8218 94.5732 16.9927 95.103 17.1001 95.4546C17.2222 95.064 17.4126 94.4902 17.6714 93.7334L20.2422 86.2627H22.1538V97H20.7842V88.0132L17.6641 97H16.3823L13.2769 87.8594V97H11.9072ZM25.1421 93.1108C25.1421 94.0728 25.3594 94.8174 25.7939 95.3447C26.2041 95.8428 26.751 96.0918 27.4346 96.0918C28.1182 96.0918 28.6626 95.8428 29.0679 95.3447C29.5024 94.8125 29.7197 94.0532 29.7197 93.0669C29.7197 92.1343 29.5 91.4067 29.0605 90.8843C28.6504 90.3862 28.1084 90.1372 27.4346 90.1372C26.7461 90.1372 26.1992 90.3838 25.7939 90.877C25.3594 91.4043 25.1421 92.1489 25.1421 93.1108ZM31.2505 90.562V89.0312H32.6641V90.2397C32.6641 90.8452 32.5713 91.3091 32.3857 91.6313C32.1465 92.0513 31.7095 92.437 31.0747 92.7886C31.0747 92.8569 31.0747 92.9277 31.0747 93.001C31.0747 94.8174 30.4888 96.0503 29.3169 96.6997C28.7407 97.0171 28.1133 97.1758 27.4346 97.1758C26.3213 97.1758 25.4399 96.8267 24.7905 96.1284C24.1216 95.4058 23.7871 94.3999 23.7871 93.1108C23.7871 91.6704 24.1875 90.6035 24.9883 89.9102C25.6572 89.334 26.4727 89.0459 27.4346 89.0459C28.5039 89.0459 29.3779 89.395 30.0566 90.0933C30.5693 90.6255 30.8892 91.3115 31.0161 92.1514C31.3481 91.9463 31.585 91.7339 31.7266 91.5142C31.873 91.2944 31.9438 90.9771 31.939 90.562H31.2505ZM27.0977 87.376C27.376 87.3467 27.5542 87.3198 27.6323 87.2954C27.8911 87.2075 28.0229 87.0708 28.0278 86.8853C28.0327 86.7729 27.9644 86.6777 27.8228 86.5996C27.6177 86.4873 27.293 86.4312 26.8486 86.4312C26.6973 86.4312 26.4678 86.4409 26.1602 86.4604L26.0796 85.7134C26.27 85.6743 26.6216 85.6572 27.1343 85.6621C27.7349 85.667 28.2256 85.7646 28.6064 85.9551C29.0264 86.1602 29.2412 86.4458 29.251 86.812C29.2705 87.4175 28.8262 87.7764 27.918 87.8887V88.2549H27.0977V87.376ZM41.1748 95.8208L41.3652 96.9854C40.9941 97.0635 40.6621 97.1025 40.3691 97.1025C39.8906 97.1025 39.5195 97.0269 39.2559 96.8755C38.9922 96.7241 38.8066 96.5264 38.6992 96.2822C38.5918 96.0332 38.5381 95.5132 38.5381 94.7222V90.2471H37.5713V89.2217H38.5381V87.2954L39.8491 86.5044V89.2217H41.1748V90.2471H39.8491V94.7954C39.8491 95.1714 39.8711 95.4131 39.915 95.5205C39.9639 95.6279 40.0396 95.7134 40.1421 95.7769C40.2495 95.8403 40.4009 95.8721 40.5962 95.8721C40.7427 95.8721 40.9355 95.855 41.1748 95.8208ZM42.4785 87.7788V86.2627H43.7969V87.7788H42.4785ZM42.4785 97V89.2217H43.7969V97H42.4785ZM51.1357 94.4951L52.498 94.6636C52.2832 95.4595 51.8853 96.0771 51.3042 96.5166C50.7231 96.9561 49.981 97.1758 49.0776 97.1758C47.9399 97.1758 47.0366 96.8267 46.3677 96.1284C45.7036 95.4253 45.3716 94.4414 45.3716 93.1768C45.3716 91.8682 45.7085 90.8525 46.3823 90.1299C47.0562 89.4072 47.9302 89.0459 49.0044 89.0459C50.0444 89.0459 50.894 89.3999 51.5532 90.1079C52.2124 90.8159 52.542 91.812 52.542 93.0962C52.542 93.1743 52.5396 93.2915 52.5347 93.4478H46.7339C46.7827 94.3022 47.0244 94.9565 47.459 95.4106C47.8936 95.8647 48.4355 96.0918 49.085 96.0918C49.5684 96.0918 49.981 95.9648 50.3228 95.7109C50.6646 95.457 50.9355 95.0518 51.1357 94.4951ZM46.8071 92.3638H51.1504C51.0918 91.7095 50.9258 91.2188 50.6523 90.8916C50.2324 90.3838 49.688 90.1299 49.019 90.1299C48.4136 90.1299 47.9033 90.3325 47.4883 90.7378C47.0781 91.1431 46.8511 91.6851 46.8071 92.3638ZM48.9751 87.0098L48.1475 88.2549H46.6387L48.2207 86.2041H49.627L51.2749 88.2549H49.7808L48.9751 87.0098ZM49.2095 83.6187H50.9746L49.2827 85.6694H48.2207L49.2095 83.6187ZM57.0391 95.8208L57.2295 96.9854C56.8584 97.0635 56.5264 97.1025 56.2334 97.1025C55.7549 97.1025 55.3838 97.0269 55.1201 96.8755C54.8564 96.7241 54.6709 96.5264 54.5635 96.2822C54.4561 96.0332 54.4023 95.5132 54.4023 94.7222V90.2471H53.4355V89.2217H54.4023V87.2954L55.7134 86.5044V89.2217H57.0391V90.2471H55.7134V94.7954C55.7134 95.1714 55.7354 95.4131 55.7793 95.5205C55.8281 95.6279 55.9038 95.7134 56.0063 95.7769C56.1138 95.8403 56.2651 95.8721 56.4604 95.8721C56.6069 95.8721 56.7998 95.855 57.0391 95.8208ZM62.5176 97V86.2627H63.8359V92.3857L66.9561 89.2217H68.6626L65.689 92.1074L68.9629 97H67.3369L64.7661 93.0229L63.8359 93.9165V97H62.5176ZM70.0176 87.7788V86.2627H71.3359V87.7788H70.0176ZM70.0176 97V89.2217H71.3359V97H70.0176ZM78.6748 94.4951L80.0371 94.6636C79.8223 95.4595 79.4243 96.0771 78.8433 96.5166C78.2622 96.9561 77.52 97.1758 76.6167 97.1758C75.479 97.1758 74.5757 96.8267 73.9067 96.1284C73.2427 95.4253 72.9106 94.4414 72.9106 93.1768C72.9106 91.8682 73.2476 90.8525 73.9214 90.1299C74.5952 89.4072 75.4692 89.0459 76.5435 89.0459C77.5835 89.0459 78.4331 89.3999 79.0923 90.1079C79.7515 90.8159 80.0811 91.812 80.0811 93.0962C80.0811 93.1743 80.0786 93.2915 80.0737 93.4478H74.2729C74.3218 94.3022 74.5635 94.9565 74.998 95.4106C75.4326 95.8647 75.9746 96.0918 76.624 96.0918C77.1074 96.0918 77.52 95.9648 77.8618 95.7109C78.2036 95.457 78.4746 95.0518 78.6748 94.4951ZM74.3462 92.3638H78.6895C78.6309 91.7095 78.4648 91.2188 78.1914 90.8916C77.7715 90.3838 77.2271 90.1299 76.5581 90.1299C75.9526 90.1299 75.4424 90.3325 75.0273 90.7378C74.6172 91.1431 74.3901 91.6851 74.3462 92.3638ZM76.5142 87.0098L75.6865 88.2549H74.1777L75.7598 86.2041H77.166L78.814 88.2549H77.3198L76.5142 87.0098ZM75.8477 99.3804V97.8789H77.3491V99.3804H75.8477ZM81.6997 97V89.2217H82.8789V90.313C83.123 89.9321 83.4478 89.627 83.853 89.3975C84.2583 89.1631 84.7197 89.0459 85.2373 89.0459C85.8135 89.0459 86.2847 89.1655 86.6509 89.4048C87.022 89.644 87.2832 89.9785 87.4346 90.4082C88.0498 89.5 88.8506 89.0459 89.8369 89.0459C90.6084 89.0459 91.2017 89.2607 91.6167 89.6904C92.0317 90.1152 92.2393 90.772 92.2393 91.6606V97H90.9282V92.1001C90.9282 91.5728 90.8843 91.1943 90.7964 90.9648C90.7134 90.7305 90.5596 90.5425 90.335 90.4009C90.1104 90.2593 89.8467 90.1885 89.5439 90.1885C88.9971 90.1885 88.543 90.3716 88.1816 90.7378C87.8203 91.0991 87.6396 91.6802 87.6396 92.481V97H86.3213V91.9463C86.3213 91.3604 86.2139 90.9209 85.999 90.6279C85.7842 90.335 85.4326 90.1885 84.9443 90.1885C84.5732 90.1885 84.229 90.2861 83.9116 90.4814C83.5991 90.6768 83.3721 90.9624 83.2305 91.3384C83.0889 91.7144 83.0181 92.2563 83.0181 92.9644V97H81.6997Z" fill="white"/>
<circle cx="80.5" cy="14.5" r="13.5" fill="#D9D9D9" fill-opacity="0.7"/>
<path fill-rule="evenodd" clip-rule="evenodd" d="M80.714 13.8998L84.1896 10.4243L83.4825 9.71716L80.0069 13.1927L76.5314 9.71717L75.8243 10.4243L79.2998 13.8998L75.1172 18.0825L75.8243 18.7896L80.0069 14.6069L84.1896 18.7896L84.8967 18.0825L80.714 13.8998Z" fill="black"/>
<defs>
<linearGradient id="paint0_linear_711_957" x1="20.75" y1="12.75" x2="38" y2="32.75" gradientUnits="userSpaceOnUse">
<stop stop-color="#7AB93C" stop-opacity="0.8"/>
<stop offset="1" stop-color="#2C8D31"/>
</linearGradient>
<linearGradient id="paint1_linear_711_957" x1="20.9695" y1="7.31361" x2="82.5" y2="73.5" gradientUnits="userSpaceOnUse">
<stop stop-color="#85CA75"/>
<stop offset="1" stop-color="#126F2E"/>
<stop offset="1" stop-color="#737373"/>
</linearGradient>
<clipPath id="clip0_711_957">
<rect width="35" height="35" fill="white" transform="translate(34 26)"/>
</clipPath>
</defs>
</svg>
