<svg width="108" height="113" viewBox="0 0 108 113" fill="none" xmlns="http://www.w3.org/2000/svg">
<rect x="21" y="6" width="67" height="67" rx="20" fill="url(#paint0_linear_711_1057)" fill-opacity="0.7"/>
<path fill-rule="evenodd" clip-rule="evenodd" d="M29.25 34.5C39.0531 34.5 47 26.5531 47 16.75C47 12.7091 45.6497 8.98354 43.3756 6L68 6C79.0457 6 88 14.9543 88 26V53C88 64.0457 79.0457 73 68 73H41C29.9543 73 21 64.0457 21 53V32.4703C23.4648 33.7665 26.2718 34.5 29.25 34.5Z" fill="url(#paint1_linear_711_1057)"/>
<circle cx="34.5" cy="27" r="1" fill="#83B875"/>
<circle cx="67.25" cy="16.25" r="1.25" fill="#6CA66C"/>
<circle cx="53.25" cy="23.25" r="1.25" fill="#418D54"/>
<path d="M2.62061 92V81.2627H4.0415V85.6719H9.62256V81.2627H11.0435V92H9.62256V86.939H4.0415V92H2.62061ZM18.3457 92V90.8574C17.7402 91.7363 16.9175 92.1758 15.8774 92.1758C15.4185 92.1758 14.9888 92.0879 14.5884 91.9121C14.1929 91.7363 13.8975 91.5166 13.7021 91.2529C13.5117 90.9844 13.3774 90.6572 13.2993 90.2715C13.2456 90.0127 13.2188 89.6025 13.2188 89.041V84.2217H14.5371V88.5356C14.5371 89.2241 14.564 89.688 14.6177 89.9272C14.7007 90.2739 14.8765 90.5474 15.145 90.7476C15.4136 90.9429 15.7456 91.0405 16.1411 91.0405C16.5366 91.0405 16.9077 90.9404 17.2544 90.7402C17.6011 90.5352 17.8452 90.2593 17.9868 89.9126C18.1333 89.561 18.2065 89.0532 18.2065 88.3892V84.2217H19.5249V92H18.3457ZM21.5391 94.9956L21.3926 93.7578C21.6807 93.8359 21.9321 93.875 22.147 93.875C22.4399 93.875 22.6743 93.8262 22.8501 93.7285C23.0259 93.6309 23.1699 93.4941 23.2822 93.3184C23.3652 93.1865 23.4995 92.8594 23.6851 92.3369C23.7095 92.2637 23.7485 92.1562 23.8022 92.0146L20.8506 84.2217H22.2715L23.8901 88.7261C24.1001 89.2974 24.2881 89.8979 24.4541 90.5278C24.6055 89.9224 24.7861 89.3315 24.9961 88.7554L26.6587 84.2217H27.9771L25.0181 92.1318C24.7007 92.9863 24.4541 93.5747 24.2783 93.897C24.0439 94.3315 23.7754 94.6489 23.4727 94.8491C23.1699 95.0542 22.8086 95.1567 22.3887 95.1567C22.1348 95.1567 21.8516 95.103 21.5391 94.9956ZM24.0513 82.376C24.3296 82.3467 24.5078 82.3198 24.5859 82.2954C24.8447 82.2075 24.9766 82.0708 24.9814 81.8853C24.9863 81.7729 24.918 81.6777 24.7764 81.5996C24.5713 81.4873 24.2466 81.4312 23.8022 81.4312C23.6509 81.4312 23.4214 81.4409 23.1138 81.4604L23.0332 80.7134C23.2236 80.6743 23.5752 80.6572 24.0879 80.6621C24.6885 80.667 25.1792 80.7646 25.5601 80.9551C25.98 81.1602 26.1948 81.4458 26.2046 81.812C26.2241 82.4175 25.7798 82.7764 24.8716 82.8887V83.2549H24.0513V82.376ZM36.1509 90.8208L36.3413 91.9854C35.9702 92.0635 35.6382 92.1025 35.3452 92.1025C34.8667 92.1025 34.4956 92.0269 34.2319 91.8755C33.9683 91.7241 33.7827 91.5264 33.6753 91.2822C33.5679 91.0332 33.5142 90.5132 33.5142 89.7222V85.2471H32.5474V84.2217H33.5142V82.2954L34.8252 81.5044V84.2217H36.1509V85.2471H34.8252V89.7954C34.8252 90.1714 34.8472 90.4131 34.8911 90.5205C34.9399 90.6279 35.0156 90.7134 35.1182 90.7769C35.2256 90.8403 35.377 90.8721 35.5723 90.8721C35.7188 90.8721 35.9116 90.855 36.1509 90.8208ZM37.4546 82.7788V81.2627H38.7729V82.7788H37.4546ZM37.4546 92V84.2217H38.7729V92H37.4546ZM46.1118 89.4951L47.4741 89.6636C47.2593 90.4595 46.8613 91.0771 46.2803 91.5166C45.6992 91.9561 44.957 92.1758 44.0537 92.1758C42.916 92.1758 42.0127 91.8267 41.3438 91.1284C40.6797 90.4253 40.3477 89.4414 40.3477 88.1768C40.3477 86.8682 40.6846 85.8525 41.3584 85.1299C42.0322 84.4072 42.9062 84.0459 43.9805 84.0459C45.0205 84.0459 45.8701 84.3999 46.5293 85.1079C47.1885 85.8159 47.5181 86.812 47.5181 88.0962C47.5181 88.1743 47.5156 88.2915 47.5107 88.4478H41.71C41.7588 89.3022 42.0005 89.9565 42.4351 90.4106C42.8696 90.8647 43.4116 91.0918 44.061 91.0918C44.5444 91.0918 44.957 90.9648 45.2988 90.7109C45.6406 90.457 45.9116 90.0518 46.1118 89.4951ZM41.7832 87.3638H46.1265C46.0679 86.7095 45.9019 86.2188 45.6284 85.8916C45.2085 85.3838 44.6641 85.1299 43.9951 85.1299C43.3896 85.1299 42.8794 85.3325 42.4644 85.7378C42.0542 86.1431 41.8271 86.6851 41.7832 87.3638ZM43.9512 82.0098L43.1235 83.2549H41.6147L43.1968 81.2041H44.603L46.251 83.2549H44.7568L43.9512 82.0098ZM44.1855 78.6187H45.9507L44.2588 80.6694H43.1968L44.1855 78.6187ZM52.0151 90.8208L52.2056 91.9854C51.8345 92.0635 51.5024 92.1025 51.2095 92.1025C50.731 92.1025 50.3599 92.0269 50.0962 91.8755C49.8325 91.7241 49.647 91.5264 49.5396 91.2822C49.4321 91.0332 49.3784 90.5132 49.3784 89.7222V85.2471H48.4116V84.2217H49.3784V82.2954L50.6895 81.5044V84.2217H52.0151V85.2471H50.6895V89.7954C50.6895 90.1714 50.7114 90.4131 50.7554 90.5205C50.8042 90.6279 50.8799 90.7134 50.9824 90.7769C51.0898 90.8403 51.2412 90.8721 51.4365 90.8721C51.583 90.8721 51.7759 90.855 52.0151 90.8208ZM57.4937 92V81.2627H58.812V87.3857L61.9321 84.2217H63.6387L60.665 87.1074L63.939 92H62.313L59.7422 88.0229L58.812 88.9165V92H57.4937ZM64.9937 82.7788V81.2627H66.312V82.7788H64.9937ZM64.9937 92V84.2217H66.312V92H64.9937ZM73.6509 89.4951L75.0132 89.6636C74.7983 90.4595 74.4004 91.0771 73.8193 91.5166C73.2383 91.9561 72.4961 92.1758 71.5928 92.1758C70.4551 92.1758 69.5518 91.8267 68.8828 91.1284C68.2188 90.4253 67.8867 89.4414 67.8867 88.1768C67.8867 86.8682 68.2236 85.8525 68.8975 85.1299C69.5713 84.4072 70.4453 84.0459 71.5195 84.0459C72.5596 84.0459 73.4092 84.3999 74.0684 85.1079C74.7275 85.8159 75.0571 86.812 75.0571 88.0962C75.0571 88.1743 75.0547 88.2915 75.0498 88.4478H69.249C69.2979 89.3022 69.5396 89.9565 69.9741 90.4106C70.4087 90.8647 70.9507 91.0918 71.6001 91.0918C72.0835 91.0918 72.4961 90.9648 72.8379 90.7109C73.1797 90.457 73.4507 90.0518 73.6509 89.4951ZM69.3223 87.3638H73.6655C73.6069 86.7095 73.4409 86.2188 73.1675 85.8916C72.7476 85.3838 72.2031 85.1299 71.5342 85.1299C70.9287 85.1299 70.4185 85.3325 70.0034 85.7378C69.5933 86.1431 69.3662 86.6851 69.3223 87.3638ZM71.4902 82.0098L70.6626 83.2549H69.1538L70.7358 81.2041H72.1421L73.79 83.2549H72.2959L71.4902 82.0098ZM70.8237 94.3804V92.8789H72.3252V94.3804H70.8237ZM76.6758 92V84.2217H77.855V85.313C78.0991 84.9321 78.4238 84.627 78.8291 84.3975C79.2344 84.1631 79.6958 84.0459 80.2134 84.0459C80.7896 84.0459 81.2607 84.1655 81.627 84.4048C81.998 84.644 82.2593 84.9785 82.4106 85.4082C83.0259 84.5 83.8267 84.0459 84.813 84.0459C85.5845 84.0459 86.1777 84.2607 86.5928 84.6904C87.0078 85.1152 87.2153 85.772 87.2153 86.6606V92H85.9043V87.1001C85.9043 86.5728 85.8604 86.1943 85.7725 85.9648C85.6895 85.7305 85.5356 85.5425 85.311 85.4009C85.0864 85.2593 84.8228 85.1885 84.52 85.1885C83.9731 85.1885 83.519 85.3716 83.1577 85.7378C82.7964 86.0991 82.6157 86.6802 82.6157 87.481V92H81.2974V86.9463C81.2974 86.3604 81.1899 85.9209 80.9751 85.6279C80.7603 85.335 80.4087 85.1885 79.9204 85.1885C79.5493 85.1885 79.2051 85.2861 78.8877 85.4814C78.5752 85.6768 78.3481 85.9624 78.2065 86.3384C78.0649 86.7144 77.9941 87.2563 77.9941 87.9644V92H76.6758ZM96.2241 90.8208L96.4146 91.9854C96.0435 92.0635 95.7114 92.1025 95.4185 92.1025C94.9399 92.1025 94.5688 92.0269 94.3052 91.8755C94.0415 91.7241 93.856 91.5264 93.7485 91.2822C93.6411 91.0332 93.5874 90.5132 93.5874 89.7222V85.2471H92.6206V84.2217H93.5874V82.2954L94.8984 81.5044V84.2217H96.2241V85.2471H94.8984V89.7954C94.8984 90.1714 94.9204 90.4131 94.9644 90.5205C95.0132 90.6279 95.0889 90.7134 95.1914 90.7769C95.2988 90.8403 95.4502 90.8721 95.6455 90.8721C95.792 90.8721 95.9849 90.855 96.2241 90.8208ZM104.706 85.7524V84.2217H106.119V85.4302C106.119 86.1968 106.031 86.7314 105.855 87.0342C105.406 87.8154 104.72 88.2549 103.797 88.3525V92H102.618V90.8574C102.013 91.7363 101.19 92.1758 100.15 92.1758C99.6958 92.1758 99.2686 92.0903 98.8682 91.9194C98.4727 91.7437 98.1772 91.5215 97.9819 91.2529C97.7866 90.9844 97.6499 90.6572 97.5718 90.2715C97.5181 90.0078 97.4912 89.5977 97.4912 89.041V84.2217H98.8096V88.5356C98.8096 89.2339 98.8364 89.6978 98.8901 89.9272C99.061 90.6694 99.5688 91.0405 100.414 91.0405C100.819 91.0405 101.192 90.938 101.534 90.7329C101.881 90.5278 102.125 90.252 102.267 89.9053C102.408 89.5586 102.479 89.0532 102.479 88.3892V84.2217H103.797V87.7959C104.417 87.6885 104.881 87.3979 105.189 86.9243C105.326 86.7192 105.394 86.3286 105.394 85.7524H104.706ZM99.6519 94.3804V92.8789H101.153V94.3804H99.6519ZM43.248 100.072H40.7139V99.105H43.248V98.2627H44.5591V99.105H45.6211V100.072H44.5591V109H43.3359V108.019C42.8428 108.79 42.1177 109.176 41.1606 109.176C40.5405 109.176 39.9692 109.005 39.4468 108.663C38.9292 108.321 38.5264 107.845 38.2383 107.235C37.9551 106.62 37.8135 105.914 37.8135 105.118C37.8135 104.342 37.9429 103.639 38.2017 103.009C38.4604 102.374 38.8486 101.888 39.3662 101.551C39.8838 101.214 40.4624 101.046 41.1021 101.046C41.5708 101.046 41.9883 101.146 42.3545 101.346C42.7207 101.542 43.0186 101.798 43.248 102.115V100.072ZM39.1685 105.118C39.1685 106.114 39.3784 106.859 39.7983 107.352C40.2183 107.845 40.7139 108.092 41.2852 108.092C41.8613 108.092 42.3496 107.857 42.75 107.389C43.1553 106.915 43.3579 106.195 43.3579 105.228C43.3579 104.164 43.1528 103.382 42.7427 102.884C42.3325 102.386 41.8271 102.137 41.2266 102.137C40.6406 102.137 40.1499 102.376 39.7544 102.855C39.3638 103.333 39.1685 104.088 39.1685 105.118ZM46.1484 105.111C46.1484 103.67 46.5488 102.604 47.3496 101.91C48.0186 101.334 48.834 101.046 49.7959 101.046C50.8652 101.046 51.7393 101.397 52.418 102.101C53.0967 102.799 53.436 103.766 53.436 105.001C53.436 106.002 53.2847 106.791 52.9819 107.367C52.6841 107.938 52.2471 108.382 51.6709 108.7C51.0996 109.017 50.4746 109.176 49.7959 109.176C48.707 109.176 47.8257 108.827 47.1519 108.128C46.4829 107.43 46.1484 106.424 46.1484 105.111ZM47.5034 105.111C47.5034 106.107 47.7207 106.854 48.1553 107.352C48.5898 107.845 49.1367 108.092 49.7959 108.092C50.4502 108.092 50.9946 107.843 51.4292 107.345C51.8638 106.847 52.0811 106.087 52.0811 105.067C52.0811 104.105 51.8613 103.377 51.4219 102.884C50.9873 102.386 50.4453 102.137 49.7959 102.137C49.1367 102.137 48.5898 102.384 48.1553 102.877C47.7207 103.37 47.5034 104.115 47.5034 105.111ZM49.8105 99.0098L48.9829 100.255H47.4741L49.0562 98.2041H50.4624L52.1104 100.255H50.6162L49.8105 99.0098ZM48.9902 111.38V109.879H50.4917V111.38H48.9902ZM54.9888 109V101.222H56.1753V102.328C56.7466 101.473 57.5718 101.046 58.6509 101.046C59.1196 101.046 59.5493 101.131 59.9399 101.302C60.3354 101.468 60.6309 101.688 60.8262 101.961C61.0215 102.235 61.1582 102.56 61.2363 102.936C61.2852 103.18 61.3096 103.607 61.3096 104.217V109H59.9912V104.269C59.9912 103.731 59.9399 103.331 59.8374 103.067C59.7349 102.799 59.5518 102.586 59.2881 102.43C59.0293 102.269 58.7241 102.188 58.3726 102.188C57.811 102.188 57.3252 102.367 56.915 102.723C56.5098 103.08 56.3071 103.756 56.3071 104.752V109H54.9888ZM63.0967 109.645L64.3784 109.835C64.4321 110.23 64.5811 110.519 64.8252 110.699C65.1523 110.943 65.5991 111.065 66.1655 111.065C66.7759 111.065 67.2471 110.943 67.5791 110.699C67.9111 110.455 68.1357 110.113 68.2529 109.674C68.3213 109.405 68.353 108.841 68.3481 107.982C67.772 108.661 67.0542 109 66.1948 109C65.1255 109 64.2979 108.614 63.7119 107.843C63.126 107.071 62.833 106.146 62.833 105.067C62.833 104.325 62.9673 103.641 63.2358 103.016C63.5044 102.386 63.8926 101.9 64.4004 101.559C64.9131 101.217 65.5137 101.046 66.2021 101.046C67.1201 101.046 67.877 101.417 68.4727 102.159V101.222H69.6885V107.945C69.6885 109.156 69.564 110.013 69.3149 110.516C69.0708 111.024 68.6802 111.424 68.1431 111.717C67.6108 112.01 66.9541 112.157 66.1729 112.157C65.2451 112.157 64.4956 111.947 63.9243 111.527C63.353 111.112 63.0771 110.484 63.0967 109.645ZM64.188 104.972C64.188 105.992 64.3906 106.737 64.7959 107.206C65.2012 107.674 65.709 107.909 66.3193 107.909C66.9248 107.909 67.4326 107.677 67.8428 107.213C68.2529 106.744 68.458 106.012 68.458 105.016C68.458 104.063 68.2456 103.346 67.8208 102.862C67.4009 102.379 66.8931 102.137 66.2974 102.137C65.7114 102.137 65.2134 102.376 64.8032 102.855C64.3931 103.329 64.188 104.034 64.188 104.972Z" fill="white"/>
<circle cx="86.5" cy="13.5" r="13.5" fill="#D9D9D9" fill-opacity="0.7"/>
<path fill-rule="evenodd" clip-rule="evenodd" d="M86.714 12.8998L90.1896 9.42427L89.4825 8.71716L86.0069 12.1927L82.5314 8.71717L81.8243 9.42427L85.2998 12.8998L81.1172 17.0825L81.8243 17.7896L86.0069 13.6069L90.1896 17.7896L90.8967 17.0825L86.714 12.8998Z" fill="black"/>
<g clip-path="url(#clip0_711_1057)">
<path fill-rule="evenodd" clip-rule="evenodd" d="M55.1927 29.0248C55.2246 29.5357 55.1522 30.0477 54.98 30.5297C54.8077 31.0117 54.5393 31.4537 54.1909 31.8287C53.8425 32.2037 53.4214 32.5039 52.9533 32.7111C52.4853 32.9182 51.98 33.028 51.4681 33.0338C50.3742 33.0447 49.3179 32.6346 48.5179 31.8883C47.7179 31.1421 47.2355 30.1169 47.1704 29.0248V26.375H55.1912V29.0233L55.1927 29.0248Z" stroke="white" stroke-width="1.5"/>
<path d="M40.4082 49.3277V43.7758C40.41 41.3757 41.213 39.0448 42.6899 37.1529C44.1669 35.261 46.2332 33.9163 48.5612 33.3322C50.8891 32.748 53.3455 32.9578 55.5407 33.9282C57.7359 34.8986 59.5443 36.5742 60.679 38.6891" stroke="white" stroke-width="1.5"/>
<path d="M61.9565 53.2288H40.4067C39.8892 53.2288 39.3929 53.0232 39.027 52.6573C38.661 52.2913 38.4554 51.795 38.4554 51.2775C38.4554 50.76 38.661 50.2637 39.027 49.8978C39.3929 49.5318 39.8892 49.3263 40.4067 49.3263H44.035M49.8407 46.0275V47.5763M49.8407 37.3971V38.9458M47.9448 43.8881V44.5152C47.9448 44.9161 48.1039 45.3005 48.3872 45.5841C48.6705 45.8676 49.0548 46.0271 49.4557 46.0275H50.2315C50.6313 46.0256 51.0141 45.8654 51.2961 45.582C51.5782 45.2986 51.7365 44.915 51.7365 44.5152V44.0938C51.7366 43.8269 51.656 43.5663 51.5053 43.3461C51.3546 43.126 51.1409 42.9565 50.8921 42.86L48.7848 42.0419C48.5361 41.945 48.3224 41.7752 48.1717 41.5548C48.021 41.3344 47.9404 41.0736 47.9404 40.8067V40.4961C47.9404 40.0952 48.0996 39.7108 48.3829 39.4272C48.6662 39.1436 49.0504 38.9841 49.4513 38.9838H50.2271C50.6277 38.9845 51.0116 39.1442 51.2946 39.4277C51.5776 39.7113 51.7365 40.0955 51.7365 40.4961" stroke="white" stroke-width="1.5"/>
<path fill-rule="evenodd" clip-rule="evenodd" d="M63.5912 49.3262L61.7027 47.4377L59.8142 49.3262L58.4025 47.9146L60.2896 46.0275L58.401 44.139L59.8127 42.7273L61.7012 44.6158L63.5898 42.7273L65 44.139L63.1115 46.0275L65 47.916L63.5898 49.3277L63.5912 49.3262ZM61.7042 37.9688C60.1109 37.969 58.5536 38.4418 57.229 39.3271C55.9044 40.2125 54.8721 41.4707 54.2626 42.9428C53.6531 44.4148 53.4938 46.0345 53.8048 47.5971C54.1158 49.1597 54.8831 50.595 56.0098 51.7214C57.1365 52.8479 58.5719 53.615 60.1345 53.9257C61.6972 54.2365 63.3169 54.0768 64.7888 53.4671C66.2607 52.8573 67.5188 51.8248 68.4039 50.5C69.289 49.1753 69.7615 47.6178 69.7615 46.0246C69.7615 44.9666 69.553 43.9189 69.1481 42.9414C68.7432 41.9639 68.1496 41.0758 67.4014 40.3277C66.6532 39.5797 65.765 38.9863 64.7874 38.5815C63.8099 38.1768 62.7622 37.9686 61.7042 37.9688Z" fill="white"/>
</g>
<defs>
<linearGradient id="paint0_linear_711_1057" x1="23.75" y1="8.75" x2="41" y2="28.75" gradientUnits="userSpaceOnUse">
<stop stop-color="#7AB93C" stop-opacity="0.8"/>
<stop offset="1" stop-color="#2C8D31"/>
</linearGradient>
<linearGradient id="paint1_linear_711_1057" x1="23.9695" y1="3.31361" x2="85.5" y2="69.5" gradientUnits="userSpaceOnUse">
<stop stop-color="#85CA75"/>
<stop offset="1" stop-color="#126F2E"/>
<stop offset="1" stop-color="#737373"/>
</linearGradient>
<clipPath id="clip0_711_1057">
<rect width="35" height="35" fill="white" transform="translate(37 22)"/>
</clipPath>
</defs>
</svg>
