<svg width="84" height="112" viewBox="0 0 84 112" fill="none" xmlns="http://www.w3.org/2000/svg">
<rect x="7" y="7" width="67" height="67" rx="20" fill="url(#paint0_linear_721_1279)" fill-opacity="0.7"/>
<path fill-rule="evenodd" clip-rule="evenodd" d="M15.25 35.5C25.0531 35.5 33 27.5531 33 17.75C33 13.7091 31.6497 9.98354 29.3756 7H54C65.0457 7 74 15.9543 74 27V54C74 65.0457 65.0457 74 54 74H27C15.9543 74 7 65.0457 7 54V33.4703C9.46482 34.7665 12.2718 35.5 15.25 35.5Z" fill="url(#paint1_linear_721_1279)"/>
<circle cx="20.5" cy="28" r="1" fill="#83B875"/>
<circle cx="53.25" cy="17.25" r="1.25" fill="#6CA66C"/>
<circle cx="39.25" cy="24.25" r="1.25" fill="#418D54"/>
<g clip-path="url(#clip0_721_1279)">
<path d="M52.792 30.4142H34.0174C32.6424 30.4142 31.3237 30.9604 30.3515 31.9327C29.3792 32.9049 28.833 34.2236 28.833 35.5986V42.2559" stroke="white" stroke-width="1.5"/>
<path d="M49.7659 27.375L52.7964 30.4142L49.7572 33.4446M28.8359 50.7696H47.6105C48.9855 50.7696 50.3042 50.2234 51.2764 49.2511C52.2487 48.2789 52.7949 46.9602 52.7949 45.5852V39.5302" stroke="white" stroke-width="1.5"/>
<path d="M31.8634 53.8088L28.833 50.7711L31.8722 47.7319" stroke="white" stroke-width="1.5"/>
</g>
<path d="M8.81836 87.2354L10.2393 87.5942C9.94141 88.7612 9.4043 89.6523 8.62793 90.2676C7.85645 90.8779 6.91162 91.1831 5.79346 91.1831C4.63623 91.1831 3.69385 90.9487 2.96631 90.48C2.24365 90.0063 1.69189 89.3228 1.31104 88.4292C0.935059 87.5356 0.74707 86.5762 0.74707 85.5508C0.74707 84.4326 0.959473 83.4585 1.38428 82.6284C1.81396 81.7935 2.42188 81.1611 3.20801 80.7314C3.99902 80.2969 4.86816 80.0796 5.81543 80.0796C6.88965 80.0796 7.79297 80.353 8.52539 80.8999C9.25781 81.4468 9.76807 82.2158 10.0562 83.207L8.65723 83.5366C8.4082 82.7554 8.04688 82.1865 7.57324 81.8301C7.09961 81.4736 6.50391 81.2954 5.78613 81.2954C4.96094 81.2954 4.27002 81.4932 3.71338 81.8887C3.16162 82.2842 2.77344 82.8164 2.54883 83.4854C2.32422 84.1494 2.21191 84.8354 2.21191 85.5435C2.21191 86.4565 2.34375 87.2549 2.60742 87.9385C2.87598 88.6172 3.29102 89.125 3.85254 89.4619C4.41406 89.7988 5.02197 89.9673 5.67627 89.9673C6.47217 89.9673 7.146 89.7378 7.69775 89.2788C8.24951 88.8198 8.62305 88.1387 8.81836 87.2354ZM11.8286 91V80.2627H13.147V84.1152C13.7622 83.4023 14.5386 83.0459 15.4761 83.0459C16.0522 83.0459 16.5527 83.1606 16.9775 83.3901C17.4023 83.6147 17.7051 83.9272 17.8857 84.3276C18.0713 84.728 18.1641 85.3091 18.1641 86.0708V91H16.8457V86.0708C16.8457 85.4116 16.7017 84.9331 16.4136 84.6353C16.1304 84.3325 15.7275 84.1812 15.2051 84.1812C14.8145 84.1812 14.4458 84.2837 14.0991 84.4888C13.7573 84.689 13.5132 84.9624 13.3667 85.3091C13.2202 85.6558 13.147 86.1343 13.147 86.7446V91H11.8286ZM25.2759 91V89.8574C24.6704 90.7363 23.8477 91.1758 22.8076 91.1758C22.3486 91.1758 21.9189 91.0879 21.5186 90.9121C21.123 90.7363 20.8276 90.5166 20.6323 90.2529C20.4419 89.9844 20.3076 89.6572 20.2295 89.2715C20.1758 89.0127 20.1489 88.6025 20.1489 88.041V83.2217H21.4673V87.5356C21.4673 88.2241 21.4941 88.688 21.5479 88.9272C21.6309 89.2739 21.8066 89.5474 22.0752 89.7476C22.3438 89.9429 22.6758 90.0405 23.0713 90.0405C23.4668 90.0405 23.8379 89.9404 24.1846 89.7402C24.5312 89.5352 24.7754 89.2593 24.917 88.9126C25.0635 88.561 25.1367 88.0532 25.1367 87.3892V83.2217H26.4551V91H25.2759ZM28.4692 93.9956L28.3228 92.7578C28.6108 92.8359 28.8623 92.875 29.0771 92.875C29.3701 92.875 29.6045 92.8262 29.7803 92.7285C29.9561 92.6309 30.1001 92.4941 30.2124 92.3184C30.2954 92.1865 30.4297 91.8594 30.6152 91.3369C30.6396 91.2637 30.6787 91.1562 30.7324 91.0146L27.7808 83.2217H29.2017L30.8203 87.7261C31.0303 88.2974 31.2183 88.8979 31.3843 89.5278C31.5356 88.9224 31.7163 88.3315 31.9263 87.7554L33.5889 83.2217H34.9072L31.9482 91.1318C31.6309 91.9863 31.3843 92.5747 31.2085 92.897C30.9741 93.3315 30.7056 93.6489 30.4028 93.8491C30.1001 94.0542 29.7388 94.1567 29.3188 94.1567C29.0649 94.1567 28.7817 94.103 28.4692 93.9956ZM41.3525 88.4951L42.7148 88.6636C42.5 89.4595 42.1021 90.0771 41.521 90.5166C40.9399 90.9561 40.1978 91.1758 39.2944 91.1758C38.1567 91.1758 37.2534 90.8267 36.5845 90.1284C35.9204 89.4253 35.5884 88.4414 35.5884 87.1768C35.5884 85.8682 35.9253 84.8525 36.5991 84.1299C37.2729 83.4072 38.147 83.0459 39.2212 83.0459C40.2612 83.0459 41.1108 83.3999 41.77 84.1079C42.4292 84.8159 42.7588 85.812 42.7588 87.0962C42.7588 87.1743 42.7563 87.2915 42.7515 87.4478H36.9507C36.9995 88.3022 37.2412 88.9565 37.6758 89.4106C38.1104 89.8647 38.6523 90.0918 39.3018 90.0918C39.7852 90.0918 40.1978 89.9648 40.5396 89.7109C40.8813 89.457 41.1523 89.0518 41.3525 88.4951ZM37.0239 86.3638H41.3672C41.3086 85.7095 41.1426 85.2188 40.8691 84.8916C40.4492 84.3838 39.9048 84.1299 39.2358 84.1299C38.6304 84.1299 38.1201 84.3325 37.7051 84.7378C37.2949 85.1431 37.0679 85.6851 37.0239 86.3638ZM39.1919 81.0098L38.3643 82.2549H36.8555L38.4375 80.2041H39.8438L41.4917 82.2549H39.9976L39.1919 81.0098ZM38.7598 79.1055C39.0381 79.0762 39.2163 79.0493 39.2944 79.0249C39.5532 78.9614 39.6851 78.8613 39.6899 78.7246C39.6948 78.6123 39.6265 78.5171 39.4849 78.439C39.2798 78.3267 38.9551 78.2705 38.5107 78.2705C38.3594 78.2705 38.1299 78.2803 37.8223 78.2998L37.7417 77.6113C37.9321 77.5723 38.2837 77.5552 38.7964 77.5601C39.397 77.5649 39.8877 77.6626 40.2686 77.853C40.6885 78.0581 40.9033 78.3242 40.9131 78.6514C40.9326 79.1445 40.4883 79.4473 39.5801 79.5596V79.9258H38.7598V79.1055ZM44.3774 91V83.2217H45.564V84.3276C46.1353 83.4731 46.9604 83.0459 48.0396 83.0459C48.5083 83.0459 48.938 83.1313 49.3286 83.3022C49.7241 83.4683 50.0195 83.688 50.2148 83.9614C50.4102 84.2349 50.5469 84.5596 50.625 84.9355C50.6738 85.1797 50.6982 85.6069 50.6982 86.2173V91H49.3799V86.2686C49.3799 85.7314 49.3286 85.3311 49.2261 85.0674C49.1235 84.7988 48.9404 84.5864 48.6768 84.4302C48.418 84.269 48.1128 84.1885 47.7612 84.1885C47.1997 84.1885 46.7139 84.3667 46.3037 84.7231C45.8984 85.0796 45.6958 85.7559 45.6958 86.752V91H44.3774ZM59.7803 89.8208L59.9707 90.9854C59.5996 91.0635 59.2676 91.1025 58.9746 91.1025C58.4961 91.1025 58.125 91.0269 57.8613 90.8755C57.5977 90.7241 57.4121 90.5264 57.3047 90.2822C57.1973 90.0332 57.1436 89.5132 57.1436 88.7222V84.2471H56.1768V83.2217H57.1436V81.2954L58.4546 80.5044V83.2217H59.7803V84.2471H58.4546V88.7954C58.4546 89.1714 58.4766 89.4131 58.5205 89.5205C58.5693 89.6279 58.645 89.7134 58.7476 89.7769C58.855 89.8403 59.0063 89.8721 59.2017 89.8721C59.3481 89.8721 59.541 89.855 59.7803 89.8208ZM61.084 81.7788V80.2627H62.4023V81.7788H61.084ZM61.084 91V83.2217H62.4023V91H61.084ZM69.7412 88.4951L71.1035 88.6636C70.8887 89.4595 70.4907 90.0771 69.9097 90.5166C69.3286 90.9561 68.5864 91.1758 67.6831 91.1758C66.5454 91.1758 65.6421 90.8267 64.9731 90.1284C64.3091 89.4253 63.9771 88.4414 63.9771 87.1768C63.9771 85.8682 64.314 84.8525 64.9878 84.1299C65.6616 83.4072 66.5356 83.0459 67.6099 83.0459C68.6499 83.0459 69.4995 83.3999 70.1587 84.1079C70.8179 84.8159 71.1475 85.812 71.1475 87.0962C71.1475 87.1743 71.145 87.2915 71.1401 87.4478H65.3394C65.3882 88.3022 65.6299 88.9565 66.0645 89.4106C66.499 89.8647 67.041 90.0918 67.6904 90.0918C68.1738 90.0918 68.5864 89.9648 68.9282 89.7109C69.27 89.457 69.541 89.0518 69.7412 88.4951ZM65.4126 86.3638H69.7559C69.6973 85.7095 69.5312 85.2188 69.2578 84.8916C68.8379 84.3838 68.2935 84.1299 67.6245 84.1299C67.019 84.1299 66.5088 84.3325 66.0938 84.7378C65.6836 85.1431 65.4565 85.6851 65.4126 86.3638ZM67.5806 81.0098L66.7529 82.2549H65.2441L66.8262 80.2041H68.2324L69.8804 82.2549H68.3862L67.5806 81.0098ZM68.2324 79.6694H67.1704L65.4785 77.6187H67.2437L68.2324 79.6694ZM72.7661 91V83.2217H73.9526V84.3276C74.5239 83.4731 75.3491 83.0459 76.4282 83.0459C76.897 83.0459 77.3267 83.1313 77.7173 83.3022C78.1128 83.4683 78.4082 83.688 78.6035 83.9614C78.7988 84.2349 78.9355 84.5596 79.0137 84.9355C79.0625 85.1797 79.0869 85.6069 79.0869 86.2173V91H77.7686V86.2686C77.7686 85.7314 77.7173 85.3311 77.6147 85.0674C77.5122 84.7988 77.3291 84.5864 77.0654 84.4302C76.8066 84.269 76.5015 84.1885 76.1499 84.1885C75.5884 84.1885 75.1025 84.3667 74.6924 84.7231C74.2871 85.0796 74.0845 85.7559 74.0845 86.752V91H72.7661ZM3.86719 106.821L4.05762 107.985C3.68652 108.063 3.35449 108.103 3.06152 108.103C2.58301 108.103 2.21191 108.027 1.94824 107.875C1.68457 107.724 1.49902 107.526 1.3916 107.282C1.28418 107.033 1.23047 106.513 1.23047 105.722V101.247H0.263672V100.222H1.23047V98.2954L2.5415 97.5044V100.222H3.86719V101.247H2.5415V105.795C2.5415 106.171 2.56348 106.413 2.60742 106.521C2.65625 106.628 2.73193 106.713 2.83447 106.777C2.94189 106.84 3.09326 106.872 3.28857 106.872C3.43506 106.872 3.62793 106.855 3.86719 106.821ZM5.14893 108V100.222H6.33545V101.401C6.63818 100.849 6.9165 100.485 7.17041 100.31C7.4292 100.134 7.7124 100.046 8.02002 100.046C8.46436 100.046 8.91602 100.188 9.375 100.471L8.9209 101.694C8.59863 101.503 8.27637 101.408 7.9541 101.408C7.66602 101.408 7.40723 101.496 7.17773 101.672C6.94824 101.843 6.78467 102.082 6.68701 102.39C6.54053 102.858 6.46729 103.371 6.46729 103.928V108H5.14893ZM9.66797 104.111C9.66797 102.67 10.0684 101.604 10.8691 100.91C11.5381 100.334 12.3535 100.046 13.3154 100.046C14.3848 100.046 15.2588 100.397 15.9375 101.101C16.6162 101.799 16.9556 102.766 16.9556 104.001C16.9556 105.002 16.8042 105.791 16.5015 106.367C16.2036 106.938 15.7666 107.382 15.1904 107.7C14.6191 108.017 13.9941 108.176 13.3154 108.176C12.2266 108.176 11.3452 107.827 10.6714 107.128C10.0024 106.43 9.66797 105.424 9.66797 104.111ZM11.0229 104.111C11.0229 105.107 11.2402 105.854 11.6748 106.352C12.1094 106.845 12.6562 107.092 13.3154 107.092C13.9697 107.092 14.5142 106.843 14.9487 106.345C15.3833 105.847 15.6006 105.087 15.6006 104.067C15.6006 103.105 15.3809 102.377 14.9414 101.884C14.5068 101.386 13.9648 101.137 13.3154 101.137C12.6562 101.137 12.1094 101.384 11.6748 101.877C11.2402 102.37 11.0229 103.115 11.0229 104.111ZM18.5083 108V100.222H19.6948V101.328C20.2661 100.473 21.0913 100.046 22.1704 100.046C22.6392 100.046 23.0688 100.131 23.4595 100.302C23.855 100.468 24.1504 100.688 24.3457 100.961C24.541 101.235 24.6777 101.56 24.7559 101.936C24.8047 102.18 24.8291 102.607 24.8291 103.217V108H23.5107V103.269C23.5107 102.731 23.4595 102.331 23.3569 102.067C23.2544 101.799 23.0713 101.586 22.8076 101.43C22.5488 101.269 22.2437 101.188 21.8921 101.188C21.3306 101.188 20.8447 101.367 20.4346 101.723C20.0293 102.08 19.8267 102.756 19.8267 103.752V108H18.5083ZM26.6162 108.645L27.8979 108.835C27.9517 109.23 28.1006 109.519 28.3447 109.699C28.6719 109.943 29.1187 110.065 29.6851 110.065C30.2954 110.065 30.7666 109.943 31.0986 109.699C31.4307 109.455 31.6553 109.113 31.7725 108.674C31.8408 108.405 31.8726 107.841 31.8677 106.982C31.2915 107.661 30.5737 108 29.7144 108C28.645 108 27.8174 107.614 27.2314 106.843C26.6455 106.071 26.3525 105.146 26.3525 104.067C26.3525 103.325 26.4868 102.641 26.7554 102.016C27.0239 101.386 27.4121 100.9 27.9199 100.559C28.4326 100.217 29.0332 100.046 29.7217 100.046C30.6396 100.046 31.3965 100.417 31.9922 101.159V100.222H33.208V106.945C33.208 108.156 33.0835 109.013 32.8345 109.516C32.5903 110.024 32.1997 110.424 31.6626 110.717C31.1304 111.01 30.4736 111.157 29.6924 111.157C28.7646 111.157 28.0151 110.947 27.4438 110.527C26.8726 110.112 26.5967 109.484 26.6162 108.645ZM27.7075 103.972C27.7075 104.992 27.9102 105.737 28.3154 106.206C28.7207 106.674 29.2285 106.909 29.8389 106.909C30.4443 106.909 30.9521 106.677 31.3623 106.213C31.7725 105.744 31.9775 105.012 31.9775 104.016C31.9775 103.063 31.7651 102.346 31.3403 101.862C30.9204 101.379 30.4126 101.137 29.8169 101.137C29.231 101.137 28.7329 101.376 28.3228 101.855C27.9126 102.329 27.7075 103.034 27.7075 103.972ZM39.4922 108V97.2627H43.5205C44.3408 97.2627 44.9976 97.3726 45.4907 97.5923C45.9888 97.8071 46.377 98.1416 46.6553 98.5957C46.9385 99.0449 47.0801 99.5161 47.0801 100.009C47.0801 100.468 46.9556 100.9 46.7065 101.306C46.4575 101.711 46.0815 102.038 45.5786 102.287C46.228 102.478 46.7261 102.802 47.0728 103.261C47.4243 103.72 47.6001 104.262 47.6001 104.887C47.6001 105.39 47.4927 105.859 47.2778 106.293C47.0679 106.723 46.8066 107.055 46.4941 107.29C46.1816 107.524 45.7886 107.702 45.3149 107.824C44.8462 107.941 44.27 108 43.5864 108H39.4922ZM40.9131 101.774H43.2349C43.8647 101.774 44.3164 101.733 44.5898 101.65C44.9512 101.542 45.2222 101.364 45.4028 101.115C45.5884 100.866 45.6812 100.554 45.6812 100.178C45.6812 99.8213 45.5957 99.5088 45.4248 99.2402C45.2539 98.9668 45.0098 98.7812 44.6924 98.6836C44.375 98.5811 43.8306 98.5298 43.0591 98.5298H40.9131V101.774ZM40.9131 106.733H43.5864C44.0454 106.733 44.3677 106.716 44.5532 106.682C44.8804 106.623 45.1538 106.525 45.3735 106.389C45.5933 106.252 45.7739 106.054 45.9155 105.795C46.0571 105.532 46.1279 105.229 46.1279 104.887C46.1279 104.487 46.0254 104.14 45.8203 103.847C45.6152 103.549 45.3296 103.342 44.9634 103.225C44.6021 103.103 44.0796 103.042 43.396 103.042H40.9131V106.733ZM49.4971 108V97.2627H53.5254C54.3457 97.2627 55.0024 97.3726 55.4956 97.5923C55.9937 97.8071 56.3818 98.1416 56.6602 98.5957C56.9434 99.0449 57.085 99.5161 57.085 100.009C57.085 100.468 56.9604 100.9 56.7114 101.306C56.4624 101.711 56.0864 102.038 55.5835 102.287C56.2329 102.478 56.731 102.802 57.0776 103.261C57.4292 103.72 57.605 104.262 57.605 104.887C57.605 105.39 57.4976 105.859 57.2827 106.293C57.0728 106.723 56.8115 107.055 56.499 107.29C56.1865 107.524 55.7935 107.702 55.3198 107.824C54.8511 107.941 54.2749 108 53.5913 108H49.4971ZM50.918 101.774H53.2397C53.8696 101.774 54.3213 101.733 54.5947 101.65C54.9561 101.542 55.2271 101.364 55.4077 101.115C55.5933 100.866 55.686 100.554 55.686 100.178C55.686 99.8213 55.6006 99.5088 55.4297 99.2402C55.2588 98.9668 55.0146 98.7812 54.6973 98.6836C54.3799 98.5811 53.8354 98.5298 53.064 98.5298H50.918V101.774ZM50.918 106.733H53.5913C54.0503 106.733 54.3726 106.716 54.5581 106.682C54.8853 106.623 55.1587 106.525 55.3784 106.389C55.5981 106.252 55.7788 106.054 55.9204 105.795C56.062 105.532 56.1328 105.229 56.1328 104.887C56.1328 104.487 56.0303 104.14 55.8252 103.847C55.6201 103.549 55.3345 103.342 54.9683 103.225C54.6069 103.103 54.0845 103.042 53.4009 103.042H50.918V106.733ZM64.4678 107.041C63.9795 107.456 63.5083 107.749 63.0542 107.919C62.605 108.09 62.1216 108.176 61.604 108.176C60.7495 108.176 60.0928 107.968 59.6338 107.553C59.1748 107.133 58.9453 106.599 58.9453 105.949C58.9453 105.568 59.0308 105.222 59.2017 104.909C59.3774 104.592 59.6045 104.338 59.8828 104.147C60.166 103.957 60.4834 103.813 60.835 103.715C61.0938 103.647 61.4844 103.581 62.0068 103.518C63.0713 103.391 63.855 103.239 64.3579 103.063C64.3628 102.883 64.3652 102.768 64.3652 102.719C64.3652 102.182 64.2407 101.804 63.9917 101.584C63.6548 101.286 63.1543 101.137 62.4902 101.137C61.8701 101.137 61.4111 101.247 61.1133 101.467C60.8203 101.682 60.603 102.065 60.4614 102.617L59.1724 102.441C59.2896 101.889 59.4824 101.445 59.751 101.108C60.0195 100.766 60.4077 100.505 60.9155 100.324C61.4233 100.139 62.0117 100.046 62.6807 100.046C63.3447 100.046 63.8843 100.124 64.2993 100.28C64.7144 100.437 65.0195 100.634 65.2148 100.874C65.4102 101.108 65.5469 101.406 65.625 101.767C65.6689 101.992 65.6909 102.397 65.6909 102.983V104.741C65.6909 105.966 65.7178 106.743 65.7715 107.07C65.8301 107.392 65.9424 107.702 66.1084 108H64.7314C64.5947 107.727 64.5068 107.407 64.4678 107.041ZM64.3579 104.096C63.8794 104.292 63.1616 104.458 62.2046 104.594C61.6626 104.672 61.2793 104.76 61.0547 104.858C60.8301 104.956 60.6567 105.1 60.5347 105.29C60.4126 105.476 60.3516 105.683 60.3516 105.913C60.3516 106.264 60.4834 106.557 60.7471 106.792C61.0156 107.026 61.4062 107.143 61.9189 107.143C62.4268 107.143 62.8784 107.033 63.2739 106.813C63.6694 106.589 63.96 106.284 64.1455 105.898C64.2871 105.6 64.3579 105.161 64.3579 104.58V104.096ZM67.7417 108V100.222H68.9282V101.328C69.4995 100.473 70.3247 100.046 71.4038 100.046C71.8726 100.046 72.3022 100.131 72.6929 100.302C73.0884 100.468 73.3838 100.688 73.5791 100.961C73.7744 101.235 73.9111 101.56 73.9893 101.936C74.0381 102.18 74.0625 102.607 74.0625 103.217V108H72.7441V103.269C72.7441 102.731 72.6929 102.331 72.5903 102.067C72.4878 101.799 72.3047 101.586 72.041 101.43C71.7822 101.269 71.4771 101.188 71.1255 101.188C70.564 101.188 70.0781 101.367 69.668 101.723C69.2627 102.08 69.0601 102.756 69.0601 103.752V108H67.7417ZM76.0986 108V97.2627H77.417V103.386L80.5371 100.222H82.2437L79.27 103.107L82.5439 108H80.918L78.3472 104.023L77.417 104.917V108H76.0986Z" fill="white"/>
<circle cx="70.5" cy="13.5" r="13.5" fill="#D9D9D9" fill-opacity="0.7"/>
<path fill-rule="evenodd" clip-rule="evenodd" d="M70.0069 13.6069L74.1896 17.7896L74.8967 17.0825L70.714 12.8998L74.1896 9.42427L73.4825 8.71717L70.0069 12.1927L66.5314 8.71716L65.8243 9.42427L69.2998 12.8998L65.1172 17.0825L65.8243 17.7896L70.0069 13.6069Z" fill="black"/>
<defs>
<linearGradient id="paint0_linear_721_1279" x1="9.75" y1="9.75" x2="27" y2="29.75" gradientUnits="userSpaceOnUse">
<stop stop-color="#7AB93C" stop-opacity="0.8"/>
<stop offset="1" stop-color="#2C8D31"/>
</linearGradient>
<linearGradient id="paint1_linear_721_1279" x1="9.96952" y1="4.31361" x2="71.5" y2="70.5" gradientUnits="userSpaceOnUse">
<stop stop-color="#85CA75"/>
<stop offset="1" stop-color="#126F2E"/>
<stop offset="1" stop-color="#737373"/>
</linearGradient>
<clipPath id="clip0_721_1279">
<rect width="35" height="35" fill="white" transform="translate(23 23)"/>
</clipPath>
</defs>
</svg>
