<svg width="83" height="114" viewBox="0 0 83 114" fill="none" xmlns="http://www.w3.org/2000/svg">
<rect x="7" y="9" width="67" height="67" rx="20" fill="url(#paint0_linear_711_1008)" fill-opacity="0.7"/>
<path fill-rule="evenodd" clip-rule="evenodd" d="M15.25 37.5C25.0531 37.5 33 29.5531 33 19.75C33 15.7091 31.6497 11.9835 29.3756 9H54C65.0457 9 74 17.9543 74 29V56C74 67.0457 65.0457 76 54 76H27C15.9543 76 7 67.0457 7 56V35.4703C9.46482 36.7665 12.2718 37.5 15.25 37.5Z" fill="url(#paint1_linear_711_1008)"/>
<circle cx="20.5" cy="30" r="1" fill="#83B875"/>
<circle cx="53.25" cy="19.25" r="1.25" fill="#6CA66C"/>
<circle cx="39.25" cy="26.25" r="1.25" fill="#418D54"/>
<path d="M5.02148 93V83.5298H1.48389V82.2627H9.99463V83.5298H6.44238V93H5.02148ZM10.7417 83.7788V82.2627H12.0601V83.7788H10.7417ZM10.7417 93V85.2217H12.0601V93H10.7417ZM19.3989 90.4951L20.7612 90.6636C20.5464 91.4595 20.1484 92.0771 19.5674 92.5166C18.9863 92.9561 18.2441 93.1758 17.3408 93.1758C16.2031 93.1758 15.2998 92.8267 14.6309 92.1284C13.9668 91.4253 13.6348 90.4414 13.6348 89.1768C13.6348 87.8682 13.9717 86.8525 14.6455 86.1299C15.3193 85.4072 16.1934 85.0459 17.2676 85.0459C18.3076 85.0459 19.1572 85.3999 19.8164 86.1079C20.4756 86.8159 20.8052 87.812 20.8052 89.0962C20.8052 89.1743 20.8027 89.2915 20.7979 89.4478H14.9971C15.0459 90.3022 15.2876 90.9565 15.7222 91.4106C16.1567 91.8647 16.6987 92.0918 17.3481 92.0918C17.8315 92.0918 18.2441 91.9648 18.5859 91.7109C18.9277 91.457 19.1987 91.0518 19.3989 90.4951ZM15.0703 88.3638H19.4136C19.355 87.7095 19.189 87.2188 18.9155 86.8916C18.4956 86.3838 17.9512 86.1299 17.2822 86.1299C16.6768 86.1299 16.1665 86.3325 15.7515 86.7378C15.3413 87.1431 15.1143 87.6851 15.0703 88.3638ZM17.2383 83.0098L16.4106 84.2549H14.9019L16.4839 82.2041H17.8901L19.5381 84.2549H18.0439L17.2383 83.0098ZM17.4727 79.6187H19.2378L17.5459 81.6694H16.4839L17.4727 79.6187ZM25.3022 91.8208L25.4927 92.9854C25.1216 93.0635 24.7896 93.1025 24.4966 93.1025C24.0181 93.1025 23.647 93.0269 23.3833 92.8755C23.1196 92.7241 22.9341 92.5264 22.8267 92.2822C22.7192 92.0332 22.6655 91.5132 22.6655 90.7222V86.2471H21.6987V85.2217H22.6655V83.2954L23.9766 82.5044V85.2217H25.3022V86.2471H23.9766V90.7954C23.9766 91.1714 23.9985 91.4131 24.0425 91.5205C24.0913 91.6279 24.167 91.7134 24.2695 91.7769C24.377 91.8403 24.5283 91.8721 24.7236 91.8721C24.8701 91.8721 25.063 91.855 25.3022 91.8208ZM30.7808 93V82.2627H32.0991V88.3857L35.2192 85.2217H36.9258L33.9521 88.1074L37.2261 93H35.6001L33.0293 89.0229L32.0991 89.9165V93H30.7808ZM38.2808 83.7788V82.2627H39.5991V83.7788H38.2808ZM38.2808 93V85.2217H39.5991V93H38.2808ZM46.938 90.4951L48.3003 90.6636C48.0854 91.4595 47.6875 92.0771 47.1064 92.5166C46.5254 92.9561 45.7832 93.1758 44.8799 93.1758C43.7422 93.1758 42.8389 92.8267 42.1699 92.1284C41.5059 91.4253 41.1738 90.4414 41.1738 89.1768C41.1738 87.8682 41.5107 86.8525 42.1846 86.1299C42.8584 85.4072 43.7324 85.0459 44.8066 85.0459C45.8467 85.0459 46.6963 85.3999 47.3555 86.1079C48.0146 86.8159 48.3442 87.812 48.3442 89.0962C48.3442 89.1743 48.3418 89.2915 48.3369 89.4478H42.5361C42.585 90.3022 42.8267 90.9565 43.2612 91.4106C43.6958 91.8647 44.2378 92.0918 44.8872 92.0918C45.3706 92.0918 45.7832 91.9648 46.125 91.7109C46.4668 91.457 46.7378 91.0518 46.938 90.4951ZM42.6094 88.3638H46.9526C46.894 87.7095 46.728 87.2188 46.4546 86.8916C46.0347 86.3838 45.4902 86.1299 44.8213 86.1299C44.2158 86.1299 43.7056 86.3325 43.2905 86.7378C42.8804 87.1431 42.6533 87.6851 42.6094 88.3638ZM44.7773 83.0098L43.9497 84.2549H42.4409L44.0229 82.2041H45.4292L47.0771 84.2549H45.583L44.7773 83.0098ZM44.1108 95.3804V93.8789H45.6123V95.3804H44.1108ZM49.9629 93V85.2217H51.1421V86.313C51.3862 85.9321 51.7109 85.627 52.1162 85.3975C52.5215 85.1631 52.9829 85.0459 53.5005 85.0459C54.0767 85.0459 54.5479 85.1655 54.9141 85.4048C55.2852 85.644 55.5464 85.9785 55.6978 86.4082C56.313 85.5 57.1138 85.0459 58.1001 85.0459C58.8716 85.0459 59.4648 85.2607 59.8799 85.6904C60.2949 86.1152 60.5024 86.772 60.5024 87.6606V93H59.1914V88.1001C59.1914 87.5728 59.1475 87.1943 59.0596 86.9648C58.9766 86.7305 58.8228 86.5425 58.5981 86.4009C58.3735 86.2593 58.1099 86.1885 57.8071 86.1885C57.2603 86.1885 56.8062 86.3716 56.4448 86.7378C56.0835 87.0991 55.9028 87.6802 55.9028 88.481V93H54.5845V87.9463C54.5845 87.3604 54.4771 86.9209 54.2622 86.6279C54.0474 86.335 53.6958 86.1885 53.2075 86.1885C52.8364 86.1885 52.4922 86.2861 52.1748 86.4814C51.8623 86.6768 51.6353 86.9624 51.4937 87.3384C51.3521 87.7144 51.2812 88.2563 51.2812 88.9644V93H49.9629ZM69.5112 91.8208L69.7017 92.9854C69.3306 93.0635 68.9985 93.1025 68.7056 93.1025C68.2271 93.1025 67.856 93.0269 67.5923 92.8755C67.3286 92.7241 67.1431 92.5264 67.0356 92.2822C66.9282 92.0332 66.8745 91.5132 66.8745 90.7222V86.2471H65.9077V85.2217H66.8745V83.2954L68.1855 82.5044V85.2217H69.5112V86.2471H68.1855V90.7954C68.1855 91.1714 68.2075 91.4131 68.2515 91.5205C68.3003 91.6279 68.376 91.7134 68.4785 91.7769C68.5859 91.8403 68.7373 91.8721 68.9326 91.8721C69.0791 91.8721 69.272 91.855 69.5112 91.8208ZM77.9927 86.7524V85.2217H79.4062V86.4302C79.4062 87.1968 79.3184 87.7314 79.1426 88.0342C78.6934 88.8154 78.0073 89.2549 77.0845 89.3525V93H75.9053V91.8574C75.2998 92.7363 74.4771 93.1758 73.437 93.1758C72.9829 93.1758 72.5557 93.0903 72.1553 92.9194C71.7598 92.7437 71.4644 92.5215 71.269 92.2529C71.0737 91.9844 70.937 91.6572 70.8589 91.2715C70.8052 91.0078 70.7783 90.5977 70.7783 90.041V85.2217H72.0967V89.5356C72.0967 90.2339 72.1235 90.6978 72.1772 90.9272C72.3481 91.6694 72.856 92.0405 73.7007 92.0405C74.106 92.0405 74.4795 91.938 74.8213 91.7329C75.168 91.5278 75.4121 91.252 75.5537 90.9053C75.6953 90.5586 75.7661 90.0532 75.7661 89.3892V85.2217H77.0845V88.7959C77.7046 88.6885 78.1685 88.3979 78.4761 87.9243C78.6128 87.7192 78.6812 87.3286 78.6812 86.7524H77.9927ZM72.939 95.3804V93.8789H74.4404V95.3804H72.939ZM29.748 101.072H27.2139V100.105H29.748V99.2627H31.0591V100.105H32.1211V101.072H31.0591V110H29.8359V109.019C29.3428 109.79 28.6177 110.176 27.6606 110.176C27.0405 110.176 26.4692 110.005 25.9468 109.663C25.4292 109.321 25.0264 108.845 24.7383 108.235C24.4551 107.62 24.3135 106.914 24.3135 106.118C24.3135 105.342 24.4429 104.639 24.7017 104.009C24.9604 103.374 25.3486 102.888 25.8662 102.551C26.3838 102.214 26.9624 102.046 27.6021 102.046C28.0708 102.046 28.4883 102.146 28.8545 102.346C29.2207 102.542 29.5186 102.798 29.748 103.115V101.072ZM25.6685 106.118C25.6685 107.114 25.8784 107.859 26.2983 108.352C26.7183 108.845 27.2139 109.092 27.7852 109.092C28.3613 109.092 28.8496 108.857 29.25 108.389C29.6553 107.915 29.8579 107.195 29.8579 106.228C29.8579 105.164 29.6528 104.382 29.2427 103.884C28.8325 103.386 28.3271 103.137 27.7266 103.137C27.1406 103.137 26.6499 103.376 26.2544 103.855C25.8638 104.333 25.6685 105.088 25.6685 106.118ZM32.6484 106.111C32.6484 104.67 33.0488 103.604 33.8496 102.91C34.5186 102.334 35.334 102.046 36.2959 102.046C37.3652 102.046 38.2393 102.397 38.918 103.101C39.5967 103.799 39.936 104.766 39.936 106.001C39.936 107.002 39.7847 107.791 39.4819 108.367C39.1841 108.938 38.7471 109.382 38.1709 109.7C37.5996 110.017 36.9746 110.176 36.2959 110.176C35.207 110.176 34.3257 109.827 33.6519 109.128C32.9829 108.43 32.6484 107.424 32.6484 106.111ZM34.0034 106.111C34.0034 107.107 34.2207 107.854 34.6553 108.352C35.0898 108.845 35.6367 109.092 36.2959 109.092C36.9502 109.092 37.4946 108.843 37.9292 108.345C38.3638 107.847 38.5811 107.087 38.5811 106.067C38.5811 105.105 38.3613 104.377 37.9219 103.884C37.4873 103.386 36.9453 103.137 36.2959 103.137C35.6367 103.137 35.0898 103.384 34.6553 103.877C34.2207 104.37 34.0034 105.115 34.0034 106.111ZM36.3105 100.01L35.4829 101.255H33.9741L35.5562 99.2041H36.9624L38.6104 101.255H37.1162L36.3105 100.01ZM35.4902 112.38V110.879H36.9917V112.38H35.4902ZM41.4888 110V102.222H42.6753V103.328C43.2466 102.473 44.0718 102.046 45.1509 102.046C45.6196 102.046 46.0493 102.131 46.4399 102.302C46.8354 102.468 47.1309 102.688 47.3262 102.961C47.5215 103.235 47.6582 103.56 47.7363 103.936C47.7852 104.18 47.8096 104.607 47.8096 105.217V110H46.4912V105.269C46.4912 104.731 46.4399 104.331 46.3374 104.067C46.2349 103.799 46.0518 103.586 45.7881 103.43C45.5293 103.269 45.2241 103.188 44.8726 103.188C44.311 103.188 43.8252 103.367 43.415 103.723C43.0098 104.08 42.8071 104.756 42.8071 105.752V110H41.4888ZM49.5967 110.645L50.8784 110.835C50.9321 111.23 51.0811 111.519 51.3252 111.699C51.6523 111.943 52.0991 112.065 52.6655 112.065C53.2759 112.065 53.7471 111.943 54.0791 111.699C54.4111 111.455 54.6357 111.113 54.7529 110.674C54.8213 110.405 54.853 109.841 54.8481 108.982C54.272 109.661 53.5542 110 52.6948 110C51.6255 110 50.7979 109.614 50.2119 108.843C49.626 108.071 49.333 107.146 49.333 106.067C49.333 105.325 49.4673 104.641 49.7358 104.016C50.0044 103.386 50.3926 102.9 50.9004 102.559C51.4131 102.217 52.0137 102.046 52.7021 102.046C53.6201 102.046 54.377 102.417 54.9727 103.159V102.222H56.1885V108.945C56.1885 110.156 56.064 111.013 55.8149 111.516C55.5708 112.024 55.1802 112.424 54.6431 112.717C54.1108 113.01 53.4541 113.157 52.6729 113.157C51.7451 113.157 50.9956 112.947 50.4243 112.527C49.853 112.112 49.5771 111.484 49.5967 110.645ZM50.688 105.972C50.688 106.992 50.8906 107.737 51.2959 108.206C51.7012 108.674 52.209 108.909 52.8193 108.909C53.4248 108.909 53.9326 108.677 54.3428 108.213C54.7529 107.744 54.958 107.012 54.958 106.016C54.958 105.063 54.7456 104.346 54.3208 103.862C53.9009 103.379 53.3931 103.137 52.7974 103.137C52.2114 103.137 51.7134 103.376 51.3032 103.855C50.8931 104.329 50.688 105.034 50.688 105.972Z" fill="white"/>
<circle cx="69.5" cy="13.5" r="13.5" fill="#D9D9D9" fill-opacity="0.7"/>
<path fill-rule="evenodd" clip-rule="evenodd" d="M69.714 12.8998L73.1896 9.42427L72.4825 8.71716L69.0069 12.1927L65.5314 8.71717L64.8243 9.42428L68.2998 12.8998L64.1172 17.0825L64.8243 17.7896L69.0069 13.6069L73.1896 17.7896L73.8967 17.0825L69.714 12.8998Z" fill="black"/>
<g clip-path="url(#clip0_711_1008)">
<path fill-rule="evenodd" clip-rule="evenodd" d="M41.1927 32.0248C41.2244 32.5355 41.1519 33.0473 40.9797 33.5291C40.8075 34.011 40.5391 34.4528 40.1909 34.8277C39.8427 35.2027 39.4219 35.5029 38.9541 35.7102C38.4863 35.9175 37.9812 36.0276 37.4696 36.0338C36.3756 36.0447 35.3194 35.6346 34.5194 34.8883C33.7194 34.1421 33.2369 33.1169 33.1719 32.0248V29.375H41.1927V32.0233V32.0248Z" stroke="white" stroke-width="1.5"/>
<path d="M26.4082 52.3248V46.7729C26.4093 44.3723 27.2121 42.0409 28.6892 40.1486C30.1663 38.2562 32.233 36.9114 34.5615 36.3274C36.8899 35.7435 39.3467 35.9539 41.542 36.9252C43.7372 37.8966 45.5452 39.5732 46.679 41.6891" stroke="white" stroke-width="1.5"/>
<path d="M47.955 56.2273H26.4067C25.8892 56.2273 25.3929 56.0217 25.027 55.6558C24.661 55.2899 24.4554 54.7936 24.4554 54.2761C24.4554 53.7586 24.661 53.2622 25.027 52.8963C25.3929 52.5304 25.8892 52.3248 26.4067 52.3248H30.035M35.8407 49.0275V50.5763M35.8407 40.3971V41.9458M33.9448 46.8881V47.5152C33.9446 47.7137 33.9836 47.9104 34.0594 48.0938C34.1352 48.2773 34.2465 48.444 34.3868 48.5845C34.5271 48.7249 34.6937 48.8363 34.8771 48.9124C35.0605 48.9884 35.2571 49.0275 35.4557 49.0275H36.23C36.63 49.0256 37.0129 48.8654 37.2952 48.5821C37.5775 48.2987 37.7361 47.9152 37.7365 47.5152V47.0938C37.7365 46.8268 37.6557 46.566 37.5047 46.3458C37.3538 46.1256 37.1397 45.9563 36.8907 45.86L34.7819 45.0419C34.5331 44.945 34.3194 44.7752 34.1688 44.5548C34.0181 44.3344 33.9375 44.0736 33.9375 43.8067V43.4961C33.9373 43.2975 33.9763 43.1009 34.0521 42.9174C34.128 42.734 34.2392 42.5672 34.3795 42.4268C34.5198 42.2863 34.6865 42.1749 34.8699 42.0989C35.0533 42.0229 35.2498 41.9838 35.4484 41.9838H36.2227C36.624 41.9838 37.0088 42.143 37.2926 42.4266C37.5764 42.7102 37.7361 43.0948 37.7365 43.4961" stroke="white" stroke-width="1.5"/>
<path fill-rule="evenodd" clip-rule="evenodd" d="M53.0927 48.571H50.5392V47.2294H51.7408C51.3897 46.4514 50.8227 45.7906 50.1072 45.3253C49.3917 44.86 48.5577 44.6098 47.7042 44.6044C46.6983 44.5996 45.7212 44.9393 44.9353 45.5671C44.1494 46.1948 43.6021 47.0728 43.3846 48.0548C43.3444 48.2273 43.2378 48.377 43.0879 48.4714C42.938 48.5658 42.7569 48.5971 42.5839 48.5587C42.411 48.5203 42.2602 48.4152 42.1644 48.2662C42.0685 48.1172 42.0354 47.9364 42.0721 47.7631C42.3553 46.4831 43.0684 45.3388 44.0926 44.5205C45.1168 43.7022 46.3903 43.2593 47.7012 43.2656C48.7333 43.2731 49.7446 43.5558 50.6309 44.0847C51.5171 44.6136 52.2462 45.3694 52.7427 46.2742L53.1423 45.4735L54.3439 46.0744L53.0883 48.5813L53.0927 48.571ZM53.3304 50.3138C53.0714 51.4543 52.4715 52.489 51.6104 53.2805C50.7493 54.072 49.6678 54.5827 48.5095 54.7449C47.3513 54.9071 46.1711 54.7131 45.1257 54.1886C44.0803 53.6642 43.2192 52.834 42.6569 51.8085L42.2617 52.6019L41.06 52.001L42.3156 49.4942H44.8662V50.8358H43.6631C44.042 51.684 44.678 52.3915 45.4812 52.8582C46.2843 53.325 47.214 53.5272 48.1384 53.4364C49.0629 53.3456 49.9354 52.9663 50.6325 52.3523C51.3295 51.7382 51.8157 50.9205 52.0223 50.0148C52.061 49.8407 52.1672 49.6892 52.3176 49.5935C52.468 49.4977 52.6503 49.4657 52.8244 49.5044C52.9984 49.5431 53.15 49.6493 53.2457 49.7997C53.3414 49.9501 53.3735 50.1324 53.3348 50.3065L53.3304 50.3138ZM47.7027 40.9688C46.1095 40.969 44.5521 41.4418 43.2275 42.3271C41.9029 43.2125 40.8706 44.4707 40.2611 45.9428C39.6516 47.4148 39.4923 49.0345 39.8033 50.5971C40.1143 52.1597 40.8816 53.595 42.0083 54.7214C43.135 55.8479 44.5704 56.615 46.1331 56.9257C47.6957 57.2365 49.3154 57.0768 50.7873 56.4671C52.2593 55.8573 53.5173 54.8248 54.4024 53.5C55.2876 52.1753 55.76 50.6178 55.76 49.0246C55.7602 47.9665 55.5519 46.9187 55.147 45.9412C54.7422 44.9636 54.1486 44.0754 53.4004 43.3273C52.6522 42.5792 51.7638 41.9858 50.7862 41.5812C49.8086 41.1765 48.7608 40.9684 47.7027 40.9688Z" fill="white"/>
</g>
<defs>
<linearGradient id="paint0_linear_711_1008" x1="9.75" y1="11.75" x2="27" y2="31.75" gradientUnits="userSpaceOnUse">
<stop stop-color="#7AB93C" stop-opacity="0.8"/>
<stop offset="1" stop-color="#2C8D31"/>
</linearGradient>
<linearGradient id="paint1_linear_711_1008" x1="9.96952" y1="6.31361" x2="71.5" y2="72.5" gradientUnits="userSpaceOnUse">
<stop stop-color="#85CA75"/>
<stop offset="1" stop-color="#126F2E"/>
<stop offset="1" stop-color="#737373"/>
</linearGradient>
<clipPath id="clip0_711_1008">
<rect width="35" height="35" fill="white" transform="translate(23 25)"/>
</clipPath>
</defs>
</svg>
