<svg width="111" height="101" viewBox="0 0 111 101" fill="none" xmlns="http://www.w3.org/2000/svg">
<rect x="23" y="9" width="67" height="67" rx="20" fill="url(#paint0_linear_711_1154)" fill-opacity="0.7"/>
<path fill-rule="evenodd" clip-rule="evenodd" d="M31.25 37.5C41.0531 37.5 49 29.5531 49 19.75C49 15.7091 47.6497 11.9835 45.3756 9H70C81.0457 9 90 17.9543 90 29V56C90 67.0457 81.0457 76 70 76H43C31.9543 76 23 67.0457 23 56V35.4703C25.4648 36.7665 28.2718 37.5 31.25 37.5Z" fill="url(#paint1_linear_711_1154)"/>
<circle cx="36.5" cy="30" r="1" fill="#83B875"/>
<circle cx="69.25" cy="19.25" r="1.25" fill="#6CA66C"/>
<circle cx="55.25" cy="26.25" r="1.25" fill="#418D54"/>
<g clip-path="url(#clip0_711_1154)">
<path fill-rule="evenodd" clip-rule="evenodd" d="M66.4565 53.3675H51.2052C50.1071 53.3675 49.2175 52.1366 49.2175 50.6185V38.475C49.2175 36.9568 50.1071 35.726 51.2052 35.726H66.4565C67.5546 35.726 68.4442 36.9583 68.4442 38.475V50.6171C68.4442 52.1352 67.5546 53.3675 66.4565 53.3675Z" stroke="white" stroke-width="1.5"/>
<path d="M68.8306 32.2858C68.8306 31.7443 68.6155 31.225 68.2327 30.8421C67.8498 30.4592 67.3305 30.2441 66.789 30.2441H43.9573C43.5804 30.2441 43.2071 30.3185 42.859 30.463C42.5108 30.6074 42.1946 30.8192 41.9284 31.086C41.6622 31.3529 41.4513 31.6697 41.3077 32.0182C41.1641 32.3667 41.0907 32.7401 41.0917 33.1171V46.5614C41.0915 46.8352 41.1453 47.1063 41.2501 47.3593C41.3549 47.6122 41.5085 47.842 41.7022 48.0354C41.896 48.2289 42.126 48.3822 42.379 48.4866C42.6321 48.5911 42.9033 48.6445 43.1771 48.6439H45.3077" stroke="white" stroke-width="1.5"/>
<path d="M43.4017 45.2766L46.2337 48.4222L43.4002 51.5708" stroke="white" stroke-width="1.5"/>
</g>
<path d="M8.81836 92.2354L10.2393 92.5942C9.94141 93.7612 9.4043 94.6523 8.62793 95.2676C7.85645 95.8779 6.91162 96.1831 5.79346 96.1831C4.63623 96.1831 3.69385 95.9487 2.96631 95.48C2.24365 95.0063 1.69189 94.3228 1.31104 93.4292C0.935059 92.5356 0.74707 91.5762 0.74707 90.5508C0.74707 89.4326 0.959473 88.4585 1.38428 87.6284C1.81396 86.7935 2.42188 86.1611 3.20801 85.7314C3.99902 85.2969 4.86816 85.0796 5.81543 85.0796C6.88965 85.0796 7.79297 85.353 8.52539 85.8999C9.25781 86.4468 9.76807 87.2158 10.0562 88.207L8.65723 88.5366C8.4082 87.7554 8.04688 87.1865 7.57324 86.8301C7.09961 86.4736 6.50391 86.2954 5.78613 86.2954C4.96094 86.2954 4.27002 86.4932 3.71338 86.8887C3.16162 87.2842 2.77344 87.8164 2.54883 88.4854C2.32422 89.1494 2.21191 89.8354 2.21191 90.5435C2.21191 91.4565 2.34375 92.2549 2.60742 92.9385C2.87598 93.6172 3.29102 94.125 3.85254 94.4619C4.41406 94.7988 5.02197 94.9673 5.67627 94.9673C6.47217 94.9673 7.146 94.7378 7.69775 94.2788C8.24951 93.8198 8.62305 93.1387 8.81836 92.2354ZM11.8286 96V85.2627H13.147V89.1152C13.7622 88.4023 14.5386 88.0459 15.4761 88.0459C16.0522 88.0459 16.5527 88.1606 16.9775 88.3901C17.4023 88.6147 17.7051 88.9272 17.8857 89.3276C18.0713 89.728 18.1641 90.3091 18.1641 91.0708V96H16.8457V91.0708C16.8457 90.4116 16.7017 89.9331 16.4136 89.6353C16.1304 89.3325 15.7275 89.1812 15.2051 89.1812C14.8145 89.1812 14.4458 89.2837 14.0991 89.4888C13.7573 89.689 13.5132 89.9624 13.3667 90.3091C13.2202 90.6558 13.147 91.1343 13.147 91.7446V96H11.8286ZM25.2759 96V94.8574C24.6704 95.7363 23.8477 96.1758 22.8076 96.1758C22.3486 96.1758 21.9189 96.0879 21.5186 95.9121C21.123 95.7363 20.8276 95.5166 20.6323 95.2529C20.4419 94.9844 20.3076 94.6572 20.2295 94.2715C20.1758 94.0127 20.1489 93.6025 20.1489 93.041V88.2217H21.4673V92.5356C21.4673 93.2241 21.4941 93.688 21.5479 93.9272C21.6309 94.2739 21.8066 94.5474 22.0752 94.7476C22.3438 94.9429 22.6758 95.0405 23.0713 95.0405C23.4668 95.0405 23.8379 94.9404 24.1846 94.7402C24.5312 94.5352 24.7754 94.2593 24.917 93.9126C25.0635 93.561 25.1367 93.0532 25.1367 92.3892V88.2217H26.4551V96H25.2759ZM28.4692 98.9956L28.3228 97.7578C28.6108 97.8359 28.8623 97.875 29.0771 97.875C29.3701 97.875 29.6045 97.8262 29.7803 97.7285C29.9561 97.6309 30.1001 97.4941 30.2124 97.3184C30.2954 97.1865 30.4297 96.8594 30.6152 96.3369C30.6396 96.2637 30.6787 96.1562 30.7324 96.0146L27.7808 88.2217H29.2017L30.8203 92.7261C31.0303 93.2974 31.2183 93.8979 31.3843 94.5278C31.5356 93.9224 31.7163 93.3315 31.9263 92.7554L33.5889 88.2217H34.9072L31.9482 96.1318C31.6309 96.9863 31.3843 97.5747 31.2085 97.897C30.9741 98.3315 30.7056 98.6489 30.4028 98.8491C30.1001 99.0542 29.7388 99.1567 29.3188 99.1567C29.0649 99.1567 28.7817 99.103 28.4692 98.9956ZM41.3525 93.4951L42.7148 93.6636C42.5 94.4595 42.1021 95.0771 41.521 95.5166C40.9399 95.9561 40.1978 96.1758 39.2944 96.1758C38.1567 96.1758 37.2534 95.8267 36.5845 95.1284C35.9204 94.4253 35.5884 93.4414 35.5884 92.1768C35.5884 90.8682 35.9253 89.8525 36.5991 89.1299C37.2729 88.4072 38.147 88.0459 39.2212 88.0459C40.2612 88.0459 41.1108 88.3999 41.77 89.1079C42.4292 89.8159 42.7588 90.812 42.7588 92.0962C42.7588 92.1743 42.7563 92.2915 42.7515 92.4478H36.9507C36.9995 93.3022 37.2412 93.9565 37.6758 94.4106C38.1104 94.8647 38.6523 95.0918 39.3018 95.0918C39.7852 95.0918 40.1978 94.9648 40.5396 94.7109C40.8813 94.457 41.1523 94.0518 41.3525 93.4951ZM37.0239 91.3638H41.3672C41.3086 90.7095 41.1426 90.2188 40.8691 89.8916C40.4492 89.3838 39.9048 89.1299 39.2358 89.1299C38.6304 89.1299 38.1201 89.3325 37.7051 89.7378C37.2949 90.1431 37.0679 90.6851 37.0239 91.3638ZM39.1919 86.0098L38.3643 87.2549H36.8555L38.4375 85.2041H39.8438L41.4917 87.2549H39.9976L39.1919 86.0098ZM38.7598 84.1055C39.0381 84.0762 39.2163 84.0493 39.2944 84.0249C39.5532 83.9614 39.6851 83.8613 39.6899 83.7246C39.6948 83.6123 39.6265 83.5171 39.4849 83.439C39.2798 83.3267 38.9551 83.2705 38.5107 83.2705C38.3594 83.2705 38.1299 83.2803 37.8223 83.2998L37.7417 82.6113C37.9321 82.5723 38.2837 82.5552 38.7964 82.5601C39.397 82.5649 39.8877 82.6626 40.2686 82.853C40.6885 83.0581 40.9033 83.3242 40.9131 83.6514C40.9326 84.1445 40.4883 84.4473 39.5801 84.5596V84.9258H38.7598V84.1055ZM44.3774 96V88.2217H45.564V89.3276C46.1353 88.4731 46.9604 88.0459 48.0396 88.0459C48.5083 88.0459 48.938 88.1313 49.3286 88.3022C49.7241 88.4683 50.0195 88.688 50.2148 88.9614C50.4102 89.2349 50.5469 89.5596 50.625 89.9355C50.6738 90.1797 50.6982 90.6069 50.6982 91.2173V96H49.3799V91.2686C49.3799 90.7314 49.3286 90.3311 49.2261 90.0674C49.1235 89.7988 48.9404 89.5864 48.6768 89.4302C48.418 89.269 48.1128 89.1885 47.7612 89.1885C47.1997 89.1885 46.7139 89.3667 46.3037 89.7231C45.8984 90.0796 45.6958 90.7559 45.6958 91.752V96H44.3774ZM59.7803 94.8208L59.9707 95.9854C59.5996 96.0635 59.2676 96.1025 58.9746 96.1025C58.4961 96.1025 58.125 96.0269 57.8613 95.8755C57.5977 95.7241 57.4121 95.5264 57.3047 95.2822C57.1973 95.0332 57.1436 94.5132 57.1436 93.7222V89.2471H56.1768V88.2217H57.1436V86.2954L58.4546 85.5044V88.2217H59.7803V89.2471H58.4546V93.7954C58.4546 94.1714 58.4766 94.4131 58.5205 94.5205C58.5693 94.6279 58.645 94.7134 58.7476 94.7769C58.855 94.8403 59.0063 94.8721 59.2017 94.8721C59.3481 94.8721 59.541 94.855 59.7803 94.8208ZM61.084 86.7788V85.2627H62.4023V86.7788H61.084ZM61.084 96V88.2217H62.4023V96H61.084ZM69.7412 93.4951L71.1035 93.6636C70.8887 94.4595 70.4907 95.0771 69.9097 95.5166C69.3286 95.9561 68.5864 96.1758 67.6831 96.1758C66.5454 96.1758 65.6421 95.8267 64.9731 95.1284C64.3091 94.4253 63.9771 93.4414 63.9771 92.1768C63.9771 90.8682 64.314 89.8525 64.9878 89.1299C65.6616 88.4072 66.5356 88.0459 67.6099 88.0459C68.6499 88.0459 69.4995 88.3999 70.1587 89.1079C70.8179 89.8159 71.1475 90.812 71.1475 92.0962C71.1475 92.1743 71.145 92.2915 71.1401 92.4478H65.3394C65.3882 93.3022 65.6299 93.9565 66.0645 94.4106C66.499 94.8647 67.041 95.0918 67.6904 95.0918C68.1738 95.0918 68.5864 94.9648 68.9282 94.7109C69.27 94.457 69.541 94.0518 69.7412 93.4951ZM65.4126 91.3638H69.7559C69.6973 90.7095 69.5312 90.2188 69.2578 89.8916C68.8379 89.3838 68.2935 89.1299 67.6245 89.1299C67.019 89.1299 66.5088 89.3325 66.0938 89.7378C65.6836 90.1431 65.4565 90.6851 65.4126 91.3638ZM67.5806 86.0098L66.7529 87.2549H65.2441L66.8262 85.2041H68.2324L69.8804 87.2549H68.3862L67.5806 86.0098ZM68.2324 84.6694H67.1704L65.4785 82.6187H67.2437L68.2324 84.6694ZM72.7661 96V88.2217H73.9526V89.3276C74.5239 88.4731 75.3491 88.0459 76.4282 88.0459C76.897 88.0459 77.3267 88.1313 77.7173 88.3022C78.1128 88.4683 78.4082 88.688 78.6035 88.9614C78.7988 89.2349 78.9355 89.5596 79.0137 89.9355C79.0625 90.1797 79.0869 90.6069 79.0869 91.2173V96H77.7686V91.2686C77.7686 90.7314 77.7173 90.3311 77.6147 90.0674C77.5122 89.7988 77.3291 89.5864 77.0654 89.4302C76.8066 89.269 76.5015 89.1885 76.1499 89.1885C75.5884 89.1885 75.1025 89.3667 74.6924 89.7231C74.2871 90.0796 74.0845 90.7559 74.0845 91.752V96H72.7661ZM85.2905 96V88.2217H86.4697V89.313C86.7139 88.9321 87.0386 88.627 87.4438 88.3975C87.8491 88.1631 88.3105 88.0459 88.8281 88.0459C89.4043 88.0459 89.8755 88.1655 90.2417 88.4048C90.6128 88.644 90.874 88.9785 91.0254 89.4082C91.6406 88.5 92.4414 88.0459 93.4277 88.0459C94.1992 88.0459 94.7925 88.2607 95.2075 88.6904C95.6226 89.1152 95.8301 89.772 95.8301 90.6606V96H94.519V91.1001C94.519 90.5728 94.4751 90.1943 94.3872 89.9648C94.3042 89.7305 94.1504 89.5425 93.9258 89.4009C93.7012 89.2593 93.4375 89.1885 93.1348 89.1885C92.5879 89.1885 92.1338 89.3716 91.7725 89.7378C91.4111 90.0991 91.2305 90.6802 91.2305 91.481V96H89.9121V90.9463C89.9121 90.3604 89.8047 89.9209 89.5898 89.6279C89.375 89.335 89.0234 89.1885 88.5352 89.1885C88.1641 89.1885 87.8198 89.2861 87.5024 89.4814C87.1899 89.6768 86.9629 89.9624 86.8213 90.3384C86.6797 90.7144 86.6089 91.2563 86.6089 91.9644V96H85.2905ZM102.861 95.0405C102.373 95.4556 101.902 95.7485 101.448 95.9194C100.999 96.0903 100.515 96.1758 99.9976 96.1758C99.1431 96.1758 98.4863 95.9683 98.0273 95.5532C97.5684 95.1333 97.3389 94.5986 97.3389 93.9492C97.3389 93.5684 97.4243 93.2217 97.5952 92.9092C97.771 92.5918 97.998 92.3379 98.2764 92.1475C98.5596 91.957 98.877 91.813 99.2285 91.7153C99.4873 91.647 99.8779 91.5811 100.4 91.5176C101.465 91.3906 102.249 91.2393 102.751 91.0635C102.756 90.8828 102.759 90.7681 102.759 90.7192C102.759 90.1821 102.634 89.8037 102.385 89.584C102.048 89.2861 101.548 89.1372 100.884 89.1372C100.264 89.1372 99.8047 89.2471 99.5068 89.4668C99.2139 89.6816 98.9966 90.0649 98.855 90.6167L97.5659 90.4409C97.6831 89.8892 97.876 89.4448 98.1445 89.1079C98.4131 88.7661 98.8013 88.5049 99.3091 88.3242C99.8169 88.1387 100.405 88.0459 101.074 88.0459C101.738 88.0459 102.278 88.124 102.693 88.2803C103.108 88.4365 103.413 88.6343 103.608 88.8735C103.804 89.1079 103.94 89.4058 104.019 89.7671C104.062 89.9917 104.084 90.397 104.084 90.9829V92.7407C104.084 93.9663 104.111 94.7427 104.165 95.0698C104.224 95.3921 104.336 95.7021 104.502 96H103.125C102.988 95.7266 102.9 95.4067 102.861 95.0405ZM102.751 92.0962C102.273 92.2915 101.555 92.4575 100.598 92.5942C100.056 92.6724 99.6729 92.7603 99.4482 92.8579C99.2236 92.9556 99.0503 93.0996 98.9282 93.29C98.8062 93.4756 98.7451 93.6831 98.7451 93.9126C98.7451 94.2642 98.877 94.5571 99.1406 94.7915C99.4092 95.0259 99.7998 95.1431 100.312 95.1431C100.82 95.1431 101.272 95.0332 101.667 94.8135C102.063 94.5889 102.354 94.2837 102.539 93.8979C102.681 93.6001 102.751 93.1606 102.751 92.5796V92.0962ZM102.356 85.2773H103.257C103.184 85.8877 102.959 86.3564 102.583 86.6836C102.212 87.0107 101.716 87.1743 101.096 87.1743C100.471 87.1743 99.9707 87.0132 99.5947 86.6909C99.2236 86.3638 99.0015 85.8926 98.9282 85.2773H99.8291C99.8975 85.6094 100.032 85.8584 100.232 86.0244C100.437 86.1855 100.71 86.2661 101.052 86.2661C101.448 86.2661 101.746 86.188 101.946 86.0317C102.151 85.8706 102.288 85.6191 102.356 85.2773ZM100.151 98.3804V96.8789H101.653V98.3804H100.151ZM109.014 94.8208L109.204 95.9854C108.833 96.0635 108.501 96.1025 108.208 96.1025C107.729 96.1025 107.358 96.0269 107.095 95.8755C106.831 95.7241 106.646 95.5264 106.538 95.2822C106.431 95.0332 106.377 94.5132 106.377 93.7222V89.2471H105.41V88.2217H106.377V86.2954L107.688 85.5044V88.2217H109.014V89.2471H107.688V93.7954C107.688 94.1714 107.71 94.4131 107.754 94.5205C107.803 94.6279 107.878 94.7134 107.981 94.7769C108.088 94.8403 108.24 94.8721 108.435 94.8721C108.582 94.8721 108.774 94.855 109.014 94.8208Z" fill="white"/>
<circle cx="86.5" cy="13.5" r="13.5" fill="#D9D9D9" fill-opacity="0.7"/>
<path fill-rule="evenodd" clip-rule="evenodd" d="M87.2344 13.4441L90.8772 9.80122L90.1701 9.09412L86.5273 12.737L82.8844 9.09413L82.1773 9.80124L85.8202 13.4441L81.4702 17.794L82.1773 18.5011L86.5273 14.1512L90.8772 18.5011L91.5843 17.794L87.2344 13.4441Z" fill="black"/>
<defs>
<linearGradient id="paint0_linear_711_1154" x1="25.75" y1="11.75" x2="43" y2="31.75" gradientUnits="userSpaceOnUse">
<stop stop-color="#7AB93C" stop-opacity="0.8"/>
<stop offset="1" stop-color="#2C8D31"/>
</linearGradient>
<linearGradient id="paint1_linear_711_1154" x1="25.9695" y1="6.31361" x2="87.5" y2="72.5" gradientUnits="userSpaceOnUse">
<stop stop-color="#85CA75"/>
<stop offset="1" stop-color="#126F2E"/>
<stop offset="1" stop-color="#737373"/>
</linearGradient>
<clipPath id="clip0_711_1154">
<rect width="35" height="35" fill="white" transform="translate(38 25)"/>
</clipPath>
</defs>
</svg>
