<svg width="134" height="134" viewBox="0 0 134 134" fill="none" xmlns="http://www.w3.org/2000/svg">
<rect width="134" height="134" rx="20" fill="url(#paint0_linear_1407_15549)" fill-opacity="0.7"/>
<path fill-rule="evenodd" clip-rule="evenodd" d="M16.5 57C36.1061 57 52 41.1061 52 21.5C52 13.4182 49.2993 5.96708 44.7513 0H114C125.046 0 134 8.9543 134 20V114C134 125.046 125.046 134 114 134H20C8.9543 134 0 125.046 0 114V52.9406C4.92964 55.533 10.5435 57 16.5 57Z" fill="url(#paint1_linear_1407_15549)"/>
<circle cx="27" cy="42" r="2" fill="#83B875"/>
<circle cx="92.5" cy="20.5" r="2.5" fill="#6CA66C"/>
<circle cx="64.5" cy="34.5" r="2.5" fill="#418D54"/>
<g clip-path="url(#clip0_1407_15549)">
<path fill-rule="evenodd" clip-rule="evenodd" d="M84.5303 68.388H60.1283C58.3713 68.388 56.948 66.4186 56.948 63.9896V44.56C56.948 42.131 58.3713 40.1616 60.1283 40.1616H84.5303C86.2873 40.1616 87.7107 42.1333 87.7107 44.56V63.9873C87.7107 66.4163 86.2873 68.388 84.5303 68.388Z" stroke="white" stroke-width="2"/>
<path d="M88.329 34.6573C88.329 33.7909 87.9848 32.96 87.3722 32.3474C86.7596 31.7348 85.9287 31.3906 85.0623 31.3906H48.5317C47.9286 31.3906 47.3314 31.5096 46.7744 31.7408C46.2173 31.9719 45.7114 32.3107 45.2855 32.7377C44.8595 33.1647 44.5221 33.6715 44.2923 34.2291C44.0626 34.7867 43.9451 35.3842 43.9467 35.9873V57.4983C43.9464 57.9363 44.0325 58.3701 44.2001 58.7748C44.3678 59.1795 44.6136 59.5472 44.9236 59.8567C45.2335 60.1662 45.6015 60.4116 46.0064 60.5786C46.4114 60.7457 46.8453 60.8312 47.2833 60.8303H50.6923" stroke="white" stroke-width="2"/>
<path d="M47.6427 55.4426L52.174 60.4756L47.6403 65.5133" stroke="white" stroke-width="2"/>
</g>
<path d="M35.7549 96.2354L37.1758 96.5942C36.8779 97.7612 36.3408 98.6523 35.5645 99.2676C34.793 99.8779 33.8481 100.183 32.73 100.183C31.5728 100.183 30.6304 99.9487 29.9028 99.48C29.1802 99.0063 28.6284 98.3228 28.2476 97.4292C27.8716 96.5356 27.6836 95.5762 27.6836 94.5508C27.6836 93.4326 27.896 92.4585 28.3208 91.6284C28.7505 90.7935 29.3584 90.1611 30.1445 89.7314C30.9355 89.2969 31.8047 89.0796 32.752 89.0796C33.8262 89.0796 34.7295 89.353 35.4619 89.8999C36.1943 90.4468 36.7046 91.2158 36.9927 92.207L35.5938 92.5366C35.3447 91.7554 34.9834 91.1865 34.5098 90.8301C34.0361 90.4736 33.4404 90.2954 32.7227 90.2954C31.8975 90.2954 31.2065 90.4932 30.6499 90.8887C30.0981 91.2842 29.71 91.8164 29.4854 92.4854C29.2607 93.1494 29.1484 93.8354 29.1484 94.5435C29.1484 95.4565 29.2803 96.2549 29.5439 96.9385C29.8125 97.6172 30.2275 98.125 30.7891 98.4619C31.3506 98.7988 31.9585 98.9673 32.6128 98.9673C33.4087 98.9673 34.0825 98.7378 34.6343 98.2788C35.186 97.8198 35.5596 97.1387 35.7549 96.2354ZM38.7651 100V89.2627H40.0835V93.1152C40.6987 92.4023 41.4751 92.0459 42.4126 92.0459C42.9888 92.0459 43.4893 92.1606 43.9141 92.3901C44.3389 92.6147 44.6416 92.9272 44.8223 93.3276C45.0078 93.728 45.1006 94.3091 45.1006 95.0708V100H43.7822V95.0708C43.7822 94.4116 43.6382 93.9331 43.3501 93.6353C43.0669 93.3325 42.6641 93.1812 42.1416 93.1812C41.751 93.1812 41.3823 93.2837 41.0356 93.4888C40.6938 93.689 40.4497 93.9624 40.3032 94.3091C40.1567 94.6558 40.0835 95.1343 40.0835 95.7446V100H38.7651ZM52.2124 100V98.8574C51.6069 99.7363 50.7842 100.176 49.7441 100.176C49.2852 100.176 48.8555 100.088 48.4551 99.9121C48.0596 99.7363 47.7642 99.5166 47.5688 99.2529C47.3784 98.9844 47.2441 98.6572 47.166 98.2715C47.1123 98.0127 47.0854 97.6025 47.0854 97.041V92.2217H48.4038V96.5356C48.4038 97.2241 48.4307 97.688 48.4844 97.9272C48.5674 98.2739 48.7432 98.5474 49.0117 98.7476C49.2803 98.9429 49.6123 99.0405 50.0078 99.0405C50.4033 99.0405 50.7744 98.9404 51.1211 98.7402C51.4678 98.5352 51.7119 98.2593 51.8535 97.9126C52 97.561 52.0732 97.0532 52.0732 96.3892V92.2217H53.3916V100H52.2124ZM55.4058 102.996L55.2593 101.758C55.5474 101.836 55.7988 101.875 56.0137 101.875C56.3066 101.875 56.541 101.826 56.7168 101.729C56.8926 101.631 57.0366 101.494 57.1489 101.318C57.2319 101.187 57.3662 100.859 57.5518 100.337C57.5762 100.264 57.6152 100.156 57.6689 100.015L54.7173 92.2217H56.1382L57.7568 96.7261C57.9668 97.2974 58.1548 97.8979 58.3208 98.5278C58.4722 97.9224 58.6528 97.3315 58.8628 96.7554L60.5254 92.2217H61.8438L58.8848 100.132C58.5674 100.986 58.3208 101.575 58.145 101.897C57.9106 102.332 57.6421 102.649 57.3394 102.849C57.0366 103.054 56.6753 103.157 56.2554 103.157C56.0015 103.157 55.7183 103.103 55.4058 102.996ZM68.2891 97.4951L69.6514 97.6636C69.4365 98.4595 69.0386 99.0771 68.4575 99.5166C67.8765 99.9561 67.1343 100.176 66.231 100.176C65.0933 100.176 64.1899 99.8267 63.521 99.1284C62.8569 98.4253 62.5249 97.4414 62.5249 96.1768C62.5249 94.8682 62.8618 93.8525 63.5356 93.1299C64.2095 92.4072 65.0835 92.0459 66.1577 92.0459C67.1978 92.0459 68.0474 92.3999 68.7065 93.1079C69.3657 93.8159 69.6953 94.812 69.6953 96.0962C69.6953 96.1743 69.6929 96.2915 69.688 96.4478H63.8872C63.936 97.3022 64.1777 97.9565 64.6123 98.4106C65.0469 98.8647 65.5889 99.0918 66.2383 99.0918C66.7217 99.0918 67.1343 98.9648 67.4761 98.7109C67.8179 98.457 68.0889 98.0518 68.2891 97.4951ZM63.9604 95.3638H68.3037C68.2451 94.7095 68.0791 94.2188 67.8057 93.8916C67.3857 93.3838 66.8413 93.1299 66.1724 93.1299C65.5669 93.1299 65.0566 93.3325 64.6416 93.7378C64.2314 94.1431 64.0044 94.6851 63.9604 95.3638ZM66.1284 90.0098L65.3008 91.2549H63.792L65.374 89.2041H66.7803L68.4282 91.2549H66.9341L66.1284 90.0098ZM65.6963 88.1055C65.9746 88.0762 66.1528 88.0493 66.231 88.0249C66.4897 87.9614 66.6216 87.8613 66.6265 87.7246C66.6313 87.6123 66.563 87.5171 66.4214 87.439C66.2163 87.3267 65.8916 87.2705 65.4473 87.2705C65.2959 87.2705 65.0664 87.2803 64.7588 87.2998L64.6782 86.6113C64.8687 86.5723 65.2202 86.5552 65.7329 86.5601C66.3335 86.5649 66.8242 86.6626 67.2051 86.853C67.625 87.0581 67.8398 87.3242 67.8496 87.6514C67.8691 88.1445 67.4248 88.4473 66.5166 88.5596V88.9258H65.6963V88.1055ZM71.314 100V92.2217H72.5005V93.3276C73.0718 92.4731 73.897 92.0459 74.9761 92.0459C75.4448 92.0459 75.8745 92.1313 76.2651 92.3022C76.6606 92.4683 76.9561 92.688 77.1514 92.9614C77.3467 93.2349 77.4834 93.5596 77.5615 93.9355C77.6104 94.1797 77.6348 94.6069 77.6348 95.2173V100H76.3164V95.2686C76.3164 94.7314 76.2651 94.3311 76.1626 94.0674C76.0601 93.7988 75.877 93.5864 75.6133 93.4302C75.3545 93.269 75.0493 93.1885 74.6978 93.1885C74.1362 93.1885 73.6504 93.3667 73.2402 93.7231C72.835 94.0796 72.6323 94.7559 72.6323 95.752V100H71.314ZM86.7168 98.8208L86.9072 99.9854C86.5361 100.063 86.2041 100.103 85.9111 100.103C85.4326 100.103 85.0615 100.027 84.7979 99.8755C84.5342 99.7241 84.3486 99.5264 84.2412 99.2822C84.1338 99.0332 84.0801 98.5132 84.0801 97.7222V93.2471H83.1133V92.2217H84.0801V90.2954L85.3911 89.5044V92.2217H86.7168V93.2471H85.3911V97.7954C85.3911 98.1714 85.4131 98.4131 85.457 98.5205C85.5059 98.6279 85.5815 98.7134 85.6841 98.7769C85.7915 98.8403 85.9429 98.8721 86.1382 98.8721C86.2847 98.8721 86.4775 98.855 86.7168 98.8208ZM88.0205 90.7788V89.2627H89.3389V90.7788H88.0205ZM88.0205 100V92.2217H89.3389V100H88.0205ZM96.6777 97.4951L98.04 97.6636C97.8252 98.4595 97.4272 99.0771 96.8462 99.5166C96.2651 99.9561 95.5229 100.176 94.6196 100.176C93.4819 100.176 92.5786 99.8267 91.9097 99.1284C91.2456 98.4253 90.9136 97.4414 90.9136 96.1768C90.9136 94.8682 91.2505 93.8525 91.9243 93.1299C92.5981 92.4072 93.4722 92.0459 94.5464 92.0459C95.5864 92.0459 96.436 92.3999 97.0952 93.1079C97.7544 93.8159 98.084 94.812 98.084 96.0962C98.084 96.1743 98.0815 96.2915 98.0767 96.4478H92.2759C92.3247 97.3022 92.5664 97.9565 93.001 98.4106C93.4355 98.8647 93.9775 99.0918 94.627 99.0918C95.1104 99.0918 95.5229 98.9648 95.8647 98.7109C96.2065 98.457 96.4775 98.0518 96.6777 97.4951ZM92.3491 95.3638H96.6924C96.6338 94.7095 96.4678 94.2188 96.1943 93.8916C95.7744 93.3838 95.23 93.1299 94.561 93.1299C93.9556 93.1299 93.4453 93.3325 93.0303 93.7378C92.6201 94.1431 92.3931 94.6851 92.3491 95.3638ZM94.5171 90.0098L93.6895 91.2549H92.1807L93.7627 89.2041H95.1689L96.8169 91.2549H95.3228L94.5171 90.0098ZM95.1689 88.6694H94.1069L92.415 86.6187H94.1802L95.1689 88.6694ZM99.7026 100V92.2217H100.889V93.3276C101.46 92.4731 102.286 92.0459 103.365 92.0459C103.833 92.0459 104.263 92.1313 104.654 92.3022C105.049 92.4683 105.345 92.688 105.54 92.9614C105.735 93.2349 105.872 93.5596 105.95 93.9355C105.999 94.1797 106.023 94.6069 106.023 95.2173V100H104.705V95.2686C104.705 94.7314 104.654 94.3311 104.551 94.0674C104.449 93.7988 104.266 93.5864 104.002 93.4302C103.743 93.269 103.438 93.1885 103.086 93.1885C102.525 93.1885 102.039 93.3667 101.629 93.7231C101.224 94.0796 101.021 94.7559 101.021 95.752V100H99.7026ZM55.479 117V109.222H56.6582V110.313C56.9023 109.932 57.2271 109.627 57.6323 109.397C58.0376 109.163 58.499 109.046 59.0166 109.046C59.5928 109.046 60.064 109.166 60.4302 109.405C60.8013 109.644 61.0625 109.979 61.2139 110.408C61.8291 109.5 62.6299 109.046 63.6162 109.046C64.3877 109.046 64.981 109.261 65.396 109.69C65.811 110.115 66.0186 110.772 66.0186 111.661V117H64.7075V112.1C64.7075 111.573 64.6636 111.194 64.5757 110.965C64.4927 110.73 64.3389 110.542 64.1143 110.401C63.8896 110.259 63.626 110.188 63.3232 110.188C62.7764 110.188 62.3223 110.372 61.9609 110.738C61.5996 111.099 61.4189 111.68 61.4189 112.481V117H60.1006V111.946C60.1006 111.36 59.9932 110.921 59.7783 110.628C59.5635 110.335 59.2119 110.188 58.7236 110.188C58.3525 110.188 58.0083 110.286 57.6909 110.481C57.3784 110.677 57.1514 110.962 57.0098 111.338C56.8682 111.714 56.7974 112.256 56.7974 112.964V117H55.479ZM73.0498 116.041C72.5615 116.456 72.0903 116.749 71.6362 116.919C71.187 117.09 70.7036 117.176 70.186 117.176C69.3315 117.176 68.6748 116.968 68.2158 116.553C67.7568 116.133 67.5273 115.599 67.5273 114.949C67.5273 114.568 67.6128 114.222 67.7837 113.909C67.9595 113.592 68.1865 113.338 68.4648 113.147C68.748 112.957 69.0654 112.813 69.417 112.715C69.6758 112.647 70.0664 112.581 70.5889 112.518C71.6533 112.391 72.437 112.239 72.9399 112.063C72.9448 111.883 72.9473 111.768 72.9473 111.719C72.9473 111.182 72.8228 110.804 72.5737 110.584C72.2368 110.286 71.7363 110.137 71.0723 110.137C70.4521 110.137 69.9932 110.247 69.6953 110.467C69.4023 110.682 69.1851 111.065 69.0435 111.617L67.7544 111.441C67.8716 110.889 68.0645 110.445 68.333 110.108C68.6016 109.766 68.9897 109.505 69.4976 109.324C70.0054 109.139 70.5938 109.046 71.2627 109.046C71.9268 109.046 72.4663 109.124 72.8813 109.28C73.2964 109.437 73.6016 109.634 73.7969 109.874C73.9922 110.108 74.1289 110.406 74.207 110.767C74.251 110.992 74.2729 111.397 74.2729 111.983V113.741C74.2729 114.966 74.2998 115.743 74.3535 116.07C74.4121 116.392 74.5244 116.702 74.6904 117H73.3135C73.1768 116.727 73.0889 116.407 73.0498 116.041ZM72.9399 113.096C72.4614 113.292 71.7437 113.458 70.7866 113.594C70.2446 113.672 69.8613 113.76 69.6367 113.858C69.4121 113.956 69.2388 114.1 69.1167 114.29C68.9946 114.476 68.9336 114.683 68.9336 114.913C68.9336 115.264 69.0654 115.557 69.3291 115.792C69.5977 116.026 69.9883 116.143 70.501 116.143C71.0088 116.143 71.4604 116.033 71.856 115.813C72.2515 115.589 72.542 115.284 72.7275 114.898C72.8691 114.6 72.9399 114.161 72.9399 113.58V113.096ZM72.5444 106.277H73.4453C73.3721 106.888 73.1475 107.356 72.7715 107.684C72.4004 108.011 71.9048 108.174 71.2847 108.174C70.6597 108.174 70.1592 108.013 69.7832 107.691C69.4121 107.364 69.1899 106.893 69.1167 106.277H70.0176C70.0859 106.609 70.2202 106.858 70.4204 107.024C70.6255 107.186 70.8989 107.266 71.2407 107.266C71.6362 107.266 71.9341 107.188 72.1343 107.032C72.3394 106.871 72.4761 106.619 72.5444 106.277ZM70.3398 119.38V117.879H71.8413V119.38H70.3398ZM79.2021 115.821L79.3926 116.985C79.0215 117.063 78.6895 117.103 78.3965 117.103C77.918 117.103 77.5469 117.027 77.2832 116.875C77.0195 116.724 76.834 116.526 76.7266 116.282C76.6191 116.033 76.5654 115.513 76.5654 114.722V110.247H75.5986V109.222H76.5654V107.295L77.8765 106.504V109.222H79.2021V110.247H77.8765V114.795C77.8765 115.171 77.8984 115.413 77.9424 115.521C77.9912 115.628 78.0669 115.713 78.1694 115.777C78.2769 115.84 78.4282 115.872 78.6235 115.872C78.77 115.872 78.9629 115.855 79.2021 115.821Z" fill="white"/>
<defs>
<linearGradient id="paint0_linear_1407_15549" x1="5.5" y1="5.5" x2="40" y2="45.5" gradientUnits="userSpaceOnUse">
<stop stop-color="#7AB93C" stop-opacity="0.8"/>
<stop offset="1" stop-color="#2C8D31"/>
</linearGradient>
<linearGradient id="paint1_linear_1407_15549" x1="5.93903" y1="-5.37277" x2="129" y2="127" gradientUnits="userSpaceOnUse">
<stop stop-color="#85CA75"/>
<stop offset="1" stop-color="#126F2E"/>
<stop offset="1" stop-color="#737373"/>
</linearGradient>
<clipPath id="clip0_1407_15549">
<rect width="56" height="56" fill="white" transform="translate(39 23)"/>
</clipPath>
</defs>
</svg>
