<svg width="65" height="65" viewBox="0 0 65 65" fill="none" xmlns="http://www.w3.org/2000/svg">
<g clip-path="url(#clip0_287_368)">
<path d="M33.8698 45.06C33.8703 44.5996 33.7343 44.1493 33.4789 43.7661C33.2235 43.383 32.8601 43.0842 32.4349 42.9076C32.0096 42.731 31.5415 42.6845 31.0898 42.774C30.6381 42.8635 30.2231 43.0849 29.8973 43.4103C29.5715 43.7358 29.3496 44.1505 29.2595 44.6021C29.1695 45.0537 29.2154 45.5218 29.3915 45.9473C29.5676 46.3727 29.8659 46.7364 30.2488 46.9923C30.6316 47.2482 31.0817 47.3848 31.5422 47.3848C32.159 47.3848 32.7506 47.1399 33.187 46.7041C33.6235 46.2682 33.869 45.6769 33.8698 45.06Z" fill="white" stroke="white" stroke-width="1.3" stroke-miterlimit="10"/>
<path d="M42.8613 28.529H45.91C46.4266 28.529 46.9221 28.7342 47.2874 29.0995C47.6527 29.4648 47.8579 29.9603 47.8579 30.4769V34.19C47.8579 34.7066 47.6527 35.2021 47.2874 35.5674C46.9221 35.9327 46.4266 36.1379 45.91 36.1379H42.7933V28.6905C42.8331 26.2925 41.9855 23.9643 40.4132 22.1532C38.8408 20.3422 36.6548 19.176 34.2749 18.8786C32.9619 18.7493 31.6363 18.8963 30.3835 19.3102C29.1307 19.7241 27.9784 20.3956 27.0008 21.2817C26.0232 22.1678 25.2419 23.2487 24.7073 24.4549C24.1726 25.6611 23.8964 26.9659 23.8964 28.2853V36.1379H20.7798C20.2635 36.1371 19.7686 35.9316 19.4037 35.5665C19.0388 35.2013 18.8336 34.7062 18.8333 34.19V30.4769C18.8336 29.9604 19.039 29.4652 19.4042 29.0999C19.7694 28.7347 20.2647 28.5294 20.7812 28.529H23.8313" stroke="white" stroke-width="2" stroke-miterlimit="10"/>
<path d="M24.6926 39.5818C24.6926 39.5818 26.4068 43.659 29.3251 44.3602" stroke="white" stroke-width="1.3" stroke-miterlimit="10"/>
<path d="M47.6624 29.2401H43.4124V36.3234H47.6624V29.2401Z" fill="white"/>
<path d="M23.5791 29.2401H19.3291V36.3234H23.5791V29.2401Z" fill="white"/>
</g>
<defs>
<clipPath id="clip0_287_368">
<rect width="34" height="34" fill="white" transform="translate(16 16)"/>
</clipPath>
</defs>
</svg>
