<svg width="32" height="32" viewBox="0 0 32 32" fill="none" xmlns="http://www.w3.org/2000/svg">
<path d="M16.8698 28.06C16.8703 27.5996 16.7343 27.1493 16.4789 26.7661C16.2235 26.383 15.8601 26.0842 15.4349 25.9076C15.0096 25.731 14.5415 25.6845 14.0898 25.774C13.6381 25.8635 13.2231 26.0849 12.8973 26.4103C12.5715 26.7358 12.3496 27.1505 12.2595 27.6021C12.1695 28.0537 12.2154 28.5218 12.3915 28.9473C12.5676 29.3727 12.8659 29.7364 13.2488 29.9923C13.6316 30.2482 14.0817 30.3848 14.5422 30.3848C15.159 30.3848 15.7506 30.1399 16.187 29.7041C16.6235 29.2682 16.869 28.6769 16.8698 28.06Z" fill="white" stroke="white" stroke-width="1.3" stroke-miterlimit="10"/>
<path d="M25.8613 11.529H28.91C29.4266 11.529 29.9221 11.7342 30.2874 12.0995C30.6527 12.4648 30.8579 12.9603 30.8579 13.4769V17.19C30.8579 17.7066 30.6527 18.2021 30.2874 18.5674C29.9221 18.9327 29.4266 19.1379 28.91 19.1379H25.7933V11.6905C25.8331 9.29246 24.9855 6.96429 23.4132 5.15324C21.8408 3.34218 19.6548 2.17597 17.2749 1.87865C15.9619 1.74932 14.6363 1.89632 13.3835 2.3102C12.1307 2.72407 10.9784 3.39565 10.0008 4.28171C9.02319 5.16777 8.24192 6.24869 7.70726 7.45491C7.1726 8.66112 6.89639 9.96592 6.89642 11.2853V19.1379H3.77975C3.26349 19.1371 2.76861 18.9316 2.4037 18.5665C2.03878 18.2013 1.83363 17.7062 1.83325 17.19L1.83325 13.4769C1.83363 12.9604 2.03897 12.4652 2.4042 12.0999C2.76942 11.7347 3.26466 11.5294 3.78117 11.529H6.83125" stroke="white" stroke-width="2" stroke-miterlimit="10"/>
<path d="M7.69263 22.5818C7.69263 22.5818 9.40679 26.659 12.3251 27.3602" stroke="white" stroke-width="1.3" stroke-miterlimit="10"/>
<path d="M30.6624 12.2401H26.4124V19.3234H30.6624V12.2401Z" fill="white"/>
<path d="M6.5791 12.2401H2.3291V19.3234H6.5791V12.2401Z" fill="white"/>
</svg>
