<svg width="65" height="65" viewBox="0 0 65 65" fill="none" xmlns="http://www.w3.org/2000/svg">
<g clip-path="url(#clip0_291_613)">
<path d="M32.3606 15C29.3224 15.0003 26.3525 15.9014 23.8265 17.5896C21.3004 19.2777 19.3316 21.6769 18.1691 24.4839C17.0066 27.2909 16.7025 30.3796 17.2953 33.3594C17.8881 36.3392 19.3511 39.0764 21.4995 41.2247C23.6478 43.3731 26.3849 44.8361 29.3647 45.4289C32.3446 46.0217 35.4332 45.7176 38.2402 44.555C41.0472 43.3925 43.4465 41.4237 45.1346 38.8977C46.8227 36.3716 47.7239 33.4017 47.7242 30.3635C47.7244 28.3459 47.3271 26.348 46.5551 24.4839C45.7831 22.6198 44.6514 20.9261 43.2247 19.4994C41.7981 18.0728 40.1043 16.9411 38.2402 16.1691C36.3762 15.397 34.3783 14.9998 32.3606 15ZM30.9023 19.3896H33.819V28.4677H30.9023V19.3896ZM42.3721 34.0867C41.5127 36.0304 40.1077 37.6829 38.3275 38.8436C36.5472 40.0044 34.4684 40.6235 32.3431 40.6258C30.1919 40.622 28.0895 39.9834 26.2996 38.7901C24.5096 37.5968 23.1116 35.9018 22.2806 33.9175C21.514 31.9274 21.4024 29.7445 21.9622 27.6866C22.5219 25.6287 23.7237 23.803 25.3927 22.4754L27.2113 24.7563C26.0304 25.693 25.1785 26.9814 24.7792 28.4348C24.3798 29.8883 24.4537 31.4312 24.9902 32.8398C25.6016 34.2764 26.6194 35.5033 27.9184 36.3694C29.2175 37.2356 30.7414 37.7033 32.3027 37.7153C33.864 37.7272 35.3948 37.2827 36.707 36.4365C38.0191 35.5903 39.0555 34.3793 39.6888 32.9521C40.2494 31.562 40.3538 30.0298 39.9868 28.5765C39.6198 27.1233 38.8005 25.8243 37.6471 24.8671L39.5167 22.6285C41.1489 23.9867 42.306 25.8298 42.8199 27.8901C43.3339 29.9504 43.178 32.1209 42.375 34.0867H42.3721Z" fill="white"/>
</g>
<defs>
<clipPath id="clip0_291_613">
<rect width="35" height="35" fill="white" transform="translate(15 15)"/>
</clipPath>
</defs>
</svg>
