<svg width="31" height="31" viewBox="0 0 31 31" fill="none" xmlns="http://www.w3.org/2000/svg">
<path d="M15.3606 6.92399e-08C12.3224 0.000288502 9.35253 0.901438 6.82647 2.58956C4.30041 4.27767 2.33164 6.67689 1.1691 9.48388C0.00655785 12.2909 -0.29754 15.3796 0.295256 18.3594C0.888052 21.3392 2.35112 24.0764 4.49946 26.2247C6.6478 28.3731 9.38493 29.8361 12.3647 30.4289C15.3446 31.0217 18.4332 30.7176 21.2402 29.555C24.0472 28.3925 26.4465 26.4237 28.1346 23.8977C29.8227 21.3716 30.7239 18.4017 30.7242 15.3635C30.7244 13.3459 30.3271 11.348 29.5551 9.48388C28.7831 7.61981 27.6514 5.92611 26.2247 4.49944C24.7981 3.07276 23.1043 1.94107 21.2402 1.16905C19.3762 0.39703 17.3783 -0.000191474 15.3606 6.92399e-08ZM13.9023 4.3896H16.819V13.4677H13.9023V4.3896ZM25.3721 19.0867C24.5127 21.0304 23.1077 22.6829 21.3275 23.8436C19.5472 25.0044 17.4684 25.6235 15.3431 25.6258C13.1919 25.622 11.0895 24.9834 9.29958 23.7901C7.50961 22.5968 6.11158 20.9018 5.28064 18.9175C4.514 16.9274 4.40243 14.7445 4.96215 12.6866C5.52188 10.6287 6.72369 8.80304 8.39272 7.47538L10.2113 9.75625C9.03037 10.693 8.17851 11.9814 7.77916 13.4348C7.37981 14.8883 7.45373 16.4312 7.99021 17.8398C8.60159 19.2764 9.61935 20.5033 10.9184 21.3694C12.2175 22.2356 13.7414 22.7033 15.3027 22.7153C16.864 22.7272 18.3948 22.2827 19.707 21.4365C21.0191 20.5903 22.0555 19.3793 22.6888 17.9521C23.2494 16.562 23.3538 15.0298 22.9868 13.5765C22.6198 12.1233 21.8005 10.8243 20.6471 9.86707L22.5167 7.62848C24.1489 8.98674 25.306 10.8298 25.8199 12.8901C26.3339 14.9504 26.178 17.1209 25.375 19.0867H25.3721Z" fill="white"/>
</svg>
