<svg width="142" height="142" viewBox="0 0 142 142" fill="none" xmlns="http://www.w3.org/2000/svg">
<g filter="url(#filter0_d_211_812)">
<rect x="2" y="2" width="134" height="134" rx="20" fill="url(#paint0_linear_211_812)" fill-opacity="0.7"/>
<path fill-rule="evenodd" clip-rule="evenodd" d="M18.5 59C38.1062 59 54 43.1061 54 23.5C54 15.4182 51.2993 7.9671 46.7512 2H116C127.046 2 136 10.9543 136 22V116C136 127.046 127.046 136 116 136H22C10.9543 136 2 127.046 2 116V54.9406C6.92969 57.533 12.5435 59 18.5 59Z" fill="url(#paint1_linear_211_812)"/>
<circle cx="29" cy="44" r="2" fill="#83B875"/>
<circle cx="94.5" cy="22.5" r="2.5" fill="#6CA66C"/>
<circle cx="66.5" cy="36.5" r="2.5" fill="#418D54"/>
<g clip-path="url(#clip0_211_812)">
<path d="M88.6676 36.8627H58.6283C56.4283 36.8627 54.3184 37.7366 52.7628 39.2922C51.2072 40.8478 50.3333 42.9577 50.3333 45.1577V55.8093" stroke="white" stroke-width="2"/>
<path d="M83.8256 32L88.6743 36.8627L83.8116 41.7113M50.3376 69.4313H80.377C82.577 69.4313 84.6868 68.5574 86.2424 67.0018C87.798 65.4462 88.672 63.3363 88.672 61.1363V51.4483" stroke="white" stroke-width="2"/>
<path d="M55.1819 74.294L50.3333 69.4337L55.1959 64.571" stroke="white" stroke-width="2"/>
</g>
<path d="M21.735 93.645C21.735 90.54 24.09 88.23 27.15 88.23C28.425 88.23 31.185 88.695 31.185 90.33V91.62H29.79V90.795C29.79 89.865 28.185 89.52 27.21 89.52C24.945 89.52 23.28 91.185 23.28 93.585C23.28 96.09 24.99 97.875 27.3 97.875C28.05 97.875 29.94 97.605 29.94 96.63V95.805H31.335V97.095C31.335 98.655 28.68 99.18 27.21 99.18C24.03 99.18 21.735 96.735 21.735 93.645ZM32.6421 99V97.875H33.8421V89.535H32.5671V88.41H35.2821V92.34C35.2821 92.7 35.2371 92.97 35.2371 92.97H35.2671C35.5971 92.235 36.5871 91.23 38.1021 91.23C39.8871 91.23 40.7121 92.205 40.7121 94.14V97.875H41.8971V99H39.2571V94.47C39.2571 93.405 39.0321 92.565 37.8171 92.565C36.3321 92.565 35.2821 93.825 35.2821 95.445V97.875H36.4821V99H32.6421ZM43.742 96.27V92.535H42.467V91.41H45.197V95.97C45.197 97.02 45.407 97.86 46.622 97.86C48.137 97.86 49.082 96.405 49.082 94.905V92.535H47.807V91.41H50.537V97.56C50.537 97.77 50.657 97.89 50.867 97.89H51.662V99H50.087C49.427 99 49.127 98.7 49.127 98.16V97.83C49.127 97.575 49.157 97.38 49.157 97.38H49.127C48.977 97.785 48.122 99.18 46.232 99.18C44.597 99.18 43.742 98.28 43.742 96.27ZM53 100.575C53 100.575 53.435 100.935 54.08 100.935C54.725 100.935 55.22 100.485 55.475 99.885L55.79 99.135L53.135 92.535H52.175V91.41H55.64V92.535H54.635L56.33 97.05C56.435 97.38 56.465 97.71 56.465 97.71H56.51C56.51 97.71 56.57 97.38 56.69 97.05L58.37 92.535H57.395V91.41H60.755V92.535H59.81L56.81 100.2C56.3 101.49 55.31 102.15 54.14 102.15C53.165 102.15 52.505 101.67 52.505 101.67L53 100.575ZM65.8527 87.81C66.0127 88.03 66.1827 88.255 66.3627 88.485C66.5427 88.705 66.7227 88.92 66.9027 89.13C67.0927 89.34 67.2727 89.54 67.4427 89.73V89.91H66.7077C66.4577 89.74 66.2027 89.555 65.9427 89.355C65.6827 89.145 65.4227 88.925 65.1627 88.695C64.9027 88.925 64.6427 89.145 64.3827 89.355C64.1227 89.555 63.8677 89.74 63.6177 89.91H62.8827V89.73C63.0527 89.54 63.2277 89.34 63.4077 89.13C63.5977 88.92 63.7827 88.705 63.9627 88.485C64.1527 88.255 64.3227 88.03 64.4727 87.81H65.8527ZM67.2627 85.935C67.7227 85.935 68.0777 86.02 68.3277 86.19C68.5777 86.36 68.7027 86.62 68.7027 86.97C68.7027 87.26 68.6127 87.48 68.4327 87.63C68.2527 87.77 68.0327 87.87 67.7727 87.93L67.7277 88.515H67.1127L67.0377 87.57C67.3277 87.52 67.5477 87.46 67.6977 87.39C67.8477 87.31 67.9227 87.18 67.9227 87C67.9227 86.83 67.8527 86.715 67.7127 86.655C67.5827 86.585 67.4127 86.55 67.2027 86.55C67.1027 86.55 67.0027 86.555 66.9027 86.565C66.8127 86.565 66.7377 86.575 66.6777 86.595V85.98C66.7377 85.96 66.8177 85.95 66.9177 85.95C67.0177 85.94 67.1327 85.935 67.2627 85.935ZM65.2677 90.81C65.9577 90.81 66.5477 90.96 67.0377 91.26C67.5377 91.56 67.9177 91.985 68.1777 92.535C68.4477 93.075 68.5827 93.71 68.5827 94.44V95.235H63.0777C63.0977 96.145 63.3277 96.84 63.7677 97.32C64.2177 97.79 64.8427 98.025 65.6427 98.025C66.1527 98.025 66.6027 97.98 66.9927 97.89C67.3927 97.79 67.8027 97.65 68.2227 97.47V98.625C67.8127 98.805 67.4077 98.935 67.0077 99.015C66.6077 99.105 66.1327 99.15 65.5827 99.15C64.8227 99.15 64.1477 98.995 63.5577 98.685C62.9777 98.375 62.5227 97.915 62.1927 97.305C61.8727 96.685 61.7127 95.93 61.7127 95.04C61.7127 94.16 61.8577 93.405 62.1477 92.775C62.4477 92.145 62.8627 91.66 63.3927 91.32C63.9327 90.98 64.5577 90.81 65.2677 90.81ZM65.2527 91.89C64.6227 91.89 64.1227 92.095 63.7527 92.505C63.3927 92.905 63.1777 93.465 63.1077 94.185H67.2027C67.2027 93.725 67.1327 93.325 66.9927 92.985C66.8527 92.645 66.6377 92.38 66.3477 92.19C66.0677 91.99 65.7027 91.89 65.2527 91.89ZM70.0745 99V97.875H71.2595V92.865C71.2595 92.64 71.1395 92.535 70.9295 92.535H69.9995V91.41H71.7095C72.3695 91.41 72.6695 91.695 72.6695 92.25V92.64C72.6695 92.88 72.6245 93.075 72.6245 93.075H72.6545C72.8045 92.67 73.6895 91.23 75.6095 91.23C77.3495 91.23 78.1295 92.205 78.1295 94.14V97.875H79.3295V99H76.6745V94.47C76.6745 93.405 76.4645 92.565 75.2495 92.565C73.7195 92.565 72.7145 93.96 72.7145 95.475V97.875H73.9145V99H70.0745ZM84.9913 96.225V92.535H83.7163V91.41H85.0213V89.325H86.4463V91.41H88.2613V92.535H86.4463V96.09C86.4463 97.635 87.4963 97.83 88.0663 97.83C88.2763 97.83 88.4113 97.815 88.4113 97.815V99.03C88.4113 99.03 88.2013 99.06 87.8863 99.06C86.9263 99.06 84.9913 98.76 84.9913 96.225ZM90.7266 89.895V88.41H92.2566V89.895H90.7266ZM89.5716 99V97.875H90.7566V92.535H89.4966V91.41H92.2116V97.875H93.4116V99H89.5716ZM96.0056 89.745C96.1756 89.555 96.3506 89.355 96.5306 89.145C96.7206 88.935 96.9056 88.72 97.0856 88.5C97.2756 88.27 97.4456 88.045 97.5956 87.825H98.9906C99.1506 88.045 99.3206 88.27 99.5006 88.5C99.6806 88.72 99.8606 88.935 100.041 89.145C100.231 89.355 100.411 89.555 100.581 89.745V89.91H99.8306C99.5806 89.74 99.3256 89.555 99.0656 89.355C98.8056 89.145 98.5456 88.925 98.2856 88.695C98.0356 88.925 97.7756 89.145 97.5056 89.355C97.2456 89.555 96.9906 89.74 96.7406 89.91H96.0056V89.745ZM95.8706 88.485C95.5906 88.275 95.3206 88.045 95.0606 87.795C94.8106 87.535 94.5756 87.26 94.3556 86.97V86.82H95.6606C95.8206 87.14 95.9656 87.41 96.0956 87.63C96.2356 87.84 96.4006 88.07 96.5906 88.32V88.485H95.8706ZM98.2706 90.81C98.9606 90.81 99.5506 90.96 100.041 91.26C100.541 91.56 100.921 91.985 101.181 92.535C101.451 93.075 101.586 93.71 101.586 94.44V95.235H96.0806C96.1006 96.145 96.3306 96.84 96.7706 97.32C97.2206 97.79 97.8456 98.025 98.6456 98.025C99.1556 98.025 99.6056 97.98 99.9956 97.89C100.396 97.79 100.806 97.65 101.226 97.47V98.625C100.816 98.805 100.411 98.935 100.011 99.015C99.6106 99.105 99.1356 99.15 98.5856 99.15C97.8256 99.15 97.1506 98.995 96.5606 98.685C95.9806 98.375 95.5256 97.915 95.1956 97.305C94.8756 96.685 94.7156 95.93 94.7156 95.04C94.7156 94.16 94.8606 93.405 95.1506 92.775C95.4506 92.145 95.8656 91.66 96.3956 91.32C96.9356 90.98 97.5606 90.81 98.2706 90.81ZM98.2556 91.89C97.6256 91.89 97.1256 92.095 96.7556 92.505C96.3956 92.905 96.1806 93.465 96.1106 94.185H100.206C100.206 93.725 100.136 93.325 99.9956 92.985C99.8556 92.645 99.6406 92.38 99.3506 92.19C99.0706 91.99 98.7056 91.89 98.2556 91.89ZM103.077 99V97.875H104.262V92.865C104.262 92.64 104.142 92.535 103.932 92.535H103.002V91.41H104.712C105.372 91.41 105.672 91.695 105.672 92.25V92.64C105.672 92.88 105.627 93.075 105.627 93.075H105.657C105.807 92.67 106.692 91.23 108.612 91.23C110.352 91.23 111.132 92.205 111.132 94.14V97.875H112.332V99H109.677V94.47C109.677 93.405 109.467 92.565 108.252 92.565C106.722 92.565 105.717 93.96 105.717 95.475V97.875H106.917V99H103.077ZM22.545 114.225V110.535H21.27V109.41H22.575V107.325H24V109.41H25.815V110.535H24V114.09C24 115.635 25.05 115.83 25.62 115.83C25.83 115.83 25.965 115.815 25.965 115.815V117.03C25.965 117.03 25.755 117.06 25.44 117.06C24.48 117.06 22.545 116.76 22.545 114.225ZM27.1553 117V115.875H28.2953V110.865C28.2953 110.64 28.1753 110.535 27.9653 110.535H27.0203V109.41H28.7303C29.3903 109.41 29.7053 109.68 29.7053 110.295V110.775C29.7053 111.075 29.6753 111.3 29.6753 111.3H29.7053C30.0503 110.19 30.9353 109.32 32.1053 109.32C32.3003 109.32 32.4803 109.35 32.4803 109.35V110.79C32.4803 110.79 32.3003 110.745 32.0603 110.745C30.4403 110.745 29.7503 112.38 29.7503 113.865V115.875H30.8753V117H27.1553ZM33.2748 113.19C33.2748 110.895 35.1048 109.23 37.3698 109.23C39.6348 109.23 41.4648 110.895 41.4648 113.19C41.4648 115.5 39.6348 117.18 37.3698 117.18C35.1048 117.18 33.2748 115.5 33.2748 113.19ZM34.7598 113.19C34.7598 114.78 35.9298 115.92 37.3698 115.92C38.7948 115.92 39.9798 114.78 39.9798 113.19C39.9798 111.615 38.7948 110.49 37.3698 110.49C35.9298 110.49 34.7598 111.615 34.7598 113.19ZM42.7259 117V115.875H43.9109V110.865C43.9109 110.64 43.7909 110.535 43.5809 110.535H42.6509V109.41H44.3609C45.0209 109.41 45.3209 109.695 45.3209 110.25V110.64C45.3209 110.88 45.2759 111.075 45.2759 111.075H45.3059C45.4559 110.67 46.3409 109.23 48.2609 109.23C50.0009 109.23 50.7809 110.205 50.7809 112.14V115.875H51.9809V117H49.3259V112.47C49.3259 111.405 49.1159 110.565 47.9009 110.565C46.3709 110.565 45.3659 111.96 45.3659 113.475V115.875H46.5659V117H42.7259ZM54.1627 118.41C54.1627 118.41 55.1077 118.92 56.2477 118.92C57.5677 118.92 58.6477 118.32 58.6477 116.76V116.16C58.6477 115.92 58.6927 115.68 58.6927 115.68H58.6627C58.2127 116.43 57.4927 116.91 56.3827 116.91C54.2827 116.91 52.9927 115.215 52.9927 113.025C52.9927 110.85 54.2077 109.23 56.3227 109.23C57.3127 109.23 58.3627 109.605 58.7827 110.475H58.8127C58.8127 110.475 58.7827 110.37 58.7827 110.175C58.7827 109.695 59.0227 109.41 59.6527 109.41H61.2727V110.535H60.4327C60.2377 110.535 60.1027 110.64 60.1027 110.835V116.685C60.1027 119.19 58.1977 120.15 56.2777 120.15C55.3627 120.15 54.4327 119.895 53.6827 119.52L54.1627 118.41ZM56.6677 115.65C57.7177 115.65 58.6777 115.02 58.6777 113.04C58.6777 111.06 57.7177 110.49 56.5327 110.49C55.2277 110.49 54.4777 111.45 54.4777 112.995C54.4777 114.57 55.3027 115.65 56.6677 115.65ZM66.2823 117V115.83H67.6023V107.565H66.2823V106.41H71.0973C71.8623 106.41 72.4323 106.485 72.9573 106.725C73.7973 107.1 74.4123 107.97 74.4123 109.11C74.4123 110.145 73.9023 110.97 73.0773 111.39V111.42C74.2173 111.75 74.8323 112.785 74.8323 113.985C74.8323 115.38 73.9773 116.43 72.8823 116.805C72.3723 116.97 71.8773 117 71.2923 117H66.2823ZM69.1023 110.865H71.3223C72.2823 110.865 72.8823 110.205 72.8823 109.245C72.8823 108.63 72.6423 108.105 72.1923 107.85C71.8923 107.7 71.5473 107.64 71.0973 107.64H69.1023V110.865ZM69.1023 115.77H71.3523C71.6523 115.77 72.0123 115.74 72.2973 115.62C72.9123 115.365 73.3023 114.705 73.3023 113.91C73.3023 112.815 72.5823 112.095 71.4723 112.095H69.1023V115.77ZM76.4776 117V115.83H77.7976V107.565H76.4776V106.41H81.2926C82.0576 106.41 82.6276 106.485 83.1526 106.725C83.9926 107.1 84.6076 107.97 84.6076 109.11C84.6076 110.145 84.0976 110.97 83.2726 111.39V111.42C84.4126 111.75 85.0276 112.785 85.0276 113.985C85.0276 115.38 84.1726 116.43 83.0776 116.805C82.5676 116.97 82.0726 117 81.4876 117H76.4776ZM79.2976 110.865H81.5176C82.4776 110.865 83.0776 110.205 83.0776 109.245C83.0776 108.63 82.8376 108.105 82.3876 107.85C82.0876 107.7 81.7426 107.64 81.2926 107.64H79.2976V110.865ZM79.2976 115.77H81.5476C81.8476 115.77 82.2076 115.74 82.4926 115.62C83.1076 115.365 83.4976 114.705 83.4976 113.91C83.4976 112.815 82.7776 112.095 81.6676 112.095H79.2976V115.77ZM86.3729 114.885C86.3729 112.5 89.5379 112.335 90.7979 112.335H91.2779V112.05C91.2779 110.85 90.5879 110.43 89.6579 110.43C88.4579 110.43 87.4829 111.165 87.4829 111.165L86.8979 110.13C86.8979 110.13 88.0079 109.23 89.7779 109.23C91.7129 109.23 92.7329 110.235 92.7329 112.155V115.545C92.7329 115.77 92.8529 115.875 93.0629 115.875H93.8279V117H92.3129C91.6379 117 91.3679 116.67 91.3679 116.175V116.07C91.3679 115.77 91.4279 115.575 91.4279 115.575H91.3979C91.3979 115.575 90.7379 117.18 88.8929 117.18C87.6329 117.18 86.3729 116.445 86.3729 114.885ZM87.8429 114.765C87.8429 115.44 88.3379 116.055 89.2079 116.055C90.4979 116.055 91.2929 114.735 91.2929 113.595V113.28H90.9179C90.2279 113.28 87.8429 113.31 87.8429 114.765ZM94.9182 117V115.875H96.1032V110.865C96.1032 110.64 95.9832 110.535 95.7732 110.535H94.8432V109.41H96.5532C97.2132 109.41 97.5132 109.695 97.5132 110.25V110.64C97.5132 110.88 97.4682 111.075 97.4682 111.075H97.4982C97.6482 110.67 98.5332 109.23 100.453 109.23C102.193 109.23 102.973 110.205 102.973 112.14V115.875H104.173V117H101.518V112.47C101.518 111.405 101.308 110.565 100.093 110.565C98.5632 110.565 97.5582 111.96 97.5582 113.475V115.875H98.7582V117H94.9182ZM105.02 117V115.875H106.22V107.535H104.945V106.41H107.66V112.32H108.77L110.285 110.535H109.295V109.41H112.745V110.535H111.74L109.865 112.725V112.755C109.88 112.755 110.12 112.86 110.42 113.37L111.71 115.575C111.86 115.815 111.98 115.875 112.37 115.875H112.85V117H111.71C111.02 117 110.795 116.88 110.465 116.295L108.965 113.73C108.8 113.46 108.59 113.43 108.26 113.43H107.66V115.875H108.68V117H105.02Z" fill="white"/>
</g>
<defs>
<filter id="filter0_d_211_812" x="0" y="0" width="142" height="142" filterUnits="userSpaceOnUse" color-interpolation-filters="sRGB">
<feFlood flood-opacity="0" result="BackgroundImageFix"/>
<feColorMatrix in="SourceAlpha" type="matrix" values="0 0 0 0 0 0 0 0 0 0 0 0 0 0 0 0 0 0 127 0" result="hardAlpha"/>
<feOffset dx="2" dy="2"/>
<feGaussianBlur stdDeviation="2"/>
<feComposite in2="hardAlpha" operator="out"/>
<feColorMatrix type="matrix" values="0 0 0 0 0.2 0 0 0 0 0.352941 0 0 0 0 0.14902 0 0 0 1 0"/>
<feBlend mode="overlay" in2="BackgroundImageFix" result="effect1_dropShadow_211_812"/>
<feBlend mode="normal" in="SourceGraphic" in2="effect1_dropShadow_211_812" result="shape"/>
</filter>
<linearGradient id="paint0_linear_211_812" x1="7.5" y1="7.5" x2="42" y2="47.5" gradientUnits="userSpaceOnUse">
<stop stop-color="#7AB93C" stop-opacity="0.8"/>
<stop offset="1" stop-color="#2C8D31"/>
</linearGradient>
<linearGradient id="paint1_linear_211_812" x1="7.93903" y1="-3.37277" x2="131" y2="129" gradientUnits="userSpaceOnUse">
<stop stop-color="#85CA75"/>
<stop offset="1" stop-color="#126F2E"/>
<stop offset="1" stop-color="#737373"/>
</linearGradient>
<clipPath id="clip0_211_812">
<rect width="56" height="56" fill="white" transform="translate(41 25)"/>
</clipPath>
</defs>
</svg>
