<svg width="142" height="142" viewBox="0 0 142 142" fill="none" xmlns="http://www.w3.org/2000/svg">
<g filter="url(#filter0_d_266_924)">
<rect x="2" y="2" width="134" height="134" rx="20" fill="url(#paint0_linear_266_924)" fill-opacity="0.7"/>
<path fill-rule="evenodd" clip-rule="evenodd" d="M18.5 59C38.1061 59 54 43.1061 54 23.5C54 15.4182 51.2993 7.96708 46.7513 2H116C127.046 2 136 10.9543 136 22V116C136 127.046 127.046 136 116 136H22C10.9543 136 2 127.046 2 116V54.9406C6.92964 57.533 12.5435 59 18.5 59Z" fill="url(#paint1_linear_266_924)"/>
<circle cx="29" cy="44" r="2" fill="#83B875"/>
<circle cx="94.5" cy="22.5" r="2.5" fill="#6CA66C"/>
<circle cx="66.5" cy="36.5" r="2.5" fill="#418D54"/>
<g clip-path="url(#clip0_266_924)">
<path fill-rule="evenodd" clip-rule="evenodd" d="M70.1082 36.2397C70.1592 37.0571 70.0434 37.8763 69.7679 38.6475C69.4923 39.4188 69.0627 40.1259 68.5053 40.7259C67.9479 41.3259 67.2742 41.8062 66.5253 42.1377C65.7764 42.4692 64.9678 42.6448 64.1489 42.654C62.399 42.6709 60.7095 42.0144 59.4301 40.8205C58.1506 39.6266 57.379 37.9866 57.2749 36.2397V32H70.1082V36.2373V36.2397Z" stroke="white" stroke-width="2"/>
<path d="M46.4553 68.7197V59.8367C46.4571 55.9958 47.7416 52.2655 50.1049 49.2377C52.4682 46.21 55.775 44.0582 59.5005 43.1239C63.2261 42.1896 67.1569 42.5262 70.6693 44.0804C74.1818 45.6345 77.0745 48.3172 78.8887 51.7027" stroke="white" stroke-width="2"/>
<path d="M80.9303 74.9614H46.4506C45.6226 74.9614 44.8285 74.6325 44.243 74.047C43.6575 73.4615 43.3286 72.6674 43.3286 71.8394C43.3286 71.0114 43.6575 70.2173 44.243 69.6318C44.8285 69.0463 45.6226 68.7174 46.4506 68.7174H52.2559M61.5473 63.4417V65.9197M61.5473 49.6331V52.1111M58.5139 60.0187V61.0221C58.5139 61.6634 58.7686 62.2785 59.2218 62.7322C59.6751 63.1859 60.2899 63.4411 60.9313 63.4417H62.1703C62.8104 63.4393 63.4235 63.1832 63.8752 62.7297C64.327 62.2762 64.5806 61.6622 64.5806 61.0221V60.3477C64.5808 59.9208 64.4519 59.5038 64.2108 59.1515C63.9696 58.7992 63.6276 58.5281 63.2296 58.3737L59.8556 57.0647C59.4576 56.9097 59.1157 56.638 58.8746 56.2854C58.6336 55.9327 58.5046 55.5155 58.5046 55.0884V54.5914C58.5046 53.9501 58.7592 53.335 59.2125 52.8813C59.6658 52.4275 60.2806 52.1723 60.9219 52.1717H62.1609C62.4787 52.1717 62.7933 52.2343 63.0869 52.3559C63.3805 52.4775 63.6472 52.6557 63.8719 52.8804C64.0966 53.1051 64.2748 53.3719 64.3964 53.6654C64.518 53.959 64.5806 54.2736 64.5806 54.5914" stroke="white" stroke-width="2"/>
<path fill-rule="evenodd" clip-rule="evenodd" d="M86.3925 65.0401H82.1225V69.3101H78.9259V65.0401H74.6559V61.8457H78.9282V57.5757H82.1225V61.8481H86.3925V65.0401ZM80.5242 50.55C77.9751 50.5505 75.4834 51.3068 73.3642 52.7233C71.2449 54.1397 69.5932 56.1528 68.6179 58.5079C67.6426 60.863 67.3876 63.4545 67.885 65.9545C68.3824 68.4546 69.6099 70.7511 71.4124 72.5535C73.2149 74.356 75.5113 75.5835 78.0114 76.0809C80.5115 76.5783 83.1029 76.3233 85.458 75.348C87.8131 74.3727 89.8262 72.721 91.2427 70.6018C92.6591 68.4825 93.4154 65.9908 93.4159 63.4417C93.4162 61.7487 93.0829 60.0722 92.4352 58.5079C91.7874 56.9437 90.8378 55.5224 89.6407 54.3252C88.4435 53.1281 87.0222 52.1785 85.458 51.5307C83.8938 50.883 82.2173 50.5497 80.5242 50.55Z" fill="white"/>
</g>
<path d="M21.57 102V100.83H22.89L23.565 92.565H22.215V91.41H25.215L27.93 97.86C28.095 98.295 28.17 98.625 28.17 98.625H28.2C28.2 98.625 28.275 98.295 28.44 97.86L31.155 91.41H34.155V92.565H32.805L33.48 100.83H34.8V102H30.72V100.83H31.995L31.515 94.5C31.5 94.17 31.56 93.63 31.56 93.63H31.515C31.515 93.63 31.395 94.14 31.275 94.44L28.845 100.005H27.525L25.095 94.44C24.975 94.14 24.855 93.63 24.855 93.63H24.81C24.81 93.63 24.87 94.17 24.855 94.5L24.375 100.83H25.65V102H21.57ZM43.6351 97.965C43.6351 98.855 43.4801 99.615 43.1701 100.245C42.8701 100.865 42.4401 101.34 41.8801 101.67C41.3201 101.99 40.6551 102.15 39.8851 102.15C39.1751 102.15 38.5401 101.99 37.9801 101.67C37.4301 101.34 36.9951 100.865 36.6751 100.245C36.3551 99.615 36.1951 98.855 36.1951 97.965C36.1951 96.635 36.5301 95.61 37.2001 94.89C37.8701 94.17 38.7801 93.81 39.9301 93.81C40.4601 93.81 40.9451 93.9 41.3851 94.08C41.8351 94.26 42.2201 94.515 42.5401 94.845C42.8401 94.755 43.0601 94.61 43.2001 94.41C43.3501 94.2 43.4451 93.95 43.4851 93.66C43.5251 93.37 43.5451 93.06 43.5451 92.73H44.9551L45.0601 92.895C44.9701 93.355 44.8451 93.765 44.6851 94.125C44.5351 94.485 44.3351 94.795 44.0851 95.055C43.8351 95.305 43.5151 95.5 43.1251 95.64C43.2851 95.95 43.4101 96.3 43.5001 96.69C43.5901 97.08 43.6351 97.505 43.6351 97.965ZM37.5601 97.965C37.5601 98.635 37.6401 99.2 37.8001 99.66C37.9701 100.12 38.2251 100.47 38.5651 100.71C38.9151 100.94 39.3651 101.055 39.9151 101.055C40.4651 101.055 40.9101 100.94 41.2501 100.71C41.6001 100.47 41.8551 100.12 42.0151 99.66C42.1851 99.2 42.2701 98.635 42.2701 97.965C42.2701 97.295 42.1851 96.735 42.0151 96.285C41.8551 95.835 41.6001 95.495 41.2501 95.265C40.9001 95.035 40.4501 94.92 39.9001 94.92C39.0801 94.92 38.4851 95.175 38.1151 95.685C37.7451 96.195 37.5601 96.955 37.5601 97.965ZM41.4301 91.05C41.4301 91.43 41.3151 91.725 41.0851 91.935C40.8551 92.135 40.5651 92.275 40.2151 92.355L40.1401 93.15H39.3301L39.2251 91.875C39.5851 91.815 39.8701 91.73 40.0801 91.62C40.3001 91.5 40.4101 91.325 40.4101 91.095C40.4101 90.855 40.3151 90.695 40.1251 90.615C39.9451 90.535 39.7151 90.495 39.4351 90.495C39.3051 90.495 39.1701 90.5 39.0301 90.51C38.9001 90.52 38.7951 90.535 38.7151 90.555V89.775C38.8051 89.745 38.9151 89.725 39.0451 89.715C39.1851 89.695 39.3501 89.685 39.5401 89.685C40.1401 89.685 40.6051 89.795 40.9351 90.015C41.2651 90.235 41.4301 90.58 41.4301 91.05ZM49.9083 99.225V95.535H48.6333V94.41H49.9383V92.325H51.3633V94.41H53.1783V95.535H51.3633V99.09C51.3633 100.635 52.4133 100.83 52.9833 100.83C53.1933 100.83 53.3283 100.815 53.3283 100.815V102.03C53.3283 102.03 53.1183 102.06 52.8033 102.06C51.8433 102.06 49.9083 101.76 49.9083 99.225ZM55.6436 92.895V91.41H57.1736V92.895H55.6436ZM54.4886 102V100.875H55.6736V95.535H54.4136V94.41H57.1286V100.875H58.3286V102H54.4886ZM64.7026 92.91C64.4526 92.74 64.1976 92.555 63.9376 92.355C63.6776 92.145 63.4176 91.925 63.1576 91.695C62.8976 91.925 62.6376 92.145 62.3776 92.355C62.1176 92.555 61.8626 92.74 61.6126 92.91H60.8776V92.73C61.0476 92.54 61.2226 92.34 61.4026 92.13C61.5926 91.92 61.7776 91.705 61.9576 91.485C62.1476 91.255 62.3176 91.03 62.4676 90.81H63.8476C64.0076 91.03 64.1776 91.255 64.3576 91.485C64.5376 91.705 64.7176 91.92 64.8976 92.13C65.0876 92.34 65.2676 92.54 65.4376 92.73V92.91H64.7026ZM64.8526 91.305C65.0526 91.055 65.2176 90.825 65.3476 90.615C65.4776 90.405 65.6226 90.14 65.7826 89.82H67.1026V89.97C66.8826 90.26 66.6426 90.535 66.3826 90.795C66.1226 91.045 65.8626 91.275 65.6026 91.485H64.8526V91.305ZM63.1876 93.81C63.8776 93.81 64.4676 93.96 64.9576 94.26C65.4576 94.56 65.8376 94.985 66.0976 95.535C66.3676 96.075 66.5026 96.71 66.5026 97.44V98.235H60.9976C61.0176 99.145 61.2476 99.84 61.6876 100.32C62.1376 100.79 62.7626 101.025 63.5626 101.025C64.0726 101.025 64.5226 100.98 64.9126 100.89C65.3126 100.79 65.7226 100.65 66.1426 100.47V101.625C65.7326 101.805 65.3276 101.935 64.9276 102.015C64.5276 102.105 64.0526 102.15 63.5026 102.15C62.7426 102.15 62.0676 101.995 61.4776 101.685C60.8976 101.375 60.4426 100.915 60.1126 100.305C59.7926 99.685 59.6326 98.93 59.6326 98.04C59.6326 97.16 59.7776 96.405 60.0676 95.775C60.3676 95.145 60.7826 94.66 61.3126 94.32C61.8526 93.98 62.4776 93.81 63.1876 93.81ZM63.1726 94.89C62.5426 94.89 62.0426 95.095 61.6726 95.505C61.3126 95.905 61.0976 96.465 61.0276 97.185H65.1226C65.1226 96.725 65.0526 96.325 64.9126 95.985C64.7726 95.645 64.5576 95.38 64.2676 95.19C63.9876 94.99 63.6226 94.89 63.1726 94.89ZM68.8194 99.225V95.535H67.5444V94.41H68.8494V92.325H70.2744V94.41H72.0894V95.535H70.2744V99.09C70.2744 100.635 71.3244 100.83 71.8944 100.83C72.1044 100.83 72.2394 100.815 72.2394 100.815V102.03C72.2394 102.03 72.0294 102.06 71.7144 102.06C70.7544 102.06 68.8194 101.76 68.8194 99.225ZM76.9097 102V100.875H78.1097V92.535H76.8347V91.41H79.5497V97.32H80.6597L82.1747 95.535H81.1847V94.41H84.6347V95.535H83.6297L81.7547 97.725V97.755C81.7697 97.755 82.0097 97.86 82.3097 98.37L83.5997 100.575C83.7497 100.815 83.8697 100.875 84.2597 100.875H84.7397V102H83.5997C82.9097 102 82.6847 101.88 82.3547 101.295L80.8547 98.73C80.6897 98.46 80.4797 98.43 80.1497 98.43H79.5497V100.875H80.5697V102H76.9097ZM87.1084 92.895V91.41H88.6384V92.895H87.1084ZM85.9534 102V100.875H87.1384V95.535H85.8784V94.41H88.5934V100.875H89.7934V102H85.9534ZM94.6525 93.81C95.3425 93.81 95.9325 93.96 96.4225 94.26C96.9225 94.56 97.3025 94.985 97.5625 95.535C97.8325 96.075 97.9675 96.71 97.9675 97.44V98.235H92.4625C92.4825 99.145 92.7125 99.84 93.1525 100.32C93.6025 100.79 94.2275 101.025 95.0275 101.025C95.5375 101.025 95.9875 100.98 96.3775 100.89C96.7775 100.79 97.1875 100.65 97.6075 100.47V101.625C97.1975 101.805 96.7925 101.935 96.3925 102.015C95.9925 102.105 95.5175 102.15 94.9675 102.15C94.2075 102.15 93.5325 101.995 92.9425 101.685C92.3625 101.375 91.9075 100.915 91.5775 100.305C91.2575 99.685 91.0975 98.93 91.0975 98.04C91.0975 97.16 91.2425 96.405 91.5325 95.775C91.8325 95.145 92.2475 94.66 92.7775 94.32C93.3175 93.98 93.9425 93.81 94.6525 93.81ZM94.6375 94.89C94.0075 94.89 93.5075 95.095 93.1375 95.505C92.7775 95.905 92.5625 96.465 92.4925 97.185H96.5875C96.5875 96.725 96.5175 96.325 96.3775 95.985C96.2375 95.645 96.0225 95.38 95.7325 95.19C95.4525 94.99 95.0875 94.89 94.6375 94.89ZM95.2375 90.51C95.3575 90.73 95.5275 90.98 95.7475 91.26C95.9775 91.53 96.2125 91.8 96.4525 92.07C96.7025 92.33 96.9225 92.555 97.1125 92.745V92.91H96.1825C95.9225 92.75 95.6525 92.555 95.3725 92.325C95.0925 92.085 94.8175 91.83 94.5475 91.56C94.2775 91.83 94.0075 92.08 93.7375 92.31C93.4675 92.54 93.2025 92.74 92.9425 92.91H92.0425V92.745C92.2325 92.545 92.4425 92.315 92.6725 92.055C92.9125 91.795 93.1425 91.53 93.3625 91.26C93.5825 90.98 93.7575 90.73 93.8875 90.51H95.2375ZM94.7725 104.64C94.5625 104.64 94.3775 104.57 94.2175 104.43C94.0675 104.29 93.9925 104.08 93.9925 103.8C93.9925 103.51 94.0675 103.295 94.2175 103.155C94.3775 103.025 94.5625 102.96 94.7725 102.96C94.9825 102.96 95.1625 103.025 95.3125 103.155C95.4725 103.295 95.5525 103.51 95.5525 103.8C95.5525 104.08 95.4725 104.29 95.3125 104.43C95.1625 104.57 94.9825 104.64 94.7725 104.64ZM99.4593 102V100.875H100.644V95.85C100.644 95.64 100.524 95.535 100.314 95.535H99.3843V94.41H101.094C101.739 94.41 102.054 94.695 102.054 95.25V95.64C102.054 95.88 102.009 96.075 102.009 96.075H102.039C102.414 95.175 103.509 94.23 104.739 94.23C105.954 94.23 106.704 94.785 106.959 96.015H106.989C107.409 95.07 108.459 94.23 109.704 94.23C111.384 94.23 112.179 95.205 112.179 97.14V100.875H113.379V102H110.724V97.455C110.724 96.39 110.529 95.55 109.389 95.55C107.964 95.55 107.154 97.005 107.154 98.505V100.875H108.339V102H105.699V97.455C105.699 96.465 105.549 95.55 104.379 95.55C102.939 95.55 102.099 97.08 102.099 98.565V100.875H103.299V102H99.4593Z" fill="white"/>
</g>
<defs>
<filter id="filter0_d_266_924" x="0" y="0" width="142" height="142" filterUnits="userSpaceOnUse" color-interpolation-filters="sRGB">
<feFlood flood-opacity="0" result="BackgroundImageFix"/>
<feColorMatrix in="SourceAlpha" type="matrix" values="0 0 0 0 0 0 0 0 0 0 0 0 0 0 0 0 0 0 127 0" result="hardAlpha"/>
<feOffset dx="2" dy="2"/>
<feGaussianBlur stdDeviation="2"/>
<feComposite in2="hardAlpha" operator="out"/>
<feColorMatrix type="matrix" values="0 0 0 0 0.2 0 0 0 0 0.352941 0 0 0 0 0.14902 0 0 0 1 0"/>
<feBlend mode="normal" in2="BackgroundImageFix" result="effect1_dropShadow_266_924"/>
<feBlend mode="normal" in="SourceGraphic" in2="effect1_dropShadow_266_924" result="shape"/>
</filter>
<linearGradient id="paint0_linear_266_924" x1="7.5" y1="7.5" x2="42" y2="47.5" gradientUnits="userSpaceOnUse">
<stop stop-color="#7AB93C" stop-opacity="0.8"/>
<stop offset="1" stop-color="#2C8D31"/>
</linearGradient>
<linearGradient id="paint1_linear_266_924" x1="7.93903" y1="-3.37277" x2="131" y2="129" gradientUnits="userSpaceOnUse">
<stop stop-color="#85CA75"/>
<stop offset="1" stop-color="#126F2E"/>
<stop offset="1" stop-color="#737373"/>
</linearGradient>
<clipPath id="clip0_266_924">
<rect width="56" height="56" fill="white" transform="translate(41 25)"/>
</clipPath>
</defs>
</svg>
