<svg width="56" height="56" viewBox="0 0 56 56" fill="none" xmlns="http://www.w3.org/2000/svg">
<g clip-path="url(#clip0_457_865)">
<g clip-path="url(#clip1_457_865)">
<path fill-rule="evenodd" clip-rule="evenodd" d="M45.5303 46.388H21.1283C19.3713 46.388 17.948 44.4187 17.948 41.9897V22.56C17.948 20.131 19.3713 18.1617 21.1283 18.1617H45.5303C47.2873 18.1617 48.7107 20.1333 48.7107 22.56V41.9873C48.7107 44.4163 47.2873 46.388 45.5303 46.388Z" stroke="white" stroke-width="2"/>
<path d="M49.3289 12.6573C49.3289 11.791 48.9847 10.9601 48.3721 10.3475C47.7595 9.73484 46.9286 9.39067 46.0622 9.39067H9.53155C8.92845 9.39067 8.33129 9.50965 7.77425 9.7408C7.21721 9.97194 6.71124 10.3107 6.28533 10.7377C5.85942 11.1647 5.52194 11.6715 5.29221 12.2292C5.06248 12.7868 4.94501 13.3842 4.94655 13.9873V35.4983C4.94624 35.9364 5.03237 36.3702 5.2 36.7749C5.36763 37.1796 5.61347 37.5472 5.92343 37.8568C6.23339 38.1663 6.60138 38.4116 7.00632 38.5787C7.41125 38.7457 7.84517 38.8313 8.28321 38.8303H11.6922" stroke="white" stroke-width="2"/>
<path d="M8.64247 33.4427L13.1738 38.4757L8.64014 43.5133" stroke="white" stroke-width="2"/>
</g>
</g>
<defs>
<clipPath id="clip0_457_865">
<rect width="56" height="56" fill="white"/>
</clipPath>
<clipPath id="clip1_457_865">
<rect width="56" height="56" fill="white" transform="translate(0 1)"/>
</clipPath>
</defs>
</svg>
