<svg width="142" height="142" viewBox="0 0 142 142" fill="none" xmlns="http://www.w3.org/2000/svg">
<g filter="url(#filter0_d_2244_61845)">
<rect x="4" width="134" height="134" rx="20" fill="url(#paint0_linear_2244_61845)" fill-opacity="0.7"/>
<path fill-rule="evenodd" clip-rule="evenodd" d="M20.5 57C40.1061 57 56 41.1061 56 21.5C56 13.4182 53.2993 5.96708 48.7513 0H118C129.046 0 138 8.9543 138 20V114C138 125.046 129.046 134 118 134H24C12.9543 134 4 125.046 4 114V52.9406C8.92964 55.533 14.5435 57 20.5 57Z" fill="url(#paint1_linear_2244_61845)"/>
<circle cx="31" cy="42" r="2" fill="#83B875"/>
<circle cx="96.5" cy="20.5" r="2.5" fill="#6CA66C"/>
<circle cx="68.5" cy="34.5" r="2.5" fill="#418D54"/>
<path d="M42.6626 96.2354L44.0835 96.5942C43.7856 97.7612 43.2485 98.6523 42.4722 99.2676C41.7007 99.8779 40.7559 100.183 39.6377 100.183C38.4805 100.183 37.5381 99.9487 36.8105 99.48C36.0879 99.0063 35.5361 98.3228 35.1553 97.4292C34.7793 96.5356 34.5913 95.5762 34.5913 94.5508C34.5913 93.4326 34.8037 92.4585 35.2285 91.6284C35.6582 90.7935 36.2661 90.1611 37.0522 89.7314C37.8433 89.2969 38.7124 89.0796 39.6597 89.0796C40.7339 89.0796 41.6372 89.353 42.3696 89.8999C43.1021 90.4468 43.6123 91.2158 43.9004 92.207L42.5015 92.5366C42.2524 91.7554 41.8911 91.1865 41.4175 90.8301C40.9438 90.4736 40.3481 90.2954 39.6304 90.2954C38.8052 90.2954 38.1143 90.4932 37.5576 90.8887C37.0059 91.2842 36.6177 91.8164 36.3931 92.4854C36.1685 93.1494 36.0562 93.8354 36.0562 94.5435C36.0562 95.4565 36.188 96.2549 36.4517 96.9385C36.7202 97.6172 37.1353 98.125 37.6968 98.4619C38.2583 98.7988 38.8662 98.9673 39.5205 98.9673C40.3164 98.9673 40.9902 98.7378 41.542 98.2788C42.0938 97.8198 42.4673 97.1387 42.6626 96.2354ZM45.6729 100V89.2627H46.9912V93.1152C47.6064 92.4023 48.3828 92.0459 49.3203 92.0459C49.8965 92.0459 50.397 92.1606 50.8218 92.3901C51.2466 92.6147 51.5493 92.9272 51.73 93.3276C51.9155 93.728 52.0083 94.3091 52.0083 95.0708V100H50.6899V95.0708C50.6899 94.4116 50.5459 93.9331 50.2578 93.6353C49.9746 93.3325 49.5718 93.1812 49.0493 93.1812C48.6587 93.1812 48.29 93.2837 47.9434 93.4888C47.6016 93.689 47.3574 93.9624 47.2109 94.3091C47.0645 94.6558 46.9912 95.1343 46.9912 95.7446V100H45.6729ZM61.2075 93.7524V92.2217H62.6211V93.4302C62.6211 94.1968 62.5332 94.7314 62.3574 95.0342C61.9082 95.8154 61.2222 96.2549 60.2993 96.3525V100H59.1201V98.8574C58.5146 99.7363 57.6919 100.176 56.6519 100.176C56.1978 100.176 55.7705 100.09 55.3701 99.9194C54.9746 99.7437 54.6792 99.5215 54.4839 99.2529C54.2886 98.9844 54.1519 98.6572 54.0737 98.2715C54.02 98.0078 53.9932 97.5977 53.9932 97.041V92.2217H55.3115V96.5356C55.3115 97.2339 55.3384 97.6978 55.3921 97.9272C55.563 98.6694 56.0708 99.0405 56.9155 99.0405C57.3208 99.0405 57.6943 98.938 58.0361 98.7329C58.3828 98.5278 58.627 98.252 58.7686 97.9053C58.9102 97.5586 58.981 97.0532 58.981 96.3892V92.2217H60.2993V95.7959C60.9194 95.6885 61.3833 95.3979 61.6909 94.9243C61.8276 94.7192 61.896 94.3286 61.896 93.7524H61.2075ZM56.3516 91.2549L57.3257 89.2041H59.0542L57.4429 91.2549H56.3516ZM69.147 97.1509L70.4434 97.3193C70.3018 98.2129 69.938 98.9136 69.3521 99.4214C68.771 99.9243 68.0557 100.176 67.2061 100.176C66.1416 100.176 65.2847 99.8291 64.6353 99.1357C63.9907 98.4375 63.6685 97.439 63.6685 96.1401C63.6685 95.3003 63.8076 94.5654 64.0859 93.9355C64.3643 93.3057 64.7866 92.8345 65.353 92.522C65.9243 92.2046 66.5444 92.0459 67.2134 92.0459C68.0581 92.0459 68.749 92.2607 69.2861 92.6904C69.8232 93.1152 70.1675 93.7207 70.3188 94.5068L69.0371 94.7046C68.915 94.1821 68.6978 93.7891 68.3853 93.5254C68.0776 93.2617 67.7041 93.1299 67.2646 93.1299C66.6006 93.1299 66.061 93.3691 65.646 93.8477C65.231 94.3213 65.0234 95.0732 65.0234 96.1035C65.0234 97.1484 65.2236 97.9077 65.624 98.3813C66.0244 98.855 66.5469 99.0918 67.1914 99.0918C67.709 99.0918 68.1411 98.9331 68.4878 98.6157C68.8345 98.2983 69.0542 97.8101 69.147 97.1509ZM75.7461 100V92.2217H76.9326V93.3276C77.5039 92.4731 78.3291 92.0459 79.4082 92.0459C79.877 92.0459 80.3066 92.1313 80.6973 92.3022C81.0928 92.4683 81.3882 92.688 81.5835 92.9614C81.7788 93.2349 81.9155 93.5596 81.9937 93.9355C82.0425 94.1797 82.0669 94.6069 82.0669 95.2173V100H80.7485V95.2686C80.7485 94.7314 80.6973 94.3311 80.5947 94.0674C80.4922 93.7988 80.3091 93.5864 80.0454 93.4302C79.7866 93.269 79.4814 93.1885 79.1299 93.1885C78.5684 93.1885 78.0825 93.3667 77.6724 93.7231C77.2671 94.0796 77.0645 94.7559 77.0645 95.752V100H75.7461ZM89.1714 99.0405C88.6831 99.4556 88.2119 99.7485 87.7578 99.9194C87.3086 100.09 86.8252 100.176 86.3076 100.176C85.4531 100.176 84.7964 99.9683 84.3374 99.5532C83.8784 99.1333 83.6489 98.5986 83.6489 97.9492C83.6489 97.5684 83.7344 97.2217 83.9053 96.9092C84.0811 96.5918 84.3081 96.3379 84.5864 96.1475C84.8696 95.957 85.187 95.813 85.5386 95.7153C85.7974 95.647 86.188 95.5811 86.7104 95.5176C87.7749 95.3906 88.5586 95.2393 89.0615 95.0635C89.0664 94.8828 89.0688 94.7681 89.0688 94.7192C89.0688 94.1821 88.9443 93.8037 88.6953 93.584C88.3584 93.2861 87.8579 93.1372 87.1938 93.1372C86.5737 93.1372 86.1147 93.2471 85.8169 93.4668C85.5239 93.6816 85.3066 94.0649 85.165 94.6167L83.876 94.4409C83.9932 93.8892 84.186 93.4448 84.4546 93.1079C84.7231 92.7661 85.1113 92.5049 85.6191 92.3242C86.127 92.1387 86.7153 92.0459 87.3843 92.0459C88.0483 92.0459 88.5879 92.124 89.0029 92.2803C89.418 92.4365 89.7231 92.6343 89.9185 92.8735C90.1138 93.1079 90.2505 93.4058 90.3286 93.7671C90.3726 93.9917 90.3945 94.397 90.3945 94.9829V96.7407C90.3945 97.9663 90.4214 98.7427 90.4751 99.0698C90.5337 99.3921 90.646 99.7021 90.812 100H89.4351C89.2983 99.7266 89.2104 99.4067 89.1714 99.0405ZM89.0615 96.0962C88.583 96.2915 87.8652 96.4575 86.9082 96.5942C86.3662 96.6724 85.9829 96.7603 85.7583 96.8579C85.5337 96.9556 85.3604 97.0996 85.2383 97.29C85.1162 97.4756 85.0552 97.6831 85.0552 97.9126C85.0552 98.2642 85.187 98.5571 85.4507 98.7915C85.7192 99.0259 86.1099 99.1431 86.6226 99.1431C87.1304 99.1431 87.582 99.0332 87.9775 98.8135C88.373 98.5889 88.6636 98.2837 88.8491 97.8979C88.9907 97.6001 89.0615 97.1606 89.0615 96.5796V96.0962ZM88.666 89.2773H89.5669C89.4937 89.8877 89.269 90.3564 88.8931 90.6836C88.522 91.0107 88.0264 91.1743 87.4062 91.1743C86.7812 91.1743 86.2808 91.0132 85.9048 90.6909C85.5337 90.3638 85.3115 89.8926 85.2383 89.2773H86.1392C86.2075 89.6094 86.3418 89.8584 86.542 90.0244C86.7471 90.1855 87.0205 90.2661 87.3623 90.2661C87.7578 90.2661 88.0557 90.188 88.2559 90.0317C88.4609 89.8706 88.5977 89.6191 88.666 89.2773ZM92.4453 100V92.2217H93.6318V93.3276C94.2031 92.4731 95.0283 92.0459 96.1074 92.0459C96.5762 92.0459 97.0059 92.1313 97.3965 92.3022C97.792 92.4683 98.0874 92.688 98.2827 92.9614C98.478 93.2349 98.6147 93.5596 98.6929 93.9355C98.7417 94.1797 98.7661 94.6069 98.7661 95.2173V100H97.4478V95.2686C97.4478 94.7314 97.3965 94.3311 97.2939 94.0674C97.1914 93.7988 97.0083 93.5864 96.7446 93.4302C96.4858 93.269 96.1807 93.1885 95.8291 93.1885C95.2676 93.1885 94.7817 93.3667 94.3716 93.7231C93.9663 94.0796 93.7637 94.7559 93.7637 95.752V100H92.4453ZM100.553 100.645L101.835 100.835C101.889 101.23 102.038 101.519 102.282 101.699C102.609 101.943 103.056 102.065 103.622 102.065C104.232 102.065 104.704 101.943 105.036 101.699C105.368 101.455 105.592 101.113 105.709 100.674C105.778 100.405 105.81 99.8413 105.805 98.9819C105.229 99.6606 104.511 100 103.651 100C102.582 100 101.754 99.6143 101.168 98.8428C100.583 98.0713 100.29 97.146 100.29 96.0669C100.29 95.3247 100.424 94.6411 100.692 94.0161C100.961 93.3862 101.349 92.9004 101.857 92.5586C102.37 92.2168 102.97 92.0459 103.659 92.0459C104.577 92.0459 105.333 92.417 105.929 93.1592V92.2217H107.145V98.9453C107.145 100.156 107.021 101.013 106.771 101.516C106.527 102.024 106.137 102.424 105.6 102.717C105.067 103.01 104.411 103.157 103.629 103.157C102.702 103.157 101.952 102.947 101.381 102.527C100.81 102.112 100.534 101.484 100.553 100.645ZM101.645 95.9717C101.645 96.9922 101.847 97.7368 102.252 98.2056C102.658 98.6743 103.166 98.9087 103.776 98.9087C104.381 98.9087 104.889 98.6768 105.299 98.2129C105.709 97.7441 105.915 97.0117 105.915 96.0156C105.915 95.0635 105.702 94.3457 105.277 93.8623C104.857 93.3789 104.35 93.1372 103.754 93.1372C103.168 93.1372 102.67 93.3765 102.26 93.855C101.85 94.3286 101.645 95.0342 101.645 95.9717ZM46.4785 115.821L46.6689 116.985C46.2979 117.063 45.9658 117.103 45.6729 117.103C45.1943 117.103 44.8232 117.027 44.5596 116.875C44.2959 116.724 44.1104 116.526 44.0029 116.282C43.8955 116.033 43.8418 115.513 43.8418 114.722V110.247H42.875V109.222H43.8418V107.295L45.1528 106.504V109.222H46.4785V110.247H45.1528V114.795C45.1528 115.171 45.1748 115.413 45.2188 115.521C45.2676 115.628 45.3433 115.713 45.4458 115.777C45.5532 115.84 45.7046 115.872 45.8999 115.872C46.0464 115.872 46.2393 115.855 46.4785 115.821ZM47.7822 107.779V106.263H49.1006V107.779H47.7822ZM47.7822 117V109.222H49.1006V117H47.7822ZM56.4395 114.495L57.8018 114.664C57.5869 115.459 57.189 116.077 56.6079 116.517C56.0269 116.956 55.2847 117.176 54.3813 117.176C53.2437 117.176 52.3403 116.827 51.6714 116.128C51.0073 115.425 50.6753 114.441 50.6753 113.177C50.6753 111.868 51.0122 110.853 51.686 110.13C52.3599 109.407 53.2339 109.046 54.3081 109.046C55.3481 109.046 56.1978 109.4 56.8569 110.108C57.5161 110.816 57.8457 111.812 57.8457 113.096C57.8457 113.174 57.8433 113.292 57.8384 113.448H52.0376C52.0864 114.302 52.3281 114.957 52.7627 115.411C53.1973 115.865 53.7393 116.092 54.3887 116.092C54.8721 116.092 55.2847 115.965 55.6265 115.711C55.9683 115.457 56.2393 115.052 56.4395 114.495ZM52.1108 112.364H56.4541C56.3955 111.709 56.2295 111.219 55.9561 110.892C55.5361 110.384 54.9917 110.13 54.3228 110.13C53.7173 110.13 53.207 110.333 52.792 110.738C52.3818 111.143 52.1548 111.685 52.1108 112.364ZM54.2788 107.01L53.4512 108.255H51.9424L53.5244 106.204H54.9307L56.5786 108.255H55.0845L54.2788 107.01ZM64.562 117V115.857C63.9565 116.736 63.1338 117.176 62.0938 117.176C61.6348 117.176 61.2051 117.088 60.8047 116.912C60.4092 116.736 60.1138 116.517 59.9185 116.253C59.728 115.984 59.5938 115.657 59.5156 115.271C59.4619 115.013 59.4351 114.603 59.4351 114.041V109.222H60.7534V113.536C60.7534 114.224 60.7803 114.688 60.834 114.927C60.917 115.274 61.0928 115.547 61.3613 115.748C61.6299 115.943 61.9619 116.041 62.3574 116.041C62.7529 116.041 63.124 115.94 63.4707 115.74C63.8174 115.535 64.0615 115.259 64.2031 114.913C64.3496 114.561 64.4229 114.053 64.4229 113.389V109.222H65.7412V117H64.562ZM73.2046 117H71.9814V106.263H73.2998V110.093C73.8564 109.395 74.5669 109.046 75.4312 109.046C75.9097 109.046 76.3613 109.144 76.7861 109.339C77.2158 109.529 77.5674 109.8 77.8408 110.152C78.1191 110.499 78.3364 110.918 78.4927 111.412C78.6489 111.905 78.7271 112.432 78.7271 112.994C78.7271 114.327 78.3975 115.357 77.7383 116.084C77.0791 116.812 76.2881 117.176 75.3652 117.176C74.4473 117.176 73.7271 116.792 73.2046 116.026V117ZM73.1899 113.052C73.1899 113.985 73.3169 114.659 73.5708 115.074C73.9858 115.752 74.5474 116.092 75.2554 116.092C75.8315 116.092 76.3296 115.843 76.7495 115.345C77.1694 114.842 77.3794 114.095 77.3794 113.104C77.3794 112.088 77.1768 111.338 76.7715 110.855C76.3711 110.372 75.8853 110.13 75.314 110.13C74.7378 110.13 74.2397 110.381 73.8198 110.884C73.3999 111.382 73.1899 112.105 73.1899 113.052ZM80.3457 107.779V106.263H81.6641V107.779H80.3457ZM80.3457 117V109.222H81.6641V117H80.3457ZM89.0029 114.495L90.3652 114.664C90.1504 115.459 89.7524 116.077 89.1714 116.517C88.5903 116.956 87.8481 117.176 86.9448 117.176C85.8071 117.176 84.9038 116.827 84.2349 116.128C83.5708 115.425 83.2388 114.441 83.2388 113.177C83.2388 111.868 83.5757 110.853 84.2495 110.13C84.9233 109.407 85.7974 109.046 86.8716 109.046C87.9116 109.046 88.7612 109.4 89.4204 110.108C90.0796 110.816 90.4092 111.812 90.4092 113.096C90.4092 113.174 90.4067 113.292 90.4019 113.448H84.6011C84.6499 114.302 84.8916 114.957 85.3262 115.411C85.7607 115.865 86.3027 116.092 86.9521 116.092C87.4355 116.092 87.8481 115.965 88.1899 115.711C88.5317 115.457 88.8027 115.052 89.0029 114.495ZM84.6743 112.364H89.0176C88.959 111.709 88.793 111.219 88.5195 110.892C88.0996 110.384 87.5552 110.13 86.8862 110.13C86.2808 110.13 85.7705 110.333 85.3555 110.738C84.9453 111.143 84.7183 111.685 84.6743 112.364ZM86.8423 107.01L86.0146 108.255H84.5059L86.0879 106.204H87.4941L89.1421 108.255H87.6479L86.8423 107.01ZM86.4102 105.105C86.6885 105.076 86.8667 105.049 86.9448 105.025C87.2036 104.961 87.3354 104.861 87.3403 104.725C87.3452 104.612 87.2769 104.517 87.1353 104.439C86.9302 104.327 86.6055 104.271 86.1611 104.271C86.0098 104.271 85.7803 104.28 85.4727 104.3L85.3921 103.611C85.5825 103.572 85.9341 103.555 86.4468 103.56C87.0474 103.565 87.5381 103.663 87.9189 103.853C88.3389 104.058 88.5537 104.324 88.5635 104.651C88.583 105.145 88.1387 105.447 87.2305 105.56V105.926H86.4102V105.105ZM97.1255 117V115.857C96.52 116.736 95.6973 117.176 94.6572 117.176C94.1982 117.176 93.7686 117.088 93.3682 116.912C92.9727 116.736 92.6772 116.517 92.4819 116.253C92.2915 115.984 92.1572 115.657 92.0791 115.271C92.0254 115.013 91.9985 114.603 91.9985 114.041V109.222H93.3169V113.536C93.3169 114.224 93.3438 114.688 93.3975 114.927C93.4805 115.274 93.6562 115.547 93.9248 115.748C94.1934 115.943 94.5254 116.041 94.9209 116.041C95.3164 116.041 95.6875 115.94 96.0342 115.74C96.3809 115.535 96.625 115.259 96.7666 114.913C96.9131 114.561 96.9863 114.053 96.9863 113.389V109.222H98.3047V117H97.1255Z" fill="white"/>
<path d="M89.8918 61.0438H93.75C93.75 55.0101 91.3531 49.2236 87.0867 44.9571C82.8202 40.6907 77.0337 38.2938 71 38.2938C64.9663 38.2938 59.1798 40.6907 54.9133 44.9571C50.6469 49.2236 48.25 55.0101 48.25 61.0438H52.1093" stroke="white" stroke-width="2" stroke-linecap="round" stroke-linejoin="round"/>
<path d="M87.233 61.0438C87.233 56.7385 85.5227 52.6096 82.4785 49.5653C79.4342 46.521 75.3053 44.8108 71 44.8108M79.9052 61.0438C79.9052 58.682 78.9669 56.4169 77.2969 54.7469C75.6269 53.0768 73.3618 52.1386 71 52.1386" stroke="white" stroke-width="2" stroke-linecap="round" stroke-linejoin="round"/>
<path d="M71 63.7061C72.4703 63.7061 73.6623 62.5142 73.6623 61.0438C73.6623 59.5734 72.4703 58.3815 71 58.3815C69.5296 58.3815 68.3376 59.5734 68.3376 61.0438C68.3376 62.5142 69.5296 63.7061 71 63.7061Z" stroke="white" stroke-width="2" stroke-linecap="round" stroke-linejoin="round"/>
<path d="M71 58.3815V40.2504" stroke="white" stroke-width="2" stroke-linecap="round" stroke-linejoin="round"/>
</g>
<defs>
<filter id="filter0_d_2244_61845" x="0" y="0" width="142" height="142" filterUnits="userSpaceOnUse" color-interpolation-filters="sRGB">
<feFlood flood-opacity="0" result="BackgroundImageFix"/>
<feColorMatrix in="SourceAlpha" type="matrix" values="0 0 0 0 0 0 0 0 0 0 0 0 0 0 0 0 0 0 127 0" result="hardAlpha"/>
<feOffset dy="4"/>
<feGaussianBlur stdDeviation="2"/>
<feComposite in2="hardAlpha" operator="out"/>
<feColorMatrix type="matrix" values="0 0 0 0 0 0 0 0 0 0 0 0 0 0 0 0 0 0 0.25 0"/>
<feBlend mode="normal" in2="BackgroundImageFix" result="effect1_dropShadow_2244_61845"/>
<feBlend mode="normal" in="SourceGraphic" in2="effect1_dropShadow_2244_61845" result="shape"/>
</filter>
<linearGradient id="paint0_linear_2244_61845" x1="9.5" y1="5.5" x2="44" y2="45.5" gradientUnits="userSpaceOnUse">
<stop stop-color="#7AB93C" stop-opacity="0.8"/>
<stop offset="1" stop-color="#2C8D31"/>
</linearGradient>
<linearGradient id="paint1_linear_2244_61845" x1="9.93903" y1="-5.37277" x2="133" y2="127" gradientUnits="userSpaceOnUse">
<stop stop-color="#85CA75"/>
<stop offset="1" stop-color="#126F2E"/>
<stop offset="1" stop-color="#737373"/>
</linearGradient>
</defs>
</svg>
