<svg width="56" height="56" viewBox="0 0 56 56" fill="none" xmlns="http://www.w3.org/2000/svg">
<g clip-path="url(#clip0_1743_31698)">
<path fill-rule="evenodd" clip-rule="evenodd" d="M29.1082 11.2397C29.1592 12.0571 29.0434 12.8763 28.7679 13.6475C28.4923 14.4188 28.0627 15.1259 27.5053 15.7259C26.9479 16.3259 26.2742 16.8062 25.5253 17.1377C24.7764 17.4692 23.9678 17.6448 23.1489 17.654C21.399 17.6709 19.7095 17.0144 18.4301 15.8205C17.1506 14.6266 16.379 12.9866 16.2749 11.2397V7H29.1082V11.2373V11.2397Z" stroke="white" stroke-width="2"/>
<path d="M5.45508 43.723V34.84C5.45688 30.9991 6.74135 27.2688 9.10467 24.241C11.468 21.2133 14.7748 19.0615 18.5003 18.1272C22.2258 17.1929 26.1567 17.5295 29.6691 19.0837C33.1815 20.6378 36.0743 23.3205 37.8884 26.706" stroke="white" stroke-width="2"/>
<path d="M39.9303 49.9611H5.45061C4.62261 49.9611 3.82851 49.6322 3.24303 49.0467C2.65754 48.4612 2.32861 47.6672 2.32861 46.8391C2.32861 46.0111 2.65754 45.217 3.24303 44.6316C3.82851 44.0461 4.62261 43.7171 5.45061 43.7171H11.2559M20.5473 38.4415V40.9195M20.5473 24.6328V27.1108M17.5139 35.0185V36.0218C17.5139 36.6631 17.7686 37.2782 18.2218 37.732C18.6751 38.1857 19.2899 38.4409 19.9313 38.4415H21.1703C21.8104 38.439 22.4235 38.183 22.8752 37.7295C23.327 37.276 23.5806 36.6619 23.5806 36.0218V35.3475C23.5808 34.9206 23.4519 34.5036 23.2108 34.1513C22.9696 33.799 22.6276 33.5279 22.2296 33.3735L18.8556 32.0645C18.4576 31.9094 18.1157 31.6378 17.8746 31.2851C17.6336 30.9325 17.5046 30.5153 17.5046 30.0881V29.5911C17.5046 28.9498 17.7592 28.3347 18.2125 27.881C18.6658 27.4273 19.2806 27.1721 19.9219 27.1715H21.1609C21.4787 27.1715 21.7933 27.2341 22.0869 27.3557C22.3805 27.4773 22.6472 27.6555 22.8719 27.8802C23.0966 28.1049 23.2748 28.3716 23.3964 28.6652C23.518 28.9587 23.5806 29.2734 23.5806 29.5911" stroke="white" stroke-width="2"/>
<path fill-rule="evenodd" clip-rule="evenodd" d="M45.3925 40.0369H41.1225V44.3069H37.9259V40.0369H33.6559V36.8425H37.9282V32.5725H41.1225V36.8449H45.3925V40.0369ZM39.5242 25.5469C36.9751 25.5473 34.4834 26.3036 32.3642 27.7201C30.2449 29.1366 28.5932 31.1496 27.6179 33.5048C26.6426 35.8599 26.3876 38.4513 26.885 40.9514C27.3824 43.4514 28.6099 45.7479 30.4124 47.5503C32.2149 49.3528 34.5113 50.5803 37.0114 51.0778C39.5115 51.5752 42.1029 51.3201 44.458 50.3448C46.8131 49.3696 48.8262 47.7179 50.2427 45.5986C51.6591 43.4793 52.4154 40.9876 52.4159 38.4385C52.4162 36.7455 52.0829 35.069 51.4352 33.5048C50.7874 31.9405 49.8378 30.5192 48.6407 29.3221C47.4435 28.1249 46.0222 27.1753 44.458 26.5276C42.8938 25.8798 41.2173 25.5466 39.5242 25.5469Z" fill="white"/>
</g>
<defs>
<clipPath id="clip0_1743_31698">
<rect width="56" height="56" fill="white"/>
</clipPath>
</defs>
</svg>
