<svg width="142" height="142" viewBox="0 0 142 142" fill="none" xmlns="http://www.w3.org/2000/svg">
<g filter="url(#filter0_d_1512_17424)">
<rect x="2" y="2" width="134" height="134" rx="20" fill="url(#paint0_linear_1512_17424)" fill-opacity="0.7"/>
<path fill-rule="evenodd" clip-rule="evenodd" d="M18.5 59C38.1061 59 54 43.1061 54 23.5C54 15.4182 51.2993 7.96708 46.7513 2H116C127.046 2 136 10.9543 136 22V116C136 127.046 127.046 136 116 136H22C10.9543 136 2 127.046 2 116V54.9406C6.92964 57.533 12.5435 59 18.5 59Z" fill="url(#paint1_linear_1512_17424)"/>
<circle cx="29" cy="44" r="2" fill="#83B875"/>
<circle cx="94.5" cy="22.5" r="2.5" fill="#6CA66C"/>
<circle cx="66.5" cy="36.5" r="2.5" fill="#418D54"/>
<g clip-path="url(#clip0_1512_17424)">
<path fill-rule="evenodd" clip-rule="evenodd" d="M70.1082 36.2397C70.1592 37.0571 70.0434 37.8763 69.7679 38.6475C69.4923 39.4188 69.0627 40.1259 68.5053 40.7259C67.9479 41.3259 67.2742 41.8062 66.5253 42.1377C65.7764 42.4692 64.9678 42.6448 64.1489 42.654C62.399 42.6709 60.7095 42.0144 59.4301 40.8205C58.1506 39.6266 57.379 37.9866 57.2749 36.2397V32H70.1082V36.2373V36.2397Z" stroke="white" stroke-width="2"/>
<path d="M46.4551 68.7197V59.8367C46.4569 55.9958 47.7414 52.2655 50.1047 49.2377C52.468 46.21 55.7748 44.0582 59.5003 43.1239C63.2258 42.1896 67.1567 42.5262 70.6691 44.0804C74.1815 45.6345 77.0743 48.3172 78.8884 51.7027" stroke="white" stroke-width="2"/>
<path d="M80.9303 74.9614H46.4506C45.6226 74.9614 44.8285 74.6325 44.243 74.047C43.6575 73.4615 43.3286 72.6674 43.3286 71.8394C43.3286 71.0114 43.6575 70.2173 44.243 69.6318C44.8285 69.0463 45.6226 68.7174 46.4506 68.7174H52.2559M61.5473 63.4417V65.9197M61.5473 49.6331V52.1111M58.5139 60.0187V61.0221C58.5139 61.6634 58.7686 62.2785 59.2218 62.7322C59.6751 63.1859 60.2899 63.4411 60.9313 63.4417H62.1703C62.8104 63.4393 63.4235 63.1832 63.8752 62.7297C64.327 62.2762 64.5806 61.6622 64.5806 61.0221V60.3477C64.5808 59.9208 64.4519 59.5038 64.2108 59.1515C63.9696 58.7992 63.6276 58.5281 63.2296 58.3737L59.8556 57.0647C59.4576 56.9097 59.1157 56.638 58.8746 56.2854C58.6336 55.9327 58.5046 55.5155 58.5046 55.0884V54.5914C58.5046 53.9501 58.7592 53.335 59.2125 52.8813C59.6658 52.4275 60.2806 52.1723 60.9219 52.1717H62.1609C62.4787 52.1717 62.7933 52.2343 63.0869 52.3559C63.3805 52.4775 63.6472 52.6557 63.8719 52.8804C64.0966 53.1051 64.2748 53.3719 64.3964 53.6654C64.518 53.959 64.5806 54.2736 64.5806 54.5914" stroke="white" stroke-width="2"/>
<path fill-rule="evenodd" clip-rule="evenodd" d="M86.3925 65.0401H82.1225V69.3101H78.9259V65.0401H74.6559V61.8457H78.9282V57.5757H82.1225V61.8481H86.3925V65.0401ZM80.5242 50.55C77.9751 50.5505 75.4834 51.3068 73.3642 52.7233C71.2449 54.1397 69.5932 56.1528 68.6179 58.5079C67.6426 60.863 67.3876 63.4545 67.885 65.9545C68.3824 68.4546 69.6099 70.7511 71.4124 72.5535C73.2149 74.356 75.5113 75.5835 78.0114 76.0809C80.5115 76.5783 83.1029 76.3233 85.458 75.348C87.8131 74.3727 89.8262 72.721 91.2427 70.6018C92.6591 68.4825 93.4154 65.9908 93.4159 63.4417C93.4162 61.7487 93.0829 60.0722 92.4352 58.5079C91.7874 56.9437 90.8378 55.5224 89.6407 54.3252C88.4435 53.1281 87.0222 52.1785 85.458 51.5307C83.8938 50.883 82.2173 50.5497 80.5242 50.55Z" fill="white"/>
</g>
<path d="M24.1611 102V91.2627H25.582V100.733H30.8701V102H24.1611ZM37.4766 101.041C36.9883 101.456 36.5171 101.749 36.063 101.919C35.6138 102.09 35.1304 102.176 34.6128 102.176C33.7583 102.176 33.1016 101.968 32.6426 101.553C32.1836 101.133 31.9541 100.599 31.9541 99.9492C31.9541 99.5684 32.0396 99.2217 32.2104 98.9092C32.3862 98.5918 32.6133 98.3379 32.8916 98.1475C33.1748 97.957 33.4922 97.813 33.8438 97.7153C34.1025 97.647 34.4932 97.5811 35.0156 97.5176C36.0801 97.3906 36.8638 97.2393 37.3667 97.0635C37.3716 96.8828 37.374 96.7681 37.374 96.7192C37.374 96.1821 37.2495 95.8037 37.0005 95.584C36.6636 95.2861 36.1631 95.1372 35.499 95.1372C34.8789 95.1372 34.4199 95.2471 34.1221 95.4668C33.8291 95.6816 33.6118 96.0649 33.4702 96.6167L32.1812 96.4409C32.2983 95.8892 32.4912 95.4448 32.7598 95.1079C33.0283 94.7661 33.4165 94.5049 33.9243 94.3242C34.4321 94.1387 35.0205 94.0459 35.6895 94.0459C36.3535 94.0459 36.8931 94.124 37.3081 94.2803C37.7231 94.4365 38.0283 94.6343 38.2236 94.8735C38.4189 95.1079 38.5557 95.4058 38.6338 95.7671C38.6777 95.9917 38.6997 96.397 38.6997 96.9829V98.7407C38.6997 99.9663 38.7266 100.743 38.7803 101.07C38.8389 101.392 38.9512 101.702 39.1172 102H37.7402C37.6035 101.727 37.5156 101.407 37.4766 101.041ZM37.3667 98.0962C36.8882 98.2915 36.1704 98.4575 35.2134 98.5942C34.6714 98.6724 34.2881 98.7603 34.0635 98.8579C33.8389 98.9556 33.6655 99.0996 33.5435 99.29C33.4214 99.4756 33.3604 99.6831 33.3604 99.9126C33.3604 100.264 33.4922 100.557 33.7559 100.792C34.0244 101.026 34.415 101.143 34.9277 101.143C35.4355 101.143 35.8872 101.033 36.2827 100.813C36.6782 100.589 36.9688 100.284 37.1543 99.8979C37.2959 99.6001 37.3667 99.1606 37.3667 98.5796V98.0962ZM35.5576 92.0098L34.73 93.2549H33.2212L34.8032 91.2041H36.2095L37.8574 93.2549H36.3633L35.5576 92.0098ZM34.7666 104.38V102.879H36.2681V104.38H34.7666ZM40.7505 104.981V94.2217H41.9517V95.2324C42.2349 94.8369 42.5547 94.5415 42.9111 94.3462C43.2676 94.146 43.6997 94.0459 44.2075 94.0459C44.8716 94.0459 45.4575 94.2168 45.9653 94.5586C46.4731 94.9004 46.8564 95.3838 47.1152 96.0088C47.374 96.6289 47.5034 97.3101 47.5034 98.0522C47.5034 98.8481 47.3594 99.5659 47.0713 100.206C46.7881 100.84 46.373 101.329 45.8262 101.67C45.2842 102.007 44.7129 102.176 44.1123 102.176C43.6729 102.176 43.2773 102.083 42.9258 101.897C42.5791 101.712 42.2935 101.478 42.0688 101.194V104.981H40.7505ZM41.9443 98.1548C41.9443 99.1558 42.147 99.8955 42.5522 100.374C42.9575 100.853 43.4482 101.092 44.0244 101.092C44.6104 101.092 45.1108 100.845 45.5259 100.352C45.9458 99.854 46.1558 99.085 46.1558 98.0449C46.1558 97.0537 45.9507 96.3115 45.5405 95.8184C45.1353 95.3252 44.6494 95.0786 44.083 95.0786C43.5215 95.0786 43.0234 95.3423 42.5889 95.8696C42.1592 96.3921 41.9443 97.1538 41.9443 98.1548ZM53.2749 104.981V94.2217H54.4761V95.2324C54.7593 94.8369 55.0791 94.5415 55.4355 94.3462C55.792 94.146 56.2241 94.0459 56.7319 94.0459C57.396 94.0459 57.9819 94.2168 58.4897 94.5586C58.9976 94.9004 59.3809 95.3838 59.6396 96.0088C59.8984 96.6289 60.0278 97.3101 60.0278 98.0522C60.0278 98.8481 59.8838 99.5659 59.5957 100.206C59.3125 100.84 58.8975 101.329 58.3506 101.67C57.8086 102.007 57.2373 102.176 56.6367 102.176C56.1973 102.176 55.8018 102.083 55.4502 101.897C55.1035 101.712 54.8179 101.478 54.5933 101.194V104.981H53.2749ZM54.4688 98.1548C54.4688 99.1558 54.6714 99.8955 55.0767 100.374C55.4819 100.853 55.9727 101.092 56.5488 101.092C57.1348 101.092 57.6353 100.845 58.0503 100.352C58.4702 99.854 58.6802 99.085 58.6802 98.0449C58.6802 97.0537 58.4751 96.3115 58.0649 95.8184C57.6597 95.3252 57.1738 95.0786 56.6074 95.0786C56.0459 95.0786 55.5479 95.3423 55.1133 95.8696C54.6836 96.3921 54.4688 97.1538 54.4688 98.1548ZM61.6245 102V91.2627H62.9429V95.1152C63.5581 94.4023 64.3345 94.0459 65.272 94.0459C65.8481 94.0459 66.3486 94.1606 66.7734 94.3901C67.1982 94.6147 67.501 94.9272 67.6816 95.3276C67.8672 95.728 67.96 96.3091 67.96 97.0708V102H66.6416V97.0708C66.6416 96.4116 66.4976 95.9331 66.2095 95.6353C65.9263 95.3325 65.5234 95.1812 65.001 95.1812C64.6104 95.1812 64.2417 95.2837 63.895 95.4888C63.5532 95.689 63.3091 95.9624 63.1626 96.3091C63.0161 96.6558 62.9429 97.1343 62.9429 97.7446V102H61.6245ZM69.9814 92.7788V91.2627H71.2998V92.7788H69.9814ZM69.9814 102V94.2217H71.2998V102H69.9814ZM78.6387 99.4951L80.001 99.6636C79.7861 100.459 79.3882 101.077 78.8071 101.517C78.2261 101.956 77.4839 102.176 76.5806 102.176C75.4429 102.176 74.5396 101.827 73.8706 101.128C73.2065 100.425 72.8745 99.4414 72.8745 98.1768C72.8745 96.8682 73.2114 95.8525 73.8853 95.1299C74.5591 94.4072 75.4331 94.0459 76.5073 94.0459C77.5474 94.0459 78.397 94.3999 79.0562 95.1079C79.7153 95.8159 80.0449 96.812 80.0449 98.0962C80.0449 98.1743 80.0425 98.2915 80.0376 98.4478H74.2368C74.2856 99.3022 74.5273 99.9565 74.9619 100.411C75.3965 100.865 75.9385 101.092 76.5879 101.092C77.0713 101.092 77.4839 100.965 77.8257 100.711C78.1675 100.457 78.4385 100.052 78.6387 99.4951ZM74.3101 97.3638H78.6533C78.5947 96.7095 78.4287 96.2188 78.1553 95.8916C77.7354 95.3838 77.1909 95.1299 76.522 95.1299C75.9165 95.1299 75.4062 95.3325 74.9912 95.7378C74.5811 96.1431 74.354 96.6851 74.3101 97.3638ZM76.478 92.0098L75.6504 93.2549H74.1416L75.7236 91.2041H77.1299L78.7778 93.2549H77.2837L76.478 92.0098ZM76.7124 88.6187H78.4775L76.7856 90.6694H75.7236L76.7124 88.6187ZM86.7612 102V100.857C86.1558 101.736 85.333 102.176 84.293 102.176C83.834 102.176 83.4043 102.088 83.0039 101.912C82.6084 101.736 82.313 101.517 82.1177 101.253C81.9272 100.984 81.793 100.657 81.7148 100.271C81.6611 100.013 81.6343 99.6025 81.6343 99.041V94.2217H82.9526V98.5356C82.9526 99.2241 82.9795 99.688 83.0332 99.9272C83.1162 100.274 83.292 100.547 83.5605 100.748C83.8291 100.943 84.1611 101.041 84.5566 101.041C84.9521 101.041 85.3232 100.94 85.6699 100.74C86.0166 100.535 86.2607 100.259 86.4023 99.9126C86.5488 99.561 86.6221 99.0532 86.6221 98.3892V94.2217H87.9404V102H86.7612ZM93.9463 102.645L95.228 102.835C95.2817 103.23 95.4307 103.519 95.6748 103.699C96.002 103.943 96.4487 104.065 97.0151 104.065C97.6255 104.065 98.0967 103.943 98.4287 103.699C98.7607 103.455 98.9854 103.113 99.1025 102.674C99.1709 102.405 99.2026 101.841 99.1978 100.982C98.6216 101.661 97.9038 102 97.0444 102C95.9751 102 95.1475 101.614 94.5615 100.843C93.9756 100.071 93.6826 99.146 93.6826 98.0669C93.6826 97.3247 93.8169 96.6411 94.0854 96.0161C94.354 95.3862 94.7422 94.9004 95.25 94.5586C95.7627 94.2168 96.3633 94.0459 97.0518 94.0459C97.9697 94.0459 98.7266 94.417 99.3223 95.1592V94.2217H100.538V100.945C100.538 102.156 100.414 103.013 100.165 103.516C99.9204 104.024 99.5298 104.424 98.9927 104.717C98.4604 105.01 97.8037 105.157 97.0225 105.157C96.0947 105.157 95.3452 104.947 94.7739 104.527C94.2026 104.112 93.9268 103.484 93.9463 102.645ZM95.0376 97.9717C95.0376 98.9922 95.2402 99.7368 95.6455 100.206C96.0508 100.674 96.5586 100.909 97.1689 100.909C97.7744 100.909 98.2822 100.677 98.6924 100.213C99.1025 99.7441 99.3076 99.0117 99.3076 98.0156C99.3076 97.0635 99.0952 96.3457 98.6704 95.8623C98.2505 95.3789 97.7427 95.1372 97.147 95.1372C96.561 95.1372 96.063 95.3765 95.6528 95.855C95.2427 96.3286 95.0376 97.0342 95.0376 97.9717ZM109.723 95.7524V94.2217H111.136V95.4302C111.136 96.1968 111.048 96.7314 110.873 97.0342C110.423 97.8154 109.737 98.2549 108.814 98.3525V102H107.635V100.857C107.03 101.736 106.207 102.176 105.167 102.176C104.713 102.176 104.286 102.09 103.885 101.919C103.49 101.744 103.194 101.521 102.999 101.253C102.804 100.984 102.667 100.657 102.589 100.271C102.535 100.008 102.508 99.5977 102.508 99.041V94.2217H103.827V98.5356C103.827 99.2339 103.854 99.6978 103.907 99.9272C104.078 100.669 104.586 101.041 105.431 101.041C105.836 101.041 106.209 100.938 106.551 100.733C106.898 100.528 107.142 100.252 107.284 99.9053C107.425 99.5586 107.496 99.0532 107.496 98.3892V94.2217H108.814V97.7959C109.435 97.6885 109.898 97.3979 110.206 96.9243C110.343 96.7192 110.411 96.3286 110.411 95.7524H109.723ZM105.248 92.376C105.526 92.3467 105.704 92.3198 105.782 92.2954C106.041 92.2075 106.173 92.0708 106.178 91.8853C106.183 91.7729 106.114 91.6777 105.973 91.5996C105.768 91.4873 105.443 91.4312 104.999 91.4312C104.847 91.4312 104.618 91.4409 104.31 91.4604L104.229 90.7134C104.42 90.6743 104.771 90.6572 105.284 90.6621C105.885 90.667 106.375 90.7646 106.756 90.9551C107.176 91.1602 107.391 91.4458 107.401 91.812C107.42 92.4175 106.976 92.7764 106.068 92.8887V93.2549H105.248V92.376ZM112.594 92.7788V91.2627H113.912V92.7788H112.594ZM112.594 102V94.2217H113.912V102H112.594ZM30.7236 117.821L30.9141 118.985C30.543 119.063 30.2109 119.103 29.918 119.103C29.4395 119.103 29.0684 119.027 28.8047 118.875C28.541 118.724 28.3555 118.526 28.248 118.282C28.1406 118.033 28.0869 117.513 28.0869 116.722V112.247H27.1201V111.222H28.0869V109.295L29.3979 108.504V111.222H30.7236V112.247H29.3979V116.795C29.3979 117.171 29.4199 117.413 29.4639 117.521C29.5127 117.628 29.5884 117.713 29.6909 117.777C29.7983 117.84 29.9497 117.872 30.145 117.872C30.2915 117.872 30.4844 117.855 30.7236 117.821ZM32.0273 109.779V108.263H33.3457V109.779H32.0273ZM32.0273 119V111.222H33.3457V119H32.0273ZM40.6846 116.495L42.0469 116.664C41.832 117.459 41.4341 118.077 40.853 118.517C40.272 118.956 39.5298 119.176 38.6265 119.176C37.4888 119.176 36.5854 118.827 35.9165 118.128C35.2524 117.425 34.9204 116.441 34.9204 115.177C34.9204 113.868 35.2573 112.853 35.9312 112.13C36.605 111.407 37.479 111.046 38.5532 111.046C39.5933 111.046 40.4429 111.4 41.1021 112.108C41.7612 112.816 42.0908 113.812 42.0908 115.096C42.0908 115.174 42.0884 115.292 42.0835 115.448H36.2827C36.3315 116.302 36.5732 116.957 37.0078 117.411C37.4424 117.865 37.9844 118.092 38.6338 118.092C39.1172 118.092 39.5298 117.965 39.8716 117.711C40.2134 117.457 40.4844 117.052 40.6846 116.495ZM36.356 114.364H40.6992C40.6406 113.709 40.4746 113.219 40.2012 112.892C39.7812 112.384 39.2368 112.13 38.5679 112.13C37.9624 112.13 37.4521 112.333 37.0371 112.738C36.627 113.143 36.3999 113.685 36.356 114.364ZM38.5239 109.01L37.6963 110.255H36.1875L37.7695 108.204H39.1758L40.8237 110.255H39.3296L38.5239 109.01ZM39.1758 107.669H38.1138L36.4219 105.619H38.187L39.1758 107.669ZM43.7095 119V111.222H44.896V112.328C45.4673 111.473 46.2925 111.046 47.3716 111.046C47.8403 111.046 48.27 111.131 48.6606 111.302C49.0562 111.468 49.3516 111.688 49.5469 111.961C49.7422 112.235 49.8789 112.56 49.957 112.936C50.0059 113.18 50.0303 113.607 50.0303 114.217V119H48.7119V114.269C48.7119 113.731 48.6606 113.331 48.5581 113.067C48.4556 112.799 48.2725 112.586 48.0088 112.43C47.75 112.269 47.4448 112.188 47.0933 112.188C46.5317 112.188 46.0459 112.367 45.6357 112.723C45.2305 113.08 45.0278 113.756 45.0278 114.752V119H43.7095ZM59.1123 117.821L59.3027 118.985C58.9316 119.063 58.5996 119.103 58.3066 119.103C57.8281 119.103 57.457 119.027 57.1934 118.875C56.9297 118.724 56.7441 118.526 56.6367 118.282C56.5293 118.033 56.4756 117.513 56.4756 116.722V112.247H55.5088V111.222H56.4756V109.295L57.7866 108.504V111.222H59.1123V112.247H57.7866V116.795C57.7866 117.171 57.8086 117.413 57.8525 117.521C57.9014 117.628 57.9771 117.713 58.0796 117.777C58.187 117.84 58.3384 117.872 58.5337 117.872C58.6802 117.872 58.873 117.855 59.1123 117.821ZM60.416 109.779V108.263H61.7344V109.779H60.416ZM60.416 119V111.222H61.7344V119H60.416ZM69.0732 116.495L70.4355 116.664C70.2207 117.459 69.8228 118.077 69.2417 118.517C68.6606 118.956 67.9185 119.176 67.0151 119.176C65.8774 119.176 64.9741 118.827 64.3052 118.128C63.6411 117.425 63.3091 116.441 63.3091 115.177C63.3091 113.868 63.646 112.853 64.3198 112.13C64.9937 111.407 65.8677 111.046 66.9419 111.046C67.9819 111.046 68.8315 111.4 69.4907 112.108C70.1499 112.816 70.4795 113.812 70.4795 115.096C70.4795 115.174 70.4771 115.292 70.4722 115.448H64.6714C64.7202 116.302 64.9619 116.957 65.3965 117.411C65.8311 117.865 66.373 118.092 67.0225 118.092C67.5059 118.092 67.9185 117.965 68.2603 117.711C68.6021 117.457 68.873 117.052 69.0732 116.495ZM64.7446 114.364H69.0879C69.0293 113.709 68.8633 113.219 68.5898 112.892C68.1699 112.384 67.6255 112.13 66.9565 112.13C66.3511 112.13 65.8408 112.333 65.4258 112.738C65.0156 113.143 64.7886 113.685 64.7446 114.364ZM66.9126 109.01L66.085 110.255H64.5762L66.1582 108.204H67.5645L69.2124 110.255H67.7183L66.9126 109.01ZM67.147 105.619H68.9121L67.2202 107.669H66.1582L67.147 105.619ZM74.9766 117.821L75.167 118.985C74.7959 119.063 74.4639 119.103 74.1709 119.103C73.6924 119.103 73.3213 119.027 73.0576 118.875C72.7939 118.724 72.6084 118.526 72.501 118.282C72.3936 118.033 72.3398 117.513 72.3398 116.722V112.247H71.373V111.222H72.3398V109.295L73.6509 108.504V111.222H74.9766V112.247H73.6509V116.795C73.6509 117.171 73.6729 117.413 73.7168 117.521C73.7656 117.628 73.8413 117.713 73.9438 117.777C74.0513 117.84 74.2026 117.872 74.3979 117.872C74.5444 117.872 74.7373 117.855 74.9766 117.821ZM80.4551 119V108.263H81.7734V114.386L84.8936 111.222H86.6001L83.6265 114.107L86.9004 119H85.2744L82.7036 115.023L81.7734 115.917V119H80.4551ZM87.9551 109.779V108.263H89.2734V109.779H87.9551ZM87.9551 119V111.222H89.2734V119H87.9551ZM96.6123 116.495L97.9746 116.664C97.7598 117.459 97.3618 118.077 96.7808 118.517C96.1997 118.956 95.4575 119.176 94.5542 119.176C93.4165 119.176 92.5132 118.827 91.8442 118.128C91.1802 117.425 90.8481 116.441 90.8481 115.177C90.8481 113.868 91.1851 112.853 91.8589 112.13C92.5327 111.407 93.4067 111.046 94.481 111.046C95.521 111.046 96.3706 111.4 97.0298 112.108C97.689 112.816 98.0186 113.812 98.0186 115.096C98.0186 115.174 98.0161 115.292 98.0112 115.448H92.2104C92.2593 116.302 92.501 116.957 92.9355 117.411C93.3701 117.865 93.9121 118.092 94.5615 118.092C95.0449 118.092 95.4575 117.965 95.7993 117.711C96.1411 117.457 96.4121 117.052 96.6123 116.495ZM92.2837 114.364H96.627C96.5684 113.709 96.4023 113.219 96.1289 112.892C95.709 112.384 95.1646 112.13 94.4956 112.13C93.8901 112.13 93.3799 112.333 92.9648 112.738C92.5547 113.143 92.3276 113.685 92.2837 114.364ZM94.4517 109.01L93.624 110.255H92.1152L93.6973 108.204H95.1035L96.7515 110.255H95.2573L94.4517 109.01ZM93.7852 121.38V119.879H95.2866V121.38H93.7852ZM99.6372 119V111.222H100.816V112.313C101.061 111.932 101.385 111.627 101.791 111.397C102.196 111.163 102.657 111.046 103.175 111.046C103.751 111.046 104.222 111.166 104.588 111.405C104.959 111.644 105.221 111.979 105.372 112.408C105.987 111.5 106.788 111.046 107.774 111.046C108.546 111.046 109.139 111.261 109.554 111.69C109.969 112.115 110.177 112.772 110.177 113.661V119H108.866V114.1C108.866 113.573 108.822 113.194 108.734 112.965C108.651 112.73 108.497 112.542 108.272 112.401C108.048 112.259 107.784 112.188 107.481 112.188C106.935 112.188 106.48 112.372 106.119 112.738C105.758 113.099 105.577 113.68 105.577 114.481V119H104.259V113.946C104.259 113.36 104.151 112.921 103.937 112.628C103.722 112.335 103.37 112.188 102.882 112.188C102.511 112.188 102.167 112.286 101.849 112.481C101.537 112.677 101.31 112.962 101.168 113.338C101.026 113.714 100.956 114.256 100.956 114.964V119H99.6372Z" fill="white"/>
</g>
<defs>
<filter id="filter0_d_1512_17424" x="0" y="0" width="142" height="142" filterUnits="userSpaceOnUse" color-interpolation-filters="sRGB">
<feFlood flood-opacity="0" result="BackgroundImageFix"/>
<feColorMatrix in="SourceAlpha" type="matrix" values="0 0 0 0 0 0 0 0 0 0 0 0 0 0 0 0 0 0 127 0" result="hardAlpha"/>
<feOffset dx="2" dy="2"/>
<feGaussianBlur stdDeviation="2"/>
<feComposite in2="hardAlpha" operator="out"/>
<feColorMatrix type="matrix" values="0 0 0 0 0.2 0 0 0 0 0.352941 0 0 0 0 0.14902 0 0 0 1 0"/>
<feBlend mode="normal" in2="BackgroundImageFix" result="effect1_dropShadow_1512_17424"/>
<feBlend mode="normal" in="SourceGraphic" in2="effect1_dropShadow_1512_17424" result="shape"/>
</filter>
<linearGradient id="paint0_linear_1512_17424" x1="7.5" y1="7.5" x2="42" y2="47.5" gradientUnits="userSpaceOnUse">
<stop stop-color="#7AB93C" stop-opacity="0.8"/>
<stop offset="1" stop-color="#2C8D31"/>
</linearGradient>
<linearGradient id="paint1_linear_1512_17424" x1="7.93903" y1="-3.37277" x2="131" y2="129" gradientUnits="userSpaceOnUse">
<stop stop-color="#85CA75"/>
<stop offset="1" stop-color="#126F2E"/>
<stop offset="1" stop-color="#737373"/>
</linearGradient>
<clipPath id="clip0_1512_17424">
<rect width="56" height="56" fill="white" transform="translate(41 25)"/>
</clipPath>
</defs>
</svg>
