<svg width="142" height="142" viewBox="0 0 142 142" fill="none" xmlns="http://www.w3.org/2000/svg">
<g filter="url(#filter0_d_1512_17424)">
<rect x="2" y="2" width="134" height="134" rx="20" fill="url(#paint0_linear_1512_17424)" fill-opacity="0.7"/>
<path fill-rule="evenodd" clip-rule="evenodd" d="M18.5 59C38.1061 59 54 43.1061 54 23.5C54 15.4182 51.2993 7.96708 46.7513 2H116C127.046 2 136 10.9543 136 22V116C136 127.046 127.046 136 116 136H22C10.9543 136 2 127.046 2 116V54.9406C6.92964 57.533 12.5435 59 18.5 59Z" fill="url(#paint1_linear_1512_17424)"/>
<circle cx="29" cy="44" r="2" fill="#83B875"/>
<circle cx="94.5" cy="22.5" r="2.5" fill="#6CA66C"/>
<circle cx="66.5" cy="36.5" r="2.5" fill="#418D54"/>
<g clip-path="url(#clip0_1512_17424)">
<path fill-rule="evenodd" clip-rule="evenodd" d="M70.1082 36.2397C70.1592 37.0571 70.0434 37.8763 69.7679 38.6475C69.4923 39.4188 69.0627 40.1259 68.5053 40.7259C67.9479 41.3259 67.2742 41.8062 66.5253 42.1377C65.7764 42.4692 64.9678 42.6448 64.1489 42.654C62.399 42.6709 60.7095 42.0144 59.4301 40.8205C58.1506 39.6266 57.379 37.9866 57.2749 36.2397V32H70.1082V36.2373V36.2397Z" stroke="white" stroke-width="2"/>
<path d="M46.4551 68.7197V59.8367C46.4569 55.9958 47.7414 52.2655 50.1047 49.2377C52.468 46.21 55.7748 44.0582 59.5003 43.1239C63.2258 42.1896 67.1567 42.5262 70.6691 44.0804C74.1815 45.6345 77.0743 48.3172 78.8884 51.7027" stroke="white" stroke-width="2"/>
<path d="M80.9303 74.9614H46.4506C45.6226 74.9614 44.8285 74.6325 44.243 74.047C43.6575 73.4615 43.3286 72.6674 43.3286 71.8394C43.3286 71.0114 43.6575 70.2173 44.243 69.6318C44.8285 69.0463 45.6226 68.7174 46.4506 68.7174H52.2559M61.5473 63.4417V65.9197M61.5473 49.6331V52.1111M58.5139 60.0187V61.0221C58.5139 61.6634 58.7686 62.2785 59.2218 62.7322C59.6751 63.1859 60.2899 63.4411 60.9313 63.4417H62.1703C62.8104 63.4393 63.4235 63.1832 63.8752 62.7297C64.327 62.2762 64.5806 61.6622 64.5806 61.0221V60.3477C64.5808 59.9208 64.4519 59.5038 64.2108 59.1515C63.9696 58.7992 63.6276 58.5281 63.2296 58.3737L59.8556 57.0647C59.4576 56.9097 59.1157 56.638 58.8746 56.2854C58.6336 55.9327 58.5046 55.5155 58.5046 55.0884V54.5914C58.5046 53.9501 58.7592 53.335 59.2125 52.8813C59.6658 52.4275 60.2806 52.1723 60.9219 52.1717H62.1609C62.4787 52.1717 62.7933 52.2343 63.0869 52.3559C63.3805 52.4775 63.6472 52.6557 63.8719 52.8804C64.0966 53.1051 64.2748 53.3719 64.3964 53.6654C64.518 53.959 64.5806 54.2736 64.5806 54.5914" stroke="white" stroke-width="2"/>
<path fill-rule="evenodd" clip-rule="evenodd" d="M86.3925 65.0401H82.1225V69.3101H78.9259V65.0401H74.6559V61.8457H78.9282V57.5757H82.1225V61.8481H86.3925V65.0401ZM80.5242 50.55C77.9751 50.5505 75.4834 51.3068 73.3642 52.7233C71.2449 54.1397 69.5932 56.1528 68.6179 58.5079C67.6426 60.863 67.3876 63.4545 67.885 65.9545C68.3824 68.4546 69.6099 70.7511 71.4124 72.5535C73.2149 74.356 75.5113 75.5835 78.0114 76.0809C80.5115 76.5783 83.1029 76.3233 85.458 75.348C87.8131 74.3727 89.8262 72.721 91.2427 70.6018C92.6591 68.4825 93.4154 65.9908 93.4159 63.4417C93.4162 61.7487 93.0829 60.0722 92.4352 58.5079C91.7874 56.9437 90.8378 55.5224 89.6407 54.3252C88.4435 53.1281 87.0222 52.1785 85.458 51.5307C83.8938 50.883 82.2173 50.5497 80.5242 50.55Z" fill="white"/>
</g>
<path d="M9.9668 95V84.2627H11.3877V93.7329H16.6758V95H9.9668ZM23.2822 94.0405C22.7939 94.4556 22.3228 94.7485 21.8687 94.9194C21.4194 95.0903 20.936 95.1758 20.4185 95.1758C19.564 95.1758 18.9072 94.9683 18.4482 94.5532C17.9893 94.1333 17.7598 93.5986 17.7598 92.9492C17.7598 92.5684 17.8452 92.2217 18.0161 91.9092C18.1919 91.5918 18.4189 91.3379 18.6973 91.1475C18.9805 90.957 19.2979 90.813 19.6494 90.7153C19.9082 90.647 20.2988 90.5811 20.8213 90.5176C21.8857 90.3906 22.6694 90.2393 23.1724 90.0635C23.1772 89.8828 23.1797 89.7681 23.1797 89.7192C23.1797 89.1821 23.0552 88.8037 22.8062 88.584C22.4692 88.2861 21.9688 88.1372 21.3047 88.1372C20.6846 88.1372 20.2256 88.2471 19.9277 88.4668C19.6348 88.6816 19.4175 89.0649 19.2759 89.6167L17.9868 89.4409C18.104 88.8892 18.2969 88.4448 18.5654 88.1079C18.834 87.7661 19.2222 87.5049 19.73 87.3242C20.2378 87.1387 20.8262 87.0459 21.4951 87.0459C22.1592 87.0459 22.6987 87.124 23.1138 87.2803C23.5288 87.4365 23.834 87.6343 24.0293 87.8735C24.2246 88.1079 24.3613 88.4058 24.4395 88.7671C24.4834 88.9917 24.5054 89.397 24.5054 89.9829V91.7407C24.5054 92.9663 24.5322 93.7427 24.5859 94.0698C24.6445 94.3921 24.7568 94.7021 24.9229 95H23.5459C23.4092 94.7266 23.3213 94.4067 23.2822 94.0405ZM23.1724 91.0962C22.6938 91.2915 21.9761 91.4575 21.019 91.5942C20.4771 91.6724 20.0938 91.7603 19.8691 91.8579C19.6445 91.9556 19.4712 92.0996 19.3491 92.29C19.2271 92.4756 19.166 92.6831 19.166 92.9126C19.166 93.2642 19.2979 93.5571 19.5615 93.7915C19.8301 94.0259 20.2207 94.1431 20.7334 94.1431C21.2412 94.1431 21.6929 94.0332 22.0884 93.8135C22.4839 93.5889 22.7744 93.2837 22.96 92.8979C23.1016 92.6001 23.1724 92.1606 23.1724 91.5796V91.0962ZM21.3633 85.0098L20.5356 86.2549H19.0269L20.6089 84.2041H22.0151L23.6631 86.2549H22.1689L21.3633 85.0098ZM20.5723 97.3804V95.8789H22.0737V97.3804H20.5723ZM26.5562 97.981V87.2217H27.7573V88.2324C28.0405 87.8369 28.3604 87.5415 28.7168 87.3462C29.0732 87.146 29.5054 87.0459 30.0132 87.0459C30.6772 87.0459 31.2632 87.2168 31.771 87.5586C32.2788 87.9004 32.6621 88.3838 32.9209 89.0088C33.1797 89.6289 33.3091 90.3101 33.3091 91.0522C33.3091 91.8481 33.165 92.5659 32.877 93.2056C32.5938 93.8403 32.1787 94.3286 31.6318 94.6704C31.0898 95.0073 30.5186 95.1758 29.918 95.1758C29.4785 95.1758 29.083 95.083 28.7314 94.8975C28.3848 94.7119 28.0991 94.4775 27.8745 94.1943V97.981H26.5562ZM27.75 91.1548C27.75 92.1558 27.9526 92.8955 28.3579 93.374C28.7632 93.8525 29.2539 94.0918 29.8301 94.0918C30.416 94.0918 30.9165 93.8452 31.3315 93.3521C31.7515 92.854 31.9614 92.085 31.9614 91.0449C31.9614 90.0537 31.7563 89.3115 31.3462 88.8184C30.9409 88.3252 30.4551 88.0786 29.8887 88.0786C29.3271 88.0786 28.8291 88.3423 28.3945 88.8696C27.9648 89.3921 27.75 90.1538 27.75 91.1548ZM39.0806 97.981V87.2217H40.2817V88.2324C40.5649 87.8369 40.8848 87.5415 41.2412 87.3462C41.5977 87.146 42.0298 87.0459 42.5376 87.0459C43.2017 87.0459 43.7876 87.2168 44.2954 87.5586C44.8032 87.9004 45.1865 88.3838 45.4453 89.0088C45.7041 89.6289 45.8335 90.3101 45.8335 91.0522C45.8335 91.8481 45.6895 92.5659 45.4014 93.2056C45.1182 93.8403 44.7031 94.3286 44.1562 94.6704C43.6143 95.0073 43.043 95.1758 42.4424 95.1758C42.0029 95.1758 41.6074 95.083 41.2559 94.8975C40.9092 94.7119 40.6235 94.4775 40.3989 94.1943V97.981H39.0806ZM40.2744 91.1548C40.2744 92.1558 40.4771 92.8955 40.8823 93.374C41.2876 93.8525 41.7783 94.0918 42.3545 94.0918C42.9404 94.0918 43.4409 93.8452 43.856 93.3521C44.2759 92.854 44.4858 92.085 44.4858 91.0449C44.4858 90.0537 44.2808 89.3115 43.8706 88.8184C43.4653 88.3252 42.9795 88.0786 42.4131 88.0786C41.8516 88.0786 41.3535 88.3423 40.9189 88.8696C40.4893 89.3921 40.2744 90.1538 40.2744 91.1548ZM47.4302 95V84.2627H48.7485V88.1152C49.3638 87.4023 50.1401 87.0459 51.0776 87.0459C51.6538 87.0459 52.1543 87.1606 52.5791 87.3901C53.0039 87.6147 53.3066 87.9272 53.4873 88.3276C53.6729 88.728 53.7656 89.3091 53.7656 90.0708V95H52.4473V90.0708C52.4473 89.4116 52.3032 88.9331 52.0151 88.6353C51.7319 88.3325 51.3291 88.1812 50.8066 88.1812C50.416 88.1812 50.0474 88.2837 49.7007 88.4888C49.3589 88.689 49.1147 88.9624 48.9683 89.3091C48.8218 89.6558 48.7485 90.1343 48.7485 90.7446V95H47.4302ZM55.7871 85.7788V84.2627H57.1055V85.7788H55.7871ZM55.7871 95V87.2217H57.1055V95H55.7871ZM64.4443 92.4951L65.8066 92.6636C65.5918 93.4595 65.1938 94.0771 64.6128 94.5166C64.0317 94.9561 63.2896 95.1758 62.3862 95.1758C61.2485 95.1758 60.3452 94.8267 59.6763 94.1284C59.0122 93.4253 58.6802 92.4414 58.6802 91.1768C58.6802 89.8682 59.0171 88.8525 59.6909 88.1299C60.3647 87.4072 61.2388 87.0459 62.313 87.0459C63.353 87.0459 64.2026 87.3999 64.8618 88.1079C65.521 88.8159 65.8506 89.812 65.8506 91.0962C65.8506 91.1743 65.8481 91.2915 65.8433 91.4478H60.0425C60.0913 92.3022 60.333 92.9565 60.7676 93.4106C61.2021 93.8647 61.7441 94.0918 62.3936 94.0918C62.877 94.0918 63.2896 93.9648 63.6313 93.7109C63.9731 93.457 64.2441 93.0518 64.4443 92.4951ZM60.1157 90.3638H64.459C64.4004 89.7095 64.2344 89.2188 63.9609 88.8916C63.541 88.3838 62.9966 88.1299 62.3276 88.1299C61.7222 88.1299 61.2119 88.3325 60.7969 88.7378C60.3867 89.1431 60.1597 89.6851 60.1157 90.3638ZM62.2837 85.0098L61.4561 86.2549H59.9473L61.5293 84.2041H62.9355L64.5835 86.2549H63.0894L62.2837 85.0098ZM62.5181 81.6187H64.2832L62.5913 83.6694H61.5293L62.5181 81.6187ZM72.5669 95V93.8574C71.9614 94.7363 71.1387 95.1758 70.0986 95.1758C69.6396 95.1758 69.21 95.0879 68.8096 94.9121C68.4141 94.7363 68.1187 94.5166 67.9233 94.2529C67.7329 93.9844 67.5986 93.6572 67.5205 93.2715C67.4668 93.0127 67.4399 92.6025 67.4399 92.041V87.2217H68.7583V91.5356C68.7583 92.2241 68.7852 92.688 68.8389 92.9272C68.9219 93.2739 69.0977 93.5474 69.3662 93.7476C69.6348 93.9429 69.9668 94.0405 70.3623 94.0405C70.7578 94.0405 71.1289 93.9404 71.4756 93.7402C71.8223 93.5352 72.0664 93.2593 72.208 92.9126C72.3545 92.561 72.4277 92.0532 72.4277 91.3892V87.2217H73.7461V95H72.5669ZM79.752 95.6445L81.0337 95.835C81.0874 96.2305 81.2363 96.5186 81.4805 96.6992C81.8076 96.9434 82.2544 97.0654 82.8208 97.0654C83.4312 97.0654 83.9023 96.9434 84.2344 96.6992C84.5664 96.4551 84.791 96.1133 84.9082 95.6738C84.9766 95.4053 85.0083 94.8413 85.0034 93.9819C84.4272 94.6606 83.7095 95 82.8501 95C81.7808 95 80.9531 94.6143 80.3672 93.8428C79.7812 93.0713 79.4883 92.146 79.4883 91.0669C79.4883 90.3247 79.6226 89.6411 79.8911 89.0161C80.1597 88.3862 80.5479 87.9004 81.0557 87.5586C81.5684 87.2168 82.1689 87.0459 82.8574 87.0459C83.7754 87.0459 84.5322 87.417 85.1279 88.1592V87.2217H86.3438V93.9453C86.3438 95.1562 86.2192 96.0132 85.9702 96.5161C85.7261 97.0239 85.3354 97.4243 84.7983 97.7173C84.2661 98.0103 83.6094 98.1567 82.8281 98.1567C81.9004 98.1567 81.1509 97.9468 80.5796 97.5269C80.0083 97.1118 79.7324 96.4844 79.752 95.6445ZM80.8433 90.9717C80.8433 91.9922 81.0459 92.7368 81.4512 93.2056C81.8564 93.6743 82.3643 93.9087 82.9746 93.9087C83.5801 93.9087 84.0879 93.6768 84.498 93.2129C84.9082 92.7441 85.1133 92.0117 85.1133 91.0156C85.1133 90.0635 84.9009 89.3457 84.4761 88.8623C84.0562 88.3789 83.5483 88.1372 82.9526 88.1372C82.3667 88.1372 81.8687 88.3765 81.4585 88.855C81.0483 89.3286 80.8433 90.0342 80.8433 90.9717ZM95.5283 88.7524V87.2217H96.9419V88.4302C96.9419 89.1968 96.854 89.7314 96.6782 90.0342C96.229 90.8154 95.543 91.2549 94.6201 91.3525V95H93.4409V93.8574C92.8354 94.7363 92.0127 95.1758 90.9727 95.1758C90.5186 95.1758 90.0913 95.0903 89.6909 94.9194C89.2954 94.7437 89 94.5215 88.8047 94.2529C88.6094 93.9844 88.4727 93.6572 88.3945 93.2715C88.3408 93.0078 88.314 92.5977 88.314 92.041V87.2217H89.6323V91.5356C89.6323 92.2339 89.6592 92.6978 89.7129 92.9272C89.8838 93.6694 90.3916 94.0405 91.2363 94.0405C91.6416 94.0405 92.0151 93.938 92.3569 93.7329C92.7036 93.5278 92.9478 93.252 93.0894 92.9053C93.231 92.5586 93.3018 92.0532 93.3018 91.3892V87.2217H94.6201V90.7959C95.2402 90.6885 95.7041 90.3979 96.0117 89.9243C96.1484 89.7192 96.2168 89.3286 96.2168 88.7524H95.5283ZM91.0532 85.376C91.3315 85.3467 91.5098 85.3198 91.5879 85.2954C91.8467 85.2075 91.9785 85.0708 91.9834 84.8853C91.9883 84.7729 91.9199 84.6777 91.7783 84.5996C91.5732 84.4873 91.2485 84.4312 90.8042 84.4312C90.6528 84.4312 90.4233 84.4409 90.1157 84.4604L90.0352 83.7134C90.2256 83.6743 90.5771 83.6572 91.0898 83.6621C91.6904 83.667 92.1812 83.7646 92.562 83.9551C92.9819 84.1602 93.1968 84.4458 93.2065 84.812C93.2261 85.4175 92.7817 85.7764 91.8735 85.8887V86.2549H91.0532V85.376ZM98.3994 85.7788V84.2627H99.7178V85.7788H98.3994ZM98.3994 95V87.2217H99.7178V95H98.3994ZM108.785 93.8208L108.976 94.9854C108.604 95.0635 108.272 95.1025 107.979 95.1025C107.501 95.1025 107.13 95.0269 106.866 94.8755C106.603 94.7241 106.417 94.5264 106.31 94.2822C106.202 94.0332 106.148 93.5132 106.148 92.7222V88.2471H105.182V87.2217H106.148V85.2954L107.459 84.5044V87.2217H108.785V88.2471H107.459V92.7954C107.459 93.1714 107.481 93.4131 107.525 93.5205C107.574 93.6279 107.65 93.7134 107.752 93.7769C107.86 93.8403 108.011 93.8721 108.207 93.8721C108.353 93.8721 108.546 93.855 108.785 93.8208ZM110.089 85.7788V84.2627H111.407V85.7788H110.089ZM110.089 95V87.2217H111.407V95H110.089ZM118.746 92.4951L120.108 92.6636C119.894 93.4595 119.496 94.0771 118.915 94.5166C118.333 94.9561 117.591 95.1758 116.688 95.1758C115.55 95.1758 114.647 94.8267 113.978 94.1284C113.314 93.4253 112.982 92.4414 112.982 91.1768C112.982 89.8682 113.319 88.8525 113.993 88.1299C114.667 87.4072 115.541 87.0459 116.615 87.0459C117.655 87.0459 118.504 87.3999 119.164 88.1079C119.823 88.8159 120.152 89.812 120.152 91.0962C120.152 91.1743 120.15 91.2915 120.145 91.4478H114.344C114.393 92.3022 114.635 92.9565 115.069 93.4106C115.504 93.8647 116.046 94.0918 116.695 94.0918C117.179 94.0918 117.591 93.9648 117.933 93.7109C118.275 93.457 118.546 93.0518 118.746 92.4951ZM114.417 90.3638H118.761C118.702 89.7095 118.536 89.2188 118.263 88.8916C117.843 88.3838 117.298 88.1299 116.629 88.1299C116.024 88.1299 115.514 88.3325 115.099 88.7378C114.688 89.1431 114.461 89.6851 114.417 90.3638ZM116.585 85.0098L115.758 86.2549H114.249L115.831 84.2041H117.237L118.885 86.2549H117.391L116.585 85.0098ZM117.237 83.6694H116.175L114.483 81.6187H116.249L117.237 83.6694ZM121.771 95V87.2217H122.958V88.3276C123.529 87.4731 124.354 87.0459 125.433 87.0459C125.902 87.0459 126.332 87.1313 126.722 87.3022C127.118 87.4683 127.413 87.688 127.608 87.9614C127.804 88.2349 127.94 88.5596 128.019 88.9355C128.067 89.1797 128.092 89.6069 128.092 90.2173V95H126.773V90.2686C126.773 89.7314 126.722 89.3311 126.62 89.0674C126.517 88.7988 126.334 88.5864 126.07 88.4302C125.812 88.269 125.506 88.1885 125.155 88.1885C124.593 88.1885 124.107 88.3667 123.697 88.7231C123.292 89.0796 123.089 89.7559 123.089 90.752V95H121.771ZM21.9712 110.821L22.1616 111.985C21.7905 112.063 21.4585 112.103 21.1655 112.103C20.687 112.103 20.3159 112.027 20.0522 111.875C19.7886 111.724 19.603 111.526 19.4956 111.282C19.3882 111.033 19.3345 110.513 19.3345 109.722V105.247H18.3677V104.222H19.3345V102.295L20.6455 101.504V104.222H21.9712V105.247H20.6455V109.795C20.6455 110.171 20.6675 110.413 20.7114 110.521C20.7603 110.628 20.8359 110.713 20.9385 110.777C21.0459 110.84 21.1973 110.872 21.3926 110.872C21.5391 110.872 21.7319 110.855 21.9712 110.821ZM23.2749 102.779V101.263H24.5933V102.779H23.2749ZM23.2749 112V104.222H24.5933V112H23.2749ZM31.9321 109.495L33.2944 109.664C33.0796 110.459 32.6816 111.077 32.1006 111.517C31.5195 111.956 30.7773 112.176 29.874 112.176C28.7363 112.176 27.833 111.827 27.1641 111.128C26.5 110.425 26.168 109.441 26.168 108.177C26.168 106.868 26.5049 105.853 27.1787 105.13C27.8525 104.407 28.7266 104.046 29.8008 104.046C30.8408 104.046 31.6904 104.4 32.3496 105.108C33.0088 105.816 33.3384 106.812 33.3384 108.096C33.3384 108.174 33.3359 108.292 33.3311 108.448H27.5303C27.5791 109.302 27.8208 109.957 28.2554 110.411C28.6899 110.865 29.2319 111.092 29.8813 111.092C30.3647 111.092 30.7773 110.965 31.1191 110.711C31.4609 110.457 31.7319 110.052 31.9321 109.495ZM27.6035 107.364H31.9468C31.8882 106.709 31.7222 106.219 31.4487 105.892C31.0288 105.384 30.4844 105.13 29.8154 105.13C29.21 105.13 28.6997 105.333 28.2847 105.738C27.8745 106.143 27.6475 106.685 27.6035 107.364ZM29.7715 102.01L28.9438 103.255H27.4351L29.0171 101.204H30.4233L32.0713 103.255H30.5771L29.7715 102.01ZM30.0059 98.6187H31.771L30.0791 100.669H29.0171L30.0059 98.6187ZM37.8354 110.821L38.0259 111.985C37.6548 112.063 37.3228 112.103 37.0298 112.103C36.5513 112.103 36.1802 112.027 35.9165 111.875C35.6528 111.724 35.4673 111.526 35.3599 111.282C35.2524 111.033 35.1987 110.513 35.1987 109.722V105.247H34.2319V104.222H35.1987V102.295L36.5098 101.504V104.222H37.8354V105.247H36.5098V109.795C36.5098 110.171 36.5317 110.413 36.5757 110.521C36.6245 110.628 36.7002 110.713 36.8027 110.777C36.9102 110.84 37.0615 110.872 37.2568 110.872C37.4033 110.872 37.5962 110.855 37.8354 110.821ZM43.314 112V101.263H44.6323V107.386L47.7524 104.222H49.459L46.4854 107.107L49.7593 112H48.1333L45.5625 108.023L44.6323 108.917V112H43.314ZM50.814 102.779V101.263H52.1323V102.779H50.814ZM50.814 112V104.222H52.1323V112H50.814ZM59.4712 109.495L60.8335 109.664C60.6187 110.459 60.2207 111.077 59.6396 111.517C59.0586 111.956 58.3164 112.176 57.4131 112.176C56.2754 112.176 55.3721 111.827 54.7031 111.128C54.0391 110.425 53.707 109.441 53.707 108.177C53.707 106.868 54.0439 105.853 54.7178 105.13C55.3916 104.407 56.2656 104.046 57.3398 104.046C58.3799 104.046 59.2295 104.4 59.8887 105.108C60.5479 105.816 60.8774 106.812 60.8774 108.096C60.8774 108.174 60.875 108.292 60.8701 108.448H55.0693C55.1182 109.302 55.3599 109.957 55.7944 110.411C56.229 110.865 56.771 111.092 57.4204 111.092C57.9038 111.092 58.3164 110.965 58.6582 110.711C59 110.457 59.271 110.052 59.4712 109.495ZM55.1426 107.364H59.4858C59.4272 106.709 59.2612 106.219 58.9878 105.892C58.5679 105.384 58.0234 105.13 57.3545 105.13C56.749 105.13 56.2388 105.333 55.8237 105.738C55.4136 106.143 55.1865 106.685 55.1426 107.364ZM57.3105 102.01L56.4829 103.255H54.9741L56.5562 101.204H57.9624L59.6104 103.255H58.1162L57.3105 102.01ZM56.644 114.38V112.879H58.1455V114.38H56.644ZM62.4961 112V104.222H63.6753V105.313C63.9194 104.932 64.2441 104.627 64.6494 104.397C65.0547 104.163 65.5161 104.046 66.0337 104.046C66.6099 104.046 67.0811 104.166 67.4473 104.405C67.8184 104.644 68.0796 104.979 68.231 105.408C68.8462 104.5 69.647 104.046 70.6333 104.046C71.4048 104.046 71.998 104.261 72.4131 104.69C72.8281 105.115 73.0356 105.772 73.0356 106.661V112H71.7246V107.1C71.7246 106.573 71.6807 106.194 71.5928 105.965C71.5098 105.73 71.356 105.542 71.1313 105.401C70.9067 105.259 70.6431 105.188 70.3403 105.188C69.7935 105.188 69.3394 105.372 68.978 105.738C68.6167 106.099 68.436 106.68 68.436 107.481V112H67.1177V106.946C67.1177 106.36 67.0103 105.921 66.7954 105.628C66.5806 105.335 66.229 105.188 65.7407 105.188C65.3696 105.188 65.0254 105.286 64.708 105.481C64.3955 105.677 64.1685 105.962 64.0269 106.338C63.8853 106.714 63.8145 107.256 63.8145 107.964V112H62.4961ZM82.0444 110.821L82.2349 111.985C81.8638 112.063 81.5317 112.103 81.2388 112.103C80.7603 112.103 80.3892 112.027 80.1255 111.875C79.8618 111.724 79.6763 111.526 79.5688 111.282C79.4614 111.033 79.4077 110.513 79.4077 109.722V105.247H78.4409V104.222H79.4077V102.295L80.7188 101.504V104.222H82.0444V105.247H80.7188V109.795C80.7188 110.171 80.7407 110.413 80.7847 110.521C80.8335 110.628 80.9092 110.713 81.0117 110.777C81.1191 110.84 81.2705 110.872 81.4658 110.872C81.6123 110.872 81.8052 110.855 82.0444 110.821ZM83.3262 112V104.222H84.5127V105.401C84.8154 104.849 85.0938 104.485 85.3477 104.31C85.6064 104.134 85.8896 104.046 86.1973 104.046C86.6416 104.046 87.0933 104.188 87.5522 104.471L87.0981 105.694C86.7759 105.503 86.4536 105.408 86.1313 105.408C85.8433 105.408 85.5845 105.496 85.355 105.672C85.1255 105.843 84.9619 106.082 84.8643 106.39C84.7178 106.858 84.6445 107.371 84.6445 107.928V112H83.3262ZM93.4336 112V110.857C92.8281 111.736 92.0054 112.176 90.9653 112.176C90.5063 112.176 90.0767 112.088 89.6763 111.912C89.2808 111.736 88.9854 111.517 88.79 111.253C88.5996 110.984 88.4653 110.657 88.3872 110.271C88.3335 110.013 88.3066 109.603 88.3066 109.041V104.222H89.625V108.536C89.625 109.224 89.6519 109.688 89.7056 109.927C89.7886 110.274 89.9644 110.547 90.2329 110.748C90.5015 110.943 90.8335 111.041 91.229 111.041C91.6245 111.041 91.9956 110.94 92.3423 110.74C92.689 110.535 92.9331 110.259 93.0747 109.913C93.2212 109.561 93.2944 109.053 93.2944 108.389V104.222H94.6128V112H93.4336ZM96.627 114.996L96.4805 113.758C96.7686 113.836 97.02 113.875 97.2349 113.875C97.5278 113.875 97.7622 113.826 97.938 113.729C98.1138 113.631 98.2578 113.494 98.3701 113.318C98.4531 113.187 98.5874 112.859 98.7729 112.337C98.7974 112.264 98.8364 112.156 98.8901 112.015L95.9385 104.222H97.3594L98.978 108.726C99.188 109.297 99.376 109.898 99.542 110.528C99.6934 109.922 99.874 109.332 100.084 108.755L101.747 104.222H103.065L100.106 112.132C99.7886 112.986 99.542 113.575 99.3662 113.897C99.1318 114.332 98.8633 114.649 98.5605 114.849C98.2578 115.054 97.8965 115.157 97.4766 115.157C97.2227 115.157 96.9395 115.103 96.627 114.996ZM109.51 109.495L110.873 109.664C110.658 110.459 110.26 111.077 109.679 111.517C109.098 111.956 108.355 112.176 107.452 112.176C106.314 112.176 105.411 111.827 104.742 111.128C104.078 110.425 103.746 109.441 103.746 108.177C103.746 106.868 104.083 105.853 104.757 105.13C105.431 104.407 106.305 104.046 107.379 104.046C108.419 104.046 109.269 104.4 109.928 105.108C110.587 105.816 110.917 106.812 110.917 108.096C110.917 108.174 110.914 108.292 110.909 108.448H105.108C105.157 109.302 105.399 109.957 105.833 110.411C106.268 110.865 106.81 111.092 107.459 111.092C107.943 111.092 108.355 110.965 108.697 110.711C109.039 110.457 109.31 110.052 109.51 109.495ZM105.182 107.364H109.525C109.466 106.709 109.3 106.219 109.027 105.892C108.607 105.384 108.062 105.13 107.394 105.13C106.788 105.13 106.278 105.333 105.863 105.738C105.453 106.143 105.226 106.685 105.182 107.364ZM107.35 102.01L106.522 103.255H105.013L106.595 101.204H108.001L109.649 103.255H108.155L107.35 102.01ZM108.001 100.669H106.939L105.248 98.6187H107.013L108.001 100.669ZM112.535 112V104.222H113.722V105.328C114.293 104.473 115.118 104.046 116.197 104.046C116.666 104.046 117.096 104.131 117.486 104.302C117.882 104.468 118.177 104.688 118.373 104.961C118.568 105.235 118.705 105.56 118.783 105.936C118.832 106.18 118.856 106.607 118.856 107.217V112H117.538V107.269C117.538 106.731 117.486 106.331 117.384 106.067C117.281 105.799 117.098 105.586 116.834 105.43C116.576 105.269 116.271 105.188 115.919 105.188C115.357 105.188 114.872 105.367 114.461 105.723C114.056 106.08 113.854 106.756 113.854 107.752V112H112.535ZM54.0806 127.821L54.271 128.985C53.8999 129.063 53.5679 129.103 53.2749 129.103C52.7964 129.103 52.4253 129.027 52.1616 128.875C51.8979 128.724 51.7124 128.526 51.605 128.282C51.4976 128.033 51.4438 127.513 51.4438 126.722V122.247H50.4771V121.222H51.4438V119.295L52.7549 118.504V121.222H54.0806V122.247H52.7549V126.795C52.7549 127.171 52.7769 127.413 52.8208 127.521C52.8696 127.628 52.9453 127.713 53.0479 127.777C53.1553 127.84 53.3066 127.872 53.502 127.872C53.6484 127.872 53.8413 127.855 54.0806 127.821ZM55.377 129V118.263H56.6953V122.115C57.3105 121.402 58.0869 121.046 59.0244 121.046C59.6006 121.046 60.1011 121.161 60.5259 121.39C60.9507 121.615 61.2534 121.927 61.4341 122.328C61.6196 122.728 61.7124 123.309 61.7124 124.071V129H60.394V124.071C60.394 123.412 60.25 122.933 59.9619 122.635C59.6787 122.333 59.2759 122.181 58.7534 122.181C58.3628 122.181 57.9941 122.284 57.6475 122.489C57.3057 122.689 57.0615 122.962 56.915 123.309C56.7686 123.656 56.6953 124.134 56.6953 124.745V129H55.377ZM63.2358 125.111C63.2358 123.67 63.6362 122.604 64.437 121.91C65.106 121.334 65.9214 121.046 66.8833 121.046C67.9526 121.046 68.8267 121.397 69.5054 122.101C70.1841 122.799 70.5234 123.766 70.5234 125.001C70.5234 126.002 70.3721 126.791 70.0693 127.367C69.7715 127.938 69.3345 128.382 68.7583 128.7C68.187 129.017 67.562 129.176 66.8833 129.176C65.7944 129.176 64.9131 128.827 64.2393 128.128C63.5703 127.43 63.2358 126.424 63.2358 125.111ZM64.5908 125.111C64.5908 126.107 64.8081 126.854 65.2427 127.352C65.6772 127.845 66.2241 128.092 66.8833 128.092C67.5376 128.092 68.082 127.843 68.5166 127.345C68.9512 126.847 69.1685 126.087 69.1685 125.067C69.1685 124.105 68.9487 123.377 68.5093 122.884C68.0747 122.386 67.5327 122.137 66.8833 122.137C66.2241 122.137 65.6772 122.384 65.2427 122.877C64.8081 123.37 64.5908 124.115 64.5908 125.111ZM66.8979 119.01L66.0703 120.255H64.5615L66.1436 118.204H67.5498L69.1978 120.255H67.7036L66.8979 119.01ZM67.1323 115.619H68.8975L67.2056 117.669H66.1436L67.1323 115.619ZM72.0762 129V121.222H73.2627V122.328C73.834 121.473 74.6592 121.046 75.7383 121.046C76.207 121.046 76.6367 121.131 77.0273 121.302C77.4229 121.468 77.7183 121.688 77.9136 121.961C78.1089 122.235 78.2456 122.56 78.3237 122.936C78.3726 123.18 78.397 123.607 78.397 124.217V129H77.0786V124.269C77.0786 123.731 77.0273 123.331 76.9248 123.067C76.8223 122.799 76.6392 122.586 76.3755 122.43C76.1167 122.269 75.8115 122.188 75.46 122.188C74.8984 122.188 74.4126 122.367 74.0024 122.723C73.5972 123.08 73.3945 123.756 73.3945 124.752V129H72.0762ZM80.1841 129.645L81.4658 129.835C81.5195 130.23 81.6685 130.519 81.9126 130.699C82.2397 130.943 82.6865 131.065 83.2529 131.065C83.8633 131.065 84.3345 130.943 84.6665 130.699C84.9985 130.455 85.2231 130.113 85.3403 129.674C85.4087 129.405 85.4404 128.841 85.4355 127.982C84.8594 128.661 84.1416 129 83.2822 129C82.2129 129 81.3853 128.614 80.7993 127.843C80.2134 127.071 79.9204 126.146 79.9204 125.067C79.9204 124.325 80.0547 123.641 80.3232 123.016C80.5918 122.386 80.98 121.9 81.4878 121.559C82.0005 121.217 82.6011 121.046 83.2896 121.046C84.2075 121.046 84.9644 121.417 85.5601 122.159V121.222H86.7759V127.945C86.7759 129.156 86.6514 130.013 86.4023 130.516C86.1582 131.024 85.7676 131.424 85.2305 131.717C84.6982 132.01 84.0415 132.157 83.2603 132.157C82.3325 132.157 81.583 131.947 81.0117 131.527C80.4404 131.112 80.1646 130.484 80.1841 129.645ZM81.2754 124.972C81.2754 125.992 81.478 126.737 81.8833 127.206C82.2886 127.674 82.7964 127.909 83.4067 127.909C84.0122 127.909 84.52 127.677 84.9302 127.213C85.3403 126.744 85.5454 126.012 85.5454 125.016C85.5454 124.063 85.333 123.346 84.9082 122.862C84.4883 122.379 83.9805 122.137 83.3848 122.137C82.7988 122.137 82.3008 122.376 81.8906 122.855C81.4805 123.329 81.2754 124.034 81.2754 124.972Z" fill="white"/>
</g>
<defs>
<filter id="filter0_d_1512_17424" x="0" y="0" width="142" height="142" filterUnits="userSpaceOnUse" color-interpolation-filters="sRGB">
<feFlood flood-opacity="0" result="BackgroundImageFix"/>
<feColorMatrix in="SourceAlpha" type="matrix" values="0 0 0 0 0 0 0 0 0 0 0 0 0 0 0 0 0 0 127 0" result="hardAlpha"/>
<feOffset dx="2" dy="2"/>
<feGaussianBlur stdDeviation="2"/>
<feComposite in2="hardAlpha" operator="out"/>
<feColorMatrix type="matrix" values="0 0 0 0 0.2 0 0 0 0 0.352941 0 0 0 0 0.14902 0 0 0 1 0"/>
<feBlend mode="normal" in2="BackgroundImageFix" result="effect1_dropShadow_1512_17424"/>
<feBlend mode="normal" in="SourceGraphic" in2="effect1_dropShadow_1512_17424" result="shape"/>
</filter>
<linearGradient id="paint0_linear_1512_17424" x1="7.5" y1="7.5" x2="42" y2="47.5" gradientUnits="userSpaceOnUse">
<stop stop-color="#7AB93C" stop-opacity="0.8"/>
<stop offset="1" stop-color="#2C8D31"/>
</linearGradient>
<linearGradient id="paint1_linear_1512_17424" x1="7.93903" y1="-3.37277" x2="131" y2="129" gradientUnits="userSpaceOnUse">
<stop stop-color="#85CA75"/>
<stop offset="1" stop-color="#126F2E"/>
<stop offset="1" stop-color="#737373"/>
</linearGradient>
<clipPath id="clip0_1512_17424">
<rect width="56" height="56" fill="white" transform="translate(41 25)"/>
</clipPath>
</defs>
</svg>
