<svg width="134" height="134" viewBox="0 0 134 134" fill="none" xmlns="http://www.w3.org/2000/svg">
<rect width="134" height="134" rx="20" fill="url(#paint0_linear_1407_15500)" fill-opacity="0.7"/>
<path fill-rule="evenodd" clip-rule="evenodd" d="M16.5 57C36.1061 57 52 41.1061 52 21.5C52 13.4182 49.2993 5.96708 44.7513 0H114C125.046 0 134 8.9543 134 20V114C134 125.046 125.046 134 114 134H20C8.9543 134 0 125.046 0 114V52.9406C4.92964 55.533 10.5435 57 16.5 57Z" fill="url(#paint1_linear_1407_15500)"/>
<circle cx="27" cy="42" r="2" fill="#83B875"/>
<circle cx="92.5" cy="20.5" r="2.5" fill="#6CA66C"/>
<circle cx="64.5" cy="34.5" r="2.5" fill="#418D54"/>
<g clip-path="url(#clip0_1407_15500)">
<path fill-rule="evenodd" clip-rule="evenodd" d="M68.1082 34.2397C68.1593 35.0571 68.0434 35.8763 67.7679 36.6475C67.4923 37.4188 67.0628 38.1259 66.5053 38.7259C65.9479 39.3259 65.2742 39.8062 64.5253 40.1377C63.7764 40.4692 62.9679 40.6448 62.1489 40.654C60.3986 40.6715 58.7086 40.0153 57.4286 38.8213C56.1486 37.6274 55.3767 35.987 55.2726 34.2397V30H68.1059V34.2373L68.1082 34.2397Z" stroke="white" stroke-width="2"/>
<path d="M44.453 66.7243V57.8413C44.4558 54.0011 45.7407 50.2718 48.1038 47.2447C50.4669 44.2176 53.773 42.0662 57.4977 41.1315C61.2225 40.1968 65.1526 40.5325 68.665 42.0852C72.1773 43.6379 75.0707 46.3188 76.8863 49.7027" stroke="white" stroke-width="2"/>
<path d="M78.9303 72.966H44.4506C43.6226 72.966 42.8285 72.6371 42.243 72.0516C41.6575 71.4661 41.3286 70.672 41.3286 69.844C41.3286 69.016 41.6575 68.2219 42.243 67.6365C42.8285 67.051 43.6226 66.722 44.4506 66.722H50.2559M59.5449 61.444V63.922M59.5449 47.6354V50.1134M56.5116 58.021V59.0244C56.5116 59.6657 56.7662 60.2808 57.2195 60.7345C57.6728 61.1882 58.2876 61.4434 58.9289 61.444H60.1703C60.81 61.441 61.4224 61.1847 61.8737 60.7312C62.325 60.2778 62.5783 59.6641 62.5783 59.0244V58.35C62.5785 57.9231 62.4495 57.5062 62.2084 57.1539C61.9673 56.8016 61.6253 56.5304 61.2273 56.376L57.8556 55.067C57.4576 54.912 57.1157 54.6403 56.8746 54.2877C56.6336 53.9351 56.5046 53.5179 56.5046 53.0907V52.5937C56.5046 51.9524 56.7592 51.3373 57.2125 50.8836C57.6658 50.4299 58.2806 50.1747 58.9219 50.174H60.1633C60.8042 50.1753 61.4185 50.4308 61.8712 50.8844C62.324 51.338 62.5783 51.9528 62.5783 52.5937" stroke="white" stroke-width="2"/>
<path fill-rule="evenodd" clip-rule="evenodd" d="M81.546 66.722L78.5243 63.7004L75.5027 66.722L73.244 64.4634L76.2633 61.4441L73.2417 58.4224L75.5003 56.1637L78.522 59.1854L81.5437 56.1637L83.8 58.4224L80.7783 61.4441L83.8 64.4657L81.5437 66.7244L81.546 66.722ZM78.5267 48.55C75.9775 48.5505 73.4857 49.3068 71.3664 50.7234C69.247 52.14 67.5953 54.1532 66.6201 56.5085C65.6449 58.8637 65.39 61.4553 65.8876 63.9554C66.3852 66.4555 67.613 68.752 69.4157 70.5543C71.2184 72.3567 73.515 73.5841 76.0153 74.0812C78.5155 74.5784 81.107 74.323 83.4621 73.3473C85.8171 72.3717 87.83 70.7197 89.2462 68.6001C90.6624 66.4805 91.4183 63.9886 91.4183 61.4394C91.4183 59.7465 91.0849 58.0703 90.437 56.5063C89.7891 54.9424 88.8394 53.5213 87.6423 52.3244C86.4452 51.1275 85.024 50.1781 83.4599 49.5305C81.8958 48.8829 80.2195 48.5497 78.5267 48.55Z" fill="white"/>
</g>
<path d="M24.8198 100V89.2627H26.2407V93.6719H31.8218V89.2627H33.2427V100H31.8218V94.939H26.2407V100H24.8198ZM40.5449 100V98.8574C39.9395 99.7363 39.1167 100.176 38.0767 100.176C37.6177 100.176 37.188 100.088 36.7876 99.9121C36.3921 99.7363 36.0967 99.5166 35.9014 99.2529C35.7109 98.9844 35.5767 98.6572 35.4985 98.2715C35.4448 98.0127 35.418 97.6025 35.418 97.041V92.2217H36.7363V96.5356C36.7363 97.2241 36.7632 97.688 36.8169 97.9272C36.8999 98.2739 37.0757 98.5474 37.3442 98.7476C37.6128 98.9429 37.9448 99.0405 38.3403 99.0405C38.7358 99.0405 39.1069 98.9404 39.4536 98.7402C39.8003 98.5352 40.0444 98.2593 40.186 97.9126C40.3325 97.561 40.4058 97.0532 40.4058 96.3892V92.2217H41.7241V100H40.5449ZM43.7383 102.996L43.5918 101.758C43.8799 101.836 44.1313 101.875 44.3462 101.875C44.6392 101.875 44.8735 101.826 45.0493 101.729C45.2251 101.631 45.3691 101.494 45.4814 101.318C45.5645 101.187 45.6987 100.859 45.8843 100.337C45.9087 100.264 45.9478 100.156 46.0015 100.015L43.0498 92.2217H44.4707L46.0894 96.7261C46.2993 97.2974 46.4873 97.8979 46.6533 98.5278C46.8047 97.9224 46.9854 97.3315 47.1953 96.7554L48.8579 92.2217H50.1763L47.2173 100.132C46.8999 100.986 46.6533 101.575 46.4775 101.897C46.2432 102.332 45.9746 102.649 45.6719 102.849C45.3691 103.054 45.0078 103.157 44.5879 103.157C44.334 103.157 44.0508 103.103 43.7383 102.996ZM46.2505 90.376C46.5288 90.3467 46.707 90.3198 46.7852 90.2954C47.0439 90.2075 47.1758 90.0708 47.1807 89.8853C47.1855 89.7729 47.1172 89.6777 46.9756 89.5996C46.7705 89.4873 46.4458 89.4312 46.0015 89.4312C45.8501 89.4312 45.6206 89.4409 45.313 89.4604L45.2324 88.7134C45.4229 88.6743 45.7744 88.6572 46.2871 88.6621C46.8877 88.667 47.3784 88.7646 47.7593 88.9551C48.1792 89.1602 48.394 89.4458 48.4038 89.812C48.4233 90.4175 47.979 90.7764 47.0708 90.8887V91.2549H46.2505V90.376ZM58.3501 98.8208L58.5405 99.9854C58.1694 100.063 57.8374 100.103 57.5444 100.103C57.0659 100.103 56.6948 100.027 56.4312 99.8755C56.1675 99.7241 55.9819 99.5264 55.8745 99.2822C55.7671 99.0332 55.7134 98.5132 55.7134 97.7222V93.2471H54.7466V92.2217H55.7134V90.2954L57.0244 89.5044V92.2217H58.3501V93.2471H57.0244V97.7954C57.0244 98.1714 57.0464 98.4131 57.0903 98.5205C57.1392 98.6279 57.2148 98.7134 57.3174 98.7769C57.4248 98.8403 57.5762 98.8721 57.7715 98.8721C57.918 98.8721 58.1108 98.855 58.3501 98.8208ZM59.6538 90.7788V89.2627H60.9722V90.7788H59.6538ZM59.6538 100V92.2217H60.9722V100H59.6538ZM68.311 97.4951L69.6733 97.6636C69.4585 98.4595 69.0605 99.0771 68.4795 99.5166C67.8984 99.9561 67.1562 100.176 66.2529 100.176C65.1152 100.176 64.2119 99.8267 63.543 99.1284C62.8789 98.4253 62.5469 97.4414 62.5469 96.1768C62.5469 94.8682 62.8838 93.8525 63.5576 93.1299C64.2314 92.4072 65.1055 92.0459 66.1797 92.0459C67.2197 92.0459 68.0693 92.3999 68.7285 93.1079C69.3877 93.8159 69.7173 94.812 69.7173 96.0962C69.7173 96.1743 69.7148 96.2915 69.71 96.4478H63.9092C63.958 97.3022 64.1997 97.9565 64.6343 98.4106C65.0688 98.8647 65.6108 99.0918 66.2603 99.0918C66.7437 99.0918 67.1562 98.9648 67.498 98.7109C67.8398 98.457 68.1108 98.0518 68.311 97.4951ZM63.9824 95.3638H68.3257C68.2671 94.7095 68.1011 94.2188 67.8276 93.8916C67.4077 93.3838 66.8633 93.1299 66.1943 93.1299C65.5889 93.1299 65.0786 93.3325 64.6636 93.7378C64.2534 94.1431 64.0264 94.6851 63.9824 95.3638ZM66.1504 90.0098L65.3228 91.2549H63.814L65.396 89.2041H66.8022L68.4502 91.2549H66.9561L66.1504 90.0098ZM66.3848 86.6187H68.1499L66.458 88.6694H65.396L66.3848 86.6187ZM74.2144 98.8208L74.4048 99.9854C74.0337 100.063 73.7017 100.103 73.4087 100.103C72.9302 100.103 72.5591 100.027 72.2954 99.8755C72.0317 99.7241 71.8462 99.5264 71.7388 99.2822C71.6313 99.0332 71.5776 98.5132 71.5776 97.7222V93.2471H70.6108V92.2217H71.5776V90.2954L72.8887 89.5044V92.2217H74.2144V93.2471H72.8887V97.7954C72.8887 98.1714 72.9106 98.4131 72.9546 98.5205C73.0034 98.6279 73.0791 98.7134 73.1816 98.7769C73.2891 98.8403 73.4404 98.8721 73.6357 98.8721C73.7822 98.8721 73.9751 98.855 74.2144 98.8208ZM79.6929 100V89.2627H81.0112V95.3857L84.1313 92.2217H85.8379L82.8643 95.1074L86.1382 100H84.5122L81.9414 96.0229L81.0112 96.9165V100H79.6929ZM87.1929 90.7788V89.2627H88.5112V90.7788H87.1929ZM87.1929 100V92.2217H88.5112V100H87.1929ZM95.8501 97.4951L97.2124 97.6636C96.9976 98.4595 96.5996 99.0771 96.0186 99.5166C95.4375 99.9561 94.6953 100.176 93.792 100.176C92.6543 100.176 91.751 99.8267 91.082 99.1284C90.418 98.4253 90.0859 97.4414 90.0859 96.1768C90.0859 94.8682 90.4229 93.8525 91.0967 93.1299C91.7705 92.4072 92.6445 92.0459 93.7188 92.0459C94.7588 92.0459 95.6084 92.3999 96.2676 93.1079C96.9268 93.8159 97.2563 94.812 97.2563 96.0962C97.2563 96.1743 97.2539 96.2915 97.249 96.4478H91.4482C91.4971 97.3022 91.7388 97.9565 92.1733 98.4106C92.6079 98.8647 93.1499 99.0918 93.7993 99.0918C94.2827 99.0918 94.6953 98.9648 95.0371 98.7109C95.3789 98.457 95.6499 98.0518 95.8501 97.4951ZM91.5215 95.3638H95.8647C95.8062 94.7095 95.6401 94.2188 95.3667 93.8916C94.9468 93.3838 94.4023 93.1299 93.7334 93.1299C93.1279 93.1299 92.6177 93.3325 92.2026 93.7378C91.7925 94.1431 91.5654 94.6851 91.5215 95.3638ZM93.6895 90.0098L92.8618 91.2549H91.353L92.9351 89.2041H94.3413L95.9893 91.2549H94.4951L93.6895 90.0098ZM93.0229 102.38V100.879H94.5244V102.38H93.0229ZM98.875 100V92.2217H100.054V93.313C100.298 92.9321 100.623 92.627 101.028 92.3975C101.434 92.1631 101.895 92.0459 102.413 92.0459C102.989 92.0459 103.46 92.1655 103.826 92.4048C104.197 92.644 104.458 92.9785 104.61 93.4082C105.225 92.5 106.026 92.0459 107.012 92.0459C107.784 92.0459 108.377 92.2607 108.792 92.6904C109.207 93.1152 109.415 93.772 109.415 94.6606V100H108.104V95.1001C108.104 94.5728 108.06 94.1943 107.972 93.9648C107.889 93.7305 107.735 93.5425 107.51 93.4009C107.286 93.2593 107.022 93.1885 106.719 93.1885C106.172 93.1885 105.718 93.3716 105.357 93.7378C104.996 94.0991 104.815 94.6802 104.815 95.481V100H103.497V94.9463C103.497 94.3604 103.389 93.9209 103.174 93.6279C102.959 93.335 102.608 93.1885 102.12 93.1885C101.749 93.1885 101.404 93.2861 101.087 93.4814C100.774 93.6768 100.547 93.9624 100.406 94.3384C100.264 94.7144 100.193 95.2563 100.193 95.9644V100H98.875ZM44.9688 115.821L45.1592 116.985C44.7881 117.063 44.4561 117.103 44.1631 117.103C43.6846 117.103 43.3135 117.027 43.0498 116.875C42.7861 116.724 42.6006 116.526 42.4932 116.282C42.3857 116.033 42.332 115.513 42.332 114.722V110.247H41.3652V109.222H42.332V107.295L43.6431 106.504V109.222H44.9688V110.247H43.6431V114.795C43.6431 115.171 43.665 115.413 43.709 115.521C43.7578 115.628 43.8335 115.713 43.936 115.777C44.0435 115.84 44.1948 115.872 44.3901 115.872C44.5366 115.872 44.7295 115.855 44.9688 115.821ZM53.4502 110.752V109.222H54.8638V110.43C54.8638 111.197 54.7759 111.731 54.6001 112.034C54.1509 112.815 53.4648 113.255 52.542 113.353V117H51.3628V115.857C50.7573 116.736 49.9346 117.176 48.8945 117.176C48.4404 117.176 48.0132 117.09 47.6128 116.919C47.2173 116.744 46.9219 116.521 46.7266 116.253C46.5312 115.984 46.3945 115.657 46.3164 115.271C46.2627 115.008 46.2358 114.598 46.2358 114.041V109.222H47.5542V113.536C47.5542 114.234 47.5811 114.698 47.6348 114.927C47.8057 115.669 48.3135 116.041 49.1582 116.041C49.5635 116.041 49.937 115.938 50.2788 115.733C50.6255 115.528 50.8696 115.252 51.0112 114.905C51.1528 114.559 51.2236 114.053 51.2236 113.389V109.222H52.542V112.796C53.1621 112.688 53.626 112.398 53.9336 111.924C54.0703 111.719 54.1387 111.329 54.1387 110.752H53.4502ZM48.3965 119.38V117.879H49.8979V119.38H48.3965ZM65.4473 108.072H62.9131V107.105H65.4473V106.263H66.7583V107.105H67.8203V108.072H66.7583V117H65.5352V116.019C65.042 116.79 64.3169 117.176 63.3599 117.176C62.7397 117.176 62.1685 117.005 61.646 116.663C61.1284 116.321 60.7256 115.845 60.4375 115.235C60.1543 114.62 60.0127 113.914 60.0127 113.118C60.0127 112.342 60.1421 111.639 60.4009 111.009C60.6597 110.374 61.0479 109.888 61.5654 109.551C62.083 109.214 62.6616 109.046 63.3013 109.046C63.77 109.046 64.1875 109.146 64.5537 109.346C64.9199 109.542 65.2178 109.798 65.4473 110.115V108.072ZM61.3677 113.118C61.3677 114.114 61.5776 114.859 61.9976 115.352C62.4175 115.845 62.9131 116.092 63.4844 116.092C64.0605 116.092 64.5488 115.857 64.9492 115.389C65.3545 114.915 65.5571 114.195 65.5571 113.228C65.5571 112.164 65.3521 111.382 64.9419 110.884C64.5317 110.386 64.0264 110.137 63.4258 110.137C62.8398 110.137 62.3491 110.376 61.9536 110.855C61.563 111.333 61.3677 112.088 61.3677 113.118ZM68.3477 113.111C68.3477 111.67 68.748 110.604 69.5488 109.91C70.2178 109.334 71.0332 109.046 71.9951 109.046C73.0645 109.046 73.9385 109.397 74.6172 110.101C75.2959 110.799 75.6353 111.766 75.6353 113.001C75.6353 114.002 75.4839 114.791 75.1812 115.367C74.8833 115.938 74.4463 116.382 73.8701 116.7C73.2988 117.017 72.6738 117.176 71.9951 117.176C70.9062 117.176 70.0249 116.827 69.3511 116.128C68.6821 115.43 68.3477 114.424 68.3477 113.111ZM69.7026 113.111C69.7026 114.107 69.9199 114.854 70.3545 115.352C70.7891 115.845 71.3359 116.092 71.9951 116.092C72.6494 116.092 73.1938 115.843 73.6284 115.345C74.063 114.847 74.2803 114.087 74.2803 113.067C74.2803 112.105 74.0605 111.377 73.6211 110.884C73.1865 110.386 72.6445 110.137 71.9951 110.137C71.3359 110.137 70.7891 110.384 70.3545 110.877C69.9199 111.37 69.7026 112.115 69.7026 113.111ZM72.0098 107.01L71.1821 108.255H69.6733L71.2554 106.204H72.6616L74.3096 108.255H72.8154L72.0098 107.01ZM71.1895 119.38V117.879H72.6909V119.38H71.1895ZM77.188 117V109.222H78.3745V110.328C78.9458 109.473 79.771 109.046 80.8501 109.046C81.3188 109.046 81.7485 109.131 82.1392 109.302C82.5347 109.468 82.8301 109.688 83.0254 109.961C83.2207 110.235 83.3574 110.56 83.4355 110.936C83.4844 111.18 83.5088 111.607 83.5088 112.217V117H82.1904V112.269C82.1904 111.731 82.1392 111.331 82.0366 111.067C81.9341 110.799 81.751 110.586 81.4873 110.43C81.2285 110.269 80.9233 110.188 80.5718 110.188C80.0103 110.188 79.5244 110.367 79.1143 110.723C78.709 111.08 78.5063 111.756 78.5063 112.752V117H77.188ZM85.2959 117.645L86.5776 117.835C86.6313 118.23 86.7803 118.519 87.0244 118.699C87.3516 118.943 87.7983 119.065 88.3647 119.065C88.9751 119.065 89.4463 118.943 89.7783 118.699C90.1104 118.455 90.335 118.113 90.4521 117.674C90.5205 117.405 90.5522 116.841 90.5474 115.982C89.9712 116.661 89.2534 117 88.394 117C87.3247 117 86.4971 116.614 85.9111 115.843C85.3252 115.071 85.0322 114.146 85.0322 113.067C85.0322 112.325 85.1665 111.641 85.4351 111.016C85.7036 110.386 86.0918 109.9 86.5996 109.559C87.1123 109.217 87.7129 109.046 88.4014 109.046C89.3193 109.046 90.0762 109.417 90.6719 110.159V109.222H91.8877V115.945C91.8877 117.156 91.7632 118.013 91.5142 118.516C91.27 119.024 90.8794 119.424 90.3423 119.717C89.8101 120.01 89.1533 120.157 88.3721 120.157C87.4443 120.157 86.6948 119.947 86.1235 119.527C85.5522 119.112 85.2764 118.484 85.2959 117.645ZM86.3872 112.972C86.3872 113.992 86.5898 114.737 86.9951 115.206C87.4004 115.674 87.9082 115.909 88.5186 115.909C89.124 115.909 89.6318 115.677 90.042 115.213C90.4521 114.744 90.6572 114.012 90.6572 113.016C90.6572 112.063 90.4448 111.346 90.02 110.862C89.6001 110.379 89.0923 110.137 88.4966 110.137C87.9106 110.137 87.4126 110.376 87.0024 110.855C86.5923 111.329 86.3872 112.034 86.3872 112.972Z" fill="white"/>
<defs>
<linearGradient id="paint0_linear_1407_15500" x1="5.5" y1="5.5" x2="40" y2="45.5" gradientUnits="userSpaceOnUse">
<stop stop-color="#7AB93C" stop-opacity="0.8"/>
<stop offset="1" stop-color="#2C8D31"/>
</linearGradient>
<linearGradient id="paint1_linear_1407_15500" x1="5.93903" y1="-5.37277" x2="129" y2="127" gradientUnits="userSpaceOnUse">
<stop stop-color="#85CA75"/>
<stop offset="1" stop-color="#126F2E"/>
<stop offset="1" stop-color="#737373"/>
</linearGradient>
<clipPath id="clip0_1407_15500">
<rect width="56" height="56" fill="white" transform="translate(39 23)"/>
</clipPath>
</defs>
</svg>
