<svg width="56" height="56" viewBox="0 0 56 56" fill="none" xmlns="http://www.w3.org/2000/svg">
<g clip-path="url(#clip0_1363_18820)">
<path fill-rule="evenodd" clip-rule="evenodd" d="M29.1082 11.2397C29.1593 12.0571 29.0434 12.8763 28.7679 13.6475C28.4923 14.4188 28.0628 15.1259 27.5053 15.7259C26.9479 16.3259 26.2742 16.8062 25.5253 17.1377C24.7764 17.4692 23.9679 17.6448 23.1489 17.654C21.3986 17.6715 19.7086 17.0153 18.4286 15.8213C17.1486 14.6274 16.3767 12.987 16.2726 11.2397V7H29.1059V11.2373L29.1082 11.2397Z" stroke="white" stroke-width="2"/>
<path d="M5.453 43.7243V34.8413C5.45583 31.0011 6.74068 27.2718 9.10379 24.2447C11.4669 21.2176 14.773 19.0662 18.4977 18.1315C22.2225 17.1968 26.1526 17.5325 29.665 19.0852C33.1773 20.6379 36.0707 23.3188 37.8863 26.7027" stroke="white" stroke-width="2"/>
<path d="M39.9303 49.966H5.45061C4.62261 49.966 3.82851 49.6371 3.24303 49.0516C2.65754 48.4661 2.32861 47.672 2.32861 46.844C2.32861 46.016 2.65754 45.2219 3.24303 44.6365C3.82851 44.051 4.62261 43.722 5.45061 43.722H11.2559M20.5449 38.444V40.922M20.5449 24.6354V27.1134M17.5116 35.021V36.0244C17.5116 36.6657 17.7662 37.2808 18.2195 37.7345C18.6728 38.1882 19.2876 38.4434 19.9289 38.444H21.1703C21.81 38.441 22.4224 38.1847 22.8737 37.7312C23.325 37.2778 23.5783 36.6641 23.5783 36.0244V35.35C23.5785 34.9231 23.4495 34.5062 23.2084 34.1539C22.9673 33.8016 22.6253 33.5304 22.2273 33.376L18.8556 32.067C18.4576 31.912 18.1157 31.6403 17.8746 31.2877C17.6336 30.9351 17.5046 30.5179 17.5046 30.0907V29.5937C17.5046 28.9524 17.7592 28.3373 18.2125 27.8836C18.6658 27.4299 19.2806 27.1747 19.9219 27.174H21.1633C21.8042 27.1753 22.4185 27.4308 22.8712 27.8844C23.324 28.338 23.5783 28.9528 23.5783 29.5937" stroke="white" stroke-width="2"/>
<path fill-rule="evenodd" clip-rule="evenodd" d="M42.546 43.722L39.5243 40.7004L36.5027 43.722L34.244 41.4634L37.2633 38.4441L34.2417 35.4224L36.5003 33.1637L39.522 36.1854L42.5437 33.1637L44.8 35.4224L41.7783 38.4441L44.8 41.4657L42.5437 43.7244L42.546 43.722ZM39.5267 25.55C36.9775 25.5505 34.4857 26.3068 32.3664 27.7234C30.247 29.14 28.5953 31.1532 27.6201 33.5085C26.6449 35.8637 26.39 38.4553 26.8876 40.9554C27.3852 43.4555 28.613 45.752 30.4157 47.5543C32.2184 49.3567 34.515 50.5841 37.0153 51.0812C39.5155 51.5784 42.107 51.323 44.4621 50.3473C46.8171 49.3717 48.83 47.7197 50.2462 45.6001C51.6624 43.4805 52.4183 40.9886 52.4183 38.4394C52.4183 36.7465 52.0849 35.0703 51.437 33.5063C50.7891 31.9424 49.8394 30.5213 48.6423 29.3244C47.4452 28.1275 46.024 27.1781 44.4599 26.5305C42.8958 25.8829 41.2195 25.5497 39.5267 25.55Z" fill="white"/>
</g>
<defs>
<clipPath id="clip0_1363_18820">
<rect width="56" height="56" fill="white"/>
</clipPath>
</defs>
</svg>
