<svg width="134" height="134" viewBox="0 0 134 134" fill="none" xmlns="http://www.w3.org/2000/svg">
<rect width="134" height="134" rx="20" fill="url(#paint0_linear_1542_17099)" fill-opacity="0.7"/>
<path fill-rule="evenodd" clip-rule="evenodd" d="M16.5 57C36.1061 57 52 41.1061 52 21.5C52 13.4182 49.2993 5.96708 44.7513 0H114C125.046 0 134 8.9543 134 20V114C134 125.046 125.046 134 114 134H20C8.9543 134 0 125.046 0 114V52.9406C4.92964 55.533 10.5435 57 16.5 57Z" fill="url(#paint1_linear_1542_17099)"/>
<circle cx="27" cy="42" r="2" fill="#83B875"/>
<circle cx="92.5" cy="20.5" r="2.5" fill="#6CA66C"/>
<circle cx="64.5" cy="34.5" r="2.5" fill="#418D54"/>
<path d="M13.5039 99V88.2627H14.9248V97.7329H20.2129V99H13.5039ZM26.8193 98.0405C26.3311 98.4556 25.8599 98.7485 25.4058 98.9194C24.9565 99.0903 24.4731 99.1758 23.9556 99.1758C23.1011 99.1758 22.4443 98.9683 21.9854 98.5532C21.5264 98.1333 21.2969 97.5986 21.2969 96.9492C21.2969 96.5684 21.3823 96.2217 21.5532 95.9092C21.729 95.5918 21.9561 95.3379 22.2344 95.1475C22.5176 94.957 22.835 94.813 23.1865 94.7153C23.4453 94.647 23.8359 94.5811 24.3584 94.5176C25.4229 94.3906 26.2065 94.2393 26.7095 94.0635C26.7144 93.8828 26.7168 93.7681 26.7168 93.7192C26.7168 93.1821 26.5923 92.8037 26.3433 92.584C26.0063 92.2861 25.5059 92.1372 24.8418 92.1372C24.2217 92.1372 23.7627 92.2471 23.4648 92.4668C23.1719 92.6816 22.9546 93.0649 22.813 93.6167L21.5239 93.4409C21.6411 92.8892 21.834 92.4448 22.1025 92.1079C22.3711 91.7661 22.7593 91.5049 23.2671 91.3242C23.7749 91.1387 24.3633 91.0459 25.0322 91.0459C25.6963 91.0459 26.2358 91.124 26.6509 91.2803C27.0659 91.4365 27.3711 91.6343 27.5664 91.8735C27.7617 92.1079 27.8984 92.4058 27.9766 92.7671C28.0205 92.9917 28.0425 93.397 28.0425 93.9829V95.7407C28.0425 96.9663 28.0693 97.7427 28.123 98.0698C28.1816 98.3921 28.2939 98.7021 28.46 99H27.083C26.9463 98.7266 26.8584 98.4067 26.8193 98.0405ZM26.7095 95.0962C26.231 95.2915 25.5132 95.4575 24.5562 95.5942C24.0142 95.6724 23.6309 95.7603 23.4062 95.8579C23.1816 95.9556 23.0083 96.0996 22.8862 96.29C22.7642 96.4756 22.7031 96.6831 22.7031 96.9126C22.7031 97.2642 22.835 97.5571 23.0986 97.7915C23.3672 98.0259 23.7578 98.1431 24.2705 98.1431C24.7783 98.1431 25.23 98.0332 25.6255 97.8135C26.021 97.5889 26.3115 97.2837 26.4971 96.8979C26.6387 96.6001 26.7095 96.1606 26.7095 95.5796V95.0962ZM24.9004 89.0098L24.0728 90.2549H22.564L24.146 88.2041H25.5522L27.2002 90.2549H25.7061L24.9004 89.0098ZM24.1094 101.38V99.8789H25.6108V101.38H24.1094ZM30.0933 101.981V91.2217H31.2944V92.2324C31.5776 91.8369 31.8975 91.5415 32.2539 91.3462C32.6104 91.146 33.0425 91.0459 33.5503 91.0459C34.2144 91.0459 34.8003 91.2168 35.3081 91.5586C35.8159 91.9004 36.1992 92.3838 36.458 93.0088C36.7168 93.6289 36.8462 94.3101 36.8462 95.0522C36.8462 95.8481 36.7021 96.5659 36.4141 97.2056C36.1309 97.8403 35.7158 98.3286 35.1689 98.6704C34.627 99.0073 34.0557 99.1758 33.4551 99.1758C33.0156 99.1758 32.6201 99.083 32.2686 98.8975C31.9219 98.7119 31.6362 98.4775 31.4116 98.1943V101.981H30.0933ZM31.2871 95.1548C31.2871 96.1558 31.4897 96.8955 31.895 97.374C32.3003 97.8525 32.791 98.0918 33.3672 98.0918C33.9531 98.0918 34.4536 97.8452 34.8687 97.3521C35.2886 96.854 35.4985 96.085 35.4985 95.0449C35.4985 94.0537 35.2935 93.3115 34.8833 92.8184C34.478 92.3252 33.9922 92.0786 33.4258 92.0786C32.8643 92.0786 32.3662 92.3423 31.9316 92.8696C31.502 93.3921 31.2871 94.1538 31.2871 95.1548ZM42.6177 99V88.2627H43.936V92.1152C44.5513 91.4023 45.3276 91.0459 46.2651 91.0459C46.8413 91.0459 47.3418 91.1606 47.7666 91.3901C48.1914 91.6147 48.4941 91.9272 48.6748 92.3276C48.8604 92.728 48.9531 93.3091 48.9531 94.0708V99H47.6348V94.0708C47.6348 93.4116 47.4907 92.9331 47.2026 92.6353C46.9194 92.3325 46.5166 92.1812 45.9941 92.1812C45.6035 92.1812 45.2349 92.2837 44.8882 92.4888C44.5464 92.689 44.3022 92.9624 44.1558 93.3091C44.0093 93.6558 43.936 94.1343 43.936 94.7446V99H42.6177ZM50.4766 95.1108C50.4766 93.6704 50.877 92.6035 51.6777 91.9102C52.3467 91.334 53.1621 91.0459 54.124 91.0459C55.1934 91.0459 56.0674 91.3975 56.7461 92.1006C57.4248 92.7988 57.7642 93.7656 57.7642 95.001C57.7642 96.002 57.6128 96.7905 57.3101 97.3667C57.0122 97.938 56.5752 98.3823 55.999 98.6997C55.4277 99.0171 54.8027 99.1758 54.124 99.1758C53.0352 99.1758 52.1538 98.8267 51.48 98.1284C50.811 97.4302 50.4766 96.4243 50.4766 95.1108ZM51.8315 95.1108C51.8315 96.1069 52.0488 96.854 52.4834 97.3521C52.918 97.8452 53.4648 98.0918 54.124 98.0918C54.7783 98.0918 55.3228 97.8428 55.7573 97.3447C56.1919 96.8467 56.4092 96.0874 56.4092 95.0669C56.4092 94.105 56.1895 93.3774 55.75 92.8843C55.3154 92.3862 54.7734 92.1372 54.124 92.1372C53.4648 92.1372 52.918 92.3838 52.4834 92.877C52.0488 93.3701 51.8315 94.1147 51.8315 95.1108ZM54.1387 89.0098L53.311 90.2549H51.8022L53.3843 88.2041H54.7905L56.4385 90.2549H54.9443L54.1387 89.0098ZM54.7905 87.6694H53.7285L52.0366 85.6187H53.8018L54.7905 87.6694ZM62.9644 96.6782L64.2681 96.4731C64.3413 96.9956 64.5439 97.396 64.876 97.6743C65.2129 97.9526 65.6816 98.0918 66.2822 98.0918C66.8877 98.0918 67.3369 97.9697 67.6299 97.7256C67.9229 97.4766 68.0693 97.186 68.0693 96.854C68.0693 96.5562 67.9399 96.3218 67.6812 96.1509C67.5005 96.0337 67.0513 95.8848 66.3335 95.7041C65.3667 95.46 64.6953 95.25 64.3193 95.0742C63.9482 94.8936 63.665 94.647 63.4697 94.3345C63.2793 94.0171 63.1841 93.668 63.1841 93.2871C63.1841 92.9404 63.2622 92.6206 63.4185 92.3276C63.5796 92.0298 63.7969 91.7832 64.0703 91.5879C64.2754 91.4365 64.5537 91.3096 64.9053 91.207C65.2617 91.0996 65.6426 91.0459 66.0479 91.0459C66.6582 91.0459 67.1929 91.1338 67.6519 91.3096C68.1157 91.4854 68.4575 91.7246 68.6772 92.0273C68.897 92.3252 69.0483 92.7256 69.1313 93.2285L67.8423 93.4043C67.7837 93.0039 67.6128 92.6914 67.3296 92.4668C67.0513 92.2422 66.6558 92.1299 66.1431 92.1299C65.5376 92.1299 65.1055 92.23 64.8467 92.4302C64.5879 92.6304 64.4585 92.8647 64.4585 93.1333C64.4585 93.3042 64.5122 93.458 64.6196 93.5947C64.7271 93.7363 64.8955 93.8535 65.125 93.9463C65.2568 93.9951 65.645 94.1074 66.2896 94.2832C67.2222 94.5322 67.8716 94.7373 68.2378 94.8984C68.6089 95.0547 68.8994 95.2842 69.1094 95.5869C69.3193 95.8896 69.4243 96.2656 69.4243 96.7148C69.4243 97.1543 69.2949 97.5693 69.0361 97.96C68.7822 98.3457 68.4136 98.646 67.9302 98.8608C67.4468 99.0708 66.8999 99.1758 66.2896 99.1758C65.2788 99.1758 64.5073 98.9658 63.9751 98.5459C63.4478 98.126 63.1108 97.5034 62.9644 96.6782ZM71.856 95.1108C71.856 96.0728 72.0732 96.8174 72.5078 97.3447C72.918 97.8428 73.4648 98.0918 74.1484 98.0918C74.832 98.0918 75.3765 97.8428 75.7817 97.3447C76.2163 96.8125 76.4336 96.0532 76.4336 95.0669C76.4336 94.1343 76.2139 93.4067 75.7744 92.8843C75.3643 92.3862 74.8223 92.1372 74.1484 92.1372C73.46 92.1372 72.9131 92.3838 72.5078 92.877C72.0732 93.4043 71.856 94.1489 71.856 95.1108ZM77.9644 92.562V91.0312H79.3779V92.2397C79.3779 92.8452 79.2852 93.3091 79.0996 93.6313C78.8604 94.0513 78.4233 94.437 77.7886 94.7886C77.7886 94.8569 77.7886 94.9277 77.7886 95.001C77.7886 96.8174 77.2026 98.0503 76.0308 98.6997C75.4546 99.0171 74.8271 99.1758 74.1484 99.1758C73.0352 99.1758 72.1538 98.8267 71.5044 98.1284C70.8354 97.4058 70.501 96.3999 70.501 95.1108C70.501 93.6704 70.9014 92.6035 71.7021 91.9102C72.3711 91.334 73.1865 91.0459 74.1484 91.0459C75.2178 91.0459 76.0918 91.395 76.7705 92.0933C77.2832 92.6255 77.603 93.3115 77.73 94.1514C78.062 93.9463 78.2988 93.7339 78.4404 93.5142C78.5869 93.2944 78.6577 92.9771 78.6528 92.562H77.9644ZM87.8887 97.8208L88.0791 98.9854C87.708 99.0635 87.376 99.1025 87.083 99.1025C86.6045 99.1025 86.2334 99.0269 85.9697 98.8755C85.7061 98.7241 85.5205 98.5264 85.4131 98.2822C85.3057 98.0332 85.252 97.5132 85.252 96.7222V92.2471H84.2852V91.2217H85.252V89.2954L86.563 88.5044V91.2217H87.8887V92.2471H86.563V96.7954C86.563 97.1714 86.585 97.4131 86.6289 97.5205C86.6777 97.6279 86.7534 97.7134 86.856 97.7769C86.9634 97.8403 87.1147 97.8721 87.3101 97.8721C87.4565 97.8721 87.6494 97.855 87.8887 97.8208ZM89.1851 99V88.2627H90.5034V92.1152C91.1187 91.4023 91.895 91.0459 92.8325 91.0459C93.4087 91.0459 93.9092 91.1606 94.334 91.3901C94.7588 91.6147 95.0615 91.9272 95.2422 92.3276C95.4277 92.728 95.5205 93.3091 95.5205 94.0708V99H94.2021V94.0708C94.2021 93.4116 94.0581 92.9331 93.77 92.6353C93.4868 92.3325 93.084 92.1812 92.5615 92.1812C92.1709 92.1812 91.8022 92.2837 91.4556 92.4888C91.1138 92.689 90.8696 92.9624 90.7231 93.3091C90.5767 93.6558 90.5034 94.1343 90.5034 94.7446V99H89.1851ZM97.0439 95.1108C97.0439 93.6704 97.4443 92.6035 98.2451 91.9102C98.9141 91.334 99.7295 91.0459 100.691 91.0459C101.761 91.0459 102.635 91.3975 103.313 92.1006C103.992 92.7988 104.332 93.7656 104.332 95.001C104.332 96.002 104.18 96.7905 103.877 97.3667C103.58 97.938 103.143 98.3823 102.566 98.6997C101.995 99.0171 101.37 99.1758 100.691 99.1758C99.6025 99.1758 98.7212 98.8267 98.0474 98.1284C97.3784 97.4302 97.0439 96.4243 97.0439 95.1108ZM98.3989 95.1108C98.3989 96.1069 98.6162 96.854 99.0508 97.3521C99.4854 97.8452 100.032 98.0918 100.691 98.0918C101.346 98.0918 101.89 97.8428 102.325 97.3447C102.759 96.8467 102.977 96.0874 102.977 95.0669C102.977 94.105 102.757 93.3774 102.317 92.8843C101.883 92.3862 101.341 92.1372 100.691 92.1372C100.032 92.1372 99.4854 92.3838 99.0508 92.877C98.6162 93.3701 98.3989 94.1147 98.3989 95.1108ZM100.706 89.0098L99.8784 90.2549H98.3696L99.9517 88.2041H101.358L103.006 90.2549H101.512L100.706 89.0098ZM105.884 99V91.2217H107.071V92.3276C107.642 91.4731 108.467 91.0459 109.546 91.0459C110.015 91.0459 110.445 91.1313 110.835 91.3022C111.231 91.4683 111.526 91.688 111.722 91.9614C111.917 92.2349 112.054 92.5596 112.132 92.9355C112.181 93.1797 112.205 93.6069 112.205 94.2173V99H110.887V94.2686C110.887 93.7314 110.835 93.3311 110.733 93.0674C110.63 92.7988 110.447 92.5864 110.184 92.4302C109.925 92.269 109.62 92.1885 109.268 92.1885C108.707 92.1885 108.221 92.3667 107.811 92.7231C107.405 93.0796 107.203 93.7559 107.203 94.752V99H105.884ZM113.992 99.6445L115.274 99.835C115.328 100.23 115.477 100.519 115.721 100.699C116.048 100.943 116.495 101.065 117.061 101.065C117.671 101.065 118.143 100.943 118.475 100.699C118.807 100.455 119.031 100.113 119.148 99.6738C119.217 99.4053 119.249 98.8413 119.244 97.9819C118.667 98.6606 117.95 99 117.09 99C116.021 99 115.193 98.6143 114.607 97.8428C114.021 97.0713 113.729 96.146 113.729 95.0669C113.729 94.3247 113.863 93.6411 114.131 93.0161C114.4 92.3862 114.788 91.9004 115.296 91.5586C115.809 91.2168 116.409 91.0459 117.098 91.0459C118.016 91.0459 118.772 91.417 119.368 92.1592V91.2217H120.584V97.9453C120.584 99.1562 120.459 100.013 120.21 100.516C119.966 101.024 119.576 101.424 119.039 101.717C118.506 102.01 117.85 102.157 117.068 102.157C116.141 102.157 115.391 101.947 114.82 101.527C114.249 101.112 113.973 100.484 113.992 99.6445ZM115.083 94.9717C115.083 95.9922 115.286 96.7368 115.691 97.2056C116.097 97.6743 116.604 97.9087 117.215 97.9087C117.82 97.9087 118.328 97.6768 118.738 97.2129C119.148 96.7441 119.354 96.0117 119.354 95.0156C119.354 94.0635 119.141 93.3457 118.716 92.8623C118.296 92.3789 117.789 92.1372 117.193 92.1372C116.607 92.1372 116.109 92.3765 115.699 92.855C115.289 93.3286 115.083 94.0342 115.083 94.9717ZM22.0366 114.821L22.2271 115.985C21.856 116.063 21.5239 116.103 21.231 116.103C20.7524 116.103 20.3813 116.027 20.1177 115.875C19.854 115.724 19.6685 115.526 19.561 115.282C19.4536 115.033 19.3999 114.513 19.3999 113.722V109.247H18.4331V108.222H19.3999V106.295L20.7109 105.504V108.222H22.0366V109.247H20.7109V113.795C20.7109 114.171 20.7329 114.413 20.7769 114.521C20.8257 114.628 20.9014 114.713 21.0039 114.777C21.1113 114.84 21.2627 114.872 21.458 114.872C21.6045 114.872 21.7974 114.855 22.0366 114.821ZM23.3403 106.779V105.263H24.6587V106.779H23.3403ZM23.3403 116V108.222H24.6587V116H23.3403ZM26.6729 116V108.222H27.8594V109.328C28.4307 108.473 29.2559 108.046 30.335 108.046C30.8037 108.046 31.2334 108.131 31.624 108.302C32.0195 108.468 32.3149 108.688 32.5103 108.961C32.7056 109.235 32.8423 109.56 32.9204 109.936C32.9692 110.18 32.9937 110.607 32.9937 111.217V116H31.6753V111.269C31.6753 110.731 31.624 110.331 31.5215 110.067C31.4189 109.799 31.2358 109.586 30.9722 109.43C30.7134 109.269 30.4082 109.188 30.0566 109.188C29.4951 109.188 29.0093 109.367 28.5991 109.723C28.1938 110.08 27.9912 110.756 27.9912 111.752V116H26.6729ZM39.2046 116V105.263H40.5229V111.386L43.6431 108.222H45.3496L42.376 111.107L45.6499 116H44.0239L41.4531 112.023L40.5229 112.917V116H39.2046ZM46.6973 116V105.263H48.0156V109.115C48.6309 108.402 49.4072 108.046 50.3447 108.046C50.9209 108.046 51.4214 108.161 51.8462 108.39C52.271 108.615 52.5737 108.927 52.7544 109.328C52.9399 109.728 53.0327 110.309 53.0327 111.071V116H51.7144V111.071C51.7144 110.412 51.5703 109.933 51.2822 109.635C50.999 109.333 50.5962 109.181 50.0737 109.181C49.6831 109.181 49.3145 109.284 48.9678 109.489C48.626 109.689 48.3818 109.962 48.2354 110.309C48.0889 110.656 48.0156 111.134 48.0156 111.745V116H46.6973ZM60.1226 115.041C59.6343 115.456 59.1631 115.749 58.709 115.919C58.2598 116.09 57.7764 116.176 57.2588 116.176C56.4043 116.176 55.7476 115.968 55.2886 115.553C54.8296 115.133 54.6001 114.599 54.6001 113.949C54.6001 113.568 54.6855 113.222 54.8564 112.909C55.0322 112.592 55.2593 112.338 55.5376 112.147C55.8208 111.957 56.1382 111.813 56.4897 111.715C56.7485 111.647 57.1392 111.581 57.6616 111.518C58.7261 111.391 59.5098 111.239 60.0127 111.063C60.0176 110.883 60.02 110.768 60.02 110.719C60.02 110.182 59.8955 109.804 59.6465 109.584C59.3096 109.286 58.8091 109.137 58.145 109.137C57.5249 109.137 57.0659 109.247 56.7681 109.467C56.4751 109.682 56.2578 110.065 56.1162 110.617L54.8271 110.441C54.9443 109.889 55.1372 109.445 55.4058 109.108C55.6743 108.766 56.0625 108.505 56.5703 108.324C57.0781 108.139 57.6665 108.046 58.3354 108.046C58.9995 108.046 59.5391 108.124 59.9541 108.28C60.3691 108.437 60.6743 108.634 60.8696 108.874C61.0649 109.108 61.2017 109.406 61.2798 109.767C61.3237 109.992 61.3457 110.397 61.3457 110.983V112.741C61.3457 113.966 61.3726 114.743 61.4263 115.07C61.4849 115.392 61.5972 115.702 61.7632 116H60.3862C60.2495 115.727 60.1616 115.407 60.1226 115.041ZM60.0127 112.096C59.5342 112.292 58.8164 112.458 57.8594 112.594C57.3174 112.672 56.9341 112.76 56.7095 112.858C56.4849 112.956 56.3115 113.1 56.1895 113.29C56.0674 113.476 56.0063 113.683 56.0063 113.913C56.0063 114.264 56.1382 114.557 56.4019 114.792C56.6704 115.026 57.061 115.143 57.5737 115.143C58.0815 115.143 58.5332 115.033 58.9287 114.813C59.3242 114.589 59.6147 114.284 59.8003 113.898C59.9419 113.6 60.0127 113.161 60.0127 112.58V112.096ZM57.4492 107.255L58.4233 105.204H60.1519L58.5405 107.255H57.4492ZM68.4722 113.151L69.7686 113.319C69.627 114.213 69.2632 114.914 68.6772 115.421C68.0962 115.924 67.3809 116.176 66.5312 116.176C65.4668 116.176 64.6099 115.829 63.9604 115.136C63.3159 114.438 62.9937 113.439 62.9937 112.14C62.9937 111.3 63.1328 110.565 63.4111 109.936C63.6895 109.306 64.1118 108.834 64.6782 108.522C65.2495 108.205 65.8696 108.046 66.5386 108.046C67.3833 108.046 68.0742 108.261 68.6113 108.69C69.1484 109.115 69.4927 109.721 69.644 110.507L68.3623 110.705C68.2402 110.182 68.0229 109.789 67.7104 109.525C67.4028 109.262 67.0293 109.13 66.5898 109.13C65.9258 109.13 65.3862 109.369 64.9712 109.848C64.5562 110.321 64.3486 111.073 64.3486 112.104C64.3486 113.148 64.5488 113.908 64.9492 114.381C65.3496 114.855 65.8721 115.092 66.5166 115.092C67.0342 115.092 67.4663 114.933 67.813 114.616C68.1597 114.298 68.3794 113.81 68.4722 113.151ZM70.8965 116V105.263H72.2148V109.115C72.8301 108.402 73.6064 108.046 74.5439 108.046C75.1201 108.046 75.6206 108.161 76.0454 108.39C76.4702 108.615 76.7729 108.927 76.9536 109.328C77.1392 109.728 77.2319 110.309 77.2319 111.071V116H75.9136V111.071C75.9136 110.412 75.7695 109.933 75.4814 109.635C75.1982 109.333 74.7954 109.181 74.2729 109.181C73.8823 109.181 73.5137 109.284 73.167 109.489C72.8252 109.689 72.5811 109.962 72.4346 110.309C72.2881 110.656 72.2148 111.134 72.2148 111.745V116H70.8965ZM83.4209 116V105.263H84.7393V109.115C85.3545 108.402 86.1309 108.046 87.0684 108.046C87.6445 108.046 88.145 108.161 88.5698 108.39C88.9946 108.615 89.2974 108.927 89.478 109.328C89.6636 109.728 89.7563 110.309 89.7563 111.071V116H88.438V111.071C88.438 110.412 88.2939 109.933 88.0059 109.635C87.7227 109.333 87.3198 109.181 86.7974 109.181C86.4067 109.181 86.0381 109.284 85.6914 109.489C85.3496 109.689 85.1055 109.962 84.959 110.309C84.8125 110.656 84.7393 111.134 84.7393 111.745V116H83.4209ZM96.8462 115.041C96.3579 115.456 95.8867 115.749 95.4326 115.919C94.9834 116.09 94.5 116.176 93.9824 116.176C93.1279 116.176 92.4712 115.968 92.0122 115.553C91.5532 115.133 91.3237 114.599 91.3237 113.949C91.3237 113.568 91.4092 113.222 91.5801 112.909C91.7559 112.592 91.9829 112.338 92.2612 112.147C92.5444 111.957 92.8618 111.813 93.2134 111.715C93.4722 111.647 93.8628 111.581 94.3853 111.518C95.4497 111.391 96.2334 111.239 96.7363 111.063C96.7412 110.883 96.7437 110.768 96.7437 110.719C96.7437 110.182 96.6191 109.804 96.3701 109.584C96.0332 109.286 95.5327 109.137 94.8687 109.137C94.2485 109.137 93.7896 109.247 93.4917 109.467C93.1987 109.682 92.9814 110.065 92.8398 110.617L91.5508 110.441C91.668 109.889 91.8608 109.445 92.1294 109.108C92.3979 108.766 92.7861 108.505 93.2939 108.324C93.8018 108.139 94.3901 108.046 95.0591 108.046C95.7231 108.046 96.2627 108.124 96.6777 108.28C97.0928 108.437 97.3979 108.634 97.5933 108.874C97.7886 109.108 97.9253 109.406 98.0034 109.767C98.0474 109.992 98.0693 110.397 98.0693 110.983V112.741C98.0693 113.966 98.0962 114.743 98.1499 115.07C98.2085 115.392 98.3208 115.702 98.4868 116H97.1099C96.9731 115.727 96.8853 115.407 96.8462 115.041ZM96.7363 112.096C96.2578 112.292 95.54 112.458 94.583 112.594C94.041 112.672 93.6577 112.76 93.4331 112.858C93.2085 112.956 93.0352 113.1 92.9131 113.29C92.791 113.476 92.73 113.683 92.73 113.913C92.73 114.264 92.8618 114.557 93.1255 114.792C93.394 115.026 93.7847 115.143 94.2974 115.143C94.8052 115.143 95.2568 115.033 95.6523 114.813C96.0479 114.589 96.3384 114.284 96.5239 113.898C96.6655 113.6 96.7363 113.161 96.7363 112.58V112.096ZM96.0186 107.255H94.9565L93.2646 105.204H95.0298L96.0186 107.255ZM100.12 116V108.222H101.307V109.328C101.878 108.473 102.703 108.046 103.782 108.046C104.251 108.046 104.681 108.131 105.071 108.302C105.467 108.468 105.762 108.688 105.958 108.961C106.153 109.235 106.29 109.56 106.368 109.936C106.417 110.18 106.441 110.607 106.441 111.217V116H105.123V111.269C105.123 110.731 105.071 110.331 104.969 110.067C104.866 109.799 104.683 109.586 104.419 109.43C104.161 109.269 103.855 109.188 103.504 109.188C102.942 109.188 102.457 109.367 102.046 109.723C101.641 110.08 101.438 110.756 101.438 111.752V116H100.12ZM108.228 116.645L109.51 116.835C109.563 117.23 109.712 117.519 109.957 117.699C110.284 117.943 110.73 118.065 111.297 118.065C111.907 118.065 112.378 117.943 112.71 117.699C113.042 117.455 113.267 117.113 113.384 116.674C113.453 116.405 113.484 115.841 113.479 114.982C112.903 115.661 112.186 116 111.326 116C110.257 116 109.429 115.614 108.843 114.843C108.257 114.071 107.964 113.146 107.964 112.067C107.964 111.325 108.099 110.641 108.367 110.016C108.636 109.386 109.024 108.9 109.532 108.559C110.044 108.217 110.645 108.046 111.333 108.046C112.251 108.046 113.008 108.417 113.604 109.159V108.222H114.82V114.945C114.82 116.156 114.695 117.013 114.446 117.516C114.202 118.024 113.812 118.424 113.274 118.717C112.742 119.01 112.085 119.157 111.304 119.157C110.376 119.157 109.627 118.947 109.056 118.527C108.484 118.112 108.208 117.484 108.228 116.645ZM109.319 111.972C109.319 112.992 109.522 113.737 109.927 114.206C110.333 114.674 110.84 114.909 111.451 114.909C112.056 114.909 112.564 114.677 112.974 114.213C113.384 113.744 113.589 113.012 113.589 112.016C113.589 111.063 113.377 110.346 112.952 109.862C112.532 109.379 112.024 109.137 111.429 109.137C110.843 109.137 110.345 109.376 109.935 109.855C109.524 110.329 109.319 111.034 109.319 111.972Z" fill="white"/>
<path d="M73.5927 54.919C74.2361 55.1706 74.8648 55.4584 75.4756 55.7811C76.2327 56.181 76.5224 57.1189 76.1225 57.8761C75.7226 58.6332 74.7847 58.9228 74.0275 58.5229C71.8496 57.3727 69.4198 56.7631 66.8988 56.7631C59.5455 56.7631 53.2731 61.9928 51.8972 69.1194C51.7349 69.9601 50.9217 70.5101 50.081 70.3478C49.2402 70.1855 48.6903 69.3723 48.8526 68.5316C50.0687 62.2327 54.4586 57.1678 60.2073 54.9204C56.0227 52.576 53.1946 48.1009 53.1946 42.9656C53.1946 35.4014 59.3304 29.2699 66.8988 29.2699C74.4671 29.2699 80.603 35.4015 80.603 42.9656C80.603 48.1 77.7759 52.5743 73.5927 54.919ZM77.5022 42.9656C77.5022 37.1144 72.7551 32.3707 66.8988 32.3707C61.0425 32.3707 56.2954 37.1144 56.2954 42.9656C56.2954 48.8167 61.0425 53.5604 66.8988 53.5604C72.7551 53.5604 77.5022 48.8166 77.5022 42.9656ZM78.1964 61.9295V57.2797C78.1959 57.0044 78.269 56.734 78.408 56.4964C78.5428 56.2663 78.7344 56.0748 78.9645 55.94C79.2021 55.8009 79.4725 55.7279 79.7478 55.7284C80.0231 55.7279 80.2936 55.8009 80.5312 55.94C80.7612 56.0748 80.9528 56.2664 81.0876 56.4964C81.2266 56.734 81.2997 57.0044 81.2992 57.2797V61.9295H85.9027C86.7589 61.9295 87.453 62.6236 87.453 63.4799C87.453 64.3361 86.7589 65.0302 85.9027 65.0302H81.2991V69.6283C81.2996 69.9036 81.2266 70.174 81.0875 70.4116C80.9528 70.6417 80.7612 70.8333 80.5312 70.968C80.2936 71.1071 80.0231 71.1801 79.7478 71.1797C79.4725 71.1801 79.2021 71.1071 78.9645 70.968C78.7344 70.8333 78.5428 70.6417 78.408 70.4116C78.269 70.174 78.1959 69.9036 78.1964 69.6283V65.0302H73.5412C72.685 65.0302 71.9909 64.3361 71.9909 63.4799C71.9909 62.6236 72.685 61.9295 73.5412 61.9295H78.1964Z" fill="white"/>
<defs>
<linearGradient id="paint0_linear_1542_17099" x1="5.5" y1="5.5" x2="40" y2="45.5" gradientUnits="userSpaceOnUse">
<stop stop-color="#7AB93C" stop-opacity="0.8"/>
<stop offset="1" stop-color="#2C8D31"/>
</linearGradient>
<linearGradient id="paint1_linear_1542_17099" x1="5.93903" y1="-5.37277" x2="129" y2="127" gradientUnits="userSpaceOnUse">
<stop stop-color="#85CA75"/>
<stop offset="1" stop-color="#126F2E"/>
<stop offset="1" stop-color="#737373"/>
</linearGradient>
</defs>
</svg>
