<svg width="134" height="134" viewBox="0 0 134 134" fill="none" xmlns="http://www.w3.org/2000/svg">
<rect width="134" height="134" rx="20" fill="url(#paint0_linear_2335_61991)" fill-opacity="0.7"/>
<path fill-rule="evenodd" clip-rule="evenodd" d="M16.5 57C36.1061 57 52 41.1061 52 21.5C52 13.4182 49.2993 5.96708 44.7513 0H114C125.046 0 134 8.9543 134 20V114C134 125.046 125.046 134 114 134H20C8.9543 134 0 125.046 0 114V52.9406C4.92964 55.533 10.5435 57 16.5 57Z" fill="url(#paint1_linear_2335_61991)"/>
<circle cx="27" cy="42" r="2" fill="#83B875"/>
<circle cx="92.5" cy="20.5" r="2.5" fill="#6CA66C"/>
<circle cx="64.5" cy="34.5" r="2.5" fill="#418D54"/>
<path d="M27.1855 100V89.2627H28.6064V98.7329H33.8945V100H27.1855ZM35.4326 90.7788V89.2627H36.751V90.7788H35.4326ZM35.4326 100V92.2217H36.751V100H35.4326ZM35.3447 102.38V100.879H36.8462V102.38H35.3447ZM43.8408 97.1509L45.1372 97.3193C44.9956 98.2129 44.6318 98.9136 44.0459 99.4214C43.4648 99.9243 42.7495 100.176 41.8999 100.176C40.8354 100.176 39.9785 99.8291 39.3291 99.1357C38.6846 98.4375 38.3623 97.439 38.3623 96.1401C38.3623 95.3003 38.5015 94.5654 38.7798 93.9355C39.0581 93.3057 39.4805 92.8345 40.0469 92.522C40.6182 92.2046 41.2383 92.0459 41.9072 92.0459C42.752 92.0459 43.4429 92.2607 43.98 92.6904C44.5171 93.1152 44.8613 93.7207 45.0127 94.5068L43.731 94.7046C43.6089 94.1821 43.3916 93.7891 43.0791 93.5254C42.7715 93.2617 42.3979 93.1299 41.9585 93.1299C41.2944 93.1299 40.7549 93.3691 40.3398 93.8477C39.9248 94.3213 39.7173 95.0732 39.7173 96.1035C39.7173 97.1484 39.9175 97.9077 40.3179 98.3813C40.7183 98.855 41.2407 99.0918 41.8853 99.0918C42.4028 99.0918 42.835 98.9331 43.1816 98.6157C43.5283 98.2983 43.748 97.8101 43.8408 97.1509ZM46.2651 100V89.2627H47.5835V93.1152C48.1987 92.4023 48.9751 92.0459 49.9126 92.0459C50.4888 92.0459 50.9893 92.1606 51.4141 92.3901C51.8389 92.6147 52.1416 92.9272 52.3223 93.3276C52.5078 93.728 52.6006 94.3091 52.6006 95.0708V100H51.2822V95.0708C51.2822 94.4116 51.1382 93.9331 50.8501 93.6353C50.5669 93.3325 50.1641 93.1812 49.6416 93.1812C49.251 93.1812 48.8823 93.2837 48.5356 93.4888C48.1938 93.689 47.9497 93.9624 47.8032 94.3091C47.6567 94.6558 47.5835 95.1343 47.5835 95.7446V100H46.2651ZM58.2622 97.6782L59.5659 97.4731C59.6392 97.9956 59.8418 98.396 60.1738 98.6743C60.5107 98.9526 60.9795 99.0918 61.5801 99.0918C62.1855 99.0918 62.6348 98.9697 62.9277 98.7256C63.2207 98.4766 63.3672 98.186 63.3672 97.854C63.3672 97.5562 63.2378 97.3218 62.979 97.1509C62.7983 97.0337 62.3491 96.8848 61.6313 96.7041C60.6646 96.46 59.9932 96.25 59.6172 96.0742C59.2461 95.8936 58.9629 95.647 58.7676 95.3345C58.5771 95.0171 58.4819 94.668 58.4819 94.2871C58.4819 93.9404 58.5601 93.6206 58.7163 93.3276C58.8774 93.0298 59.0947 92.7832 59.3682 92.5879C59.5732 92.4365 59.8516 92.3096 60.2031 92.207C60.5596 92.0996 60.9404 92.0459 61.3457 92.0459C61.9561 92.0459 62.4907 92.1338 62.9497 92.3096C63.4136 92.4854 63.7554 92.7246 63.9751 93.0273C64.1948 93.3252 64.3462 93.7256 64.4292 94.2285L63.1401 94.4043C63.0815 94.0039 62.9106 93.6914 62.6274 93.4668C62.3491 93.2422 61.9536 93.1299 61.4409 93.1299C60.8354 93.1299 60.4033 93.23 60.1445 93.4302C59.8857 93.6304 59.7563 93.8647 59.7563 94.1333C59.7563 94.3042 59.8101 94.458 59.9175 94.5947C60.0249 94.7363 60.1934 94.8535 60.4229 94.9463C60.5547 94.9951 60.9429 95.1074 61.5874 95.2832C62.52 95.5322 63.1694 95.7373 63.5356 95.8984C63.9067 96.0547 64.1973 96.2842 64.4072 96.5869C64.6172 96.8896 64.7222 97.2656 64.7222 97.7148C64.7222 98.1543 64.5928 98.5693 64.334 98.96C64.0801 99.3457 63.7114 99.646 63.228 99.8608C62.7446 100.071 62.1978 100.176 61.5874 100.176C60.5767 100.176 59.8052 99.9658 59.2729 99.5459C58.7456 99.126 58.4087 98.5034 58.2622 97.6782ZM73.4746 93.7524V92.2217H74.8882V93.4302C74.8882 94.1968 74.8003 94.7314 74.6245 95.0342C74.1753 95.8154 73.4893 96.2549 72.5664 96.3525V100H71.3872V98.8574C70.7817 99.7363 69.959 100.176 68.9189 100.176C68.4648 100.176 68.0376 100.09 67.6372 99.9194C67.2417 99.7437 66.9463 99.5215 66.751 99.2529C66.5557 98.9844 66.4189 98.6572 66.3408 98.2715C66.2871 98.0078 66.2603 97.5977 66.2603 97.041V92.2217H67.5786V96.5356C67.5786 97.2339 67.6055 97.6978 67.6592 97.9272C67.8301 98.6694 68.3379 99.0405 69.1826 99.0405C69.5879 99.0405 69.9614 98.938 70.3032 98.7329C70.6499 98.5278 70.894 98.252 71.0356 97.9053C71.1772 97.5586 71.248 97.0532 71.248 96.3892V92.2217H72.5664V95.7959C73.1865 95.6885 73.6504 95.3979 73.958 94.9243C74.0947 94.7192 74.1631 94.3286 74.1631 93.7524H73.4746ZM68.9995 90.376C69.2778 90.3467 69.4561 90.3198 69.5342 90.2954C69.793 90.2075 69.9248 90.0708 69.9297 89.8853C69.9346 89.7729 69.8662 89.6777 69.7246 89.5996C69.5195 89.4873 69.1948 89.4312 68.7505 89.4312C68.5991 89.4312 68.3696 89.4409 68.062 89.4604L67.9814 88.7134C68.1719 88.6743 68.5234 88.6572 69.0361 88.6621C69.6367 88.667 70.1274 88.7646 70.5083 88.9551C70.9282 89.1602 71.1431 89.4458 71.1528 89.812C71.1724 90.4175 70.728 90.7764 69.8198 90.8887V91.2549H68.9995V90.376ZM80.2715 100.645L81.5532 100.835C81.6069 101.23 81.7559 101.519 82 101.699C82.3271 101.943 82.7739 102.065 83.3403 102.065C83.9507 102.065 84.4219 101.943 84.7539 101.699C85.0859 101.455 85.3105 101.113 85.4277 100.674C85.4961 100.405 85.5278 99.8413 85.5229 98.9819C84.9468 99.6606 84.229 100 83.3696 100C82.3003 100 81.4727 99.6143 80.8867 98.8428C80.3008 98.0713 80.0078 97.146 80.0078 96.0669C80.0078 95.3247 80.1421 94.6411 80.4106 94.0161C80.6792 93.3862 81.0674 92.9004 81.5752 92.5586C82.0879 92.2168 82.6885 92.0459 83.377 92.0459C84.2949 92.0459 85.0518 92.417 85.6475 93.1592V92.2217H86.8633V98.9453C86.8633 100.156 86.7388 101.013 86.4897 101.516C86.2456 102.024 85.855 102.424 85.3179 102.717C84.7856 103.01 84.1289 103.157 83.3477 103.157C82.4199 103.157 81.6704 102.947 81.0991 102.527C80.5278 102.112 80.252 101.484 80.2715 100.645ZM81.3628 95.9717C81.3628 96.9922 81.5654 97.7368 81.9707 98.2056C82.376 98.6743 82.8838 98.9087 83.4941 98.9087C84.0996 98.9087 84.6074 98.6768 85.0176 98.2129C85.4277 97.7441 85.6328 97.0117 85.6328 96.0156C85.6328 95.0635 85.4204 94.3457 84.9956 93.8623C84.5757 93.3789 84.0679 93.1372 83.4722 93.1372C82.8862 93.1372 82.3882 93.3765 81.978 93.855C81.5679 94.3286 81.3628 95.0342 81.3628 95.9717ZM88.8701 90.7788V89.2627H90.1885V90.7788H88.8701ZM88.8701 100V92.2217H90.1885V100H88.8701ZM97.2783 99.0405C96.79 99.4556 96.3188 99.7485 95.8647 99.9194C95.4155 100.09 94.9321 100.176 94.4146 100.176C93.5601 100.176 92.9033 99.9683 92.4443 99.5532C91.9854 99.1333 91.7559 98.5986 91.7559 97.9492C91.7559 97.5684 91.8413 97.2217 92.0122 96.9092C92.188 96.5918 92.415 96.3379 92.6934 96.1475C92.9766 95.957 93.2939 95.813 93.6455 95.7153C93.9043 95.647 94.2949 95.5811 94.8174 95.5176C95.8818 95.3906 96.6655 95.2393 97.1685 95.0635C97.1733 94.8828 97.1758 94.7681 97.1758 94.7192C97.1758 94.1821 97.0513 93.8037 96.8022 93.584C96.4653 93.2861 95.9648 93.1372 95.3008 93.1372C94.6807 93.1372 94.2217 93.2471 93.9238 93.4668C93.6309 93.6816 93.4136 94.0649 93.272 94.6167L91.9829 94.4409C92.1001 93.8892 92.293 93.4448 92.5615 93.1079C92.8301 92.7661 93.2183 92.5049 93.7261 92.3242C94.2339 92.1387 94.8223 92.0459 95.4912 92.0459C96.1553 92.0459 96.6948 92.124 97.1099 92.2803C97.5249 92.4365 97.8301 92.6343 98.0254 92.8735C98.2207 93.1079 98.3574 93.4058 98.4355 93.7671C98.4795 93.9917 98.5015 94.397 98.5015 94.9829V96.7407C98.5015 97.9663 98.5283 98.7427 98.582 99.0698C98.6406 99.3921 98.7529 99.7021 98.9189 100H97.542C97.4053 99.7266 97.3174 99.4067 97.2783 99.0405ZM97.1685 96.0962C96.6899 96.2915 95.9722 96.4575 95.0151 96.5942C94.4731 96.6724 94.0898 96.7603 93.8652 96.8579C93.6406 96.9556 93.4673 97.0996 93.3452 97.29C93.2231 97.4756 93.1621 97.6831 93.1621 97.9126C93.1621 98.2642 93.2939 98.5571 93.5576 98.7915C93.8262 99.0259 94.2168 99.1431 94.7295 99.1431C95.2373 99.1431 95.689 99.0332 96.0845 98.8135C96.48 98.5889 96.7705 98.2837 96.9561 97.8979C97.0977 97.6001 97.1685 97.1606 97.1685 96.5796V96.0962ZM100.062 96.1108C100.062 94.6704 100.462 93.6035 101.263 92.9102C101.932 92.334 102.747 92.0459 103.709 92.0459C104.778 92.0459 105.652 92.3975 106.331 93.1006C107.01 93.7988 107.349 94.7656 107.349 96.001C107.349 97.002 107.198 97.7905 106.895 98.3667C106.597 98.938 106.16 99.3823 105.584 99.6997C105.013 100.017 104.388 100.176 103.709 100.176C102.62 100.176 101.739 99.8267 101.065 99.1284C100.396 98.4302 100.062 97.4243 100.062 96.1108ZM101.417 96.1108C101.417 97.1069 101.634 97.854 102.068 98.3521C102.503 98.8452 103.05 99.0918 103.709 99.0918C104.363 99.0918 104.908 98.8428 105.342 98.3447C105.777 97.8467 105.994 97.0874 105.994 96.0669C105.994 95.105 105.774 94.3774 105.335 93.8843C104.9 93.3862 104.358 93.1372 103.709 93.1372C103.05 93.1372 102.503 93.3838 102.068 93.877C101.634 94.3701 101.417 95.1147 101.417 96.1108ZM59.2656 117V116.019C58.7725 116.79 58.0474 117.176 57.0903 117.176C56.4702 117.176 55.8989 117.005 55.3765 116.663C54.8589 116.321 54.4561 115.845 54.168 115.235C53.8848 114.62 53.7432 113.914 53.7432 113.118C53.7432 112.342 53.8726 111.639 54.1313 111.009C54.3901 110.374 54.7783 109.888 55.2959 109.551C55.8135 109.214 56.3921 109.046 57.0317 109.046C57.5005 109.046 57.918 109.146 58.2842 109.346C58.6504 109.542 58.9482 109.798 59.1777 110.115V106.263H60.4888V117H59.2656ZM55.0981 113.118C55.0981 114.114 55.3081 114.859 55.728 115.352C56.1479 115.845 56.6436 116.092 57.2148 116.092C57.791 116.092 58.2793 115.857 58.6797 115.389C59.085 114.915 59.2876 114.195 59.2876 113.228C59.2876 112.164 59.0825 111.382 58.6724 110.884C58.2622 110.386 57.7568 110.137 57.1562 110.137C56.5703 110.137 56.0796 110.376 55.6841 110.855C55.2935 111.333 55.0981 112.088 55.0981 113.118ZM62.5762 107.779V106.263H63.8945V107.779H62.5762ZM62.5762 117V109.222H63.8945V117H62.5762ZM62.4883 119.38V117.879H63.9897V119.38H62.4883ZM70.9844 114.151L72.2808 114.319C72.1392 115.213 71.7754 115.914 71.1895 116.421C70.6084 116.924 69.8931 117.176 69.0435 117.176C67.979 117.176 67.1221 116.829 66.4727 116.136C65.8281 115.438 65.5059 114.439 65.5059 113.14C65.5059 112.3 65.645 111.565 65.9233 110.936C66.2017 110.306 66.624 109.834 67.1904 109.522C67.7617 109.205 68.3818 109.046 69.0508 109.046C69.8955 109.046 70.5864 109.261 71.1235 109.69C71.6606 110.115 72.0049 110.721 72.1562 111.507L70.8745 111.705C70.7524 111.182 70.5352 110.789 70.2227 110.525C69.915 110.262 69.5415 110.13 69.1021 110.13C68.438 110.13 67.8984 110.369 67.4834 110.848C67.0684 111.321 66.8608 112.073 66.8608 113.104C66.8608 114.148 67.061 114.908 67.4614 115.381C67.8618 115.855 68.3843 116.092 69.0288 116.092C69.5464 116.092 69.9785 115.933 70.3252 115.616C70.6719 115.298 70.8916 114.81 70.9844 114.151ZM73.4087 117V106.263H74.7271V110.115C75.3423 109.402 76.1187 109.046 77.0562 109.046C77.6323 109.046 78.1328 109.161 78.5576 109.39C78.9824 109.615 79.2852 109.927 79.4658 110.328C79.6514 110.728 79.7441 111.309 79.7441 112.071V117H78.4258V112.071C78.4258 111.412 78.2817 110.933 77.9937 110.635C77.7104 110.333 77.3076 110.181 76.7852 110.181C76.3945 110.181 76.0259 110.284 75.6792 110.489C75.3374 110.689 75.0933 110.962 74.9468 111.309C74.8003 111.656 74.7271 112.134 74.7271 112.745V117H73.4087Z" fill="white"/>
<path d="M66.9113 69.6667C62.1731 69.6667 58.0423 68.1189 54.519 65.0234C50.9972 61.9294 48.9594 58.0327 48.4056 53.3334H50.7646C51.3993 57.3467 53.2279 60.6834 56.2503 63.3434C59.2728 66.0034 62.8264 67.3334 66.9113 67.3334C71.4613 67.3334 75.3206 65.749 78.4893 62.5804C81.658 59.4117 83.2431 55.5516 83.2446 51C83.2462 46.4485 81.6611 42.5884 78.4893 39.4197C75.3175 36.251 71.4582 34.6667 66.9113 34.6667C64.4955 34.6667 62.226 35.1769 60.1026 36.1974C57.9793 37.2163 56.1049 38.6202 54.4793 40.409H60.2683V42.7424H50.578V33.0544H52.9113V38.6264C54.7157 36.6462 56.8298 35.103 59.2533 33.997C61.6769 32.891 64.2295 32.3365 66.9113 32.3334C69.4982 32.3334 71.9233 32.8203 74.1866 33.794C76.45 34.7678 78.4271 36.1009 80.118 37.7934C81.8089 39.4858 83.142 41.4629 84.1173 43.7247C85.0926 45.9865 85.5795 48.4116 85.578 51C85.5764 53.5885 85.0895 56.0136 84.1173 58.2754C83.1451 60.5372 81.812 62.5143 80.118 64.2067C78.424 65.8992 76.4469 67.2323 74.1866 68.206C71.9264 69.1798 69.5013 69.6667 66.9113 69.6667ZM74.3873 59.9927L65.8776 51.4854V39.3334H68.211V50.5147L76.037 58.3407L74.3873 59.9927Z" fill="white"/>
<defs>
<linearGradient id="paint0_linear_2335_61991" x1="5.5" y1="5.5" x2="40" y2="45.5" gradientUnits="userSpaceOnUse">
<stop stop-color="#7AB93C" stop-opacity="0.8"/>
<stop offset="1" stop-color="#2C8D31"/>
</linearGradient>
<linearGradient id="paint1_linear_2335_61991" x1="5.93903" y1="-5.37277" x2="129" y2="127" gradientUnits="userSpaceOnUse">
<stop stop-color="#85CA75"/>
<stop offset="1" stop-color="#126F2E"/>
<stop offset="1" stop-color="#737373"/>
</linearGradient>
</defs>
</svg>
