<svg width="56" height="56" viewBox="0 0 56 56" fill="none" xmlns="http://www.w3.org/2000/svg">
<path d="M34.5927 31.9225C35.2361 32.1741 35.8648 32.462 36.4756 32.7846C37.2327 33.1845 37.5224 34.1224 37.1225 34.8796C36.7226 35.6367 35.7847 35.9263 35.0275 35.5265C32.8496 34.3762 30.4198 33.7666 27.8988 33.7666C20.5455 33.7666 14.2731 38.9963 12.8972 46.123C12.7349 46.9637 11.9217 47.5137 11.081 47.3513C10.2402 47.189 9.69031 46.3759 9.85262 45.5352C11.0687 39.2362 15.4586 34.1713 21.2073 31.9239C17.0227 29.5796 14.1946 25.1045 14.1946 19.9691C14.1946 12.4049 20.3304 6.27344 27.8988 6.27344C35.4671 6.27344 41.603 12.405 41.603 19.9691C41.603 25.1035 38.7759 29.5778 34.5927 31.9225ZM38.5022 19.9691C38.5022 14.118 33.7551 9.37422 27.8988 9.37422C22.0425 9.37422 17.2954 14.1179 17.2954 19.9691C17.2954 25.8202 22.0425 30.5639 27.8988 30.5639C33.7551 30.5639 38.5022 25.8202 38.5022 19.9691ZM39.1964 38.9331V34.2833C39.1959 34.008 39.269 33.7375 39.408 33.4999C39.5428 33.2699 39.7344 33.0783 39.9645 32.9435C40.2021 32.8045 40.4725 32.7314 40.7478 32.7319C41.0231 32.7314 41.2936 32.8045 41.5312 32.9435C41.7612 33.0783 41.9528 33.2699 42.0876 33.4999C42.2266 33.7375 42.2997 34.008 42.2992 34.2833V38.9331H46.9027C47.7589 38.9331 48.453 39.6272 48.453 40.4834C48.453 41.3396 47.7589 42.0337 46.9027 42.0337H42.2991V46.6318C42.2996 46.9071 42.2266 47.1776 42.0875 47.4152C41.9528 47.6452 41.7612 47.8368 41.5312 47.9716C41.2936 48.1106 41.0231 48.1837 40.7478 48.1832C40.4725 48.1837 40.2021 48.1106 39.9645 47.9716C39.7344 47.8368 39.5428 47.6452 39.408 47.4152C39.269 47.1776 39.1959 46.9071 39.1964 46.6318V42.0337H34.5412C33.685 42.0337 32.9909 41.3396 32.9909 40.4834C32.9909 39.6272 33.685 38.9331 34.5412 38.9331H39.1964Z" fill="white"/>
</svg>
