<svg width="56" height="56" viewBox="0 0 56 56" fill="none" xmlns="http://www.w3.org/2000/svg">
<path d="M27.9113 46.6667C23.1731 46.6667 19.0423 45.1189 15.519 42.0234C11.9972 38.9294 9.95942 35.0327 9.40564 30.3334H11.7646C12.3993 34.3467 14.2279 37.6834 17.2503 40.3434C20.2728 43.0034 23.8264 44.3334 27.9113 44.3334C32.4613 44.3334 36.3206 42.749 39.4893 39.5804C42.658 36.4117 44.2431 32.5516 44.2446 28C44.2462 23.4485 42.6611 19.5884 39.4893 16.4197C36.3175 13.251 32.4582 11.6667 27.9113 11.6667C25.4955 11.6667 23.226 12.1769 21.1026 13.1974C18.9793 14.2163 17.1049 15.6202 15.4793 17.409H21.2683V19.7424H11.578V10.0544H13.9113V15.6264C15.7157 13.6462 17.8298 12.103 20.2533 10.997C22.6769 9.89104 25.2295 9.33649 27.9113 9.33337C30.4982 9.33337 32.9233 9.82026 35.1866 10.794C37.45 11.7678 39.4271 13.1009 41.118 14.7934C42.8089 16.4858 44.142 18.4629 45.1173 20.7247C46.0926 22.9865 46.5795 25.4116 46.578 28C46.5764 30.5885 46.0895 33.0136 45.1173 35.2754C44.1451 37.5372 42.812 39.5143 41.118 41.2067C39.424 42.8992 37.4469 44.2323 35.1866 45.206C32.9264 46.1798 30.5013 46.6667 27.9113 46.6667ZM35.3873 36.9927L26.8776 28.4854V16.3334H29.211V27.5147L37.037 35.3407L35.3873 36.9927Z" fill="white"/>
</svg>
