<svg width="56" height="56" viewBox="0 0 56 56" fill="none" xmlns="http://www.w3.org/2000/svg">
<path d="M44.499 10.0618V19.8618L45.5928 18.7681H12.5451C11.3912 18.7681 10.2811 19.3149 9.7123 20.3485C9.32949 21.0376 9.31309 21.754 9.31309 22.5032V37.2306L10.4068 36.1368H5.48496C5.46855 36.1368 5.25527 36.1368 5.25527 36.1259L5.40293 36.1423C5.35371 36.1313 5.30996 36.1204 5.26074 36.1095C5.21699 36.0985 5.16777 36.0821 5.12402 36.0657C5.01465 36.022 5.03652 36.0329 5.18418 36.0985C5.18418 36.104 5.00918 36.0056 4.99824 36.0001C4.77402 35.8688 4.99824 36.0056 4.9873 36.011C4.97637 36.022 4.68105 35.7266 4.69199 35.7157C4.71934 35.6884 4.82324 35.9181 4.74121 35.7649C4.7084 35.7048 4.67012 35.6391 4.6373 35.579C4.51699 35.3712 4.69746 35.8087 4.6373 35.579C4.63184 35.5571 4.55527 35.3001 4.56621 35.3001L4.58262 35.4477C4.57715 35.3985 4.57168 35.3493 4.57168 35.3001C4.56621 35.2071 4.57168 35.2509 4.57168 35.2235V35.1579C4.56074 33.2657 4.57168 31.3681 4.57168 29.4759V9.99071C4.57168 9.96337 4.57715 9.94149 4.57715 9.91415C4.58809 9.79384 4.58809 9.81571 4.56621 9.98524C4.56074 9.98524 4.63184 9.72821 4.6373 9.70634C4.51699 9.90868 4.69746 9.47118 4.6373 9.70634C4.67559 9.64618 4.7084 9.58602 4.74121 9.5204C4.85605 9.31259 4.57168 9.68993 4.74121 9.51493C4.79043 9.46571 4.83418 9.41102 4.88887 9.36181C5.0748 9.18681 4.88887 9.36181 4.8834 9.35634C4.87793 9.35087 5.04746 9.25243 5.06387 9.24149C5.29355 9.11571 5.0584 9.23602 5.0584 9.23056C5.0584 9.21962 5.2334 9.1704 5.26621 9.16493C5.28809 9.15946 5.31543 9.15399 5.3373 9.14852C5.45762 9.12665 5.43027 9.12665 5.26074 9.15399C5.26074 9.14306 5.46855 9.14306 5.48496 9.14306H39.8506C41.0975 9.14306 42.3443 9.12665 43.5912 9.14306C43.6185 9.14306 43.8209 9.13759 43.8209 9.15399C43.8264 9.18134 43.5584 9.0829 43.7826 9.15946C43.8373 9.17587 43.8975 9.19227 43.9576 9.20868C43.7553 9.08837 44.1928 9.26884 43.9576 9.20868C44.0178 9.24696 44.0779 9.27977 44.1436 9.31259C44.3514 9.42743 43.974 9.14306 44.149 9.31259C44.1982 9.36181 44.2529 9.40556 44.3021 9.46024C44.4771 9.64618 44.3021 9.46024 44.3076 9.45477C44.3131 9.44931 44.4115 9.61884 44.4225 9.63524C44.5482 9.86493 44.4279 9.62977 44.4334 9.62977C44.4443 9.62977 44.4936 9.82118 44.499 9.83759C44.5045 9.85946 44.51 9.88681 44.5154 9.90868C44.5373 10.029 44.5373 10.0016 44.51 9.83212C44.499 9.83759 44.499 10.0454 44.499 10.0618C44.51 10.636 44.9967 11.1829 45.5928 11.1556C46.1779 11.1282 46.6975 10.6743 46.6865 10.0618C46.6537 8.35556 45.292 6.9829 43.5803 6.95556H6.60059C6.22324 6.95556 5.85137 6.95009 5.47402 6.95556C4.1123 6.97743 2.94746 7.83602 2.50996 9.12118C2.37871 9.49852 2.3623 9.89774 2.3623 10.2915V35.2016C2.37871 36.5415 3.20449 37.6899 4.45684 38.1493C5.08574 38.379 5.79121 38.3188 6.44746 38.3188H10.3959C10.9865 38.3188 11.4896 37.8157 11.4896 37.2251V26.5118C11.4896 24.997 11.4842 23.4876 11.4896 21.9727V21.8306C11.4896 21.7813 11.4951 21.7321 11.5006 21.6829C11.5061 21.5352 11.4404 21.8907 11.4951 21.754C11.5279 21.672 11.5553 21.5626 11.5717 21.4751C11.599 21.3384 11.4678 21.6556 11.5443 21.5407C11.5771 21.4915 11.599 21.4368 11.6264 21.3876C11.6209 21.3985 11.7029 21.2673 11.7029 21.2673C11.7248 21.2782 11.5443 21.4423 11.6592 21.322L11.8561 21.1251C12.0037 20.9829 11.8068 21.1743 11.8014 21.1688C11.8014 21.1688 11.9053 21.1032 11.9217 21.0923C11.96 21.0704 12.0037 21.0485 12.0475 21.0212C11.8287 21.0813 12.2443 20.9063 12.0475 21.0212C12.0639 21.0157 12.3264 20.9391 12.3264 20.9501C12.3264 20.9665 12.0365 20.9665 12.2553 20.961C12.3045 20.961 12.3537 20.9556 12.4029 20.9556H12.4139C12.6271 20.9501 12.8404 20.9556 13.0537 20.9556H45.5873C46.1779 20.9556 46.681 20.4524 46.681 19.8618V10.0618C46.681 9.48759 46.1779 8.94071 45.5873 8.96806C45.0021 8.9954 44.499 9.44931 44.499 10.0618Z" fill="white"/>
<path d="M3.46192 15.8955H43.8815C44.4283 15.8955 44.9807 15.9064 45.5275 15.8955H45.5986C46.1729 15.8955 46.7197 15.3924 46.6924 14.8017C46.665 14.2111 46.2111 13.708 45.5986 13.708H5.17911C4.63223 13.708 4.07989 13.697 3.53302 13.708H3.46192C2.8877 13.708 2.34083 14.2111 2.36817 14.8017C2.39552 15.3978 2.84942 15.8955 3.46192 15.8955ZM51.4447 21.8783V45.9353C51.4447 45.9627 51.4447 46.165 51.4338 46.1705C51.4119 46.176 51.4994 45.8861 51.4393 46.0939C51.4174 46.1595 51.401 46.2306 51.3791 46.3017C51.319 46.5205 51.4775 46.165 51.3955 46.2689C51.3518 46.3291 51.308 46.4166 51.2752 46.4822C51.1658 46.6791 51.4065 46.3674 51.2971 46.4603C51.2533 46.4986 51.2205 46.5478 51.1768 46.5916C51.1658 46.6025 51.0291 46.7392 51.0182 46.7338C50.9908 46.7064 51.2205 46.6025 51.0674 46.6846C51.0072 46.7174 50.9416 46.7556 50.8815 46.7885C50.6791 46.9088 51.1111 46.7283 50.8815 46.7885C50.8377 46.7994 50.7885 46.8158 50.7447 46.8322C50.6955 46.8431 50.6518 46.8541 50.6025 46.865C50.7721 46.8431 50.7939 46.8431 50.6736 46.8541C49.7057 46.865 48.7377 46.8596 47.7697 46.8596H15.3455C14.3666 46.8596 13.3877 46.876 12.4143 46.8596H12.3377C12.3104 46.8596 12.2885 46.8541 12.2611 46.8541C12.1408 46.8431 12.1627 46.8431 12.3322 46.865C12.3322 46.8705 12.1354 46.8158 12.119 46.8158C12.1025 46.8103 11.9822 46.7721 11.9822 46.7721C11.9822 46.7666 12.2119 46.8869 11.9877 46.7611C11.9494 46.7392 11.9057 46.7119 11.8674 46.69C11.769 46.6244 11.7908 46.6408 11.9166 46.7392C11.8783 46.7119 11.8455 46.6791 11.8127 46.6463C11.769 46.608 11.7307 46.5642 11.6924 46.5205C11.5338 46.3619 11.7307 46.5369 11.7088 46.5478C11.6979 46.5533 11.5283 46.2471 11.5338 46.2416C11.5447 46.2361 11.6158 46.4877 11.5447 46.2361C11.5393 46.2197 11.49 46.0228 11.4955 46.0228C11.5119 46.0228 11.5119 46.3127 11.5065 46.0939C11.5065 46.0338 11.501 46.0064 11.501 45.9408V26.3025C11.501 24.8314 11.4791 23.3549 11.501 21.8838V21.8783C11.501 21.851 11.4955 21.922 11.501 21.8017C11.501 21.7744 11.5065 21.7525 11.5065 21.7252C11.5174 21.6049 11.5174 21.6267 11.4955 21.7963C11.501 21.7963 11.5666 21.4463 11.594 21.4517C11.5994 21.4517 11.4791 21.6814 11.6049 21.4572C11.6104 21.4517 11.7088 21.2767 11.7197 21.2767C11.7252 21.2822 11.5502 21.4681 11.7252 21.2822C11.7635 21.2385 11.8072 21.2002 11.851 21.1619C12.0096 21.0033 11.8346 21.2002 11.8236 21.1783C11.8182 21.1728 11.9877 21.0744 12.0041 21.0635C12.0205 21.0525 12.1299 20.9978 12.1299 20.9978C12.1354 21.0088 11.8838 21.0799 12.1354 21.0088C12.19 20.9924 12.2611 20.9869 12.3104 20.965C12.3924 20.9486 12.3596 20.9541 12.201 20.976C12.2502 20.9705 12.2994 20.965 12.3486 20.965C12.4361 20.9595 12.5236 20.965 12.6057 20.965H50.608C50.6354 20.965 50.6572 20.9705 50.6846 20.9705C50.783 20.9814 50.783 20.9814 50.6846 20.9705C50.6627 20.965 50.6354 20.965 50.6135 20.9595C50.6627 20.9705 50.7064 20.9814 50.7557 20.9924C50.7721 20.9978 50.9635 21.047 50.9635 21.058C50.958 21.0908 50.7502 20.9486 50.8979 21.0361C50.958 21.0744 51.0182 21.1072 51.0838 21.14C51.2916 21.2549 50.9197 20.9705 51.0893 21.14C51.1166 21.1674 51.3463 21.3752 51.3354 21.3916C51.3135 21.4135 51.2041 21.1674 51.308 21.3697C51.3354 21.4189 51.3682 21.4736 51.3955 21.5228C51.3354 21.2931 51.5158 21.7252 51.3955 21.5228C51.4064 21.5666 51.4229 21.6158 51.4393 21.6595C51.4447 21.6814 51.4502 21.7088 51.4557 21.7306C51.4775 21.851 51.4775 21.8236 51.4502 21.6541C51.4447 21.6541 51.4447 21.8619 51.4447 21.8783C51.4557 22.4525 51.9424 22.9994 52.5385 22.972C53.1236 22.9447 53.6432 22.4908 53.6322 21.8783C53.6049 20.451 52.5986 19.1002 51.1494 18.8431C50.8869 18.7939 50.6354 18.7775 50.3729 18.7775H12.5565C12.2611 18.7775 11.9713 18.7994 11.6869 18.865C10.2979 19.1767 9.33536 20.4838 9.31348 21.8838C9.30801 22.283 9.31348 22.6767 9.31348 23.076V45.6674C9.31348 45.8096 9.30801 45.9517 9.31895 46.0939C9.4338 47.6416 10.5768 48.8447 12.119 49.0252C12.4471 49.0635 12.7861 49.0471 13.1143 49.0471H49.8916C50.3729 49.0471 50.8541 49.0689 51.3299 48.9431C52.6861 48.5877 53.6104 47.3244 53.6322 45.9408V21.8783C53.6322 21.3041 53.1291 20.7572 52.5385 20.7845C51.9479 20.8119 51.4447 21.2658 51.4447 21.8783Z" fill="white"/>
<path d="M16.4229 41.4962H20.2127C20.7869 41.4962 21.3338 40.9931 21.3065 40.4024C21.2791 39.8118 20.8252 39.3087 20.2127 39.3087H16.4229C15.8486 39.3087 15.3018 39.8118 15.3291 40.4024C15.3565 40.9931 15.8104 41.4962 16.4229 41.4962ZM22.783 32.4016H17.6861C17.5658 32.4071 17.615 32.4399 17.6752 32.4126C17.7408 32.3798 17.7682 32.4345 17.6752 32.4071C17.6861 32.4071 17.5385 32.3743 17.533 32.3634C17.533 32.3196 17.7463 32.4837 17.5986 32.3798C17.4291 32.2595 17.6424 32.429 17.6479 32.429C17.6424 32.4345 17.5385 32.3251 17.544 32.3306C17.4127 32.2157 17.626 32.3688 17.5822 32.3852C17.5768 32.3852 17.5275 32.2977 17.5275 32.2923C17.4729 32.172 17.5877 32.5165 17.5385 32.3196C17.5385 32.3306 17.5002 32.1774 17.5057 32.1774C17.5385 32.161 17.5166 32.4235 17.5221 32.2431V27.3759C17.5221 27.2993 17.5275 27.2173 17.5221 27.1407C17.5221 27.1243 17.533 27.0696 17.5221 27.0587C17.5713 27.1188 17.4729 27.2774 17.5166 27.1298C17.5111 27.1407 17.5494 26.9876 17.5604 26.9876C17.5549 26.9876 17.4565 27.2446 17.544 27.0532C17.6205 26.8946 17.5221 27.1407 17.4947 27.1024C17.4893 27.097 17.5986 26.9931 17.5932 26.9985C17.7135 26.8673 17.544 27.0477 17.5385 27.0368C17.544 27.0423 17.6588 26.9548 17.6643 26.9657C17.6916 27.0095 17.4291 27.0313 17.6041 26.9931C17.6315 26.9876 17.7354 26.9712 17.7463 26.9602C17.719 26.9821 17.4838 26.9712 17.6807 26.9766H22.4385C22.5424 26.9766 22.6518 26.9821 22.7557 26.9766C22.783 26.9766 22.8486 26.9876 22.865 26.9766C22.7885 27.0368 22.6518 26.922 22.794 26.9712C22.8213 26.9821 22.9143 27.0149 22.9361 27.0149C22.9033 27.0204 22.7119 26.9001 22.8705 26.9985C23.0182 27.0915 22.8268 26.9493 22.8213 26.9493C22.8268 26.9438 22.9088 27.0368 22.9252 27.0477C23.0838 27.1899 22.8705 27.004 22.8869 26.9931C22.8815 26.9931 22.969 27.1134 22.958 27.1188C22.9416 27.1298 22.8815 26.8454 22.9307 27.0587C22.9361 27.086 22.9525 27.1845 22.9635 27.2009C22.9525 27.1845 22.958 26.9821 22.9416 27.097V27.1462C22.9361 27.2337 22.9416 27.3266 22.9416 27.4141V32.2431C22.9416 32.2704 22.9307 32.3141 22.9416 32.3251C22.9197 32.3032 23.0127 32.0626 22.9471 32.254C22.9416 32.2759 22.9361 32.3032 22.9252 32.3251C22.8924 32.4181 22.8924 32.4181 22.9252 32.3306C22.9635 32.3141 22.9744 32.2376 22.9143 32.3306C22.8049 32.511 22.958 32.2813 22.9635 32.2813C22.969 32.2868 22.876 32.3688 22.865 32.3852C22.7502 32.5165 22.9033 32.3032 22.9197 32.347C22.9252 32.3579 22.7885 32.4126 22.794 32.4181C22.783 32.4016 23.0619 32.3415 22.8541 32.3907C22.8213 32.4016 22.783 32.4071 22.7447 32.4181C22.6025 32.4563 23.0346 32.3907 22.783 32.4016C22.2143 32.4181 21.6619 32.8938 21.6893 33.4954C21.7166 34.0751 22.1705 34.6056 22.783 34.5891C24.0846 34.5509 25.0963 33.5446 25.1291 32.2431C25.1346 31.9806 25.1291 31.7181 25.1291 31.4556V28.0485C25.1291 27.7477 25.1346 27.447 25.1291 27.1462C25.1072 26.0579 24.3416 25.0079 23.226 24.8329C22.865 24.7782 22.515 24.7837 22.1541 24.7837H20.5299C19.5947 24.7837 18.6596 24.7782 17.7244 24.7837C16.7018 24.7946 15.8104 25.4016 15.4604 26.3696C15.3182 26.7688 15.3291 27.1845 15.3291 27.6056V32.1282C15.3291 32.9868 15.7119 33.7907 16.4611 34.2501C16.9479 34.5454 17.4783 34.5891 18.0252 34.5891H22.783C23.3572 34.5891 23.9041 34.086 23.8768 33.4954C23.8494 32.8993 23.3955 32.4016 22.783 32.4016ZM24.369 41.4962H28.1588C28.733 41.4962 29.2799 40.9931 29.2525 40.4024C29.2252 39.8118 28.7713 39.3087 28.1588 39.3087H24.369C23.7947 39.3087 23.2479 39.8118 23.2752 40.4024C23.3025 40.9931 23.7565 41.4962 24.369 41.4962ZM32.315 41.5509H36.1049C36.6791 41.5509 37.226 41.0477 37.1986 40.4571C37.1713 39.8665 36.7174 39.3634 36.1049 39.3634H32.315C31.7408 39.3634 31.194 39.8665 31.2213 40.4571C31.2486 41.0477 31.7025 41.5509 32.315 41.5509ZM40.2611 41.5509H44.051C44.6252 41.5509 45.1721 41.0477 45.1447 40.4571C45.1174 39.8665 44.6635 39.3634 44.051 39.3634H40.2611C39.6869 39.3634 39.14 39.8665 39.1674 40.4571C39.1947 41.0477 39.6486 41.5509 40.2611 41.5509Z" fill="white"/>
</svg>
