<svg width="142" height="142" viewBox="0 0 142 142" fill="none" xmlns="http://www.w3.org/2000/svg">
<g filter="url(#filter0_d_1544_17178)">
<rect x="4" width="134" height="134" rx="20" fill="url(#paint0_linear_1544_17178)" fill-opacity="0.7"/>
<path fill-rule="evenodd" clip-rule="evenodd" d="M20.5 57C40.1061 57 56 41.1061 56 21.5C56 13.4182 53.2993 5.96708 48.7513 0H118C129.046 0 138 8.9543 138 20V114C138 125.046 129.046 134 118 134H24C12.9543 134 4 125.046 4 114V52.9406C8.92964 55.533 14.5435 57 20.5 57Z" fill="url(#paint1_linear_1544_17178)"/>
<circle cx="31" cy="42" r="2" fill="#83B875"/>
<circle cx="96.5" cy="20.5" r="2.5" fill="#6CA66C"/>
<circle cx="68.5" cy="34.5" r="2.5" fill="#418D54"/>
<path d="M28.3877 99V88.2627H30.5264L33.0679 95.8652C33.3022 96.5732 33.4731 97.103 33.5806 97.4546C33.7026 97.064 33.8931 96.4902 34.1519 95.7334L36.7227 88.2627H38.6343V99H37.2646V90.0132L34.1445 99H32.8628L29.7573 89.8594V99H28.3877ZM41.6226 95.1108C41.6226 96.0728 41.8398 96.8174 42.2744 97.3447C42.6846 97.8428 43.2314 98.0918 43.915 98.0918C44.5986 98.0918 45.1431 97.8428 45.5483 97.3447C45.9829 96.8125 46.2002 96.0532 46.2002 95.0669C46.2002 94.1343 45.9805 93.4067 45.541 92.8843C45.1309 92.3862 44.5889 92.1372 43.915 92.1372C43.2266 92.1372 42.6797 92.3838 42.2744 92.877C41.8398 93.4043 41.6226 94.1489 41.6226 95.1108ZM47.731 92.562V91.0312H49.1445V92.2397C49.1445 92.8452 49.0518 93.3091 48.8662 93.6313C48.627 94.0513 48.1899 94.437 47.5552 94.7886C47.5552 94.8569 47.5552 94.9277 47.5552 95.001C47.5552 96.8174 46.9692 98.0503 45.7974 98.6997C45.2212 99.0171 44.5938 99.1758 43.915 99.1758C42.8018 99.1758 41.9204 98.8267 41.271 98.1284C40.6021 97.4058 40.2676 96.3999 40.2676 95.1108C40.2676 93.6704 40.668 92.6035 41.4688 91.9102C42.1377 91.334 42.9531 91.0459 43.915 91.0459C44.9844 91.0459 45.8584 91.395 46.5371 92.0933C47.0498 92.6255 47.3696 93.3115 47.4966 94.1514C47.8286 93.9463 48.0654 93.7339 48.207 93.5142C48.3535 93.2944 48.4243 92.9771 48.4194 92.562H47.731ZM43.5781 89.376C43.8564 89.3467 44.0347 89.3198 44.1128 89.2954C44.3716 89.2075 44.5034 89.0708 44.5083 88.8853C44.5132 88.7729 44.4448 88.6777 44.3032 88.5996C44.0981 88.4873 43.7734 88.4312 43.3291 88.4312C43.1777 88.4312 42.9482 88.4409 42.6406 88.4604L42.5601 87.7134C42.7505 87.6743 43.1021 87.6572 43.6147 87.6621C44.2153 87.667 44.7061 87.7646 45.0869 87.9551C45.5068 88.1602 45.7217 88.4458 45.7314 88.812C45.751 89.4175 45.3066 89.7764 44.3984 89.8887V90.2549H43.5781V89.376ZM57.6553 97.8208L57.8457 98.9854C57.4746 99.0635 57.1426 99.1025 56.8496 99.1025C56.3711 99.1025 56 99.0269 55.7363 98.8755C55.4727 98.7241 55.2871 98.5264 55.1797 98.2822C55.0723 98.0332 55.0186 97.5132 55.0186 96.7222V92.2471H54.0518V91.2217H55.0186V89.2954L56.3296 88.5044V91.2217H57.6553V92.2471H56.3296V96.7954C56.3296 97.1714 56.3516 97.4131 56.3955 97.5205C56.4443 97.6279 56.52 97.7134 56.6226 97.7769C56.73 97.8403 56.8813 97.8721 57.0767 97.8721C57.2231 97.8721 57.416 97.855 57.6553 97.8208ZM64.0273 98.0405C63.5391 98.4556 63.0679 98.7485 62.6138 98.9194C62.1646 99.0903 61.6812 99.1758 61.1636 99.1758C60.3091 99.1758 59.6523 98.9683 59.1934 98.5532C58.7344 98.1333 58.5049 97.5986 58.5049 96.9492C58.5049 96.5684 58.5903 96.2217 58.7612 95.9092C58.937 95.5918 59.1641 95.3379 59.4424 95.1475C59.7256 94.957 60.043 94.813 60.3945 94.7153C60.6533 94.647 61.0439 94.5811 61.5664 94.5176C62.6309 94.3906 63.4146 94.2393 63.9175 94.0635C63.9224 93.8828 63.9248 93.7681 63.9248 93.7192C63.9248 93.1821 63.8003 92.8037 63.5513 92.584C63.2144 92.2861 62.7139 92.1372 62.0498 92.1372C61.4297 92.1372 60.9707 92.2471 60.6729 92.4668C60.3799 92.6816 60.1626 93.0649 60.021 93.6167L58.7319 93.4409C58.8491 92.8892 59.042 92.4448 59.3105 92.1079C59.5791 91.7661 59.9673 91.5049 60.4751 91.3242C60.9829 91.1387 61.5713 91.0459 62.2402 91.0459C62.9043 91.0459 63.4438 91.124 63.8589 91.2803C64.2739 91.4365 64.5791 91.6343 64.7744 91.8735C64.9697 92.1079 65.1064 92.4058 65.1846 92.7671C65.2285 92.9917 65.2505 93.397 65.2505 93.9829V95.7407C65.2505 96.9663 65.2773 97.7427 65.3311 98.0698C65.3896 98.3921 65.502 98.7021 65.668 99H64.291C64.1543 98.7266 64.0664 98.4067 64.0273 98.0405ZM63.9175 95.0962C63.439 95.2915 62.7212 95.4575 61.7642 95.5942C61.2222 95.6724 60.8389 95.7603 60.6143 95.8579C60.3896 95.9556 60.2163 96.0996 60.0942 96.29C59.9722 96.4756 59.9111 96.6831 59.9111 96.9126C59.9111 97.2642 60.043 97.5571 60.3066 97.7915C60.5752 98.0259 60.9658 98.1431 61.4785 98.1431C61.9863 98.1431 62.438 98.0332 62.8335 97.8135C63.229 97.5889 63.5195 97.2837 63.7051 96.8979C63.8467 96.6001 63.9175 96.1606 63.9175 95.5796V95.0962ZM63.1997 90.2549H62.1377L60.4458 88.2041H62.2109L63.1997 90.2549ZM67.3086 89.7788V88.2627H68.627V89.7788H67.3086ZM67.3086 99V91.2217H68.627V99H67.3086ZM74.8232 99V88.2627H76.1416V94.3857L79.2617 91.2217H80.9683L77.9946 94.1074L81.2686 99H79.6426L77.0718 95.0229L76.1416 95.9165V99H74.8232ZM82.3159 99V88.2627H83.6343V92.1152C84.2495 91.4023 85.0259 91.0459 85.9634 91.0459C86.5396 91.0459 87.04 91.1606 87.4648 91.3901C87.8896 91.6147 88.1924 91.9272 88.373 92.3276C88.5586 92.728 88.6514 93.3091 88.6514 94.0708V99H87.333V94.0708C87.333 93.4116 87.189 92.9331 86.9009 92.6353C86.6177 92.3325 86.2148 92.1812 85.6924 92.1812C85.3018 92.1812 84.9331 92.2837 84.5864 92.4888C84.2446 92.689 84.0005 92.9624 83.854 93.3091C83.7075 93.6558 83.6343 94.1343 83.6343 94.7446V99H82.3159ZM90.1748 95.1108C90.1748 93.6704 90.5752 92.6035 91.376 91.9102C92.0449 91.334 92.8604 91.0459 93.8223 91.0459C94.8916 91.0459 95.7656 91.3975 96.4443 92.1006C97.123 92.7988 97.4624 93.7656 97.4624 95.001C97.4624 96.002 97.311 96.7905 97.0083 97.3667C96.7104 97.938 96.2734 98.3823 95.6973 98.6997C95.126 99.0171 94.501 99.1758 93.8223 99.1758C92.7334 99.1758 91.8521 98.8267 91.1782 98.1284C90.5093 97.4302 90.1748 96.4243 90.1748 95.1108ZM91.5298 95.1108C91.5298 96.1069 91.7471 96.854 92.1816 97.3521C92.6162 97.8452 93.1631 98.0918 93.8223 98.0918C94.4766 98.0918 95.021 97.8428 95.4556 97.3447C95.8901 96.8467 96.1074 96.0874 96.1074 95.0669C96.1074 94.105 95.8877 93.3774 95.4482 92.8843C95.0137 92.3862 94.4717 92.1372 93.8223 92.1372C93.1631 92.1372 92.6162 92.3838 92.1816 92.877C91.7471 93.3701 91.5298 94.1147 91.5298 95.1108ZM104.091 98.0405C103.603 98.4556 103.131 98.7485 102.677 98.9194C102.228 99.0903 101.745 99.1758 101.227 99.1758C100.373 99.1758 99.7158 98.9683 99.2568 98.5532C98.7979 98.1333 98.5684 97.5986 98.5684 96.9492C98.5684 96.5684 98.6538 96.2217 98.8247 95.9092C99.0005 95.5918 99.2275 95.3379 99.5059 95.1475C99.7891 94.957 100.106 94.813 100.458 94.7153C100.717 94.647 101.107 94.5811 101.63 94.5176C102.694 94.3906 103.478 94.2393 103.981 94.0635C103.986 93.8828 103.988 93.7681 103.988 93.7192C103.988 93.1821 103.864 92.8037 103.615 92.584C103.278 92.2861 102.777 92.1372 102.113 92.1372C101.493 92.1372 101.034 92.2471 100.736 92.4668C100.443 92.6816 100.226 93.0649 100.084 93.6167L98.7954 93.4409C98.9126 92.8892 99.1055 92.4448 99.374 92.1079C99.6426 91.7661 100.031 91.5049 100.539 91.3242C101.046 91.1387 101.635 91.0459 102.304 91.0459C102.968 91.0459 103.507 91.124 103.922 91.2803C104.337 91.4365 104.643 91.6343 104.838 91.8735C105.033 92.1079 105.17 92.4058 105.248 92.7671C105.292 92.9917 105.314 93.397 105.314 93.9829V95.7407C105.314 96.9663 105.341 97.7427 105.395 98.0698C105.453 98.3921 105.565 98.7021 105.731 99H104.354C104.218 98.7266 104.13 98.4067 104.091 98.0405ZM103.981 95.0962C103.502 95.2915 102.785 95.4575 101.828 95.5942C101.286 95.6724 100.902 95.7603 100.678 95.8579C100.453 95.9556 100.28 96.0996 100.158 96.29C100.036 96.4756 99.9746 96.6831 99.9746 96.9126C99.9746 97.2642 100.106 97.5571 100.37 97.7915C100.639 98.0259 101.029 98.1431 101.542 98.1431C102.05 98.1431 102.501 98.0332 102.897 97.8135C103.292 97.5889 103.583 97.2837 103.769 96.8979C103.91 96.6001 103.981 96.1606 103.981 95.5796V95.0962ZM101.908 89.376C102.187 89.3467 102.365 89.3198 102.443 89.2954C102.702 89.2075 102.833 89.0708 102.838 88.8853C102.843 88.7729 102.775 88.6777 102.633 88.5996C102.428 88.4873 102.104 88.4312 101.659 88.4312C101.508 88.4312 101.278 88.4409 100.971 88.4604L100.89 87.7134C101.081 87.6743 101.432 87.6572 101.945 87.6621C102.545 87.667 103.036 87.7646 103.417 87.9551C103.837 88.1602 104.052 88.4458 104.062 88.812C104.081 89.4175 103.637 89.7764 102.729 89.8887V90.2549H101.908V89.376ZM107.365 99V91.2217H108.551V92.3276C109.123 91.4731 109.948 91.0459 111.027 91.0459C111.496 91.0459 111.925 91.1313 112.316 91.3022C112.711 91.4683 113.007 91.688 113.202 91.9614C113.397 92.2349 113.534 92.5596 113.612 92.9355C113.661 93.1797 113.686 93.6069 113.686 94.2173V99H112.367V94.2686C112.367 93.7314 112.316 93.3311 112.213 93.0674C112.111 92.7988 111.928 92.5864 111.664 92.4302C111.405 92.269 111.1 92.1885 110.749 92.1885C110.187 92.1885 109.701 92.3667 109.291 92.7231C108.886 93.0796 108.683 93.7559 108.683 94.752V99H107.365ZM33.1851 116V105.263H34.5034V111.386L37.6235 108.222H39.3301L36.3564 111.107L39.6304 116H38.0044L35.4336 112.023L34.5034 112.917V116H33.1851ZM40.6777 116V105.263H41.9961V109.115C42.6113 108.402 43.3877 108.046 44.3252 108.046C44.9014 108.046 45.4019 108.161 45.8267 108.39C46.2515 108.615 46.5542 108.927 46.7349 109.328C46.9204 109.728 47.0132 110.309 47.0132 111.071V116H45.6948V111.071C45.6948 110.412 45.5508 109.933 45.2627 109.635C44.9795 109.333 44.5767 109.181 44.0542 109.181C43.6636 109.181 43.2949 109.284 42.9482 109.489C42.6064 109.689 42.3623 109.962 42.2158 110.309C42.0693 110.656 41.9961 111.134 41.9961 111.745V116H40.6777ZM54.103 115.041C53.6147 115.456 53.1436 115.749 52.6895 115.919C52.2402 116.09 51.7568 116.176 51.2393 116.176C50.3848 116.176 49.728 115.968 49.269 115.553C48.8101 115.133 48.5806 114.599 48.5806 113.949C48.5806 113.568 48.666 113.222 48.8369 112.909C49.0127 112.592 49.2397 112.338 49.5181 112.147C49.8013 111.957 50.1187 111.813 50.4702 111.715C50.729 111.647 51.1196 111.581 51.6421 111.518C52.7065 111.391 53.4902 111.239 53.9932 111.063C53.998 110.883 54.0005 110.768 54.0005 110.719C54.0005 110.182 53.876 109.804 53.627 109.584C53.29 109.286 52.7896 109.137 52.1255 109.137C51.5054 109.137 51.0464 109.247 50.7485 109.467C50.4556 109.682 50.2383 110.065 50.0967 110.617L48.8076 110.441C48.9248 109.889 49.1177 109.445 49.3862 109.108C49.6548 108.766 50.043 108.505 50.5508 108.324C51.0586 108.139 51.647 108.046 52.3159 108.046C52.98 108.046 53.5195 108.124 53.9346 108.28C54.3496 108.437 54.6548 108.634 54.8501 108.874C55.0454 109.108 55.1821 109.406 55.2603 109.767C55.3042 109.992 55.3262 110.397 55.3262 110.983V112.741C55.3262 113.966 55.353 114.743 55.4067 115.07C55.4653 115.392 55.5776 115.702 55.7437 116H54.3667C54.23 115.727 54.1421 115.407 54.103 115.041ZM53.9932 112.096C53.5146 112.292 52.7969 112.458 51.8398 112.594C51.2979 112.672 50.9146 112.76 50.6899 112.858C50.4653 112.956 50.292 113.1 50.1699 113.29C50.0479 113.476 49.9868 113.683 49.9868 113.913C49.9868 114.264 50.1187 114.557 50.3823 114.792C50.6509 115.026 51.0415 115.143 51.5542 115.143C52.062 115.143 52.5137 115.033 52.9092 114.813C53.3047 114.589 53.5952 114.284 53.7808 113.898C53.9224 113.6 53.9932 113.161 53.9932 112.58V112.096ZM51.4297 107.255L52.4038 105.204H54.1323L52.521 107.255H51.4297ZM62.4526 113.151L63.749 113.319C63.6074 114.213 63.2437 114.914 62.6577 115.421C62.0767 115.924 61.3613 116.176 60.5117 116.176C59.4473 116.176 58.5903 115.829 57.9409 115.136C57.2964 114.438 56.9741 113.439 56.9741 112.14C56.9741 111.3 57.1133 110.565 57.3916 109.936C57.6699 109.306 58.0923 108.834 58.6587 108.522C59.23 108.205 59.8501 108.046 60.519 108.046C61.3638 108.046 62.0547 108.261 62.5918 108.69C63.1289 109.115 63.4731 109.721 63.6245 110.507L62.3428 110.705C62.2207 110.182 62.0034 109.789 61.6909 109.525C61.3833 109.262 61.0098 109.13 60.5703 109.13C59.9062 109.13 59.3667 109.369 58.9517 109.848C58.5366 110.321 58.3291 111.073 58.3291 112.104C58.3291 113.148 58.5293 113.908 58.9297 114.381C59.3301 114.855 59.8525 115.092 60.4971 115.092C61.0146 115.092 61.4468 114.933 61.7935 114.616C62.1401 114.298 62.3599 113.81 62.4526 113.151ZM64.877 116V105.263H66.1953V109.115C66.8105 108.402 67.5869 108.046 68.5244 108.046C69.1006 108.046 69.6011 108.161 70.0259 108.39C70.4507 108.615 70.7534 108.927 70.9341 109.328C71.1196 109.728 71.2124 110.309 71.2124 111.071V116H69.894V111.071C69.894 110.412 69.75 109.933 69.4619 109.635C69.1787 109.333 68.7759 109.181 68.2534 109.181C67.8628 109.181 67.4941 109.284 67.1475 109.489C66.8057 109.689 66.5615 109.962 66.415 110.309C66.2686 110.656 66.1953 111.134 66.1953 111.745V116H64.877ZM77.4014 116V105.263H78.7197V109.115C79.335 108.402 80.1113 108.046 81.0488 108.046C81.625 108.046 82.1255 108.161 82.5503 108.39C82.9751 108.615 83.2778 108.927 83.4585 109.328C83.644 109.728 83.7368 110.309 83.7368 111.071V116H82.4185V111.071C82.4185 110.412 82.2744 109.933 81.9863 109.635C81.7031 109.333 81.3003 109.181 80.7778 109.181C80.3872 109.181 80.0186 109.284 79.6719 109.489C79.3301 109.689 79.0859 109.962 78.9395 110.309C78.793 110.656 78.7197 111.134 78.7197 111.745V116H77.4014ZM90.8267 115.041C90.3384 115.456 89.8672 115.749 89.4131 115.919C88.9639 116.09 88.4805 116.176 87.9629 116.176C87.1084 116.176 86.4517 115.968 85.9927 115.553C85.5337 115.133 85.3042 114.599 85.3042 113.949C85.3042 113.568 85.3896 113.222 85.5605 112.909C85.7363 112.592 85.9634 112.338 86.2417 112.147C86.5249 111.957 86.8423 111.813 87.1938 111.715C87.4526 111.647 87.8433 111.581 88.3657 111.518C89.4302 111.391 90.2139 111.239 90.7168 111.063C90.7217 110.883 90.7241 110.768 90.7241 110.719C90.7241 110.182 90.5996 109.804 90.3506 109.584C90.0137 109.286 89.5132 109.137 88.8491 109.137C88.229 109.137 87.77 109.247 87.4722 109.467C87.1792 109.682 86.9619 110.065 86.8203 110.617L85.5312 110.441C85.6484 109.889 85.8413 109.445 86.1099 109.108C86.3784 108.766 86.7666 108.505 87.2744 108.324C87.7822 108.139 88.3706 108.046 89.0396 108.046C89.7036 108.046 90.2432 108.124 90.6582 108.28C91.0732 108.437 91.3784 108.634 91.5737 108.874C91.769 109.108 91.9058 109.406 91.9839 109.767C92.0278 109.992 92.0498 110.397 92.0498 110.983V112.741C92.0498 113.966 92.0767 114.743 92.1304 115.07C92.189 115.392 92.3013 115.702 92.4673 116H91.0903C90.9536 115.727 90.8657 115.407 90.8267 115.041ZM90.7168 112.096C90.2383 112.292 89.5205 112.458 88.5635 112.594C88.0215 112.672 87.6382 112.76 87.4136 112.858C87.189 112.956 87.0156 113.1 86.8936 113.29C86.7715 113.476 86.7104 113.683 86.7104 113.913C86.7104 114.264 86.8423 114.557 87.106 114.792C87.3745 115.026 87.7651 115.143 88.2778 115.143C88.7856 115.143 89.2373 115.033 89.6328 114.813C90.0283 114.589 90.3188 114.284 90.5044 113.898C90.646 113.6 90.7168 113.161 90.7168 112.58V112.096ZM89.999 107.255H88.937L87.2451 105.204H89.0103L89.999 107.255ZM94.1006 116V108.222H95.2871V109.328C95.8584 108.473 96.6836 108.046 97.7627 108.046C98.2314 108.046 98.6611 108.131 99.0518 108.302C99.4473 108.468 99.7427 108.688 99.938 108.961C100.133 109.235 100.27 109.56 100.348 109.936C100.397 110.18 100.421 110.607 100.421 111.217V116H99.103V111.269C99.103 110.731 99.0518 110.331 98.9492 110.067C98.8467 109.799 98.6636 109.586 98.3999 109.43C98.1411 109.269 97.8359 109.188 97.4844 109.188C96.9229 109.188 96.437 109.367 96.0269 109.723C95.6216 110.08 95.4189 110.756 95.4189 111.752V116H94.1006ZM102.208 116.645L103.49 116.835C103.544 117.23 103.693 117.519 103.937 117.699C104.264 117.943 104.711 118.065 105.277 118.065C105.888 118.065 106.359 117.943 106.691 117.699C107.023 117.455 107.248 117.113 107.365 116.674C107.433 116.405 107.465 115.841 107.46 114.982C106.884 115.661 106.166 116 105.307 116C104.237 116 103.41 115.614 102.824 114.843C102.238 114.071 101.945 113.146 101.945 112.067C101.945 111.325 102.079 110.641 102.348 110.016C102.616 109.386 103.004 108.9 103.512 108.559C104.025 108.217 104.625 108.046 105.314 108.046C106.232 108.046 106.989 108.417 107.584 109.159V108.222H108.8V114.945C108.8 116.156 108.676 117.013 108.427 117.516C108.183 118.024 107.792 118.424 107.255 118.717C106.723 119.01 106.066 119.157 105.285 119.157C104.357 119.157 103.607 118.947 103.036 118.527C102.465 118.112 102.189 117.484 102.208 116.645ZM103.3 111.972C103.3 112.992 103.502 113.737 103.908 114.206C104.313 114.674 104.821 114.909 105.431 114.909C106.037 114.909 106.544 114.677 106.955 114.213C107.365 113.744 107.57 113.012 107.57 112.016C107.57 111.063 107.357 110.346 106.933 109.862C106.513 109.379 106.005 109.137 105.409 109.137C104.823 109.137 104.325 109.376 103.915 109.855C103.505 110.329 103.3 111.034 103.3 111.972Z" fill="white"/>
<path d="M87.499 33.0625V42.8625L88.5928 41.7688H55.5451C54.3912 41.7688 53.2811 42.3157 52.7123 43.3493C52.3295 44.0383 52.3131 44.7547 52.3131 45.5039V60.2313L53.4068 59.1375H48.485C48.4686 59.1375 48.2553 59.1375 48.2553 59.1266L48.4029 59.143C48.3537 59.1321 48.31 59.1211 48.2607 59.1102C48.217 59.0993 48.1678 59.0828 48.124 59.0664C48.0146 59.0227 48.0365 59.0336 48.1842 59.0993C48.1842 59.1047 48.0092 59.0063 47.9982 59.0008C47.774 58.8696 47.9982 59.0063 47.9873 59.0118C47.9764 59.0227 47.6811 58.7274 47.692 58.7164C47.7193 58.6891 47.8232 58.9188 47.7412 58.7657C47.7084 58.7055 47.6701 58.6399 47.6373 58.5797C47.517 58.3719 47.6975 58.8094 47.6373 58.5797C47.6318 58.5578 47.5553 58.3008 47.5662 58.3008L47.5826 58.4485C47.5771 58.3993 47.5717 58.35 47.5717 58.3008C47.5662 58.2078 47.5717 58.2516 47.5717 58.2243V58.1586C47.5607 56.2664 47.5717 54.3688 47.5717 52.4766V32.9914C47.5717 32.9641 47.5771 32.9422 47.5771 32.9149C47.5881 32.7946 47.5881 32.8164 47.5662 32.986C47.5607 32.986 47.6318 32.7289 47.6373 32.7071C47.517 32.9094 47.6975 32.4719 47.6373 32.7071C47.6756 32.6469 47.7084 32.5868 47.7412 32.5211C47.8561 32.3133 47.5717 32.6907 47.7412 32.5157C47.7904 32.4664 47.8342 32.4118 47.8889 32.3625C48.0748 32.1875 47.8889 32.3625 47.8834 32.3571C47.8779 32.3516 48.0475 32.2532 48.0639 32.2422C48.2936 32.1164 48.0584 32.2368 48.0584 32.2313C48.0584 32.2204 48.2334 32.1711 48.2662 32.1657C48.2881 32.1602 48.3154 32.1547 48.3373 32.1493C48.4576 32.1274 48.4303 32.1274 48.2607 32.1547C48.2607 32.1438 48.4686 32.1438 48.485 32.1438H82.8506C84.0975 32.1438 85.3443 32.1274 86.5912 32.1438C86.6185 32.1438 86.8209 32.1383 86.8209 32.1547C86.8264 32.1821 86.5584 32.0836 86.7826 32.1602C86.8373 32.1766 86.8975 32.193 86.9576 32.2094C86.7553 32.0891 87.1928 32.2696 86.9576 32.2094C87.0178 32.2477 87.0779 32.2805 87.1436 32.3133C87.3514 32.4282 86.974 32.1438 87.149 32.3133C87.1982 32.3625 87.2529 32.4063 87.3021 32.461C87.4771 32.6469 87.3021 32.461 87.3076 32.4555C87.3131 32.45 87.4115 32.6196 87.4225 32.636C87.5482 32.8657 87.4279 32.6305 87.4334 32.6305C87.4443 32.6305 87.4936 32.8219 87.499 32.8383C87.5045 32.8602 87.51 32.8875 87.5154 32.9094C87.5373 33.0297 87.5373 33.0024 87.51 32.8329C87.499 32.8383 87.499 33.0461 87.499 33.0625C87.51 33.6368 87.9967 34.1836 88.5928 34.1563C89.1779 34.1289 89.6975 33.675 89.6865 33.0625C89.6537 31.3563 88.292 29.9836 86.5803 29.9563H49.6006C49.2232 29.9563 48.8514 29.9508 48.474 29.9563C47.1123 29.9782 45.9475 30.8368 45.51 32.1219C45.3787 32.4993 45.3623 32.8985 45.3623 33.2922V58.2024C45.3787 59.5422 46.2045 60.6907 47.4568 61.15C48.0857 61.3797 48.7912 61.3196 49.4475 61.3196H53.3959C53.9865 61.3196 54.4896 60.8164 54.4896 60.2258V49.5125C54.4896 47.9977 54.4842 46.4883 54.4896 44.9735V44.8313C54.4896 44.7821 54.4951 44.7329 54.5006 44.6836C54.5061 44.536 54.4404 44.8914 54.4951 44.7547C54.5279 44.6727 54.5553 44.5633 54.5717 44.4758C54.599 44.3391 54.4678 44.6563 54.5443 44.5414C54.5771 44.4922 54.599 44.4375 54.6264 44.3883C54.6209 44.3993 54.7029 44.268 54.7029 44.268C54.7248 44.2789 54.5443 44.443 54.6592 44.3227L54.8561 44.1258C55.0037 43.9836 54.8068 44.175 54.8014 44.1696C54.8014 44.1696 54.9053 44.1039 54.9217 44.093C54.96 44.0711 55.0037 44.0493 55.0475 44.0219C54.8287 44.0821 55.2443 43.9071 55.0475 44.0219C55.0639 44.0164 55.3264 43.9399 55.3264 43.9508C55.3264 43.9672 55.0365 43.9672 55.2553 43.9618C55.3045 43.9618 55.3537 43.9563 55.4029 43.9563H55.4139C55.6271 43.9508 55.8404 43.9563 56.0537 43.9563H88.5873C89.1779 43.9563 89.681 43.4532 89.681 42.8625V33.0625C89.681 32.4883 89.1779 31.9414 88.5873 31.9688C88.0021 31.9961 87.499 32.45 87.499 33.0625Z" fill="white"/>
<path d="M46.4619 38.8922H86.8815C87.4283 38.8922 87.9807 38.9031 88.5275 38.8922H88.5986C89.1729 38.8922 89.7197 38.3891 89.6924 37.7984C89.665 37.2078 89.2111 36.7047 88.5986 36.7047H48.1791C47.6322 36.7047 47.0799 36.6938 46.533 36.7047H46.4619C45.8877 36.7047 45.3408 37.2078 45.3682 37.7984C45.3955 38.3945 45.8494 38.8922 46.4619 38.8922ZM94.4447 44.875V68.932C94.4447 68.9594 94.4447 69.1617 94.4338 69.1672C94.4119 69.1727 94.4994 68.8828 94.4393 69.0906C94.4174 69.1563 94.401 69.2273 94.3791 69.2984C94.319 69.5172 94.4775 69.1617 94.3955 69.2656C94.3518 69.3258 94.308 69.4133 94.2752 69.4789C94.1658 69.6758 94.4065 69.3641 94.2971 69.457C94.2533 69.4953 94.2205 69.5445 94.1768 69.5883C94.1658 69.5992 94.0291 69.7359 94.0182 69.7305C93.9908 69.7031 94.2205 69.5992 94.0674 69.6813C94.0072 69.7141 93.9416 69.7523 93.8815 69.7852C93.6791 69.9055 94.1111 69.725 93.8815 69.7852C93.8377 69.7961 93.7885 69.8125 93.7447 69.8289C93.6955 69.8398 93.6518 69.8508 93.6025 69.8617C93.7721 69.8399 93.7939 69.8399 93.6736 69.8508C92.7057 69.8617 91.7377 69.8563 90.7697 69.8563H58.3455C57.3666 69.8563 56.3877 69.8727 55.4143 69.8563H55.3377C55.3104 69.8563 55.2885 69.8508 55.2611 69.8508C55.1408 69.8399 55.1627 69.8399 55.3322 69.8617C55.3322 69.8672 55.1354 69.8125 55.119 69.8125C55.1025 69.807 54.9822 69.7688 54.9822 69.7688C54.9822 69.7633 55.2119 69.8836 54.9877 69.7578C54.9494 69.7359 54.9057 69.7086 54.8674 69.6867C54.769 69.6211 54.7908 69.6375 54.9166 69.7359C54.8783 69.7086 54.8455 69.6758 54.8127 69.643C54.769 69.6047 54.7307 69.5609 54.6924 69.5172C54.5338 69.3586 54.7307 69.5336 54.7088 69.5445C54.6979 69.55 54.5283 69.2438 54.5338 69.2383C54.5447 69.2328 54.6158 69.4844 54.5447 69.2328C54.5393 69.2164 54.49 69.0195 54.4955 69.0195C54.5119 69.0195 54.5119 69.3094 54.5065 69.0906C54.5065 69.0305 54.501 69.0031 54.501 68.9375V49.2992C54.501 47.8281 54.4791 46.3516 54.501 44.8805V44.875C54.501 44.8477 54.4955 44.9188 54.501 44.7984C54.501 44.7711 54.5065 44.7492 54.5065 44.7219C54.5174 44.6016 54.5174 44.6234 54.4955 44.793C54.501 44.793 54.5666 44.443 54.594 44.4484C54.5994 44.4484 54.4791 44.6781 54.6049 44.4539C54.6104 44.4484 54.7088 44.2734 54.7197 44.2734C54.7252 44.2789 54.5502 44.4648 54.7252 44.2789C54.7635 44.2352 54.8072 44.1969 54.851 44.1586C55.0096 44 54.8346 44.1969 54.8236 44.175C54.8182 44.1695 54.9877 44.0711 55.0041 44.0602C55.0205 44.0492 55.1299 43.9945 55.1299 43.9945C55.1354 44.0055 54.8838 44.0766 55.1354 44.0055C55.19 43.9891 55.2611 43.9836 55.3104 43.9617C55.3924 43.9453 55.3596 43.9508 55.201 43.9727C55.2502 43.9672 55.2994 43.9617 55.3486 43.9617C55.4361 43.9563 55.5236 43.9617 55.6057 43.9617H93.608C93.6354 43.9617 93.6572 43.9672 93.6846 43.9672C93.783 43.9781 93.783 43.9781 93.6846 43.9672C93.6627 43.9617 93.6354 43.9617 93.6135 43.9563C93.6627 43.9672 93.7064 43.9781 93.7557 43.9891C93.7721 43.9945 93.9635 44.0438 93.9635 44.0547C93.958 44.0875 93.7502 43.9453 93.8979 44.0328C93.958 44.0711 94.0182 44.1039 94.0838 44.1367C94.2916 44.2516 93.9197 43.9672 94.0893 44.1367C94.1166 44.1641 94.3463 44.3719 94.3354 44.3883C94.3135 44.4102 94.2041 44.1641 94.308 44.3664C94.3354 44.4156 94.3682 44.4703 94.3955 44.5195C94.3354 44.2898 94.5158 44.7219 94.3955 44.5195C94.4064 44.5633 94.4229 44.6125 94.4393 44.6563C94.4447 44.6781 94.4502 44.7055 94.4557 44.7273C94.4775 44.8477 94.4775 44.8203 94.4502 44.6508C94.4447 44.6508 94.4447 44.8586 94.4447 44.875C94.4557 45.4492 94.9424 45.9961 95.5385 45.9688C96.1236 45.9414 96.6432 45.4875 96.6322 44.875C96.6049 43.4477 95.5986 42.0969 94.1494 41.8398C93.8869 41.7906 93.6354 41.7742 93.3729 41.7742H55.5565C55.2611 41.7742 54.9713 41.7961 54.6869 41.8617C53.2979 42.1734 52.3354 43.4805 52.3135 44.8805C52.308 45.2797 52.3135 45.6734 52.3135 46.0727V68.6641C52.3135 68.8063 52.308 68.9484 52.319 69.0906C52.4338 70.6383 53.5768 71.8414 55.119 72.0219C55.4471 72.0602 55.7861 72.0438 56.1143 72.0438H92.8916C93.3729 72.0438 93.8541 72.0656 94.3299 71.9398C95.6861 71.5844 96.6104 70.3211 96.6322 68.9375V44.875C96.6322 44.3008 96.1291 43.7539 95.5385 43.7813C94.9479 43.8086 94.4447 44.2625 94.4447 44.875Z" fill="white"/>
<path d="M59.4229 64.4969H63.2127C63.7869 64.4969 64.3338 63.9938 64.3065 63.4032C64.2791 62.8125 63.8252 62.3094 63.2127 62.3094H59.4229C58.8486 62.3094 58.3018 62.8125 58.3291 63.4032C58.3565 63.9938 58.8104 64.4969 59.4229 64.4969ZM65.783 55.4024H60.6861C60.5658 55.4078 60.615 55.4407 60.6752 55.4133C60.7408 55.3805 60.7682 55.4352 60.6752 55.4078C60.6861 55.4078 60.5385 55.375 60.533 55.3641C60.533 55.3203 60.7463 55.4844 60.5986 55.3805C60.4291 55.2602 60.6424 55.4297 60.6479 55.4297C60.6424 55.4352 60.5385 55.3258 60.544 55.3313C60.4127 55.2164 60.626 55.3696 60.5822 55.386C60.5768 55.386 60.5275 55.2985 60.5275 55.293C60.4729 55.1727 60.5877 55.5172 60.5385 55.3203C60.5385 55.3313 60.5002 55.1782 60.5057 55.1782C60.5385 55.1618 60.5166 55.4243 60.5221 55.2438V50.3766C60.5221 50.3 60.5275 50.218 60.5221 50.1414C60.5221 50.125 60.533 50.0703 60.5221 50.0594C60.5713 50.1196 60.4729 50.2782 60.5166 50.1305C60.5111 50.1414 60.5494 49.9883 60.5604 49.9883C60.5549 49.9883 60.4565 50.2454 60.544 50.0539C60.6205 49.8954 60.5221 50.1414 60.4947 50.1032C60.4893 50.0977 60.5986 49.9938 60.5932 49.9993C60.7135 49.868 60.544 50.0485 60.5385 50.0375C60.544 50.043 60.6588 49.9555 60.6643 49.9664C60.6916 50.0102 60.4291 50.0321 60.6041 49.9938C60.6315 49.9883 60.7354 49.9719 60.7463 49.961C60.719 49.9828 60.4838 49.9719 60.6807 49.9774H65.4385C65.5424 49.9774 65.6518 49.9828 65.7557 49.9774C65.783 49.9774 65.8486 49.9883 65.865 49.9774C65.7885 50.0375 65.6518 49.9227 65.794 49.9719C65.8213 49.9829 65.9143 50.0157 65.9361 50.0157C65.9033 50.0211 65.7119 49.9008 65.8705 49.9993C66.0182 50.0922 65.8268 49.95 65.8213 49.95C65.8268 49.9446 65.9088 50.0375 65.9252 50.0485C66.0838 50.1907 65.8705 50.0047 65.8869 49.9938C65.8815 49.9938 65.969 50.1141 65.958 50.1196C65.9416 50.1305 65.8815 49.8461 65.9307 50.0594C65.9361 50.0868 65.9525 50.1852 65.9635 50.2016C65.9525 50.1852 65.958 49.9828 65.9416 50.0977V50.1469C65.9361 50.2344 65.9416 50.3274 65.9416 50.4149V55.2438C65.9416 55.2711 65.9307 55.3149 65.9416 55.3258C65.9197 55.3039 66.0127 55.0633 65.9471 55.2547C65.9416 55.2766 65.9361 55.3039 65.9252 55.3258C65.8924 55.4188 65.8924 55.4188 65.9252 55.3313C65.9635 55.3149 65.9744 55.2383 65.9143 55.3313C65.8049 55.5118 65.958 55.2821 65.9635 55.2821C65.969 55.2875 65.876 55.3696 65.865 55.386C65.7502 55.5172 65.9033 55.3039 65.9197 55.3477C65.9252 55.3586 65.7885 55.4133 65.794 55.4188C65.783 55.4024 66.0619 55.3422 65.8541 55.3914C65.8213 55.4024 65.783 55.4078 65.7447 55.4188C65.6025 55.4571 66.0346 55.3914 65.783 55.4024C65.2143 55.4188 64.6619 55.8946 64.6893 56.4961C64.7166 57.0758 65.1705 57.6063 65.783 57.5899C67.0846 57.5516 68.0963 56.5453 68.1291 55.2438C68.1346 54.9813 68.1291 54.7188 68.1291 54.4563V51.0493C68.1291 50.7485 68.1346 50.4477 68.1291 50.1469C68.1072 49.0586 67.3416 48.0086 66.226 47.8336C65.865 47.7789 65.515 47.7844 65.1541 47.7844H63.5299C62.5947 47.7844 61.6596 47.7789 60.7244 47.7844C59.7018 47.7954 58.8104 48.4024 58.4604 49.3704C58.3182 49.7696 58.3291 50.1852 58.3291 50.6063V55.1289C58.3291 55.9875 58.7119 56.7914 59.4611 57.2508C59.9479 57.5461 60.4783 57.5899 61.0252 57.5899H65.783C66.3572 57.5899 66.9041 57.0868 66.8768 56.4961C66.8494 55.9 66.3955 55.4024 65.783 55.4024ZM67.369 64.4969H71.1588C71.733 64.4969 72.2799 63.9938 72.2525 63.4032C72.2252 62.8125 71.7713 62.3094 71.1588 62.3094H67.369C66.7947 62.3094 66.2479 62.8125 66.2752 63.4032C66.3025 63.9938 66.7565 64.4969 67.369 64.4969ZM75.315 64.5516H79.1049C79.6791 64.5516 80.226 64.0485 80.1986 63.4578C80.1713 62.8672 79.7174 62.3641 79.1049 62.3641H75.315C74.7408 62.3641 74.194 62.8672 74.2213 63.4578C74.2486 64.0485 74.7025 64.5516 75.315 64.5516ZM83.2611 64.5516H87.051C87.6252 64.5516 88.1721 64.0485 88.1447 63.4578C88.1174 62.8672 87.6635 62.3641 87.051 62.3641H83.2611C82.6869 62.3641 82.14 62.8672 82.1674 63.4578C82.1947 64.0485 82.6486 64.5516 83.2611 64.5516Z" fill="white"/>
</g>
<defs>
<filter id="filter0_d_1544_17178" x="0" y="0" width="142" height="142" filterUnits="userSpaceOnUse" color-interpolation-filters="sRGB">
<feFlood flood-opacity="0" result="BackgroundImageFix"/>
<feColorMatrix in="SourceAlpha" type="matrix" values="0 0 0 0 0 0 0 0 0 0 0 0 0 0 0 0 0 0 127 0" result="hardAlpha"/>
<feOffset dy="4"/>
<feGaussianBlur stdDeviation="2"/>
<feComposite in2="hardAlpha" operator="out"/>
<feColorMatrix type="matrix" values="0 0 0 0 0 0 0 0 0 0 0 0 0 0 0 0 0 0 0.25 0"/>
<feBlend mode="normal" in2="BackgroundImageFix" result="effect1_dropShadow_1544_17178"/>
<feBlend mode="normal" in="SourceGraphic" in2="effect1_dropShadow_1544_17178" result="shape"/>
</filter>
<linearGradient id="paint0_linear_1544_17178" x1="9.5" y1="5.5" x2="44" y2="45.5" gradientUnits="userSpaceOnUse">
<stop stop-color="#7AB93C" stop-opacity="0.8"/>
<stop offset="1" stop-color="#2C8D31"/>
</linearGradient>
<linearGradient id="paint1_linear_1544_17178" x1="9.93903" y1="-5.37277" x2="133" y2="127" gradientUnits="userSpaceOnUse">
<stop stop-color="#85CA75"/>
<stop offset="1" stop-color="#126F2E"/>
<stop offset="1" stop-color="#737373"/>
</linearGradient>
</defs>
</svg>
