<svg width="142" height="142" viewBox="0 0 142 142" fill="none" xmlns="http://www.w3.org/2000/svg">
<g filter="url(#filter0_d_266_924)">
<rect x="2" y="2" width="134" height="134" rx="20" fill="url(#paint0_linear_266_924)" fill-opacity="0.7"/>
<path fill-rule="evenodd" clip-rule="evenodd" d="M18.5 59C38.1061 59 54 43.1061 54 23.5C54 15.4182 51.2993 7.96708 46.7513 2H116C127.046 2 136 10.9543 136 22V116C136 127.046 127.046 136 116 136H22C10.9543 136 2 127.046 2 116V54.9406C6.92964 57.533 12.5435 59 18.5 59Z" fill="url(#paint1_linear_266_924)"/>
<circle cx="29" cy="44" r="2" fill="#83B875"/>
<circle cx="94.5" cy="22.5" r="2.5" fill="#6CA66C"/>
<circle cx="66.5" cy="36.5" r="2.5" fill="#418D54"/>
<g clip-path="url(#clip0_266_924)">
<path fill-rule="evenodd" clip-rule="evenodd" d="M70.1082 36.2397C70.1592 37.0571 70.0434 37.8763 69.7679 38.6475C69.4923 39.4188 69.0627 40.1259 68.5053 40.7259C67.9479 41.3259 67.2742 41.8062 66.5253 42.1377C65.7764 42.4692 64.9678 42.6448 64.1489 42.654C62.399 42.6709 60.7095 42.0144 59.4301 40.8205C58.1506 39.6266 57.379 37.9866 57.2749 36.2397V32H70.1082V36.2373V36.2397Z" stroke="white" stroke-width="2"/>
<path d="M46.4553 68.7197V59.8367C46.4571 55.9958 47.7416 52.2655 50.1049 49.2377C52.4682 46.21 55.775 44.0582 59.5005 43.1239C63.2261 42.1896 67.1569 42.5262 70.6693 44.0804C74.1818 45.6345 77.0745 48.3172 78.8887 51.7027" stroke="white" stroke-width="2"/>
<path d="M80.9303 74.9614H46.4506C45.6226 74.9614 44.8285 74.6325 44.243 74.047C43.6575 73.4615 43.3286 72.6674 43.3286 71.8394C43.3286 71.0114 43.6575 70.2173 44.243 69.6318C44.8285 69.0463 45.6226 68.7174 46.4506 68.7174H52.2559M61.5473 63.4417V65.9197M61.5473 49.6331V52.1111M58.5139 60.0187V61.0221C58.5139 61.6634 58.7686 62.2785 59.2218 62.7322C59.6751 63.1859 60.2899 63.4411 60.9313 63.4417H62.1703C62.8104 63.4393 63.4235 63.1832 63.8752 62.7297C64.327 62.2762 64.5806 61.6622 64.5806 61.0221V60.3477C64.5808 59.9208 64.4519 59.5038 64.2108 59.1515C63.9696 58.7992 63.6276 58.5281 63.2296 58.3737L59.8556 57.0647C59.4576 56.9097 59.1157 56.638 58.8746 56.2854C58.6336 55.9327 58.5046 55.5155 58.5046 55.0884V54.5914C58.5046 53.9501 58.7592 53.335 59.2125 52.8813C59.6658 52.4275 60.2806 52.1723 60.9219 52.1717H62.1609C62.4787 52.1717 62.7933 52.2343 63.0869 52.3559C63.3805 52.4775 63.6472 52.6557 63.8719 52.8804C64.0966 53.1051 64.2748 53.3719 64.3964 53.6654C64.518 53.959 64.5806 54.2736 64.5806 54.5914" stroke="white" stroke-width="2"/>
<path fill-rule="evenodd" clip-rule="evenodd" d="M86.3927 65.0401H82.1227V69.3101H78.926V65.0401H74.656V61.8457H78.9283V57.5757H82.1227V61.8481H86.3927V65.0401ZM80.5243 50.55C77.9753 50.5505 75.4836 51.3068 73.3643 52.7233C71.245 54.1397 69.5933 56.1528 68.618 58.5079C67.6428 60.863 67.3877 63.4545 67.8851 65.9545C68.3825 68.4546 69.6101 70.7511 71.4125 72.5535C73.215 74.356 75.5114 75.5835 78.0115 76.0809C80.5116 76.5783 83.103 76.3233 85.4581 75.348C87.8132 74.3727 89.8263 72.721 91.2428 70.6018C92.6593 68.4825 93.4155 65.9908 93.416 63.4417C93.4163 61.7487 93.0831 60.0722 92.4353 58.5079C91.7875 56.9437 90.838 55.5224 89.6408 54.3252C88.4436 53.1281 87.0224 52.1785 85.4581 51.5307C83.8939 50.883 82.2174 50.5497 80.5243 50.55Z" fill="white"/>
</g>
<path d="M28.9072 102V91.2627H31.0459L33.5874 98.8652C33.8218 99.5732 33.9927 100.103 34.1001 100.455C34.2222 100.064 34.4126 99.4902 34.6714 98.7334L37.2422 91.2627H39.1538V102H37.7842V93.0132L34.6641 102H33.3823L30.2769 92.8594V102H28.9072ZM42.1421 98.1108C42.1421 99.0728 42.3594 99.8174 42.7939 100.345C43.2041 100.843 43.751 101.092 44.4346 101.092C45.1182 101.092 45.6626 100.843 46.0679 100.345C46.5024 99.8125 46.7197 99.0532 46.7197 98.0669C46.7197 97.1343 46.5 96.4067 46.0605 95.8843C45.6504 95.3862 45.1084 95.1372 44.4346 95.1372C43.7461 95.1372 43.1992 95.3838 42.7939 95.877C42.3594 96.4043 42.1421 97.1489 42.1421 98.1108ZM48.2505 95.562V94.0312H49.6641V95.2397C49.6641 95.8452 49.5713 96.3091 49.3857 96.6313C49.1465 97.0513 48.7095 97.437 48.0747 97.7886C48.0747 97.8569 48.0747 97.9277 48.0747 98.001C48.0747 99.8174 47.4888 101.05 46.3169 101.7C45.7407 102.017 45.1133 102.176 44.4346 102.176C43.3213 102.176 42.4399 101.827 41.7905 101.128C41.1216 100.406 40.7871 99.3999 40.7871 98.1108C40.7871 96.6704 41.1875 95.6035 41.9883 94.9102C42.6572 94.334 43.4727 94.0459 44.4346 94.0459C45.5039 94.0459 46.3779 94.395 47.0566 95.0933C47.5693 95.6255 47.8892 96.3115 48.0161 97.1514C48.3481 96.9463 48.585 96.7339 48.7266 96.5142C48.873 96.2944 48.9438 95.9771 48.939 95.562H48.2505ZM44.0977 92.376C44.376 92.3467 44.5542 92.3198 44.6323 92.2954C44.8911 92.2075 45.0229 92.0708 45.0278 91.8853C45.0327 91.7729 44.9644 91.6777 44.8228 91.5996C44.6177 91.4873 44.293 91.4312 43.8486 91.4312C43.6973 91.4312 43.4678 91.4409 43.1602 91.4604L43.0796 90.7134C43.27 90.6743 43.6216 90.6572 44.1343 90.6621C44.7349 90.667 45.2256 90.7646 45.6064 90.9551C46.0264 91.1602 46.2412 91.4458 46.251 91.812C46.2705 92.4175 45.8262 92.7764 44.918 92.8887V93.2549H44.0977V92.376ZM58.1748 100.821L58.3652 101.985C57.9941 102.063 57.6621 102.103 57.3691 102.103C56.8906 102.103 56.5195 102.027 56.2559 101.875C55.9922 101.724 55.8066 101.526 55.6992 101.282C55.5918 101.033 55.5381 100.513 55.5381 99.7222V95.2471H54.5713V94.2217H55.5381V92.2954L56.8491 91.5044V94.2217H58.1748V95.2471H56.8491V99.7954C56.8491 100.171 56.8711 100.413 56.915 100.521C56.9639 100.628 57.0396 100.713 57.1421 100.777C57.2495 100.84 57.4009 100.872 57.5962 100.872C57.7427 100.872 57.9355 100.855 58.1748 100.821ZM59.4785 92.7788V91.2627H60.7969V92.7788H59.4785ZM59.4785 102V94.2217H60.7969V102H59.4785ZM68.1357 99.4951L69.498 99.6636C69.2832 100.459 68.8853 101.077 68.3042 101.517C67.7231 101.956 66.981 102.176 66.0776 102.176C64.9399 102.176 64.0366 101.827 63.3677 101.128C62.7036 100.425 62.3716 99.4414 62.3716 98.1768C62.3716 96.8682 62.7085 95.8525 63.3823 95.1299C64.0562 94.4072 64.9302 94.0459 66.0044 94.0459C67.0444 94.0459 67.894 94.3999 68.5532 95.1079C69.2124 95.8159 69.542 96.812 69.542 98.0962C69.542 98.1743 69.5396 98.2915 69.5347 98.4478H63.7339C63.7827 99.3022 64.0244 99.9565 64.459 100.411C64.8936 100.865 65.4355 101.092 66.085 101.092C66.5684 101.092 66.981 100.965 67.3228 100.711C67.6646 100.457 67.9355 100.052 68.1357 99.4951ZM63.8071 97.3638H68.1504C68.0918 96.7095 67.9258 96.2188 67.6523 95.8916C67.2324 95.3838 66.688 95.1299 66.019 95.1299C65.4136 95.1299 64.9033 95.3325 64.4883 95.7378C64.0781 96.1431 63.8511 96.6851 63.8071 97.3638ZM65.9751 92.0098L65.1475 93.2549H63.6387L65.2207 91.2041H66.627L68.2749 93.2549H66.7808L65.9751 92.0098ZM66.2095 88.6187H67.9746L66.2827 90.6694H65.2207L66.2095 88.6187ZM74.0391 100.821L74.2295 101.985C73.8584 102.063 73.5264 102.103 73.2334 102.103C72.7549 102.103 72.3838 102.027 72.1201 101.875C71.8564 101.724 71.6709 101.526 71.5635 101.282C71.4561 101.033 71.4023 100.513 71.4023 99.7222V95.2471H70.4355V94.2217H71.4023V92.2954L72.7134 91.5044V94.2217H74.0391V95.2471H72.7134V99.7954C72.7134 100.171 72.7354 100.413 72.7793 100.521C72.8281 100.628 72.9038 100.713 73.0063 100.777C73.1138 100.84 73.2651 100.872 73.4604 100.872C73.6069 100.872 73.7998 100.855 74.0391 100.821ZM79.5176 102V91.2627H80.8359V97.3857L83.9561 94.2217H85.6626L82.689 97.1074L85.9629 102H84.3369L81.7661 98.0229L80.8359 98.9165V102H79.5176ZM87.0176 92.7788V91.2627H88.3359V92.7788H87.0176ZM87.0176 102V94.2217H88.3359V102H87.0176ZM95.6748 99.4951L97.0371 99.6636C96.8223 100.459 96.4243 101.077 95.8433 101.517C95.2622 101.956 94.52 102.176 93.6167 102.176C92.479 102.176 91.5757 101.827 90.9067 101.128C90.2427 100.425 89.9106 99.4414 89.9106 98.1768C89.9106 96.8682 90.2476 95.8525 90.9214 95.1299C91.5952 94.4072 92.4692 94.0459 93.5435 94.0459C94.5835 94.0459 95.4331 94.3999 96.0923 95.1079C96.7515 95.8159 97.0811 96.812 97.0811 98.0962C97.0811 98.1743 97.0786 98.2915 97.0737 98.4478H91.2729C91.3218 99.3022 91.5635 99.9565 91.998 100.411C92.4326 100.865 92.9746 101.092 93.624 101.092C94.1074 101.092 94.52 100.965 94.8618 100.711C95.2036 100.457 95.4746 100.052 95.6748 99.4951ZM91.3462 97.3638H95.6895C95.6309 96.7095 95.4648 96.2188 95.1914 95.8916C94.7715 95.3838 94.2271 95.1299 93.5581 95.1299C92.9526 95.1299 92.4424 95.3325 92.0273 95.7378C91.6172 96.1431 91.3901 96.6851 91.3462 97.3638ZM93.5142 92.0098L92.6865 93.2549H91.1777L92.7598 91.2041H94.166L95.814 93.2549H94.3198L93.5142 92.0098ZM92.8477 104.38V102.879H94.3491V104.38H92.8477ZM98.6997 102V94.2217H99.8789V95.313C100.123 94.9321 100.448 94.627 100.853 94.3975C101.258 94.1631 101.72 94.0459 102.237 94.0459C102.813 94.0459 103.285 94.1655 103.651 94.4048C104.022 94.644 104.283 94.9785 104.435 95.4082C105.05 94.5 105.851 94.0459 106.837 94.0459C107.608 94.0459 108.202 94.2607 108.617 94.6904C109.032 95.1152 109.239 95.772 109.239 96.6606V102H107.928V97.1001C107.928 96.5728 107.884 96.1943 107.796 95.9648C107.713 95.7305 107.56 95.5425 107.335 95.4009C107.11 95.2593 106.847 95.1885 106.544 95.1885C105.997 95.1885 105.543 95.3716 105.182 95.7378C104.82 96.0991 104.64 96.6802 104.64 97.481V102H103.321V96.9463C103.321 96.3604 103.214 95.9209 102.999 95.6279C102.784 95.335 102.433 95.1885 101.944 95.1885C101.573 95.1885 101.229 95.2861 100.912 95.4814C100.599 95.6768 100.372 95.9624 100.23 96.3384C100.089 96.7144 100.018 97.2563 100.018 97.9644V102H98.6997Z" fill="white"/>
</g>
<defs>
<filter id="filter0_d_266_924" x="0" y="0" width="142" height="142" filterUnits="userSpaceOnUse" color-interpolation-filters="sRGB">
<feFlood flood-opacity="0" result="BackgroundImageFix"/>
<feColorMatrix in="SourceAlpha" type="matrix" values="0 0 0 0 0 0 0 0 0 0 0 0 0 0 0 0 0 0 127 0" result="hardAlpha"/>
<feOffset dx="2" dy="2"/>
<feGaussianBlur stdDeviation="2"/>
<feComposite in2="hardAlpha" operator="out"/>
<feColorMatrix type="matrix" values="0 0 0 0 0.2 0 0 0 0 0.352941 0 0 0 0 0.14902 0 0 0 1 0"/>
<feBlend mode="normal" in2="BackgroundImageFix" result="effect1_dropShadow_266_924"/>
<feBlend mode="normal" in="SourceGraphic" in2="effect1_dropShadow_266_924" result="shape"/>
</filter>
<linearGradient id="paint0_linear_266_924" x1="7.5" y1="7.5" x2="42" y2="47.5" gradientUnits="userSpaceOnUse">
<stop stop-color="#7AB93C" stop-opacity="0.8"/>
<stop offset="1" stop-color="#2C8D31"/>
</linearGradient>
<linearGradient id="paint1_linear_266_924" x1="7.93903" y1="-3.37277" x2="131" y2="129" gradientUnits="userSpaceOnUse">
<stop stop-color="#85CA75"/>
<stop offset="1" stop-color="#126F2E"/>
<stop offset="1" stop-color="#737373"/>
</linearGradient>
<clipPath id="clip0_266_924">
<rect width="56" height="56" fill="white" transform="translate(41 25)"/>
</clipPath>
</defs>
</svg>
