<svg width="56" height="56" viewBox="0 0 56 56" fill="none" xmlns="http://www.w3.org/2000/svg">
<path d="M31.9267 41.6783L30.6667 43.055L30.6667 34.6783C30.6667 34.0595 30.4208 33.466 29.9832 33.0284C29.5457 32.5908 28.9522 32.345 28.3333 32.345C27.7145 32.345 27.121 32.5908 26.6834 33.0284C26.2458 33.466 26 34.0595 26 34.6783L26 43.055L24.74 41.7716C24.5282 41.5324 24.2695 41.3392 23.98 41.2041C23.6905 41.0689 23.3763 40.9947 23.0569 40.9859C22.7375 40.9772 22.4197 41.0341 22.1233 41.1532C21.8268 41.2723 21.5579 41.451 21.3333 41.6783C21.1146 41.8952 20.941 42.1533 20.8226 42.4376C20.7041 42.722 20.6431 43.0269 20.6431 43.335C20.6431 43.643 20.7041 43.948 20.8226 44.2323C20.941 44.5167 21.1146 44.7747 21.3333 44.9916L26.6767 50.335C26.8986 50.5474 27.1602 50.7139 27.4467 50.825C28.0147 51.0583 28.6519 51.0583 29.22 50.825C29.5064 50.7139 29.7681 50.5474 29.99 50.335L35.3333 45.085C35.7851 44.6332 36.0389 44.0205 36.0389 43.3816C36.0389 42.7428 35.7851 42.1301 35.3333 41.6783C34.8816 41.2266 34.2689 40.9728 33.63 40.9728C32.9911 40.9728 32.3784 41.2266 31.9267 41.6783ZM28.3333 27.6783C29.7178 27.6783 31.0712 27.2678 32.2223 26.4986C33.3735 25.7294 34.2707 24.6362 34.8005 23.3571C35.3303 22.078 35.4689 20.6705 35.1988 19.3127C34.9287 17.9548 34.262 16.7075 33.2831 15.7286C32.3041 14.7496 31.0568 14.0829 29.699 13.8128C28.3411 13.5427 26.9336 13.6813 25.6545 14.2111C24.3755 14.741 23.2822 15.6382 22.513 16.7893C21.7439 17.9405 21.3333 19.2938 21.3333 20.6783C21.3333 22.5348 22.0708 24.3153 23.3836 25.6281C24.6963 26.9408 26.4768 27.6783 28.3333 27.6783ZM28.3333 18.345C28.7948 18.345 29.2459 18.4818 29.6297 18.7382C30.0134 18.9946 30.3124 19.359 30.489 19.7854C30.6657 20.2117 30.7119 20.6809 30.6218 21.1335C30.5318 21.5861 30.3096 22.0019 29.9832 22.3282C29.6569 22.6545 29.2412 22.8768 28.7885 22.9668C28.3359 23.0568 27.8668 23.0106 27.4404 22.834C27.014 22.6574 26.6496 22.3583 26.3932 21.9746C26.1368 21.5909 26 21.1398 26 20.6783C26 20.0595 26.2458 19.466 26.6834 19.0284C27.121 18.5908 27.7145 18.345 28.3333 18.345ZM44.6667 20.6783C44.6667 20.2168 44.5298 19.7657 44.2734 19.382C44.017 18.9983 43.6526 18.6992 43.2263 18.5226C42.7999 18.346 42.3307 18.2998 41.8781 18.3898C41.4255 18.4798 41.0097 18.7021 40.6834 19.0284C40.3571 19.3547 40.1349 19.7705 40.0448 20.2231C39.9548 20.6757 40.001 21.1449 40.1776 21.5712C40.3542 21.9976 40.6533 22.362 41.037 22.6184C41.4207 22.8748 41.8718 23.0116 42.3333 23.0116C42.9522 23.0116 43.5457 22.7658 43.9832 22.3282C44.4208 21.8906 44.6667 21.2971 44.6667 20.6783ZM12 20.6783C12 21.1398 12.1368 21.5909 12.3932 21.9746C12.6496 22.3583 13.014 22.6574 13.4404 22.834C13.8668 23.0106 14.3359 23.0568 14.7885 22.9668C15.2412 22.8768 15.6569 22.6545 15.9832 22.3282C16.3096 22.0019 16.5318 21.5861 16.6218 21.1335C16.7119 20.6809 16.6657 20.2117 16.489 19.7854C16.3124 19.359 16.0134 18.9946 15.6297 18.7382C15.2459 18.4818 14.7948 18.345 14.3333 18.345C13.7145 18.345 13.121 18.5908 12.6834 19.0284C12.2458 19.466 12 20.0595 12 20.6783ZM9.66666 37.0116L19 37.0116C19.6188 37.0116 20.2123 36.7658 20.6499 36.3282C21.0875 35.8906 21.3333 35.2971 21.3333 34.6783C21.3333 34.0595 21.0875 33.466 20.6499 33.0284C20.2123 32.5908 19.6188 32.345 19 32.345L9.66666 32.345C9.04782 32.345 8.45433 32.0991 8.01675 31.6616C7.57916 31.224 7.33333 30.6305 7.33333 30.0116L7.33333 11.345C7.33333 10.7261 7.57916 10.1326 8.01675 9.69505C8.45433 9.25747 9.04782 9.01163 9.66666 9.01163L47 9.01163C47.6188 9.01163 48.2123 9.25747 48.6499 9.69505C49.0875 10.1326 49.3333 10.7261 49.3333 11.345L49.3333 30.0116C49.3333 30.6305 49.0875 31.224 48.6499 31.6616C48.2123 32.0991 47.6188 32.345 47 32.345H37.6667C37.0478 32.345 36.4543 32.5908 36.0168 33.0284C35.5792 33.466 35.3333 34.0595 35.3333 34.6783C35.3333 35.2971 35.5792 35.8906 36.0168 36.3282C36.4543 36.7658 37.0478 37.0116 37.6667 37.0116H47C48.8565 37.0116 50.637 36.2741 51.9497 34.9614C53.2625 33.6486 54 31.8682 54 30.0116L54 11.345C54 9.48845 53.2625 7.70797 51.9497 6.39522C50.637 5.08247 48.8565 4.34497 47 4.34497L9.66666 4.34497C7.81015 4.34497 6.02967 5.08247 4.71692 6.39522C3.40416 7.70797 2.66666 9.48845 2.66666 11.345L2.66666 30.0116C2.66666 31.8682 3.40416 33.6486 4.71692 34.9614C6.02967 36.2741 7.81015 37.0116 9.66666 37.0116Z" fill="white"/>
</svg>
