<svg width="134" height="134" viewBox="0 0 134 134" fill="none" xmlns="http://www.w3.org/2000/svg">
<rect width="134" height="134" rx="20" fill="url(#paint0_linear_1547_17321)" fill-opacity="0.7"/>
<path fill-rule="evenodd" clip-rule="evenodd" d="M16.5 57C36.1061 57 52 41.1061 52 21.5C52 13.4182 49.2993 5.96708 44.7513 0H114C125.046 0 134 8.9543 134 20V114C134 125.046 125.046 134 114 134H20C8.9543 134 0 125.046 0 114V52.9406C4.92964 55.533 10.5435 57 16.5 57Z" fill="url(#paint1_linear_1547_17321)"/>
<circle cx="27" cy="42" r="2" fill="#83B875"/>
<circle cx="92.5" cy="20.5" r="2.5" fill="#6CA66C"/>
<circle cx="64.5" cy="34.5" r="2.5" fill="#418D54"/>
<path d="M20.5059 99V88.2627H21.9268V97.7329H27.2148V99H20.5059ZM33.8213 98.0405C33.333 98.4556 32.8618 98.7485 32.4077 98.9194C31.9585 99.0903 31.4751 99.1758 30.9575 99.1758C30.103 99.1758 29.4463 98.9683 28.9873 98.5532C28.5283 98.1333 28.2988 97.5986 28.2988 96.9492C28.2988 96.5684 28.3843 96.2217 28.5552 95.9092C28.731 95.5918 28.958 95.3379 29.2363 95.1475C29.5195 94.957 29.8369 94.813 30.1885 94.7153C30.4473 94.647 30.8379 94.5811 31.3604 94.5176C32.4248 94.3906 33.2085 94.2393 33.7114 94.0635C33.7163 93.8828 33.7188 93.7681 33.7188 93.7192C33.7188 93.1821 33.5942 92.8037 33.3452 92.584C33.0083 92.2861 32.5078 92.1372 31.8438 92.1372C31.2236 92.1372 30.7646 92.2471 30.4668 92.4668C30.1738 92.6816 29.9565 93.0649 29.8149 93.6167L28.5259 93.4409C28.6431 92.8892 28.8359 92.4448 29.1045 92.1079C29.373 91.7661 29.7612 91.5049 30.269 91.3242C30.7769 91.1387 31.3652 91.0459 32.0342 91.0459C32.6982 91.0459 33.2378 91.124 33.6528 91.2803C34.0679 91.4365 34.373 91.6343 34.5684 91.8735C34.7637 92.1079 34.9004 92.4058 34.9785 92.7671C35.0225 92.9917 35.0444 93.397 35.0444 93.9829V95.7407C35.0444 96.9663 35.0713 97.7427 35.125 98.0698C35.1836 98.3921 35.2959 98.7021 35.4619 99H34.085C33.9482 98.7266 33.8604 98.4067 33.8213 98.0405ZM33.7114 95.0962C33.2329 95.2915 32.5151 95.4575 31.5581 95.5942C31.0161 95.6724 30.6328 95.7603 30.4082 95.8579C30.1836 95.9556 30.0103 96.0996 29.8882 96.29C29.7661 96.4756 29.7051 96.6831 29.7051 96.9126C29.7051 97.2642 29.8369 97.5571 30.1006 97.7915C30.3691 98.0259 30.7598 98.1431 31.2725 98.1431C31.7803 98.1431 32.2319 98.0332 32.6274 97.8135C33.0229 97.5889 33.3135 97.2837 33.499 96.8979C33.6406 96.6001 33.7114 96.1606 33.7114 95.5796V95.0962ZM31.9023 89.0098L31.0747 90.2549H29.5659L31.1479 88.2041H32.5542L34.2021 90.2549H32.708L31.9023 89.0098ZM31.1113 101.38V99.8789H32.6128V101.38H31.1113ZM37.0952 101.981V91.2217H38.2964V92.2324C38.5796 91.8369 38.8994 91.5415 39.2559 91.3462C39.6123 91.146 40.0444 91.0459 40.5522 91.0459C41.2163 91.0459 41.8022 91.2168 42.3101 91.5586C42.8179 91.9004 43.2012 92.3838 43.46 93.0088C43.7188 93.6289 43.8481 94.3101 43.8481 95.0522C43.8481 95.8481 43.7041 96.5659 43.416 97.2056C43.1328 97.8403 42.7178 98.3286 42.1709 98.6704C41.6289 99.0073 41.0576 99.1758 40.457 99.1758C40.0176 99.1758 39.6221 99.083 39.2705 98.8975C38.9238 98.7119 38.6382 98.4775 38.4136 98.1943V101.981H37.0952ZM38.2891 95.1548C38.2891 96.1558 38.4917 96.8955 38.897 97.374C39.3022 97.8525 39.793 98.0918 40.3691 98.0918C40.9551 98.0918 41.4556 97.8452 41.8706 97.3521C42.2905 96.854 42.5005 96.085 42.5005 95.0449C42.5005 94.0537 42.2954 93.3115 41.8853 92.8184C41.48 92.3252 40.9941 92.0786 40.4277 92.0786C39.8662 92.0786 39.3682 92.3423 38.9336 92.8696C38.5039 93.3921 38.2891 94.1538 38.2891 95.1548ZM49.6196 101.981V91.2217H50.8208V92.2324C51.104 91.8369 51.4238 91.5415 51.7803 91.3462C52.1367 91.146 52.5688 91.0459 53.0767 91.0459C53.7407 91.0459 54.3267 91.2168 54.8345 91.5586C55.3423 91.9004 55.7256 92.3838 55.9844 93.0088C56.2432 93.6289 56.3726 94.3101 56.3726 95.0522C56.3726 95.8481 56.2285 96.5659 55.9404 97.2056C55.6572 97.8403 55.2422 98.3286 54.6953 98.6704C54.1533 99.0073 53.582 99.1758 52.9814 99.1758C52.542 99.1758 52.1465 99.083 51.7949 98.8975C51.4482 98.7119 51.1626 98.4775 50.938 98.1943V101.981H49.6196ZM50.8135 95.1548C50.8135 96.1558 51.0161 96.8955 51.4214 97.374C51.8267 97.8525 52.3174 98.0918 52.8936 98.0918C53.4795 98.0918 53.98 97.8452 54.395 97.3521C54.8149 96.854 55.0249 96.085 55.0249 95.0449C55.0249 94.0537 54.8198 93.3115 54.4097 92.8184C54.0044 92.3252 53.5186 92.0786 52.9521 92.0786C52.3906 92.0786 51.8926 92.3423 51.458 92.8696C51.0283 93.3921 50.8135 94.1538 50.8135 95.1548ZM57.9692 99V88.2627H59.2876V92.1152C59.9028 91.4023 60.6792 91.0459 61.6167 91.0459C62.1929 91.0459 62.6934 91.1606 63.1182 91.3901C63.543 91.6147 63.8457 91.9272 64.0264 92.3276C64.2119 92.728 64.3047 93.3091 64.3047 94.0708V99H62.9863V94.0708C62.9863 93.4116 62.8423 92.9331 62.5542 92.6353C62.271 92.3325 61.8682 92.1812 61.3457 92.1812C60.9551 92.1812 60.5864 92.2837 60.2397 92.4888C59.8979 92.689 59.6538 92.9624 59.5073 93.3091C59.3608 93.6558 59.2876 94.1343 59.2876 94.7446V99H57.9692ZM66.3262 89.7788V88.2627H67.6445V89.7788H66.3262ZM66.3262 99V91.2217H67.6445V99H66.3262ZM74.9834 96.4951L76.3457 96.6636C76.1309 97.4595 75.7329 98.0771 75.1519 98.5166C74.5708 98.9561 73.8286 99.1758 72.9253 99.1758C71.7876 99.1758 70.8843 98.8267 70.2153 98.1284C69.5513 97.4253 69.2192 96.4414 69.2192 95.1768C69.2192 93.8682 69.5562 92.8525 70.23 92.1299C70.9038 91.4072 71.7778 91.0459 72.8521 91.0459C73.8921 91.0459 74.7417 91.3999 75.4009 92.1079C76.0601 92.8159 76.3896 93.812 76.3896 95.0962C76.3896 95.1743 76.3872 95.2915 76.3823 95.4478H70.5815C70.6304 96.3022 70.8721 96.9565 71.3066 97.4106C71.7412 97.8647 72.2832 98.0918 72.9326 98.0918C73.416 98.0918 73.8286 97.9648 74.1704 97.7109C74.5122 97.457 74.7832 97.0518 74.9834 96.4951ZM70.6548 94.3638H74.998C74.9395 93.7095 74.7734 93.2188 74.5 92.8916C74.0801 92.3838 73.5356 92.1299 72.8667 92.1299C72.2612 92.1299 71.751 92.3325 71.3359 92.7378C70.9258 93.1431 70.6987 93.6851 70.6548 94.3638ZM72.8228 89.0098L71.9951 90.2549H70.4863L72.0684 88.2041H73.4746L75.1226 90.2549H73.6284L72.8228 89.0098ZM73.0571 85.6187H74.8223L73.1304 87.6694H72.0684L73.0571 85.6187ZM83.106 99V97.8574C82.5005 98.7363 81.6777 99.1758 80.6377 99.1758C80.1787 99.1758 79.749 99.0879 79.3486 98.9121C78.9531 98.7363 78.6577 98.5166 78.4624 98.2529C78.272 97.9844 78.1377 97.6572 78.0596 97.2715C78.0059 97.0127 77.979 96.6025 77.979 96.041V91.2217H79.2974V95.5356C79.2974 96.2241 79.3242 96.688 79.3779 96.9272C79.4609 97.2739 79.6367 97.5474 79.9053 97.7476C80.1738 97.9429 80.5059 98.0405 80.9014 98.0405C81.2969 98.0405 81.668 97.9404 82.0146 97.7402C82.3613 97.5352 82.6055 97.2593 82.7471 96.9126C82.8936 96.561 82.9668 96.0532 82.9668 95.3892V91.2217H84.2852V99H83.106ZM90.5327 99V91.2217H91.7192V92.3276C92.2905 91.4731 93.1157 91.0459 94.1948 91.0459C94.6636 91.0459 95.0933 91.1313 95.4839 91.3022C95.8794 91.4683 96.1748 91.688 96.3701 91.9614C96.5654 92.2349 96.7021 92.5596 96.7803 92.9355C96.8291 93.1797 96.8535 93.6069 96.8535 94.2173V99H95.5352V94.2686C95.5352 93.7314 95.4839 93.3311 95.3813 93.0674C95.2788 92.7988 95.0957 92.5864 94.832 92.4302C94.5732 92.269 94.2681 92.1885 93.9165 92.1885C93.355 92.1885 92.8691 92.3667 92.459 92.7231C92.0537 93.0796 91.8511 93.7559 91.8511 94.752V99H90.5327ZM98.3916 95.1108C98.3916 93.6704 98.792 92.6035 99.5928 91.9102C100.262 91.334 101.077 91.0459 102.039 91.0459C103.108 91.0459 103.982 91.3975 104.661 92.1006C105.34 92.7988 105.679 93.7656 105.679 95.001C105.679 96.002 105.528 96.7905 105.225 97.3667C104.927 97.938 104.49 98.3823 103.914 98.6997C103.343 99.0171 102.718 99.1758 102.039 99.1758C100.95 99.1758 100.069 98.8267 99.395 98.1284C98.7261 97.4302 98.3916 96.4243 98.3916 95.1108ZM99.7466 95.1108C99.7466 96.1069 99.9639 96.854 100.398 97.3521C100.833 97.8452 101.38 98.0918 102.039 98.0918C102.693 98.0918 103.238 97.8428 103.672 97.3447C104.107 96.8467 104.324 96.0874 104.324 95.0669C104.324 94.105 104.104 93.3774 103.665 92.8843C103.23 92.3862 102.688 92.1372 102.039 92.1372C101.38 92.1372 100.833 92.3838 100.398 92.877C99.9639 93.3701 99.7466 94.1147 99.7466 95.1108ZM102.054 89.0098L101.226 90.2549H99.7173L101.299 88.2041H102.706L104.354 90.2549H102.859L102.054 89.0098ZM101.233 101.38V99.8789H102.735V101.38H101.233ZM107.232 101.981V91.2217H108.433V92.2324C108.716 91.8369 109.036 91.5415 109.393 91.3462C109.749 91.146 110.181 91.0459 110.689 91.0459C111.353 91.0459 111.939 91.2168 112.447 91.5586C112.955 91.9004 113.338 92.3838 113.597 93.0088C113.855 93.6289 113.985 94.3101 113.985 95.0522C113.985 95.8481 113.841 96.5659 113.553 97.2056C113.27 97.8403 112.854 98.3286 112.308 98.6704C111.766 99.0073 111.194 99.1758 110.594 99.1758C110.154 99.1758 109.759 99.083 109.407 98.8975C109.061 98.7119 108.775 98.4775 108.55 98.1943V101.981H107.232ZM108.426 95.1548C108.426 96.1558 108.628 96.8955 109.034 97.374C109.439 97.8525 109.93 98.0918 110.506 98.0918C111.092 98.0918 111.592 97.8452 112.007 97.3521C112.427 96.854 112.637 96.085 112.637 95.0449C112.637 94.0537 112.432 93.3115 112.022 92.8184C111.617 92.3252 111.131 92.0786 110.564 92.0786C110.003 92.0786 109.505 92.3423 109.07 92.8696C108.641 93.3921 108.426 94.1538 108.426 95.1548ZM44.1631 114.821L44.3535 115.985C43.9824 116.063 43.6504 116.103 43.3574 116.103C42.8789 116.103 42.5078 116.027 42.2441 115.875C41.9805 115.724 41.7949 115.526 41.6875 115.282C41.5801 115.033 41.5264 114.513 41.5264 113.722V109.247H40.5596V108.222H41.5264V106.295L42.8374 105.504V108.222H44.1631V109.247H42.8374V113.795C42.8374 114.171 42.8594 114.413 42.9033 114.521C42.9521 114.628 43.0278 114.713 43.1304 114.777C43.2378 114.84 43.3892 114.872 43.5845 114.872C43.731 114.872 43.9238 114.855 44.1631 114.821ZM45.4668 106.779V105.263H46.7852V106.779H45.4668ZM45.4668 116V108.222H46.7852V116H45.4668ZM54.124 113.495L55.4863 113.664C55.2715 114.459 54.8735 115.077 54.2925 115.517C53.7114 115.956 52.9692 116.176 52.0659 116.176C50.9282 116.176 50.0249 115.827 49.356 115.128C48.6919 114.425 48.3599 113.441 48.3599 112.177C48.3599 110.868 48.6968 109.853 49.3706 109.13C50.0444 108.407 50.9185 108.046 51.9927 108.046C53.0327 108.046 53.8823 108.4 54.5415 109.108C55.2007 109.816 55.5303 110.812 55.5303 112.096C55.5303 112.174 55.5278 112.292 55.5229 112.448H49.7222C49.771 113.302 50.0127 113.957 50.4473 114.411C50.8818 114.865 51.4238 115.092 52.0732 115.092C52.5566 115.092 52.9692 114.965 53.311 114.711C53.6528 114.457 53.9238 114.052 54.124 113.495ZM49.7954 111.364H54.1387C54.0801 110.709 53.9141 110.219 53.6406 109.892C53.2207 109.384 52.6763 109.13 52.0073 109.13C51.4019 109.13 50.8916 109.333 50.4766 109.738C50.0664 110.143 49.8394 110.685 49.7954 111.364ZM51.9634 106.01L51.1357 107.255H49.627L51.209 105.204H52.6152L54.2632 107.255H52.769L51.9634 106.01ZM52.6152 104.669H51.5532L49.8613 102.619H51.6265L52.6152 104.669ZM57.1489 116V108.222H58.3354V109.328C58.9067 108.473 59.7319 108.046 60.811 108.046C61.2798 108.046 61.7095 108.131 62.1001 108.302C62.4956 108.468 62.791 108.688 62.9863 108.961C63.1816 109.235 63.3184 109.56 63.3965 109.936C63.4453 110.18 63.4697 110.607 63.4697 111.217V116H62.1514V111.269C62.1514 110.731 62.1001 110.331 61.9976 110.067C61.895 109.799 61.7119 109.586 61.4482 109.43C61.1895 109.269 60.8843 109.188 60.5327 109.188C59.9712 109.188 59.4854 109.367 59.0752 109.723C58.6699 110.08 58.4673 110.756 58.4673 111.752V116H57.1489ZM69.6733 116V108.222H70.8525V109.313C71.0967 108.932 71.4214 108.627 71.8267 108.397C72.2319 108.163 72.6934 108.046 73.2109 108.046C73.7871 108.046 74.2583 108.166 74.6245 108.405C74.9956 108.644 75.2568 108.979 75.4082 109.408C76.0234 108.5 76.8242 108.046 77.8105 108.046C78.582 108.046 79.1753 108.261 79.5903 108.69C80.0054 109.115 80.2129 109.772 80.2129 110.661V116H78.9019V111.1C78.9019 110.573 78.8579 110.194 78.77 109.965C78.687 109.73 78.5332 109.542 78.3086 109.401C78.084 109.259 77.8203 109.188 77.5176 109.188C76.9707 109.188 76.5166 109.372 76.1553 109.738C75.7939 110.099 75.6133 110.68 75.6133 111.481V116H74.2949V110.946C74.2949 110.36 74.1875 109.921 73.9727 109.628C73.7578 109.335 73.4062 109.188 72.918 109.188C72.5469 109.188 72.2026 109.286 71.8853 109.481C71.5728 109.677 71.3457 109.962 71.2041 110.338C71.0625 110.714 70.9917 111.256 70.9917 111.964V116H69.6733ZM87.2441 115.041C86.7559 115.456 86.2847 115.749 85.8306 115.919C85.3813 116.09 84.8979 116.176 84.3804 116.176C83.5259 116.176 82.8691 115.968 82.4102 115.553C81.9512 115.133 81.7217 114.599 81.7217 113.949C81.7217 113.568 81.8071 113.222 81.978 112.909C82.1538 112.592 82.3809 112.338 82.6592 112.147C82.9424 111.957 83.2598 111.813 83.6113 111.715C83.8701 111.647 84.2607 111.581 84.7832 111.518C85.8477 111.391 86.6313 111.239 87.1343 111.063C87.1392 110.883 87.1416 110.768 87.1416 110.719C87.1416 110.182 87.0171 109.804 86.7681 109.584C86.4312 109.286 85.9307 109.137 85.2666 109.137C84.6465 109.137 84.1875 109.247 83.8896 109.467C83.5967 109.682 83.3794 110.065 83.2378 110.617L81.9487 110.441C82.0659 109.889 82.2588 109.445 82.5273 109.108C82.7959 108.766 83.1841 108.505 83.6919 108.324C84.1997 108.139 84.7881 108.046 85.457 108.046C86.1211 108.046 86.6606 108.124 87.0757 108.28C87.4907 108.437 87.7959 108.634 87.9912 108.874C88.1865 109.108 88.3232 109.406 88.4014 109.767C88.4453 109.992 88.4673 110.397 88.4673 110.983V112.741C88.4673 113.966 88.4941 114.743 88.5479 115.07C88.6064 115.392 88.7188 115.702 88.8848 116H87.5078C87.3711 115.727 87.2832 115.407 87.2441 115.041ZM87.1343 112.096C86.6558 112.292 85.938 112.458 84.981 112.594C84.439 112.672 84.0557 112.76 83.8311 112.858C83.6064 112.956 83.4331 113.1 83.311 113.29C83.189 113.476 83.1279 113.683 83.1279 113.913C83.1279 114.264 83.2598 114.557 83.5234 114.792C83.792 115.026 84.1826 115.143 84.6953 115.143C85.2031 115.143 85.6548 115.033 86.0503 114.813C86.4458 114.589 86.7363 114.284 86.9219 113.898C87.0635 113.6 87.1343 113.161 87.1343 112.58V112.096ZM86.7388 105.277H87.6396C87.5664 105.888 87.3418 106.356 86.9658 106.684C86.5947 107.011 86.0991 107.174 85.479 107.174C84.854 107.174 84.3535 107.013 83.9775 106.691C83.6064 106.364 83.3843 105.893 83.311 105.277H84.2119C84.2803 105.609 84.4146 105.858 84.6147 106.024C84.8198 106.186 85.0933 106.266 85.4351 106.266C85.8306 106.266 86.1284 106.188 86.3286 106.032C86.5337 105.871 86.6704 105.619 86.7388 105.277ZM84.5342 118.38V116.879H86.0356V118.38H84.5342ZM93.3965 114.821L93.5869 115.985C93.2158 116.063 92.8838 116.103 92.5908 116.103C92.1123 116.103 91.7412 116.027 91.4775 115.875C91.2139 115.724 91.0283 115.526 90.9209 115.282C90.8135 115.033 90.7598 114.513 90.7598 113.722V109.247H89.793V108.222H90.7598V106.295L92.0708 105.504V108.222H93.3965V109.247H92.0708V113.795C92.0708 114.171 92.0928 114.413 92.1367 114.521C92.1855 114.628 92.2612 114.713 92.3638 114.777C92.4712 114.84 92.6226 114.872 92.8179 114.872C92.9644 114.872 93.1572 114.855 93.3965 114.821Z" fill="white"/>
<path d="M70.5932 65L69.3332 66.3766V58C69.3332 57.3811 69.0873 56.7876 68.6498 56.35C68.2122 55.9125 67.6187 55.6666 66.9998 55.6666C66.381 55.6666 65.7875 55.9125 65.3499 56.35C64.9123 56.7876 64.6665 57.3811 64.6665 58V66.3766L63.4065 65.0933C63.1947 64.8541 62.936 64.6609 62.6465 64.5257C62.357 64.3906 62.0428 64.3163 61.7234 64.3076C61.404 64.2988 61.0862 64.3558 60.7898 64.4749C60.4933 64.594 60.2244 64.7727 59.9998 65C59.7811 65.2169 59.6075 65.4749 59.4891 65.7593C59.3706 66.0436 59.3096 66.3486 59.3096 66.6566C59.3096 66.9647 59.3706 67.2696 59.4891 67.554C59.6075 67.8383 59.7811 68.0964 59.9998 68.3133L65.3432 73.6566C65.5651 73.8691 65.8267 74.0356 66.1132 74.1466C66.6812 74.38 67.3184 74.38 67.8865 74.1466C68.1729 74.0356 68.4346 73.8691 68.6565 73.6566L73.9998 68.4066C74.4516 67.9549 74.7054 67.3422 74.7054 66.7033C74.7054 66.0644 74.4516 65.4517 73.9998 65C73.5481 64.5482 72.9354 64.2944 72.2965 64.2944C71.6576 64.2944 71.0449 64.5482 70.5932 65ZM66.9998 51C68.3843 51 69.7377 50.5894 70.8888 49.8202C72.04 49.0511 72.9372 47.9578 73.467 46.6787C73.9968 45.3997 74.1354 43.9922 73.8653 42.6343C73.5952 41.2765 72.9286 40.0292 71.9496 39.0502C70.9706 38.0712 69.7233 37.4046 68.3655 37.1345C67.0076 36.8644 65.6001 37.003 64.3211 37.5328C63.042 38.0626 61.9487 38.9598 61.1795 40.111C60.4104 41.2621 59.9998 42.6155 59.9998 44C59.9998 45.8565 60.7373 47.637 62.0501 48.9497C63.3628 50.2625 65.1433 51 66.9998 51ZM66.9998 41.6666C67.4613 41.6666 67.9125 41.8035 68.2962 42.0599C68.6799 42.3163 68.979 42.6807 69.1556 43.107C69.3322 43.5334 69.3784 44.0025 69.2883 44.4552C69.1983 44.9078 68.9761 45.3236 68.6498 45.6499C68.3234 45.9762 67.9077 46.1984 67.455 46.2885C67.0024 46.3785 66.5333 46.3323 66.1069 46.1557C65.6805 45.9791 65.3161 45.68 65.0597 45.2963C64.8034 44.9126 64.6665 44.4614 64.6665 44C64.6665 43.3811 64.9123 42.7876 65.3499 42.35C65.7875 41.9125 66.381 41.6666 66.9998 41.6666ZM83.3332 44C83.3332 43.5385 83.1963 43.0873 82.9399 42.7036C82.6835 42.3199 82.3191 42.0208 81.8928 41.8442C81.4664 41.6676 80.9972 41.6214 80.5446 41.7115C80.092 41.8015 79.6762 42.0237 79.3499 42.35C79.0236 42.6764 78.8014 43.0921 78.7113 43.5447C78.6213 43.9974 78.6675 44.4665 78.8441 44.8929C79.0207 45.3192 79.3198 45.6837 79.7035 45.9401C80.0872 46.1964 80.5383 46.3333 80.9998 46.3333C81.6187 46.3333 82.2122 46.0875 82.6498 45.6499C83.0873 45.2123 83.3332 44.6188 83.3332 44ZM50.6665 44C50.6665 44.4614 50.8033 44.9126 51.0597 45.2963C51.3161 45.68 51.6805 45.9791 52.1069 46.1557C52.5333 46.3323 53.0024 46.3785 53.455 46.2885C53.9077 46.1984 54.3234 45.9762 54.6498 45.6499C54.9761 45.3236 55.1983 44.9078 55.2883 44.4552C55.3784 44.0025 55.3322 43.5334 55.1556 43.107C54.979 42.6807 54.6799 42.3163 54.2962 42.0599C53.9125 41.8035 53.4613 41.6666 52.9998 41.6666C52.381 41.6666 51.7875 41.9125 51.3499 42.35C50.9123 42.7876 50.6665 43.3811 50.6665 44ZM48.3332 60.3333L57.6665 60.3333C58.2853 60.3333 58.8788 60.0875 59.3164 59.6499C59.754 59.2123 59.9998 58.6188 59.9998 58C59.9998 57.3811 59.754 56.7876 59.3164 56.35C58.8788 55.9125 58.2853 55.6666 57.6665 55.6666L48.3332 55.6666C47.7143 55.6666 47.1208 55.4208 46.6833 54.9832C46.2457 54.5456 45.9998 53.9521 45.9998 53.3333L45.9998 34.6666C45.9998 34.0478 46.2457 33.4543 46.6833 33.0167C47.1208 32.5791 47.7143 32.3333 48.3332 32.3333L85.6665 32.3333C86.2853 32.3333 86.8788 32.5791 87.3164 33.0167C87.754 33.4543 87.9998 34.0478 87.9998 34.6666V53.3333C87.9998 53.9521 87.754 54.5456 87.3164 54.9832C86.8788 55.4208 86.2853 55.6666 85.6665 55.6666H76.3332C75.7143 55.6666 75.1208 55.9125 74.6833 56.35C74.2457 56.7876 73.9998 57.3811 73.9998 58C73.9998 58.6188 74.2457 59.2123 74.6833 59.6499C75.1208 60.0875 75.7143 60.3333 76.3332 60.3333H85.6665C87.523 60.3333 89.3035 59.5958 90.6163 58.283C91.929 56.9703 92.6665 55.1898 92.6665 53.3333V34.6666C92.6665 32.8101 91.929 31.0296 90.6163 29.7169C89.3035 28.4041 87.523 27.6666 85.6665 27.6666L48.3332 27.6666C46.4767 27.6666 44.6962 28.4041 43.3834 29.7169C42.0707 31.0296 41.3332 32.8101 41.3332 34.6666L41.3332 53.3333C41.3332 55.1898 42.0707 56.9703 43.3834 58.283C44.6962 59.5958 46.4767 60.3333 48.3332 60.3333Z" fill="white"/>
<defs>
<linearGradient id="paint0_linear_1547_17321" x1="5.5" y1="5.5" x2="40" y2="45.5" gradientUnits="userSpaceOnUse">
<stop stop-color="#7AB93C" stop-opacity="0.8"/>
<stop offset="1" stop-color="#2C8D31"/>
</linearGradient>
<linearGradient id="paint1_linear_1547_17321" x1="5.93903" y1="-5.37277" x2="129" y2="127" gradientUnits="userSpaceOnUse">
<stop stop-color="#85CA75"/>
<stop offset="1" stop-color="#126F2E"/>
<stop offset="1" stop-color="#737373"/>
</linearGradient>
</defs>
</svg>
