<svg width="134" height="134" viewBox="0 0 134 134" fill="none" xmlns="http://www.w3.org/2000/svg">
<rect width="134" height="134" rx="20" fill="url(#paint0_linear_1547_17253)" fill-opacity="0.7"/>
<path fill-rule="evenodd" clip-rule="evenodd" d="M16.5 57C36.1061 57 52 41.1061 52 21.5C52 13.4182 49.2993 5.96708 44.7513 0H114C125.046 0 134 8.9543 134 20V114C134 125.046 125.046 134 114 134H20C8.9543 134 0 125.046 0 114V52.9406C4.92964 55.533 10.5435 57 16.5 57Z" fill="url(#paint1_linear_1547_17253)"/>
<circle cx="27" cy="42" r="2" fill="#83B875"/>
<circle cx="92.5" cy="20.5" r="2.5" fill="#6CA66C"/>
<circle cx="64.5" cy="34.5" r="2.5" fill="#418D54"/>
<path d="M24.2705 99V88.2627H25.6914V97.7329H30.9795V99H24.2705ZM37.5859 98.0405C37.0977 98.4556 36.6265 98.7485 36.1724 98.9194C35.7231 99.0903 35.2397 99.1758 34.7222 99.1758C33.8677 99.1758 33.2109 98.9683 32.752 98.5532C32.293 98.1333 32.0635 97.5986 32.0635 96.9492C32.0635 96.5684 32.1489 96.2217 32.3198 95.9092C32.4956 95.5918 32.7227 95.3379 33.001 95.1475C33.2842 94.957 33.6016 94.813 33.9531 94.7153C34.2119 94.647 34.6025 94.5811 35.125 94.5176C36.1895 94.3906 36.9731 94.2393 37.4761 94.0635C37.481 93.8828 37.4834 93.7681 37.4834 93.7192C37.4834 93.1821 37.3589 92.8037 37.1099 92.584C36.7729 92.2861 36.2725 92.1372 35.6084 92.1372C34.9883 92.1372 34.5293 92.2471 34.2314 92.4668C33.9385 92.6816 33.7212 93.0649 33.5796 93.6167L32.2905 93.4409C32.4077 92.8892 32.6006 92.4448 32.8691 92.1079C33.1377 91.7661 33.5259 91.5049 34.0337 91.3242C34.5415 91.1387 35.1299 91.0459 35.7988 91.0459C36.4629 91.0459 37.0024 91.124 37.4175 91.2803C37.8325 91.4365 38.1377 91.6343 38.333 91.8735C38.5283 92.1079 38.665 92.4058 38.7432 92.7671C38.7871 92.9917 38.8091 93.397 38.8091 93.9829V95.7407C38.8091 96.9663 38.8359 97.7427 38.8896 98.0698C38.9482 98.3921 39.0605 98.7021 39.2266 99H37.8496C37.7129 98.7266 37.625 98.4067 37.5859 98.0405ZM37.4761 95.0962C36.9976 95.2915 36.2798 95.4575 35.3228 95.5942C34.7808 95.6724 34.3975 95.7603 34.1729 95.8579C33.9482 95.9556 33.7749 96.0996 33.6528 96.29C33.5308 96.4756 33.4697 96.6831 33.4697 96.9126C33.4697 97.2642 33.6016 97.5571 33.8652 97.7915C34.1338 98.0259 34.5244 98.1431 35.0371 98.1431C35.5449 98.1431 35.9966 98.0332 36.3921 97.8135C36.7876 97.5889 37.0781 97.2837 37.2637 96.8979C37.4053 96.6001 37.4761 96.1606 37.4761 95.5796V95.0962ZM35.667 89.0098L34.8394 90.2549H33.3306L34.9126 88.2041H36.3188L37.9668 90.2549H36.4727L35.667 89.0098ZM34.876 101.38V99.8789H36.3774V101.38H34.876ZM40.8599 101.981V91.2217H42.061V92.2324C42.3442 91.8369 42.6641 91.5415 43.0205 91.3462C43.377 91.146 43.8091 91.0459 44.3169 91.0459C44.981 91.0459 45.5669 91.2168 46.0747 91.5586C46.5825 91.9004 46.9658 92.3838 47.2246 93.0088C47.4834 93.6289 47.6128 94.3101 47.6128 95.0522C47.6128 95.8481 47.4688 96.5659 47.1807 97.2056C46.8975 97.8403 46.4824 98.3286 45.9355 98.6704C45.3936 99.0073 44.8223 99.1758 44.2217 99.1758C43.7822 99.1758 43.3867 99.083 43.0352 98.8975C42.6885 98.7119 42.4028 98.4775 42.1782 98.1943V101.981H40.8599ZM42.0537 95.1548C42.0537 96.1558 42.2563 96.8955 42.6616 97.374C43.0669 97.8525 43.5576 98.0918 44.1338 98.0918C44.7197 98.0918 45.2202 97.8452 45.6353 97.3521C46.0552 96.854 46.2651 96.085 46.2651 95.0449C46.2651 94.0537 46.0601 93.3115 45.6499 92.8184C45.2446 92.3252 44.7588 92.0786 44.1924 92.0786C43.6309 92.0786 43.1328 92.3423 42.6982 92.8696C42.2686 93.3921 42.0537 94.1538 42.0537 95.1548ZM53.3843 101.981V91.2217H54.5854V92.2324C54.8687 91.8369 55.1885 91.5415 55.5449 91.3462C55.9014 91.146 56.3335 91.0459 56.8413 91.0459C57.5054 91.0459 58.0913 91.2168 58.5991 91.5586C59.1069 91.9004 59.4902 92.3838 59.749 93.0088C60.0078 93.6289 60.1372 94.3101 60.1372 95.0522C60.1372 95.8481 59.9932 96.5659 59.7051 97.2056C59.4219 97.8403 59.0068 98.3286 58.46 98.6704C57.918 99.0073 57.3467 99.1758 56.7461 99.1758C56.3066 99.1758 55.9111 99.083 55.5596 98.8975C55.2129 98.7119 54.9272 98.4775 54.7026 98.1943V101.981H53.3843ZM54.5781 95.1548C54.5781 96.1558 54.7808 96.8955 55.186 97.374C55.5913 97.8525 56.082 98.0918 56.6582 98.0918C57.2441 98.0918 57.7446 97.8452 58.1597 97.3521C58.5796 96.854 58.7896 96.085 58.7896 95.0449C58.7896 94.0537 58.5845 93.3115 58.1743 92.8184C57.769 92.3252 57.2832 92.0786 56.7168 92.0786C56.1553 92.0786 55.6572 92.3423 55.2227 92.8696C54.793 93.3921 54.5781 94.1538 54.5781 95.1548ZM61.7339 99V88.2627H63.0522V92.1152C63.6675 91.4023 64.4438 91.0459 65.3813 91.0459C65.9575 91.0459 66.458 91.1606 66.8828 91.3901C67.3076 91.6147 67.6104 91.9272 67.791 92.3276C67.9766 92.728 68.0693 93.3091 68.0693 94.0708V99H66.751V94.0708C66.751 93.4116 66.6069 92.9331 66.3188 92.6353C66.0356 92.3325 65.6328 92.1812 65.1104 92.1812C64.7197 92.1812 64.3511 92.2837 64.0044 92.4888C63.6626 92.689 63.4185 92.9624 63.272 93.3091C63.1255 93.6558 63.0522 94.1343 63.0522 94.7446V99H61.7339ZM70.0908 89.7788V88.2627H71.4092V89.7788H70.0908ZM70.0908 99V91.2217H71.4092V99H70.0908ZM78.748 96.4951L80.1104 96.6636C79.8955 97.4595 79.4976 98.0771 78.9165 98.5166C78.3354 98.9561 77.5933 99.1758 76.6899 99.1758C75.5522 99.1758 74.6489 98.8267 73.98 98.1284C73.3159 97.4253 72.9839 96.4414 72.9839 95.1768C72.9839 93.8682 73.3208 92.8525 73.9946 92.1299C74.6685 91.4072 75.5425 91.0459 76.6167 91.0459C77.6567 91.0459 78.5063 91.3999 79.1655 92.1079C79.8247 92.8159 80.1543 93.812 80.1543 95.0962C80.1543 95.1743 80.1519 95.2915 80.147 95.4478H74.3462C74.395 96.3022 74.6367 96.9565 75.0713 97.4106C75.5059 97.8647 76.0479 98.0918 76.6973 98.0918C77.1807 98.0918 77.5933 97.9648 77.9351 97.7109C78.2769 97.457 78.5479 97.0518 78.748 96.4951ZM74.4194 94.3638H78.7627C78.7041 93.7095 78.5381 93.2188 78.2646 92.8916C77.8447 92.3838 77.3003 92.1299 76.6313 92.1299C76.0259 92.1299 75.5156 92.3325 75.1006 92.7378C74.6904 93.1431 74.4634 93.6851 74.4194 94.3638ZM76.5874 89.0098L75.7598 90.2549H74.251L75.833 88.2041H77.2393L78.8872 90.2549H77.3931L76.5874 89.0098ZM76.8218 85.6187H78.5869L76.895 87.6694H75.833L76.8218 85.6187ZM86.8706 99V97.8574C86.2651 98.7363 85.4424 99.1758 84.4023 99.1758C83.9434 99.1758 83.5137 99.0879 83.1133 98.9121C82.7178 98.7363 82.4224 98.5166 82.2271 98.2529C82.0366 97.9844 81.9023 97.6572 81.8242 97.2715C81.7705 97.0127 81.7437 96.6025 81.7437 96.041V91.2217H83.062V95.5356C83.062 96.2241 83.0889 96.688 83.1426 96.9272C83.2256 97.2739 83.4014 97.5474 83.6699 97.7476C83.9385 97.9429 84.2705 98.0405 84.666 98.0405C85.0615 98.0405 85.4326 97.9404 85.7793 97.7402C86.126 97.5352 86.3701 97.2593 86.5117 96.9126C86.6582 96.561 86.7314 96.0532 86.7314 95.3892V91.2217H88.0498V99H86.8706ZM94.2827 99V91.2217H95.4692V92.4009C95.772 91.8491 96.0503 91.4854 96.3042 91.3096C96.563 91.1338 96.8462 91.0459 97.1538 91.0459C97.5981 91.0459 98.0498 91.1875 98.5088 91.4707L98.0547 92.6938C97.7324 92.5034 97.4102 92.4082 97.0879 92.4082C96.7998 92.4082 96.541 92.4961 96.3115 92.6719C96.082 92.8428 95.9185 93.082 95.8208 93.3896C95.6743 93.8584 95.6011 94.3711 95.6011 94.9277V99H94.2827ZM104.39 99V97.8574C103.785 98.7363 102.962 99.1758 101.922 99.1758C101.463 99.1758 101.033 99.0879 100.633 98.9121C100.237 98.7363 99.9419 98.5166 99.7466 98.2529C99.5562 97.9844 99.4219 97.6572 99.3438 97.2715C99.29 97.0127 99.2632 96.6025 99.2632 96.041V91.2217H100.582V95.5356C100.582 96.2241 100.608 96.688 100.662 96.9272C100.745 97.2739 100.921 97.5474 101.189 97.7476C101.458 97.9429 101.79 98.0405 102.186 98.0405C102.581 98.0405 102.952 97.9404 103.299 97.7402C103.646 97.5352 103.89 97.2593 104.031 96.9126C104.178 96.561 104.251 96.0532 104.251 95.3892V91.2217H105.569V99H104.39ZM101.622 90.2549L102.596 88.2041H104.324L102.713 90.2549H101.622ZM110.521 97.8208L110.711 98.9854C110.34 99.0635 110.008 99.1025 109.715 99.1025C109.236 99.1025 108.865 99.0269 108.602 98.8755C108.338 98.7241 108.152 98.5264 108.045 98.2822C107.938 98.0332 107.884 97.5132 107.884 96.7222V92.2471H106.917V91.2217H107.884V89.2954L109.195 88.5044V91.2217H110.521V92.2471H109.195V96.7954C109.195 97.1714 109.217 97.4131 109.261 97.5205C109.31 97.6279 109.385 97.7134 109.488 97.7769C109.595 97.8403 109.747 97.8721 109.942 97.8721C110.088 97.8721 110.281 97.855 110.521 97.8208ZM44.1631 114.821L44.3535 115.985C43.9824 116.063 43.6504 116.103 43.3574 116.103C42.8789 116.103 42.5078 116.027 42.2441 115.875C41.9805 115.724 41.7949 115.526 41.6875 115.282C41.5801 115.033 41.5264 114.513 41.5264 113.722V109.247H40.5596V108.222H41.5264V106.295L42.8374 105.504V108.222H44.1631V109.247H42.8374V113.795C42.8374 114.171 42.8594 114.413 42.9033 114.521C42.9521 114.628 43.0278 114.713 43.1304 114.777C43.2378 114.84 43.3892 114.872 43.5845 114.872C43.731 114.872 43.9238 114.855 44.1631 114.821ZM45.4668 106.779V105.263H46.7852V106.779H45.4668ZM45.4668 116V108.222H46.7852V116H45.4668ZM54.124 113.495L55.4863 113.664C55.2715 114.459 54.8735 115.077 54.2925 115.517C53.7114 115.956 52.9692 116.176 52.0659 116.176C50.9282 116.176 50.0249 115.827 49.356 115.128C48.6919 114.425 48.3599 113.441 48.3599 112.177C48.3599 110.868 48.6968 109.853 49.3706 109.13C50.0444 108.407 50.9185 108.046 51.9927 108.046C53.0327 108.046 53.8823 108.4 54.5415 109.108C55.2007 109.816 55.5303 110.812 55.5303 112.096C55.5303 112.174 55.5278 112.292 55.5229 112.448H49.7222C49.771 113.302 50.0127 113.957 50.4473 114.411C50.8818 114.865 51.4238 115.092 52.0732 115.092C52.5566 115.092 52.9692 114.965 53.311 114.711C53.6528 114.457 53.9238 114.052 54.124 113.495ZM49.7954 111.364H54.1387C54.0801 110.709 53.9141 110.219 53.6406 109.892C53.2207 109.384 52.6763 109.13 52.0073 109.13C51.4019 109.13 50.8916 109.333 50.4766 109.738C50.0664 110.143 49.8394 110.685 49.7954 111.364ZM51.9634 106.01L51.1357 107.255H49.627L51.209 105.204H52.6152L54.2632 107.255H52.769L51.9634 106.01ZM52.6152 104.669H51.5532L49.8613 102.619H51.6265L52.6152 104.669ZM57.1489 116V108.222H58.3354V109.328C58.9067 108.473 59.7319 108.046 60.811 108.046C61.2798 108.046 61.7095 108.131 62.1001 108.302C62.4956 108.468 62.791 108.688 62.9863 108.961C63.1816 109.235 63.3184 109.56 63.3965 109.936C63.4453 110.18 63.4697 110.607 63.4697 111.217V116H62.1514V111.269C62.1514 110.731 62.1001 110.331 61.9976 110.067C61.895 109.799 61.7119 109.586 61.4482 109.43C61.1895 109.269 60.8843 109.188 60.5327 109.188C59.9712 109.188 59.4854 109.367 59.0752 109.723C58.6699 110.08 58.4673 110.756 58.4673 111.752V116H57.1489ZM69.6733 116V108.222H70.8525V109.313C71.0967 108.932 71.4214 108.627 71.8267 108.397C72.2319 108.163 72.6934 108.046 73.2109 108.046C73.7871 108.046 74.2583 108.166 74.6245 108.405C74.9956 108.644 75.2568 108.979 75.4082 109.408C76.0234 108.5 76.8242 108.046 77.8105 108.046C78.582 108.046 79.1753 108.261 79.5903 108.69C80.0054 109.115 80.2129 109.772 80.2129 110.661V116H78.9019V111.1C78.9019 110.573 78.8579 110.194 78.77 109.965C78.687 109.73 78.5332 109.542 78.3086 109.401C78.084 109.259 77.8203 109.188 77.5176 109.188C76.9707 109.188 76.5166 109.372 76.1553 109.738C75.7939 110.099 75.6133 110.68 75.6133 111.481V116H74.2949V110.946C74.2949 110.36 74.1875 109.921 73.9727 109.628C73.7578 109.335 73.4062 109.188 72.918 109.188C72.5469 109.188 72.2026 109.286 71.8853 109.481C71.5728 109.677 71.3457 109.962 71.2041 110.338C71.0625 110.714 70.9917 111.256 70.9917 111.964V116H69.6733ZM87.2441 115.041C86.7559 115.456 86.2847 115.749 85.8306 115.919C85.3813 116.09 84.8979 116.176 84.3804 116.176C83.5259 116.176 82.8691 115.968 82.4102 115.553C81.9512 115.133 81.7217 114.599 81.7217 113.949C81.7217 113.568 81.8071 113.222 81.978 112.909C82.1538 112.592 82.3809 112.338 82.6592 112.147C82.9424 111.957 83.2598 111.813 83.6113 111.715C83.8701 111.647 84.2607 111.581 84.7832 111.518C85.8477 111.391 86.6313 111.239 87.1343 111.063C87.1392 110.883 87.1416 110.768 87.1416 110.719C87.1416 110.182 87.0171 109.804 86.7681 109.584C86.4312 109.286 85.9307 109.137 85.2666 109.137C84.6465 109.137 84.1875 109.247 83.8896 109.467C83.5967 109.682 83.3794 110.065 83.2378 110.617L81.9487 110.441C82.0659 109.889 82.2588 109.445 82.5273 109.108C82.7959 108.766 83.1841 108.505 83.6919 108.324C84.1997 108.139 84.7881 108.046 85.457 108.046C86.1211 108.046 86.6606 108.124 87.0757 108.28C87.4907 108.437 87.7959 108.634 87.9912 108.874C88.1865 109.108 88.3232 109.406 88.4014 109.767C88.4453 109.992 88.4673 110.397 88.4673 110.983V112.741C88.4673 113.966 88.4941 114.743 88.5479 115.07C88.6064 115.392 88.7188 115.702 88.8848 116H87.5078C87.3711 115.727 87.2832 115.407 87.2441 115.041ZM87.1343 112.096C86.6558 112.292 85.938 112.458 84.981 112.594C84.439 112.672 84.0557 112.76 83.8311 112.858C83.6064 112.956 83.4331 113.1 83.311 113.29C83.189 113.476 83.1279 113.683 83.1279 113.913C83.1279 114.264 83.2598 114.557 83.5234 114.792C83.792 115.026 84.1826 115.143 84.6953 115.143C85.2031 115.143 85.6548 115.033 86.0503 114.813C86.4458 114.589 86.7363 114.284 86.9219 113.898C87.0635 113.6 87.1343 113.161 87.1343 112.58V112.096ZM86.7388 105.277H87.6396C87.5664 105.888 87.3418 106.356 86.9658 106.684C86.5947 107.011 86.0991 107.174 85.479 107.174C84.854 107.174 84.3535 107.013 83.9775 106.691C83.6064 106.364 83.3843 105.893 83.311 105.277H84.2119C84.2803 105.609 84.4146 105.858 84.6147 106.024C84.8198 106.186 85.0933 106.266 85.4351 106.266C85.8306 106.266 86.1284 106.188 86.3286 106.032C86.5337 105.871 86.6704 105.619 86.7388 105.277ZM84.5342 118.38V116.879H86.0356V118.38H84.5342ZM93.3965 114.821L93.5869 115.985C93.2158 116.063 92.8838 116.103 92.5908 116.103C92.1123 116.103 91.7412 116.027 91.4775 115.875C91.2139 115.724 91.0283 115.526 90.9209 115.282C90.8135 115.033 90.7598 114.513 90.7598 113.722V109.247H89.793V108.222H90.7598V106.295L92.0708 105.504V108.222H93.3965V109.247H92.0708V113.795C92.0708 114.171 92.0928 114.413 92.1367 114.521C92.1855 114.628 92.2612 114.713 92.3638 114.777C92.4712 114.84 92.6226 114.872 92.8179 114.872C92.9644 114.872 93.1572 114.855 93.3965 114.821Z" fill="white"/>
<path d="M63.0733 37.3217L64.3333 35.945V44.3217C64.3333 44.9405 64.5792 45.534 65.0168 45.9716C65.4543 46.4092 66.0478 46.655 66.6667 46.655C67.2855 46.655 67.879 46.4092 68.3166 45.9716C68.7542 45.534 69 44.9405 69 44.3217V35.945L70.26 37.2284C70.4718 37.4676 70.7305 37.6608 71.02 37.7959C71.3095 37.9311 71.6237 38.0053 71.9431 38.0141C72.2625 38.0228 72.5803 37.9659 72.8767 37.8468C73.1732 37.7277 73.4421 37.549 73.6667 37.3217C73.8854 37.1048 74.059 36.8467 74.1774 36.5624C74.2959 36.278 74.3569 35.9731 74.3569 35.665C74.3569 35.357 74.2959 35.052 74.1774 34.7677C74.059 34.4833 73.8854 34.2253 73.6667 34.0084L68.3233 28.665C68.1014 28.4526 67.8398 28.2861 67.5533 28.175C66.9853 27.9417 66.3481 27.9417 65.78 28.175C65.4936 28.2861 65.2319 28.4526 65.01 28.665L59.6667 33.915C59.2149 34.3668 58.9611 34.9795 58.9611 35.6184C58.9611 36.2572 59.2149 36.8699 59.6667 37.3217C60.1184 37.7734 60.7311 38.0272 61.37 38.0272C62.0089 38.0272 62.6216 37.7734 63.0733 37.3217ZM66.6667 51.3217C65.2822 51.3217 63.9288 51.7322 62.7777 52.5014C61.6265 53.2706 60.7293 54.3638 60.1995 55.6429C59.6697 56.922 59.5311 58.3295 59.8012 59.6873C60.0713 61.0452 60.738 62.2925 61.7169 63.2714C62.6959 64.2504 63.9432 64.9171 65.301 65.1872C66.6589 65.4573 68.0664 65.3187 69.3455 64.7889C70.6245 64.259 71.7178 63.3618 72.487 62.2107C73.2561 61.0595 73.6667 59.7062 73.6667 58.3217C73.6667 56.4652 72.9292 54.6847 71.6164 53.3719C70.3037 52.0592 68.5232 51.3217 66.6667 51.3217ZM66.6667 60.655C66.2052 60.655 65.7541 60.5182 65.3703 60.2618C64.9866 60.0054 64.6876 59.641 64.511 59.2146C64.3343 58.7883 64.2881 58.3191 64.3782 57.8665C64.4682 57.4139 64.6904 56.9981 65.0168 56.6718C65.3431 56.3455 65.7588 56.1232 66.2115 56.0332C66.6641 55.9432 67.1332 55.9894 67.5596 56.166C67.986 56.3426 68.3504 56.6417 68.6068 57.0254C68.8632 57.4091 69 57.8602 69 58.3217C69 58.9405 68.7542 59.534 68.3166 59.9716C67.879 60.4092 67.2855 60.655 66.6667 60.655ZM50.3333 58.3217C50.3333 58.7832 50.4702 59.2343 50.7266 59.618C50.983 60.0017 51.3474 60.3008 51.7737 60.4774C52.2001 60.654 52.6693 60.7002 53.1219 60.6102C53.5745 60.5202 53.9903 60.2979 54.3166 59.9716C54.6429 59.6453 54.8651 59.2295 54.9552 58.7769C55.0452 58.3243 54.999 57.8551 54.8224 57.4288C54.6458 57.0024 54.3467 56.638 53.963 56.3816C53.5793 56.1252 53.1282 55.9884 52.6667 55.9884C52.0478 55.9884 51.4543 56.2342 51.0168 56.6718C50.5792 57.1094 50.3333 57.7029 50.3333 58.3217ZM83 58.3217C83 57.8602 82.8632 57.4091 82.6068 57.0254C82.3504 56.6417 81.986 56.3426 81.5596 56.166C81.1332 55.9894 80.6641 55.9432 80.2115 56.0332C79.7588 56.1232 79.3431 56.3455 79.0168 56.6718C78.6904 56.9981 78.4682 57.4139 78.3782 57.8665C78.2881 58.3191 78.3343 58.7883 78.511 59.2146C78.6876 59.641 78.9866 60.0054 79.3703 60.2618C79.7541 60.5182 80.2052 60.655 80.6667 60.655C81.2855 60.655 81.879 60.4092 82.3166 59.9716C82.7542 59.534 83 58.9405 83 58.3217ZM85.3333 41.9884H76C75.3812 41.9884 74.7877 42.2342 74.3501 42.6718C73.9125 43.1094 73.6667 43.7029 73.6667 44.3217C73.6667 44.9405 73.9125 45.534 74.3501 45.9716C74.7877 46.4092 75.3812 46.655 76 46.655H85.3333C85.9522 46.655 86.5457 46.9009 86.9833 47.3384C87.4208 47.776 87.6667 48.3695 87.6667 48.9884V67.655C87.6667 68.2739 87.4208 68.8674 86.9833 69.305C86.5457 69.7425 85.9522 69.9884 85.3333 69.9884H48C47.3812 69.9884 46.7877 69.7425 46.3501 69.305C45.9125 68.8674 45.6667 68.2739 45.6667 67.655V48.9884C45.6667 48.3695 45.9125 47.776 46.3501 47.3384C46.7877 46.9009 47.3812 46.655 48 46.655H57.3333C57.9522 46.655 58.5457 46.4092 58.9832 45.9716C59.4208 45.534 59.6667 44.9405 59.6667 44.3217C59.6667 43.7029 59.4208 43.1094 58.9832 42.6718C58.5457 42.2342 57.9522 41.9884 57.3333 41.9884H48C46.1435 41.9884 44.363 42.7259 43.0503 44.0386C41.7375 45.3514 41 47.1318 41 48.9884V67.655C41 69.5115 41.7375 71.292 43.0503 72.6048C44.363 73.9175 46.1435 74.655 48 74.655H85.3333C87.1899 74.655 88.9703 73.9175 90.2831 72.6048C91.5958 71.292 92.3333 69.5115 92.3333 67.655V48.9884C92.3333 47.1318 91.5958 45.3514 90.2831 44.0386C88.9703 42.7259 87.1899 41.9884 85.3333 41.9884Z" fill="white"/>
<defs>
<linearGradient id="paint0_linear_1547_17253" x1="5.5" y1="5.5" x2="40" y2="45.5" gradientUnits="userSpaceOnUse">
<stop stop-color="#7AB93C" stop-opacity="0.8"/>
<stop offset="1" stop-color="#2C8D31"/>
</linearGradient>
<linearGradient id="paint1_linear_1547_17253" x1="5.93903" y1="-5.37277" x2="129" y2="127" gradientUnits="userSpaceOnUse">
<stop stop-color="#85CA75"/>
<stop offset="1" stop-color="#126F2E"/>
<stop offset="1" stop-color="#737373"/>
</linearGradient>
</defs>
</svg>
