<svg width="56" height="56" viewBox="0 0 56 56" fill="none" xmlns="http://www.w3.org/2000/svg">
<path d="M24.0733 14.3217L25.3333 12.945V21.3217C25.3333 21.9405 25.5792 22.534 26.0168 22.9716C26.4543 23.4092 27.0478 23.655 27.6667 23.655C28.2855 23.655 28.879 23.4092 29.3166 22.9716C29.7542 22.534 30 21.9405 30 21.3217V12.945L31.26 14.2284C31.4718 14.4676 31.7305 14.6608 32.02 14.7959C32.3095 14.9311 32.6237 15.0053 32.9431 15.0141C33.2625 15.0228 33.5803 14.9659 33.8767 14.8468C34.1732 14.7277 34.4421 14.549 34.6667 14.3217C34.8854 14.1048 35.059 13.8467 35.1774 13.5624C35.2959 13.278 35.3569 12.9731 35.3569 12.665C35.3569 12.357 35.2959 12.052 35.1774 11.7677C35.059 11.4833 34.8854 11.2253 34.6667 11.0084L29.3233 5.66503C29.1014 5.4526 28.8398 5.28609 28.5533 5.17503C27.9853 4.94166 27.3481 4.94166 26.78 5.17503C26.4936 5.28609 26.2319 5.4526 26.01 5.66503L20.6667 10.915C20.2149 11.3668 19.9611 11.9795 19.9611 12.6184C19.9611 13.2572 20.2149 13.8699 20.6667 14.3217C21.1184 14.7734 21.7311 15.0272 22.37 15.0272C23.0089 15.0272 23.6216 14.7734 24.0733 14.3217ZM27.6667 28.3217C26.2822 28.3217 24.9288 28.7322 23.7777 29.5014C22.6265 30.2706 21.7293 31.3638 21.1995 32.6429C20.6697 33.922 20.5311 35.3295 20.8012 36.6873C21.0713 38.0452 21.738 39.2925 22.7169 40.2714C23.6959 41.2504 24.9432 41.9171 26.301 42.1872C27.6589 42.4573 29.0664 42.3187 30.3455 41.7889C31.6245 41.259 32.7178 40.3618 33.487 39.2107C34.2561 38.0595 34.6667 36.7062 34.6667 35.3217C34.6667 33.4652 33.9292 31.6847 32.6164 30.3719C31.3037 29.0592 29.5232 28.3217 27.6667 28.3217ZM27.6667 37.655C27.2052 37.655 26.7541 37.5182 26.3703 37.2618C25.9866 37.0054 25.6876 36.641 25.511 36.2146C25.3343 35.7883 25.2881 35.3191 25.3782 34.8665C25.4682 34.4139 25.6904 33.9981 26.0168 33.6718C26.3431 33.3455 26.7588 33.1232 27.2115 33.0332C27.6641 32.9432 28.1332 32.9894 28.5596 33.166C28.986 33.3426 29.3504 33.6417 29.6068 34.0254C29.8632 34.4091 30 34.8602 30 35.3217C30 35.9405 29.7542 36.534 29.3166 36.9716C28.879 37.4092 28.2855 37.655 27.6667 37.655ZM11.3333 35.3217C11.3333 35.7832 11.4702 36.2343 11.7266 36.618C11.983 37.0017 12.3474 37.3008 12.7737 37.4774C13.2001 37.654 13.6693 37.7002 14.1219 37.6102C14.5745 37.5202 14.9903 37.2979 15.3166 36.9716C15.6429 36.6453 15.8651 36.2295 15.9552 35.7769C16.0452 35.3243 15.999 34.8551 15.8224 34.4288C15.6458 34.0024 15.3467 33.638 14.963 33.3816C14.5793 33.1252 14.1282 32.9884 13.6667 32.9884C13.0478 32.9884 12.4543 33.2342 12.0168 33.6718C11.5792 34.1094 11.3333 34.7029 11.3333 35.3217ZM44 35.3217C44 34.8602 43.8632 34.4091 43.6068 34.0254C43.3504 33.6417 42.986 33.3426 42.5596 33.166C42.1332 32.9894 41.6641 32.9432 41.2115 33.0332C40.7588 33.1232 40.3431 33.3455 40.0168 33.6718C39.6904 33.9981 39.4682 34.4139 39.3782 34.8665C39.2881 35.3191 39.3343 35.7883 39.511 36.2146C39.6876 36.641 39.9866 37.0054 40.3703 37.2618C40.7541 37.5182 41.2052 37.655 41.6667 37.655C42.2855 37.655 42.879 37.4092 43.3166 36.9716C43.7542 36.534 44 35.9405 44 35.3217ZM46.3333 18.9884H37C36.3812 18.9884 35.7877 19.2342 35.3501 19.6718C34.9125 20.1094 34.6667 20.7029 34.6667 21.3217C34.6667 21.9405 34.9125 22.534 35.3501 22.9716C35.7877 23.4092 36.3812 23.655 37 23.655H46.3333C46.9522 23.655 47.5457 23.9009 47.9833 24.3384C48.4208 24.776 48.6667 25.3695 48.6667 25.9884V44.655C48.6667 45.2739 48.4208 45.8674 47.9833 46.305C47.5457 46.7425 46.9522 46.9884 46.3333 46.9884H9C8.38116 46.9884 7.78767 46.7425 7.35008 46.305C6.9125 45.8674 6.66667 45.2739 6.66667 44.655V25.9884C6.66667 25.3695 6.9125 24.776 7.35008 24.3384C7.78767 23.9009 8.38116 23.655 9 23.655H18.3333C18.9522 23.655 19.5457 23.4092 19.9832 22.9716C20.4208 22.534 20.6667 21.9405 20.6667 21.3217C20.6667 20.7029 20.4208 20.1094 19.9832 19.6718C19.5457 19.2342 18.9522 18.9884 18.3333 18.9884H9C7.14349 18.9884 5.36301 19.7259 4.05025 21.0386C2.7375 22.3514 2 24.1318 2 25.9884V44.655C2 46.5115 2.7375 48.292 4.05025 49.6048C5.36301 50.9175 7.14349 51.655 9 51.655H46.3333C48.1899 51.655 49.9703 50.9175 51.2831 49.6048C52.5958 48.292 53.3333 46.5115 53.3333 44.655V25.9884C53.3333 24.1318 52.5958 22.3514 51.2831 21.0386C49.9703 19.7259 48.1899 18.9884 46.3333 18.9884Z" fill="white"/>
</svg>
