<svg width="56" height="56" viewBox="0 0 56 56" fill="none" xmlns="http://www.w3.org/2000/svg">
<g clip-path="url(#clip0_1743_13293)">
<path fill-rule="evenodd" clip-rule="evenodd" d="M29.1081 11.2397C29.1591 12.0571 29.0433 12.8763 28.7678 13.6475C28.4922 14.4188 28.0626 15.1259 27.5052 15.7259C26.9477 16.3259 26.2741 16.8062 25.5252 17.1377C24.7762 17.4692 23.9677 17.6448 23.1488 17.654C21.3985 17.6715 19.7084 17.0153 18.4285 15.8213C17.1485 14.6274 16.3766 12.987 16.2725 11.2397V7H29.1058V11.2373L29.1081 11.2397Z" stroke="white" stroke-width="2"/>
<path d="M5.45312 43.7207V34.8377C5.45596 30.9974 6.74081 27.2681 9.10391 24.241C11.467 21.214 14.7731 19.0625 18.4978 18.1278C22.2226 17.1932 26.1528 17.5288 29.6651 19.0815C33.1774 20.6342 36.0708 23.3151 37.8865 26.699" stroke="white" stroke-width="2"/>
<path d="M39.9303 49.9635H5.45061C4.62261 49.9635 3.82851 49.6346 3.24303 49.0491C2.65754 48.4636 2.32861 47.6695 2.32861 46.8415C2.32861 46.0135 2.65754 45.2194 3.24303 44.6339C3.82851 44.0484 4.62261 43.7195 5.45061 43.7195H11.2559M20.5449 38.4415V40.9195M20.5449 24.6328V27.1108M17.5116 35.0185V36.0218C17.5116 36.6631 17.7662 37.2782 18.2195 37.732C18.6728 38.1857 19.2876 38.4409 19.9289 38.4415H21.1703C21.81 38.4384 22.4224 38.1821 22.8737 37.7287C23.325 37.2752 23.5783 36.6615 23.5783 36.0218V35.3475C23.5785 34.9206 23.4495 34.5036 23.2084 34.1513C22.9673 33.799 22.6253 33.5279 22.2273 33.3735L18.8556 32.0645C18.4576 31.9094 18.1157 31.6378 17.8746 31.2851C17.6336 30.9325 17.5046 30.5153 17.5046 30.0881V29.5911C17.5046 28.9498 17.7592 28.3347 18.2125 27.881C18.6658 27.4273 19.2806 27.1721 19.9219 27.1715H21.1633C21.8042 27.1727 22.4185 27.4282 22.8712 27.8818C23.324 28.3355 23.5783 28.9502 23.5783 29.5911" stroke="white" stroke-width="2"/>
<path fill-rule="evenodd" clip-rule="evenodd" d="M42.546 43.7189L39.5243 40.6972L36.5027 43.7189L34.244 41.4602L37.2633 38.4409L34.2417 35.4192L36.5003 33.1605L39.522 36.1822L42.5437 33.1605L44.8 35.4192L41.7783 38.4409L44.8 41.4625L42.5437 43.7212L42.546 43.7189ZM39.5267 25.5469C36.9775 25.5473 34.4857 26.3037 32.3664 27.7203C30.247 29.1368 28.5953 31.15 27.6201 33.5053C26.6449 35.8605 26.39 38.4521 26.8876 40.9522C27.3852 43.4524 28.613 45.7488 30.4157 47.5512C32.2184 49.3535 34.515 50.5809 37.0153 51.078C39.5155 51.5752 42.107 51.3198 44.4621 50.3442C46.8171 49.3685 48.83 47.7165 50.2462 45.5969C51.6624 43.4773 52.4183 40.9854 52.4183 38.4362C52.4183 36.7434 52.0849 35.0671 51.437 33.5031C50.7891 31.9392 49.8394 30.5182 48.6423 29.3212C47.4452 28.1243 46.024 27.175 44.4599 26.5273C42.8958 25.8797 41.2195 25.5466 39.5267 25.5469Z" fill="white"/>
</g>
<defs>
<clipPath id="clip0_1743_13293">
<rect width="56" height="56" fill="white"/>
</clipPath>
</defs>
</svg>
