<svg width="134" height="134" viewBox="0 0 134 134" fill="none" xmlns="http://www.w3.org/2000/svg">
<rect width="134" height="134" rx="20" fill="url(#paint0_linear_1512_17463)" fill-opacity="0.7"/>
<path fill-rule="evenodd" clip-rule="evenodd" d="M16.5 57C36.1061 57 52 41.1061 52 21.5C52 13.4182 49.2993 5.96708 44.7513 0H114C125.046 0 134 8.9543 134 20V114C134 125.046 125.046 134 114 134H20C8.9543 134 0 125.046 0 114V52.9406C4.92964 55.533 10.5435 57 16.5 57Z" fill="url(#paint1_linear_1512_17463)"/>
<circle cx="27" cy="42" r="2" fill="#83B875"/>
<circle cx="92.5" cy="20.5" r="2.5" fill="#6CA66C"/>
<circle cx="64.5" cy="34.5" r="2.5" fill="#418D54"/>
<path d="M24.2705 100V89.2627H25.6914V98.7329H30.9795V100H24.2705ZM37.5859 99.0405C37.0977 99.4556 36.6265 99.7485 36.1724 99.9194C35.7231 100.09 35.2397 100.176 34.7222 100.176C33.8677 100.176 33.2109 99.9683 32.752 99.5532C32.293 99.1333 32.0635 98.5986 32.0635 97.9492C32.0635 97.5684 32.1489 97.2217 32.3198 96.9092C32.4956 96.5918 32.7227 96.3379 33.001 96.1475C33.2842 95.957 33.6016 95.813 33.9531 95.7153C34.2119 95.647 34.6025 95.5811 35.125 95.5176C36.1895 95.3906 36.9731 95.2393 37.4761 95.0635C37.481 94.8828 37.4834 94.7681 37.4834 94.7192C37.4834 94.1821 37.3589 93.8037 37.1099 93.584C36.7729 93.2861 36.2725 93.1372 35.6084 93.1372C34.9883 93.1372 34.5293 93.2471 34.2314 93.4668C33.9385 93.6816 33.7212 94.0649 33.5796 94.6167L32.2905 94.4409C32.4077 93.8892 32.6006 93.4448 32.8691 93.1079C33.1377 92.7661 33.5259 92.5049 34.0337 92.3242C34.5415 92.1387 35.1299 92.0459 35.7988 92.0459C36.4629 92.0459 37.0024 92.124 37.4175 92.2803C37.8325 92.4365 38.1377 92.6343 38.333 92.8735C38.5283 93.1079 38.665 93.4058 38.7432 93.7671C38.7871 93.9917 38.8091 94.397 38.8091 94.9829V96.7407C38.8091 97.9663 38.8359 98.7427 38.8896 99.0698C38.9482 99.3921 39.0605 99.7021 39.2266 100H37.8496C37.7129 99.7266 37.625 99.4067 37.5859 99.0405ZM37.4761 96.0962C36.9976 96.2915 36.2798 96.4575 35.3228 96.5942C34.7808 96.6724 34.3975 96.7603 34.1729 96.8579C33.9482 96.9556 33.7749 97.0996 33.6528 97.29C33.5308 97.4756 33.4697 97.6831 33.4697 97.9126C33.4697 98.2642 33.6016 98.5571 33.8652 98.7915C34.1338 99.0259 34.5244 99.1431 35.0371 99.1431C35.5449 99.1431 35.9966 99.0332 36.3921 98.8135C36.7876 98.5889 37.0781 98.2837 37.2637 97.8979C37.4053 97.6001 37.4761 97.1606 37.4761 96.5796V96.0962ZM35.667 90.0098L34.8394 91.2549H33.3306L34.9126 89.2041H36.3188L37.9668 91.2549H36.4727L35.667 90.0098ZM34.876 102.38V100.879H36.3774V102.38H34.876ZM40.8599 102.981V92.2217H42.061V93.2324C42.3442 92.8369 42.6641 92.5415 43.0205 92.3462C43.377 92.146 43.8091 92.0459 44.3169 92.0459C44.981 92.0459 45.5669 92.2168 46.0747 92.5586C46.5825 92.9004 46.9658 93.3838 47.2246 94.0088C47.4834 94.6289 47.6128 95.3101 47.6128 96.0522C47.6128 96.8481 47.4688 97.5659 47.1807 98.2056C46.8975 98.8403 46.4824 99.3286 45.9355 99.6704C45.3936 100.007 44.8223 100.176 44.2217 100.176C43.7822 100.176 43.3867 100.083 43.0352 99.8975C42.6885 99.7119 42.4028 99.4775 42.1782 99.1943V102.981H40.8599ZM42.0537 96.1548C42.0537 97.1558 42.2563 97.8955 42.6616 98.374C43.0669 98.8525 43.5576 99.0918 44.1338 99.0918C44.7197 99.0918 45.2202 98.8452 45.6353 98.3521C46.0552 97.854 46.2651 97.085 46.2651 96.0449C46.2651 95.0537 46.0601 94.3115 45.6499 93.8184C45.2446 93.3252 44.7588 93.0786 44.1924 93.0786C43.6309 93.0786 43.1328 93.3423 42.6982 93.8696C42.2686 94.3921 42.0537 95.1538 42.0537 96.1548ZM53.3843 102.981V92.2217H54.5854V93.2324C54.8687 92.8369 55.1885 92.5415 55.5449 92.3462C55.9014 92.146 56.3335 92.0459 56.8413 92.0459C57.5054 92.0459 58.0913 92.2168 58.5991 92.5586C59.1069 92.9004 59.4902 93.3838 59.749 94.0088C60.0078 94.6289 60.1372 95.3101 60.1372 96.0522C60.1372 96.8481 59.9932 97.5659 59.7051 98.2056C59.4219 98.8403 59.0068 99.3286 58.46 99.6704C57.918 100.007 57.3467 100.176 56.7461 100.176C56.3066 100.176 55.9111 100.083 55.5596 99.8975C55.2129 99.7119 54.9272 99.4775 54.7026 99.1943V102.981H53.3843ZM54.5781 96.1548C54.5781 97.1558 54.7808 97.8955 55.186 98.374C55.5913 98.8525 56.082 99.0918 56.6582 99.0918C57.2441 99.0918 57.7446 98.8452 58.1597 98.3521C58.5796 97.854 58.7896 97.085 58.7896 96.0449C58.7896 95.0537 58.5845 94.3115 58.1743 93.8184C57.769 93.3252 57.2832 93.0786 56.7168 93.0786C56.1553 93.0786 55.6572 93.3423 55.2227 93.8696C54.793 94.3921 54.5781 95.1538 54.5781 96.1548ZM61.7339 100V89.2627H63.0522V93.1152C63.6675 92.4023 64.4438 92.0459 65.3813 92.0459C65.9575 92.0459 66.458 92.1606 66.8828 92.3901C67.3076 92.6147 67.6104 92.9272 67.791 93.3276C67.9766 93.728 68.0693 94.3091 68.0693 95.0708V100H66.751V95.0708C66.751 94.4116 66.6069 93.9331 66.3188 93.6353C66.0356 93.3325 65.6328 93.1812 65.1104 93.1812C64.7197 93.1812 64.3511 93.2837 64.0044 93.4888C63.6626 93.689 63.4185 93.9624 63.272 94.3091C63.1255 94.6558 63.0522 95.1343 63.0522 95.7446V100H61.7339ZM70.0908 90.7788V89.2627H71.4092V90.7788H70.0908ZM70.0908 100V92.2217H71.4092V100H70.0908ZM78.748 97.4951L80.1104 97.6636C79.8955 98.4595 79.4976 99.0771 78.9165 99.5166C78.3354 99.9561 77.5933 100.176 76.6899 100.176C75.5522 100.176 74.6489 99.8267 73.98 99.1284C73.3159 98.4253 72.9839 97.4414 72.9839 96.1768C72.9839 94.8682 73.3208 93.8525 73.9946 93.1299C74.6685 92.4072 75.5425 92.0459 76.6167 92.0459C77.6567 92.0459 78.5063 92.3999 79.1655 93.1079C79.8247 93.8159 80.1543 94.812 80.1543 96.0962C80.1543 96.1743 80.1519 96.2915 80.147 96.4478H74.3462C74.395 97.3022 74.6367 97.9565 75.0713 98.4106C75.5059 98.8647 76.0479 99.0918 76.6973 99.0918C77.1807 99.0918 77.5933 98.9648 77.9351 98.7109C78.2769 98.457 78.5479 98.0518 78.748 97.4951ZM74.4194 95.3638H78.7627C78.7041 94.7095 78.5381 94.2188 78.2646 93.8916C77.8447 93.3838 77.3003 93.1299 76.6313 93.1299C76.0259 93.1299 75.5156 93.3325 75.1006 93.7378C74.6904 94.1431 74.4634 94.6851 74.4194 95.3638ZM76.5874 90.0098L75.7598 91.2549H74.251L75.833 89.2041H77.2393L78.8872 91.2549H77.3931L76.5874 90.0098ZM76.8218 86.6187H78.5869L76.895 88.6694H75.833L76.8218 86.6187ZM86.8706 100V98.8574C86.2651 99.7363 85.4424 100.176 84.4023 100.176C83.9434 100.176 83.5137 100.088 83.1133 99.9121C82.7178 99.7363 82.4224 99.5166 82.2271 99.2529C82.0366 98.9844 81.9023 98.6572 81.8242 98.2715C81.7705 98.0127 81.7437 97.6025 81.7437 97.041V92.2217H83.062V96.5356C83.062 97.2241 83.0889 97.688 83.1426 97.9272C83.2256 98.2739 83.4014 98.5474 83.6699 98.7476C83.9385 98.9429 84.2705 99.0405 84.666 99.0405C85.0615 99.0405 85.4326 98.9404 85.7793 98.7402C86.126 98.5352 86.3701 98.2593 86.5117 97.9126C86.6582 97.561 86.7314 97.0532 86.7314 96.3892V92.2217H88.0498V100H86.8706ZM94.2827 100V92.2217H95.4692V93.4009C95.772 92.8491 96.0503 92.4854 96.3042 92.3096C96.563 92.1338 96.8462 92.0459 97.1538 92.0459C97.5981 92.0459 98.0498 92.1875 98.5088 92.4707L98.0547 93.6938C97.7324 93.5034 97.4102 93.4082 97.0879 93.4082C96.7998 93.4082 96.541 93.4961 96.3115 93.6719C96.082 93.8428 95.9185 94.082 95.8208 94.3896C95.6743 94.8584 95.6011 95.3711 95.6011 95.9277V100H94.2827ZM104.39 100V98.8574C103.785 99.7363 102.962 100.176 101.922 100.176C101.463 100.176 101.033 100.088 100.633 99.9121C100.237 99.7363 99.9419 99.5166 99.7466 99.2529C99.5562 98.9844 99.4219 98.6572 99.3438 98.2715C99.29 98.0127 99.2632 97.6025 99.2632 97.041V92.2217H100.582V96.5356C100.582 97.2241 100.608 97.688 100.662 97.9272C100.745 98.2739 100.921 98.5474 101.189 98.7476C101.458 98.9429 101.79 99.0405 102.186 99.0405C102.581 99.0405 102.952 98.9404 103.299 98.7402C103.646 98.5352 103.89 98.2593 104.031 97.9126C104.178 97.561 104.251 97.0532 104.251 96.3892V92.2217H105.569V100H104.39ZM101.622 91.2549L102.596 89.2041H104.324L102.713 91.2549H101.622ZM110.521 98.8208L110.711 99.9854C110.34 100.063 110.008 100.103 109.715 100.103C109.236 100.103 108.865 100.027 108.602 99.8755C108.338 99.7241 108.152 99.5264 108.045 99.2822C107.938 99.0332 107.884 98.5132 107.884 97.7222V93.2471H106.917V92.2217H107.884V90.2954L109.195 89.5044V92.2217H110.521V93.2471H109.195V97.7954C109.195 98.1714 109.217 98.4131 109.261 98.5205C109.31 98.6279 109.385 98.7134 109.488 98.7769C109.595 98.8403 109.747 98.8721 109.942 98.8721C110.088 98.8721 110.281 98.855 110.521 98.8208ZM28.7236 115.821L28.9141 116.985C28.543 117.063 28.2109 117.103 27.918 117.103C27.4395 117.103 27.0684 117.027 26.8047 116.875C26.541 116.724 26.3555 116.526 26.248 116.282C26.1406 116.033 26.0869 115.513 26.0869 114.722V110.247H25.1201V109.222H26.0869V107.295L27.3979 106.504V109.222H28.7236V110.247H27.3979V114.795C27.3979 115.171 27.4199 115.413 27.4639 115.521C27.5127 115.628 27.5884 115.713 27.6909 115.777C27.7983 115.84 27.9497 115.872 28.145 115.872C28.2915 115.872 28.4844 115.855 28.7236 115.821ZM30.0273 107.779V106.263H31.3457V107.779H30.0273ZM30.0273 117V109.222H31.3457V117H30.0273ZM38.6846 114.495L40.0469 114.664C39.832 115.459 39.4341 116.077 38.853 116.517C38.272 116.956 37.5298 117.176 36.6265 117.176C35.4888 117.176 34.5854 116.827 33.9165 116.128C33.2524 115.425 32.9204 114.441 32.9204 113.177C32.9204 111.868 33.2573 110.853 33.9312 110.13C34.605 109.407 35.479 109.046 36.5532 109.046C37.5933 109.046 38.4429 109.4 39.1021 110.108C39.7612 110.816 40.0908 111.812 40.0908 113.096C40.0908 113.174 40.0884 113.292 40.0835 113.448H34.2827C34.3315 114.302 34.5732 114.957 35.0078 115.411C35.4424 115.865 35.9844 116.092 36.6338 116.092C37.1172 116.092 37.5298 115.965 37.8716 115.711C38.2134 115.457 38.4844 115.052 38.6846 114.495ZM34.356 112.364H38.6992C38.6406 111.709 38.4746 111.219 38.2012 110.892C37.7812 110.384 37.2368 110.13 36.5679 110.13C35.9624 110.13 35.4521 110.333 35.0371 110.738C34.627 111.143 34.3999 111.685 34.356 112.364ZM36.5239 107.01L35.6963 108.255H34.1875L35.7695 106.204H37.1758L38.8237 108.255H37.3296L36.5239 107.01ZM37.1758 105.669H36.1138L34.4219 103.619H36.187L37.1758 105.669ZM41.7095 117V109.222H42.896V110.328C43.4673 109.473 44.2925 109.046 45.3716 109.046C45.8403 109.046 46.27 109.131 46.6606 109.302C47.0562 109.468 47.3516 109.688 47.5469 109.961C47.7422 110.235 47.8789 110.56 47.957 110.936C48.0059 111.18 48.0303 111.607 48.0303 112.217V117H46.7119V112.269C46.7119 111.731 46.6606 111.331 46.5581 111.067C46.4556 110.799 46.2725 110.586 46.0088 110.43C45.75 110.269 45.4448 110.188 45.0933 110.188C44.5317 110.188 44.0459 110.367 43.6357 110.723C43.2305 111.08 43.0278 111.756 43.0278 112.752V117H41.7095ZM57.1123 115.821L57.3027 116.985C56.9316 117.063 56.5996 117.103 56.3066 117.103C55.8281 117.103 55.457 117.027 55.1934 116.875C54.9297 116.724 54.7441 116.526 54.6367 116.282C54.5293 116.033 54.4756 115.513 54.4756 114.722V110.247H53.5088V109.222H54.4756V107.295L55.7866 106.504V109.222H57.1123V110.247H55.7866V114.795C55.7866 115.171 55.8086 115.413 55.8525 115.521C55.9014 115.628 55.9771 115.713 56.0796 115.777C56.187 115.84 56.3384 115.872 56.5337 115.872C56.6802 115.872 56.873 115.855 57.1123 115.821ZM58.416 107.779V106.263H59.7344V107.779H58.416ZM58.416 117V109.222H59.7344V117H58.416ZM67.0732 114.495L68.4355 114.664C68.2207 115.459 67.8228 116.077 67.2417 116.517C66.6606 116.956 65.9185 117.176 65.0151 117.176C63.8774 117.176 62.9741 116.827 62.3052 116.128C61.6411 115.425 61.3091 114.441 61.3091 113.177C61.3091 111.868 61.646 110.853 62.3198 110.13C62.9937 109.407 63.8677 109.046 64.9419 109.046C65.9819 109.046 66.8315 109.4 67.4907 110.108C68.1499 110.816 68.4795 111.812 68.4795 113.096C68.4795 113.174 68.4771 113.292 68.4722 113.448H62.6714C62.7202 114.302 62.9619 114.957 63.3965 115.411C63.8311 115.865 64.373 116.092 65.0225 116.092C65.5059 116.092 65.9185 115.965 66.2603 115.711C66.6021 115.457 66.873 115.052 67.0732 114.495ZM62.7446 112.364H67.0879C67.0293 111.709 66.8633 111.219 66.5898 110.892C66.1699 110.384 65.6255 110.13 64.9565 110.13C64.3511 110.13 63.8408 110.333 63.4258 110.738C63.0156 111.143 62.7886 111.685 62.7446 112.364ZM64.9126 107.01L64.085 108.255H62.5762L64.1582 106.204H65.5645L67.2124 108.255H65.7183L64.9126 107.01ZM65.147 103.619H66.9121L65.2202 105.669H64.1582L65.147 103.619ZM72.9766 115.821L73.167 116.985C72.7959 117.063 72.4639 117.103 72.1709 117.103C71.6924 117.103 71.3213 117.027 71.0576 116.875C70.7939 116.724 70.6084 116.526 70.501 116.282C70.3936 116.033 70.3398 115.513 70.3398 114.722V110.247H69.373V109.222H70.3398V107.295L71.6509 106.504V109.222H72.9766V110.247H71.6509V114.795C71.6509 115.171 71.6729 115.413 71.7168 115.521C71.7656 115.628 71.8413 115.713 71.9438 115.777C72.0513 115.84 72.2026 115.872 72.3979 115.872C72.5444 115.872 72.7373 115.855 72.9766 115.821ZM78.4551 117V106.263H79.7734V112.386L82.8936 109.222H84.6001L81.6265 112.107L84.9004 117H83.2744L80.7036 113.023L79.7734 113.917V117H78.4551ZM85.9551 107.779V106.263H87.2734V107.779H85.9551ZM85.9551 117V109.222H87.2734V117H85.9551ZM94.6123 114.495L95.9746 114.664C95.7598 115.459 95.3618 116.077 94.7808 116.517C94.1997 116.956 93.4575 117.176 92.5542 117.176C91.4165 117.176 90.5132 116.827 89.8442 116.128C89.1802 115.425 88.8481 114.441 88.8481 113.177C88.8481 111.868 89.1851 110.853 89.8589 110.13C90.5327 109.407 91.4067 109.046 92.481 109.046C93.521 109.046 94.3706 109.4 95.0298 110.108C95.689 110.816 96.0186 111.812 96.0186 113.096C96.0186 113.174 96.0161 113.292 96.0112 113.448H90.2104C90.2593 114.302 90.501 114.957 90.9355 115.411C91.3701 115.865 91.9121 116.092 92.5615 116.092C93.0449 116.092 93.4575 115.965 93.7993 115.711C94.1411 115.457 94.4121 115.052 94.6123 114.495ZM90.2837 112.364H94.627C94.5684 111.709 94.4023 111.219 94.1289 110.892C93.709 110.384 93.1646 110.13 92.4956 110.13C91.8901 110.13 91.3799 110.333 90.9648 110.738C90.5547 111.143 90.3276 111.685 90.2837 112.364ZM92.4517 107.01L91.624 108.255H90.1152L91.6973 106.204H93.1035L94.7515 108.255H93.2573L92.4517 107.01ZM91.7852 119.38V117.879H93.2866V119.38H91.7852ZM97.6372 117V109.222H98.8164V110.313C99.0605 109.932 99.3853 109.627 99.7905 109.397C100.196 109.163 100.657 109.046 101.175 109.046C101.751 109.046 102.222 109.166 102.588 109.405C102.959 109.644 103.221 109.979 103.372 110.408C103.987 109.5 104.788 109.046 105.774 109.046C106.546 109.046 107.139 109.261 107.554 109.69C107.969 110.115 108.177 110.772 108.177 111.661V117H106.866V112.1C106.866 111.573 106.822 111.194 106.734 110.965C106.651 110.73 106.497 110.542 106.272 110.401C106.048 110.259 105.784 110.188 105.481 110.188C104.935 110.188 104.48 110.372 104.119 110.738C103.758 111.099 103.577 111.68 103.577 112.481V117H102.259V111.946C102.259 111.36 102.151 110.921 101.937 110.628C101.722 110.335 101.37 110.188 100.882 110.188C100.511 110.188 100.167 110.286 99.8491 110.481C99.5366 110.677 99.3096 110.962 99.168 111.338C99.0264 111.714 98.9556 112.256 98.9556 112.964V117H97.6372Z" fill="white"/>
<g clip-path="url(#clip0_1512_17463)">
<path fill-rule="evenodd" clip-rule="evenodd" d="M68.1081 34.2397C68.1591 35.0571 68.0433 35.8763 67.7678 36.6475C67.4922 37.4188 67.0626 38.1259 66.5052 38.7259C65.9477 39.3259 65.2741 39.8062 64.5252 40.1377C63.7762 40.4692 62.9677 40.6448 62.1488 40.654C60.3985 40.6715 58.7084 40.0153 57.4285 38.8213C56.1485 37.6274 55.3766 35.987 55.2725 34.2397V30H68.1058V34.2373L68.1081 34.2397Z" stroke="white" stroke-width="2"/>
<path d="M44.4531 66.7243V57.8413C44.456 54.0011 45.7408 50.2718 48.1039 47.2447C50.467 44.2176 53.7731 42.0662 57.4978 41.1315C61.2226 40.1968 65.1528 40.5325 68.6651 42.0852C72.1774 43.6379 75.0708 46.3188 76.8865 49.7027" stroke="white" stroke-width="2"/>
<path d="M78.9303 72.966H44.4506C43.6226 72.966 42.8285 72.6371 42.243 72.0516C41.6575 71.4661 41.3286 70.672 41.3286 69.844C41.3286 69.016 41.6575 68.2219 42.243 67.6365C42.8285 67.051 43.6226 66.722 44.4506 66.722H50.2559M59.5449 61.444V63.922M59.5449 47.6354V50.1134M56.5116 58.021V59.0244C56.5116 59.6657 56.7662 60.2808 57.2195 60.7345C57.6728 61.1882 58.2876 61.4434 58.9289 61.444H60.1703C60.81 61.441 61.4224 61.1847 61.8737 60.7312C62.325 60.2778 62.5783 59.6641 62.5783 59.0244V58.35C62.5785 57.9231 62.4495 57.5062 62.2084 57.1539C61.9673 56.8016 61.6253 56.5304 61.2273 56.376L57.8556 55.067C57.4576 54.912 57.1157 54.6403 56.8746 54.2877C56.6336 53.9351 56.5046 53.5179 56.5046 53.0907V52.5937C56.5046 51.9524 56.7592 51.3373 57.2125 50.8836C57.6658 50.4299 58.2806 50.1747 58.9219 50.174H60.1633C60.8042 50.1753 61.4185 50.4308 61.8712 50.8844C62.324 51.338 62.5783 51.9528 62.5783 52.5937" stroke="white" stroke-width="2"/>
<path fill-rule="evenodd" clip-rule="evenodd" d="M81.546 66.722L78.5243 63.7004L75.5027 66.722L73.244 64.4634L76.2633 61.4441L73.2417 58.4224L75.5003 56.1637L78.522 59.1854L81.5437 56.1637L83.8 58.4224L80.7783 61.4441L83.8 64.4657L81.5437 66.7244L81.546 66.722ZM78.5267 48.55C75.9775 48.5505 73.4857 49.3068 71.3664 50.7234C69.247 52.14 67.5953 54.1532 66.6201 56.5085C65.6449 58.8637 65.39 61.4553 65.8876 63.9554C66.3852 66.4555 67.613 68.752 69.4157 70.5543C71.2184 72.3567 73.515 73.5841 76.0153 74.0812C78.5155 74.5784 81.107 74.323 83.4621 73.3473C85.8171 72.3717 87.83 70.7197 89.2462 68.6001C90.6624 66.4805 91.4183 63.9886 91.4183 61.4394C91.4183 59.7465 91.0849 58.0703 90.437 56.5063C89.7891 54.9424 88.8394 53.5213 87.6423 52.3244C86.4452 51.1275 85.024 50.1781 83.4599 49.5305C81.8958 48.8829 80.2195 48.5497 78.5267 48.55Z" fill="white"/>
</g>
<defs>
<linearGradient id="paint0_linear_1512_17463" x1="5.5" y1="5.5" x2="40" y2="45.5" gradientUnits="userSpaceOnUse">
<stop stop-color="#7AB93C" stop-opacity="0.8"/>
<stop offset="1" stop-color="#2C8D31"/>
</linearGradient>
<linearGradient id="paint1_linear_1512_17463" x1="5.93903" y1="-5.37277" x2="129" y2="127" gradientUnits="userSpaceOnUse">
<stop stop-color="#85CA75"/>
<stop offset="1" stop-color="#126F2E"/>
<stop offset="1" stop-color="#737373"/>
</linearGradient>
<clipPath id="clip0_1512_17463">
<rect width="56" height="56" fill="white" transform="translate(39 23)"/>
</clipPath>
</defs>
</svg>
