<svg width="56" height="56" viewBox="0 0 56 56" fill="none" xmlns="http://www.w3.org/2000/svg">
<g clip-path="url(#clip0_1743_3624)">
<path d="M53.5948 51.9121L52.4706 50.8229L46.4171 55.9271L40.261 50.8776L34.2075 55.7767L27.873 50.8411L21.9276 56L15.8147 50.8457L9.55583 55.8587L3.57263 50.7728L0 54.2318V0H56V54.2318L53.5948 51.8984V51.9121ZM48.271 20.3529C48.562 20.3529 48.8411 20.4503 49.0468 20.6238C49.2526 20.7973 49.3682 21.0326 49.3682 21.278C49.3682 21.5234 49.2526 21.7587 49.0468 21.9322C48.8411 22.1057 48.562 22.2031 48.271 22.2031H38.0017C37.7107 22.2031 37.4317 22.1057 37.2259 21.9322C37.0201 21.7587 36.9045 21.5234 36.9045 21.278C36.9045 21.0326 37.0201 20.7973 37.2259 20.6238C37.4317 20.4503 37.7107 20.3529 38.0017 20.3529H48.271ZM46.5306 33.6055C46.6939 33.5962 46.8577 33.6153 47.0118 33.6616C47.1659 33.7079 47.3072 33.7804 47.4267 33.8746C47.5462 33.9689 47.6415 34.0828 47.7067 34.2093C47.7718 34.3359 47.8054 34.4724 47.8054 34.6104C47.8054 34.7483 47.7718 34.8848 47.7067 35.0114C47.6415 35.1379 47.5462 35.2519 47.4267 35.3461C47.3072 35.4403 47.1659 35.5128 47.0118 35.5591C46.8577 35.6054 46.6939 35.6245 46.5306 35.6152H9.46395C9.16174 35.5981 8.87855 35.4847 8.6717 35.2982C8.46485 35.1116 8.34978 34.8657 8.34978 34.6104C8.34978 34.355 8.46485 34.1091 8.6717 33.9225C8.87855 33.736 9.16174 33.6226 9.46395 33.6055H46.5306ZM41.0771 40.2728C41.3793 40.29 41.6625 40.4033 41.8694 40.5899C42.0762 40.7764 42.1913 41.0223 42.1913 41.2777C42.1913 41.5331 42.0762 41.7789 41.8694 41.9655C41.6625 42.152 41.3793 42.2654 41.0771 42.2826H9.46395C9.16174 42.2654 8.87855 42.152 8.6717 41.9655C8.46485 41.7789 8.34978 41.5331 8.34978 41.2777C8.34978 41.0223 8.46485 40.7764 8.6717 40.5899C8.87855 40.4033 9.16174 40.29 9.46395 40.2728H41.0771ZM46.5306 26.9382C46.6939 26.9289 46.8577 26.948 47.0118 26.9943C47.1659 27.0406 47.3072 27.1131 47.4267 27.2073C47.5462 27.3015 47.6415 27.4155 47.7067 27.542C47.7718 27.6686 47.8054 27.8051 47.8054 27.943C47.8054 28.081 47.7718 28.2175 47.7067 28.3441C47.6415 28.4706 47.5462 28.5845 47.4267 28.6788C47.3072 28.773 47.1659 28.8455 47.0118 28.8918C46.8577 28.9381 46.6939 28.9572 46.5306 28.9479H9.46395C9.16174 28.9307 8.87855 28.8174 8.6717 28.6308C8.46485 28.4443 8.34978 28.1984 8.34978 27.943C8.34978 27.6876 8.46485 27.4418 8.6717 27.2552C8.87855 27.0687 9.16174 26.9553 9.46395 26.9382H46.5306ZM9.08561 12.4733L20.3872 5.06315L31.7375 12.4733H9.08561ZM8.9667 20.7402H10.2963L11.2908 20.1068V14.9251H9.77743V13.5169H30.997V14.9251H29.4836V20.1068L30.4781 20.7402H31.8077V22.8822H8.9667V20.7402ZM16.4254 20.1068V14.9251H14.0851V20.1068H16.4254ZM21.5547 20.1068V14.9251H19.2144V20.1068H21.5547ZM26.6893 20.1068V14.9251H24.349V20.1068H26.6893ZM48.271 13.6719C48.562 13.6719 48.8411 13.7693 49.0468 13.9428C49.2526 14.1163 49.3682 14.3516 49.3682 14.597C49.3682 14.8424 49.2526 15.0777 49.0468 15.2512C48.8411 15.4247 48.562 15.5221 48.271 15.5221H38.0017C37.7107 15.5221 37.4317 15.4247 37.2259 15.2512C37.0201 15.0777 36.9045 14.8424 36.9045 14.597C36.9045 14.3516 37.0201 14.1163 37.2259 13.9428C37.4317 13.7693 37.7107 13.6719 38.0017 13.6719H48.271ZM53.2597 48.0612V2.31055H2.74028V48.0703L3.44291 47.3867L9.61529 52.6413L15.8687 47.6283L21.906 52.7188L27.7703 47.6237L34.1751 52.6094L40.2718 47.6738L46.3901 52.6869L52.6057 47.4414L53.2597 48.0749V48.0612Z" fill="white"/>
</g>
<defs>
<clipPath id="clip0_1743_3624">
<rect width="56" height="56" fill="white"/>
</clipPath>
</defs>
</svg>
