<svg width="56" height="56" viewBox="0 0 56 56" fill="none" xmlns="http://www.w3.org/2000/svg">
<g clip-path="url(#clip0_1743_2798)">
<path d="M31.6868 43.939L37.7161 50.2887C39.1745 50.3318 40.3457 51.5941 40.3457 53.1443C40.3457 54.7233 39.1335 56 37.6341 56C36.1348 56 34.9225 54.7185 34.9225 53.1443C34.9225 52.9715 34.9362 52.7988 34.9635 52.6308L29.7181 47.1114V51.1717H25.9629V47.2218L20.6354 52.8372C20.6445 52.9379 20.6491 53.0435 20.6491 53.1491C20.6491 54.7281 19.4368 56.0048 17.9329 56.0048C16.4336 56.0048 15.2214 54.7233 15.2214 53.1491C15.2214 51.5701 16.4382 50.2934 17.9329 50.2934C17.9785 50.2934 18.0241 50.2934 18.0651 50.2983L24.0944 43.9486L0 43.939V7.53994C0 7.51594 0 7.49674 0 7.47275V3.60919C0 3.19164 0.328125 2.85567 0.733724 2.85567H25.9629V0H29.7181V2.85567H55.2663C55.6719 2.85567 56 3.19643 56 3.60919V7.47275C56 7.48714 56 7.49674 56 7.51114V43.9342H31.6868V43.939ZM12.2546 30.0974L22.8548 19.1834C25.4798 21.9479 28.0775 24.6836 30.7298 27.4433L37.7526 19.9561L34.4941 16.5245L43.6634 16.4381V26.1762L40.5326 22.879C37.2695 26.3586 34.0202 29.8286 30.748 33.2794L22.8001 25.0147L15.0345 33.025L12.2546 30.0974ZM51.8574 10.4292H4.0651V39.5331H51.8574V10.4292Z" fill="white"/>
</g>
<defs>
<clipPath id="clip0_1743_2798">
<rect width="56" height="56" fill="white"/>
</clipPath>
</defs>
</svg>
