<svg width="56" height="56" viewBox="0 0 56 56" fill="none" xmlns="http://www.w3.org/2000/svg">
<path fill-rule="evenodd" clip-rule="evenodd" d="M36.4559 8.48025C36.4559 12.6504 33.6149 16.0253 29.4503 16.0253C25.2783 16.0253 21.3621 12.6504 21.3621 8.48025V3.49438H36.4559V8.48025Z" stroke="white" stroke-width="2"/>
<path d="M8.63699 46.6797V36.2338C8.63699 25.0432 17.7146 15.9656 28.909 15.9656C40.1034 15.9656 49.1773 25.0432 49.1773 36.2338V46.6797M8.63699 46.6797C6.60793 46.6797 4.96899 48.3224 4.96899 50.3514C4.96875 50.8333 5.06344 51.3105 5.24767 51.7557C5.43189 52.2009 5.70204 52.6055 6.04267 52.9463C6.3833 53.2871 6.78774 53.5575 7.23288 53.7419C7.67802 53.9264 8.15515 54.0213 8.63699 54.0213H49.181C50.1546 54.0213 51.0882 53.6346 51.7766 52.9462C52.4651 52.2577 52.8518 51.3241 52.8518 50.3505C52.8518 49.3769 52.4651 48.4433 51.7766 47.7549C51.0882 47.0665 50.1546 46.6797 49.181 46.6797H42.3546M8.63699 46.6797H15.4653M28.909 41.72V45.1789M28.909 22.441V25.9018" stroke="white" stroke-width="2"/>
<path d="M24.668 36.9413V38.3413C24.668 40.208 26.18 41.72 28.0466 41.72H29.7733C31.64 41.72 33.152 40.208 33.152 38.3413V37.4005C33.152 36.1797 32.4034 35.0859 31.2629 34.6416L26.5552 32.8141C25.9996 32.598 25.5222 32.2192 25.1855 31.7272C24.8488 31.2353 24.6684 30.6532 24.668 30.057V29.3608C24.668 27.4979 26.18 25.9821 28.0466 25.9821H29.7733C31.64 25.9821 33.152 27.4979 33.152 29.3608" stroke="white" stroke-width="2"/>
</svg>
