<svg width="134" height="134" viewBox="0 0 134 134" fill="none" xmlns="http://www.w3.org/2000/svg">
<rect width="134" height="134" rx="20" fill="url(#paint0_linear_1363_18829)" fill-opacity="0.7"/>
<path fill-rule="evenodd" clip-rule="evenodd" d="M16.5 57C36.1061 57 52 41.1061 52 21.5C52 13.4182 49.2993 5.96708 44.7513 0H114C125.046 0 134 8.9543 134 20V114C134 125.046 125.046 134 114 134H20C8.9543 134 0 125.046 0 114V52.9406C4.92964 55.533 10.5435 57 16.5 57Z" fill="url(#paint1_linear_1363_18829)"/>
<circle cx="27" cy="42" r="2" fill="#83B875"/>
<circle cx="92.5" cy="20.5" r="2.5" fill="#6CA66C"/>
<circle cx="64.5" cy="34.5" r="2.5" fill="#418D54"/>
<path d="M31.2358 100V90.5298H27.6982V89.2627H36.209V90.5298H32.6567V100H31.2358ZM42.5811 99.0405C42.0928 99.4556 41.6216 99.7485 41.1675 99.9194C40.7183 100.09 40.2349 100.176 39.7173 100.176C38.8628 100.176 38.2061 99.9683 37.7471 99.5532C37.2881 99.1333 37.0586 98.5986 37.0586 97.9492C37.0586 97.5684 37.144 97.2217 37.3149 96.9092C37.4907 96.5918 37.7178 96.3379 37.9961 96.1475C38.2793 95.957 38.5967 95.813 38.9482 95.7153C39.207 95.647 39.5977 95.5811 40.1201 95.5176C41.1846 95.3906 41.9683 95.2393 42.4712 95.0635C42.4761 94.8828 42.4785 94.7681 42.4785 94.7192C42.4785 94.1821 42.354 93.8037 42.105 93.584C41.7681 93.2861 41.2676 93.1372 40.6035 93.1372C39.9834 93.1372 39.5244 93.2471 39.2266 93.4668C38.9336 93.6816 38.7163 94.0649 38.5747 94.6167L37.2856 94.4409C37.4028 93.8892 37.5957 93.4448 37.8643 93.1079C38.1328 92.7661 38.521 92.5049 39.0288 92.3242C39.5366 92.1387 40.125 92.0459 40.7939 92.0459C41.458 92.0459 41.9976 92.124 42.4126 92.2803C42.8276 92.4365 43.1328 92.6343 43.3281 92.8735C43.5234 93.1079 43.6602 93.4058 43.7383 93.7671C43.7822 93.9917 43.8042 94.397 43.8042 94.9829V96.7407C43.8042 97.9663 43.8311 98.7427 43.8848 99.0698C43.9434 99.3921 44.0557 99.7021 44.2217 100H42.8447C42.708 99.7266 42.6201 99.4067 42.5811 99.0405ZM42.4712 96.0962C41.9927 96.2915 41.2749 96.4575 40.3179 96.5942C39.7759 96.6724 39.3926 96.7603 39.168 96.8579C38.9434 96.9556 38.77 97.0996 38.6479 97.29C38.5259 97.4756 38.4648 97.6831 38.4648 97.9126C38.4648 98.2642 38.5967 98.5571 38.8604 98.7915C39.1289 99.0259 39.5195 99.1431 40.0322 99.1431C40.54 99.1431 40.9917 99.0332 41.3872 98.8135C41.7827 98.5889 42.0732 98.2837 42.2588 97.8979C42.4004 97.6001 42.4712 97.1606 42.4712 96.5796V96.0962ZM40.6621 90.0098L39.8345 91.2549H38.3257L39.9077 89.2041H41.314L42.9619 91.2549H41.4678L40.6621 90.0098ZM40.8965 86.6187H42.6616L40.9697 88.6694H39.9077L40.8965 86.6187ZM48.7334 98.8208L48.9238 99.9854C48.5527 100.063 48.2207 100.103 47.9277 100.103C47.4492 100.103 47.0781 100.027 46.8145 99.8755C46.5508 99.7241 46.3652 99.5264 46.2578 99.2822C46.1504 99.0332 46.0967 98.5132 46.0967 97.7222V93.2471H45.1299V92.2217H46.0967V90.2954L47.4077 89.5044V92.2217H48.7334V93.2471H47.4077V97.7954C47.4077 98.1714 47.4297 98.4131 47.4736 98.5205C47.5225 98.6279 47.5981 98.7134 47.7007 98.7769C47.8081 98.8403 47.9595 98.8721 48.1548 98.8721C48.3013 98.8721 48.4941 98.855 48.7334 98.8208ZM57.083 98.8208L57.2734 99.9854C56.9023 100.063 56.5703 100.103 56.2773 100.103C55.7988 100.103 55.4277 100.027 55.1641 99.8755C54.9004 99.7241 54.7148 99.5264 54.6074 99.2822C54.5 99.0332 54.4463 98.5132 54.4463 97.7222V93.2471H53.4795V92.2217H54.4463V90.2954L55.7573 89.5044V92.2217H57.083V93.2471H55.7573V97.7954C55.7573 98.1714 55.7793 98.4131 55.8232 98.5205C55.8721 98.6279 55.9478 98.7134 56.0503 98.7769C56.1577 98.8403 56.3091 98.8721 56.5044 98.8721C56.6509 98.8721 56.8438 98.855 57.083 98.8208ZM57.8887 96.1108C57.8887 94.6704 58.2891 93.6035 59.0898 92.9102C59.7588 92.334 60.5742 92.0459 61.5361 92.0459C62.6055 92.0459 63.4795 92.3975 64.1582 93.1006C64.8369 93.7988 65.1763 94.7656 65.1763 96.001C65.1763 97.002 65.0249 97.7905 64.7222 98.3667C64.4243 98.938 63.9873 99.3823 63.4111 99.6997C62.8398 100.017 62.2148 100.176 61.5361 100.176C60.4473 100.176 59.5659 99.8267 58.8921 99.1284C58.2231 98.4302 57.8887 97.4243 57.8887 96.1108ZM59.2437 96.1108C59.2437 97.1069 59.4609 97.854 59.8955 98.3521C60.3301 98.8452 60.877 99.0918 61.5361 99.0918C62.1904 99.0918 62.7349 98.8428 63.1694 98.3447C63.604 97.8467 63.8213 97.0874 63.8213 96.0669C63.8213 95.105 63.6016 94.3774 63.1621 93.8843C62.7275 93.3862 62.1855 93.1372 61.5361 93.1372C60.877 93.1372 60.3301 93.3838 59.8955 93.877C59.4609 94.3701 59.2437 95.1147 59.2437 96.1108ZM71.8047 99.0405C71.3164 99.4556 70.8452 99.7485 70.3911 99.9194C69.9419 100.09 69.4585 100.176 68.9409 100.176C68.0864 100.176 67.4297 99.9683 66.9707 99.5532C66.5117 99.1333 66.2822 98.5986 66.2822 97.9492C66.2822 97.5684 66.3677 97.2217 66.5386 96.9092C66.7144 96.5918 66.9414 96.3379 67.2197 96.1475C67.5029 95.957 67.8203 95.813 68.1719 95.7153C68.4307 95.647 68.8213 95.5811 69.3438 95.5176C70.4082 95.3906 71.1919 95.2393 71.6948 95.0635C71.6997 94.8828 71.7021 94.7681 71.7021 94.7192C71.7021 94.1821 71.5776 93.8037 71.3286 93.584C70.9917 93.2861 70.4912 93.1372 69.8271 93.1372C69.207 93.1372 68.748 93.2471 68.4502 93.4668C68.1572 93.6816 67.9399 94.0649 67.7983 94.6167L66.5093 94.4409C66.6265 93.8892 66.8193 93.4448 67.0879 93.1079C67.3564 92.7661 67.7446 92.5049 68.2524 92.3242C68.7603 92.1387 69.3486 92.0459 70.0176 92.0459C70.6816 92.0459 71.2212 92.124 71.6362 92.2803C72.0513 92.4365 72.3564 92.6343 72.5518 92.8735C72.7471 93.1079 72.8838 93.4058 72.9619 93.7671C73.0059 93.9917 73.0278 94.397 73.0278 94.9829V96.7407C73.0278 97.9663 73.0547 98.7427 73.1084 99.0698C73.167 99.3921 73.2793 99.7021 73.4453 100H72.0684C71.9316 99.7266 71.8438 99.4067 71.8047 99.0405ZM71.6948 96.0962C71.2163 96.2915 70.4985 96.4575 69.5415 96.5942C68.9995 96.6724 68.6162 96.7603 68.3916 96.8579C68.167 96.9556 67.9937 97.0996 67.8716 97.29C67.7495 97.4756 67.6885 97.6831 67.6885 97.9126C67.6885 98.2642 67.8203 98.5571 68.084 98.7915C68.3525 99.0259 68.7432 99.1431 69.2559 99.1431C69.7637 99.1431 70.2153 99.0332 70.6108 98.8135C71.0063 98.5889 71.2969 98.2837 71.4824 97.8979C71.624 97.6001 71.6948 97.1606 71.6948 96.5796V96.0962ZM69.1313 91.2549L70.1055 89.2041H71.834L70.2227 91.2549H69.1313ZM75.0786 100V92.2217H76.2651V93.3276C76.8364 92.4731 77.6616 92.0459 78.7407 92.0459C79.2095 92.0459 79.6392 92.1313 80.0298 92.3022C80.4253 92.4683 80.7207 92.688 80.916 92.9614C81.1113 93.2349 81.248 93.5596 81.3262 93.9355C81.375 94.1797 81.3994 94.6069 81.3994 95.2173V100H80.0811V95.2686C80.0811 94.7314 80.0298 94.3311 79.9272 94.0674C79.8247 93.7988 79.6416 93.5864 79.3779 93.4302C79.1191 93.269 78.814 93.1885 78.4624 93.1885C77.9009 93.1885 77.415 93.3667 77.0049 93.7231C76.5996 94.0796 76.397 94.7559 76.397 95.752V100H75.0786ZM90.4814 98.8208L90.6719 99.9854C90.3008 100.063 89.9688 100.103 89.6758 100.103C89.1973 100.103 88.8262 100.027 88.5625 99.8755C88.2988 99.7241 88.1133 99.5264 88.0059 99.2822C87.8984 99.0332 87.8447 98.5132 87.8447 97.7222V93.2471H86.8779V92.2217H87.8447V90.2954L89.1558 89.5044V92.2217H90.4814V93.2471H89.1558V97.7954C89.1558 98.1714 89.1777 98.4131 89.2217 98.5205C89.2705 98.6279 89.3462 98.7134 89.4487 98.7769C89.5562 98.8403 89.7075 98.8721 89.9028 98.8721C90.0493 98.8721 90.2422 98.855 90.4814 98.8208ZM91.7852 90.7788V89.2627H93.1035V90.7788H91.7852ZM91.7852 100V92.2217H93.1035V100H91.7852ZM100.442 97.4951L101.805 97.6636C101.59 98.4595 101.192 99.0771 100.611 99.5166C100.03 99.9561 99.2876 100.176 98.3843 100.176C97.2466 100.176 96.3433 99.8267 95.6743 99.1284C95.0103 98.4253 94.6782 97.4414 94.6782 96.1768C94.6782 94.8682 95.0151 93.8525 95.689 93.1299C96.3628 92.4072 97.2368 92.0459 98.311 92.0459C99.3511 92.0459 100.201 92.3999 100.86 93.1079C101.519 93.8159 101.849 94.812 101.849 96.0962C101.849 96.1743 101.846 96.2915 101.841 96.4478H96.0405C96.0894 97.3022 96.3311 97.9565 96.7656 98.4106C97.2002 98.8647 97.7422 99.0918 98.3916 99.0918C98.875 99.0918 99.2876 98.9648 99.6294 98.7109C99.9712 98.457 100.242 98.0518 100.442 97.4951ZM96.1138 95.3638H100.457C100.398 94.7095 100.232 94.2188 99.959 93.8916C99.5391 93.3838 98.9946 93.1299 98.3257 93.1299C97.7202 93.1299 97.21 93.3325 96.7949 93.7378C96.3848 94.1431 96.1577 94.6851 96.1138 95.3638ZM98.2817 90.0098L97.4541 91.2549H95.9453L97.5273 89.2041H98.9336L100.582 91.2549H99.0874L98.2817 90.0098ZM98.5161 86.6187H100.281L98.5894 88.6694H97.5273L98.5161 86.6187ZM106.346 98.8208L106.536 99.9854C106.165 100.063 105.833 100.103 105.54 100.103C105.062 100.103 104.69 100.027 104.427 99.8755C104.163 99.7241 103.978 99.5264 103.87 99.2822C103.763 99.0332 103.709 98.5132 103.709 97.7222V93.2471H102.742V92.2217H103.709V90.2954L105.02 89.5044V92.2217H106.346V93.2471H105.02V97.7954C105.02 98.1714 105.042 98.4131 105.086 98.5205C105.135 98.6279 105.21 98.7134 105.313 98.7769C105.42 98.8403 105.572 98.8721 105.767 98.8721C105.914 98.8721 106.106 98.855 106.346 98.8208ZM52.1538 117V106.263H53.4722V112.386L56.5923 109.222H58.2988L55.3252 112.107L58.5991 117H56.9731L54.4023 113.023L53.4722 113.917V117H52.1538ZM59.6538 107.779V106.263H60.9722V107.779H59.6538ZM59.6538 117V109.222H60.9722V117H59.6538ZM68.311 114.495L69.6733 114.664C69.4585 115.459 69.0605 116.077 68.4795 116.517C67.8984 116.956 67.1562 117.176 66.2529 117.176C65.1152 117.176 64.2119 116.827 63.543 116.128C62.8789 115.425 62.5469 114.441 62.5469 113.177C62.5469 111.868 62.8838 110.853 63.5576 110.13C64.2314 109.407 65.1055 109.046 66.1797 109.046C67.2197 109.046 68.0693 109.4 68.7285 110.108C69.3877 110.816 69.7173 111.812 69.7173 113.096C69.7173 113.174 69.7148 113.292 69.71 113.448H63.9092C63.958 114.302 64.1997 114.957 64.6343 115.411C65.0688 115.865 65.6108 116.092 66.2603 116.092C66.7437 116.092 67.1562 115.965 67.498 115.711C67.8398 115.457 68.1108 115.052 68.311 114.495ZM63.9824 112.364H68.3257C68.2671 111.709 68.1011 111.219 67.8276 110.892C67.4077 110.384 66.8633 110.13 66.1943 110.13C65.5889 110.13 65.0786 110.333 64.6636 110.738C64.2534 111.143 64.0264 111.685 63.9824 112.364ZM66.1504 107.01L65.3228 108.255H63.814L65.396 106.204H66.8022L68.4502 108.255H66.9561L66.1504 107.01ZM65.4839 119.38V117.879H66.9854V119.38H65.4839ZM71.3359 117V109.222H72.5151V110.313C72.7593 109.932 73.084 109.627 73.4893 109.397C73.8945 109.163 74.356 109.046 74.8735 109.046C75.4497 109.046 75.9209 109.166 76.2871 109.405C76.6582 109.644 76.9194 109.979 77.0708 110.408C77.686 109.5 78.4868 109.046 79.4731 109.046C80.2446 109.046 80.8379 109.261 81.2529 109.69C81.668 110.115 81.8755 110.772 81.8755 111.661V117H80.5645V112.1C80.5645 111.573 80.5205 111.194 80.4326 110.965C80.3496 110.73 80.1958 110.542 79.9712 110.401C79.7466 110.259 79.4829 110.188 79.1802 110.188C78.6333 110.188 78.1792 110.372 77.8179 110.738C77.4565 111.099 77.2759 111.68 77.2759 112.481V117H75.9575V111.946C75.9575 111.36 75.8501 110.921 75.6353 110.628C75.4204 110.335 75.0688 110.188 74.5806 110.188C74.2095 110.188 73.8652 110.286 73.5479 110.481C73.2354 110.677 73.0083 110.962 72.8667 111.338C72.7251 111.714 72.6543 112.256 72.6543 112.964V117H71.3359Z" fill="white"/>
<g clip-path="url(#clip0_1363_18829)">
<path fill-rule="evenodd" clip-rule="evenodd" d="M68.1082 34.2397C68.1593 35.0571 68.0434 35.8763 67.7679 36.6475C67.4923 37.4188 67.0628 38.1259 66.5053 38.7259C65.9479 39.3259 65.2742 39.8062 64.5253 40.1377C63.7764 40.4692 62.9679 40.6448 62.1489 40.654C60.3986 40.6715 58.7086 40.0153 57.4286 38.8213C56.1486 37.6274 55.3767 35.987 55.2726 34.2397V30H68.1059V34.2373L68.1082 34.2397Z" stroke="white" stroke-width="2"/>
<path d="M44.453 66.7243V57.8413C44.4558 54.0011 45.7407 50.2718 48.1038 47.2447C50.4669 44.2176 53.773 42.0662 57.4977 41.1315C61.2225 40.1968 65.1526 40.5325 68.665 42.0852C72.1773 43.6379 75.0707 46.3188 76.8863 49.7027" stroke="white" stroke-width="2"/>
<path d="M78.9303 72.966H44.4506C43.6226 72.966 42.8285 72.6371 42.243 72.0516C41.6575 71.4661 41.3286 70.672 41.3286 69.844C41.3286 69.016 41.6575 68.2219 42.243 67.6365C42.8285 67.051 43.6226 66.722 44.4506 66.722H50.2559M59.5449 61.444V63.922M59.5449 47.6354V50.1134M56.5116 58.021V59.0244C56.5116 59.6657 56.7662 60.2808 57.2195 60.7345C57.6728 61.1882 58.2876 61.4434 58.9289 61.444H60.1703C60.81 61.441 61.4224 61.1847 61.8737 60.7312C62.325 60.2778 62.5783 59.6641 62.5783 59.0244V58.35C62.5785 57.9231 62.4495 57.5062 62.2084 57.1539C61.9673 56.8016 61.6253 56.5304 61.2273 56.376L57.8556 55.067C57.4576 54.912 57.1157 54.6403 56.8746 54.2877C56.6336 53.9351 56.5046 53.5179 56.5046 53.0907V52.5937C56.5046 51.9524 56.7592 51.3373 57.2125 50.8836C57.6658 50.4299 58.2806 50.1747 58.9219 50.174H60.1633C60.8042 50.1753 61.4185 50.4308 61.8712 50.8844C62.324 51.338 62.5783 51.9528 62.5783 52.5937" stroke="white" stroke-width="2"/>
<path fill-rule="evenodd" clip-rule="evenodd" d="M81.546 66.722L78.5243 63.7004L75.5027 66.722L73.244 64.4634L76.2633 61.4441L73.2417 58.4224L75.5003 56.1637L78.522 59.1854L81.5437 56.1637L83.8 58.4224L80.7783 61.4441L83.8 64.4657L81.5437 66.7244L81.546 66.722ZM78.5267 48.55C75.9775 48.5505 73.4857 49.3068 71.3664 50.7234C69.247 52.14 67.5953 54.1532 66.6201 56.5085C65.6449 58.8637 65.39 61.4553 65.8876 63.9554C66.3852 66.4555 67.613 68.752 69.4157 70.5543C71.2184 72.3567 73.515 73.5841 76.0153 74.0812C78.5155 74.5784 81.107 74.323 83.4621 73.3473C85.8171 72.3717 87.83 70.7197 89.2462 68.6001C90.6624 66.4805 91.4183 63.9886 91.4183 61.4394C91.4183 59.7465 91.0849 58.0703 90.437 56.5063C89.7891 54.9424 88.8394 53.5213 87.6423 52.3244C86.4452 51.1275 85.024 50.1781 83.4599 49.5305C81.8958 48.8829 80.2195 48.5497 78.5267 48.55Z" fill="white"/>
</g>
<defs>
<linearGradient id="paint0_linear_1363_18829" x1="5.5" y1="5.5" x2="40" y2="45.5" gradientUnits="userSpaceOnUse">
<stop stop-color="#7AB93C" stop-opacity="0.8"/>
<stop offset="1" stop-color="#2C8D31"/>
</linearGradient>
<linearGradient id="paint1_linear_1363_18829" x1="5.93903" y1="-5.37277" x2="129" y2="127" gradientUnits="userSpaceOnUse">
<stop stop-color="#85CA75"/>
<stop offset="1" stop-color="#126F2E"/>
<stop offset="1" stop-color="#737373"/>
</linearGradient>
<clipPath id="clip0_1363_18829">
<rect width="56" height="56" fill="white" transform="translate(39 23)"/>
</clipPath>
</defs>
</svg>
