<svg width="56" height="56" viewBox="0 0 56 56" fill="none" xmlns="http://www.w3.org/2000/svg">
<g clip-path="url(#clip0_365_433)">
<path fill-rule="evenodd" clip-rule="evenodd" d="M29.1082 11.2397C29.1589 12.0568 29.0429 12.8757 28.7674 13.6466C28.4918 14.4176 28.0625 15.1244 27.5053 15.7243C26.9482 16.3242 26.275 16.8046 25.5265 17.1364C24.778 17.4681 23.9699 17.6442 23.1512 17.654C21.4009 17.6715 19.7109 17.0153 18.4309 15.8213C17.1509 14.6274 16.379 12.987 16.2749 11.2397V7H29.1082V11.2373V11.2397Z" stroke="white" stroke-width="2"/>
<path d="M5.45288 43.7197V34.8367C5.45468 30.9958 6.73916 27.2655 9.10248 24.2377C11.4658 21.21 14.7726 19.0582 18.4981 18.1239C22.2236 17.1896 26.1545 17.5262 29.6669 19.0804C33.1793 20.6345 36.0721 23.3172 37.8862 26.7027" stroke="white" stroke-width="2"/>
<path d="M39.9279 49.9637H5.45061C4.62261 49.9637 3.82851 49.6347 3.24303 49.0493C2.65754 48.4638 2.32861 47.6697 2.32861 46.8417C2.32861 46.0137 2.65754 45.2196 3.24303 44.6341C3.82851 44.0486 4.62261 43.7197 5.45061 43.7197H11.2559M20.5449 38.444V40.922M20.5449 24.6353V27.1133M17.5116 35.021V36.0243C17.5113 36.342 17.5736 36.6566 17.695 36.9501C17.8163 37.2437 17.9943 37.5104 18.2188 37.7352C18.4433 37.9599 18.7099 38.1381 19.0033 38.2598C19.2968 38.3814 19.6113 38.444 19.9289 38.444H21.1679C21.8079 38.4409 22.4206 38.1847 22.8722 37.7313C23.3238 37.2779 23.5777 36.6643 23.5783 36.0243V35.35C23.5783 34.9228 23.449 34.5056 23.2075 34.1533C22.9659 33.801 22.6234 33.53 22.2249 33.376L18.8509 32.067C18.4529 31.9119 18.111 31.6403 17.87 31.2877C17.6289 30.935 17.4999 30.5178 17.4999 30.0907V29.5937C17.4996 29.276 17.5619 28.9614 17.6833 28.6679C17.8046 28.3743 17.9826 28.1076 18.2071 27.8828C18.4316 27.6581 18.6982 27.4799 18.9917 27.3582C19.2851 27.2366 19.5996 27.174 19.9173 27.174H21.1563C21.7982 27.174 22.4139 27.4289 22.8681 27.8826C23.3222 28.3363 23.5777 28.9517 23.5783 29.5937" stroke="white" stroke-width="2"/>
<path fill-rule="evenodd" clip-rule="evenodd" d="M48.1482 37.7137H44.0625V35.567H45.9852C45.4235 34.3223 44.5163 33.2649 43.3714 32.5204C42.2266 31.7759 40.8921 31.3756 39.5265 31.367C37.9172 31.3593 36.3538 31.9029 35.0963 32.9073C33.8389 33.9117 32.9633 35.3164 32.6152 36.8877C32.551 37.1637 32.3804 37.4033 32.1405 37.5543C31.9006 37.7052 31.6109 37.7554 31.3342 37.694C31.0575 37.6325 30.8163 37.4643 30.6629 37.2259C30.5096 36.9875 30.4565 36.6983 30.5152 36.421C30.9684 34.373 32.1093 32.542 33.748 31.2328C35.3867 29.9235 37.4244 29.2149 39.5219 29.225C41.1731 29.2369 42.7913 29.6893 44.2093 30.5355C45.6273 31.3817 46.7938 32.591 47.5882 34.0387L48.2275 32.7577L50.1502 33.719L48.1412 37.73L48.1482 37.7137ZM48.5285 40.502C48.1141 42.3268 47.1543 43.9824 45.7765 45.2488C44.3988 46.5151 42.6684 47.3324 40.8152 47.5919C38.9619 47.8514 37.0736 47.541 35.401 46.7018C33.7284 45.8626 32.3507 44.5345 31.4509 42.8937L30.8185 44.163L28.8959 43.2017L30.9049 39.1907H34.9859V41.3373H33.0609C33.667 42.6944 34.6847 43.8264 35.9698 44.5732C37.2548 45.3199 38.7422 45.6436 40.2214 45.4983C41.7006 45.353 43.0966 44.7462 44.2118 43.7636C45.3271 42.7811 46.105 41.4727 46.4355 40.0237C46.4974 39.7452 46.6674 39.5027 46.9081 39.3496C47.1487 39.1964 47.4404 39.1451 47.7189 39.207C47.9974 39.2689 48.2398 39.4389 48.393 39.6795C48.5462 39.9202 48.5974 40.2119 48.5355 40.4903L48.5285 40.502ZM39.5242 25.55C36.975 25.5505 34.4833 26.3068 32.3639 27.7234C30.2446 29.14 28.5929 31.1532 27.6177 33.5084C26.6425 35.8637 26.3876 38.4552 26.8852 40.9554C27.3828 43.4555 28.6105 45.7519 30.4132 47.5543C32.2159 49.3567 34.5126 50.584 37.0128 51.0812C39.513 51.5783 42.1045 51.3229 44.4596 50.3473C46.8147 49.3717 48.8276 47.7196 50.2438 45.6C51.66 43.4804 52.4159 40.9885 52.4159 38.4393C52.4162 36.7464 52.0829 35.07 51.4351 33.5059C50.7874 31.9418 49.8377 30.5207 48.6405 29.3237C47.4433 28.1267 46.022 27.1774 44.4578 26.5299C42.8936 25.8823 41.2171 25.5494 39.5242 25.55Z" fill="white"/>
</g>
<defs>
<clipPath id="clip0_365_433">
<rect width="56" height="56" fill="white"/>
</clipPath>
</defs>
</svg>
