<svg width="56" height="56" viewBox="0 0 56 56" fill="none" xmlns="http://www.w3.org/2000/svg">
<path d="M19.4852 31.7734L4.57227 46.6864" stroke="white" stroke-width="2"/>
<path d="M24.3412 36.625L9.42822 51.5379" stroke="white" stroke-width="2"/>
<path d="M9.42821 51.5391C8.78427 52.183 7.9109 52.5448 7.00024 52.5448C6.08957 52.5448 5.2162 52.183 4.57227 51.5391" stroke="white" stroke-width="2" stroke-linecap="round" stroke-linejoin="round"/>
<path d="M4.57211 46.6875C3.92817 47.3314 3.56641 48.2048 3.56641 49.1155C3.56641 50.0261 3.92817 50.8995 4.57211 51.5434" stroke="white" stroke-width="2" stroke-linecap="round" stroke-linejoin="round"/>
<path d="M52.6433 18.9203C52.6433 20.9494 52.2436 22.9587 51.4671 24.8333C50.6906 26.708 49.5524 28.4113 48.1176 29.8462C46.6828 31.281 44.9795 32.4191 43.1048 33.1956C41.2301 33.9721 39.2209 34.3718 37.1918 34.3718C35.1626 34.3718 33.1534 33.9721 31.2787 33.1956C29.4041 32.4191 27.7007 31.281 26.2659 29.8462C24.8311 28.4113 23.6929 26.708 22.9164 24.8333C22.1399 22.9587 21.7402 20.9494 21.7402 18.9203C21.7402 14.8223 23.3682 10.8921 26.2659 7.9944C29.1636 5.09667 33.0938 3.46875 37.1918 3.46875C39.2209 3.46875 41.2301 3.86842 43.1048 4.64493C44.9795 5.42144 46.6828 6.55959 48.1176 7.9944C49.5524 9.4292 50.6906 11.1326 51.4671 13.0072C52.2436 14.8819 52.6433 16.8912 52.6433 18.9203Z" stroke="white" stroke-width="2" stroke-linecap="round" stroke-linejoin="round"/>
<path d="M19.4849 31.7734L24.3408 36.6294" stroke="white" stroke-width="2" stroke-linecap="round" stroke-linejoin="round"/>
<path d="M21.9131 34.1968L26.2662 29.8438" stroke="white" stroke-width="2" stroke-linecap="round" stroke-linejoin="round"/>
<path d="M15.3403 35.9141L20.1963 40.77" stroke="white" stroke-width="2" stroke-linecap="round" stroke-linejoin="round"/>
<path d="M45.7761 18.9219C45.7761 21.1985 44.8717 23.382 43.2618 24.9918C41.652 26.6017 39.4686 27.5061 37.1919 27.5061" stroke="white" stroke-width="2" stroke-linecap="round" stroke-linejoin="round"/>
</svg>
