<svg width="195" height="214" viewBox="0 0 195 214" fill="none" xmlns="http://www.w3.org/2000/svg">
<path fill-rule="evenodd" clip-rule="evenodd" d="M137.415 0.128615C139.248 0.230702 141.065 0.393018 142.865 0.613617V0.715226C141.072 0.442563 139.254 0.245897 137.415 0.128615ZM133.368 0.00204314C133.173 0.000681797 132.978 0 132.783 0H132.358H30C13.4315 0 0 13.4314 0 30V196.01H1.73024L93.2848 115.125C96.9244 111.91 102.728 112.018 106.246 115.368C109.765 118.717 109.668 124.039 106.028 127.255L101.396 131.347H132.358H133.368V131.339C167.498 130.799 195 102.964 195 68.7047V62.6425C195 28.3834 167.498 0.547683 133.368 0.00798321V0.00204314ZM149.534 131.262C149.426 131.291 149.319 131.319 149.211 131.347H149.534V131.262ZM100.489 196.01L101.074 195.492V196.01H100.489Z" fill="url(#paint0_linear_68_278)"/>
<path d="M63.2432 173.751C63.2432 153.485 79.3507 136.888 99.6083 136.281L139.948 135.073C153.086 134.679 165.582 129.3 174.898 120.028L181.903 128.957C188.314 137.129 192.117 147.043 192.816 157.407L192.874 158.268C193.221 163.405 192.713 168.565 191.371 173.536C186.205 192.673 169.491 206.443 149.719 207.849L103.39 211.144C81.6941 212.688 63.2432 195.503 63.2432 173.751Z" fill="url(#paint1_linear_68_278)"/>
<defs>
<linearGradient id="paint0_linear_68_278" x1="97.5" y1="0" x2="97.5" y2="196.01" gradientUnits="userSpaceOnUse">
<stop stop-color="#3F1882"/>
<stop offset="1" stop-color="#8F50F8"/>
</linearGradient>
<linearGradient id="paint1_linear_68_278" x1="129.469" y1="150.07" x2="104.688" y2="192.119" gradientUnits="userSpaceOnUse">
<stop stop-color="#31E1E1"/>
<stop offset="1" stop-color="#047AEE"/>
</linearGradient>
</defs>
</svg>
