<svg width="135" height="135" viewBox="0 0 135 135" fill="none" xmlns="http://www.w3.org/2000/svg">
<rect x="0.5" y="0.5" width="134" height="134" rx="19.5" stroke="white" stroke-dasharray="2 2"/>
<g clip-path="url(#clip0_273_973)">
<g opacity="0.805">
<path d="M65.8333 63.6513L54.4 69.718L56.9667 54.5513L46 43.818L61.4 41.4847L68.1667 27.718L74.9333 41.4847L90.3333 43.818L84.0333 49.8847" stroke="white" stroke-width="2" stroke-linecap="square" stroke-linejoin="round"/>
<path d="M81.2334 58.2847V72.0513M74.2334 65.2847H88.0001" stroke="white" stroke-width="2" stroke-linecap="square"/>
</g>
</g>
<path d="M20.7088 98V96.986H21.8528V89.888H20.7088V88.822H24.3098V89.888H23.1528V96.934H26.3508V95.452H27.4948V98H20.7088ZM37.0565 90.096C37.0045 90.3993 36.9265 90.694 36.8225 90.98C36.7272 91.266 36.5929 91.526 36.4195 91.76C36.2549 91.9853 36.0382 92.176 35.7695 92.332C35.5009 92.4793 35.1715 92.5747 34.7815 92.618V98H33.8455L33.6765 97.077H33.6245C33.4772 97.3197 33.2865 97.519 33.0525 97.675C32.8272 97.831 32.5759 97.9437 32.2985 98.013C32.0212 98.091 31.7352 98.13 31.4405 98.13C30.8772 98.13 30.4049 98.0433 30.0235 97.87C29.6422 97.688 29.3562 97.4107 29.1655 97.038C28.9749 96.6653 28.8795 96.1843 28.8795 95.595V91.045H30.0365V95.517C30.0365 96.0717 30.1622 96.4877 30.4135 96.765C30.6649 97.0423 31.0549 97.181 31.5835 97.181C32.3549 97.181 32.8879 96.9643 33.1825 96.531C33.4859 96.0977 33.6375 95.4737 33.6375 94.659V91.045H34.7815V91.812C35.0589 91.76 35.2669 91.6517 35.4055 91.487C35.5442 91.3223 35.6352 91.11 35.6785 90.85C35.7305 90.5813 35.7565 90.2823 35.7565 89.953H36.9655L37.0565 90.096ZM31.6485 100.288C31.4665 100.288 31.3062 100.227 31.1675 100.106C31.0375 99.9847 30.9725 99.8027 30.9725 99.56C30.9725 99.3087 31.0375 99.1223 31.1675 99.001C31.3062 98.8883 31.4665 98.832 31.6485 98.832C31.8305 98.832 31.9865 98.8883 32.1165 99.001C32.2552 99.1223 32.3245 99.3087 32.3245 99.56C32.3245 99.8027 32.2552 99.9847 32.1165 100.106C31.9865 100.227 31.8305 100.288 31.6485 100.288ZM37.0413 96.167C37.0413 94.1 39.7843 93.957 40.8763 93.957H41.2923V93.71C41.2923 92.67 40.6943 92.306 39.8883 92.306C38.8483 92.306 38.0033 92.943 38.0033 92.943L37.4963 92.046C37.4963 92.046 38.4583 91.266 39.9923 91.266C41.6693 91.266 42.5533 92.137 42.5533 93.801V96.739C42.5533 96.934 42.6573 97.025 42.8393 97.025H43.5023V98H42.1893C41.6043 98 41.3703 97.714 41.3703 97.285V97.194C41.3703 96.934 41.4223 96.765 41.4223 96.765H41.3963C41.3963 96.765 40.8243 98.156 39.2253 98.156C38.1333 98.156 37.0413 97.519 37.0413 96.167ZM38.3153 96.063C38.3153 96.648 38.7443 97.181 39.4983 97.181C40.6163 97.181 41.3053 96.037 41.3053 95.049V94.776H40.9803C40.3823 94.776 38.3153 94.802 38.3153 96.063ZM47.5932 94.724C47.5932 92.709 49.1142 91.266 51.0772 91.266C52.0522 91.266 53.6512 91.63 53.6512 92.761V93.567H52.5332V93.112C52.5332 92.605 51.7012 92.358 51.1162 92.358C49.7902 92.358 48.8802 93.294 48.8802 94.698C48.8802 96.193 49.9332 97.064 51.1942 97.064C52.3122 97.064 53.0662 96.401 53.3002 96.219L53.7812 97.142C53.4822 97.415 52.5332 98.156 51.1422 98.156C49.2442 98.156 47.5932 96.843 47.5932 94.724ZM54.6748 98V97.025H55.7148V89.797H54.6098V88.822H56.9628V92.228C56.9628 92.54 56.9238 92.774 56.9238 92.774H56.9498C57.2358 92.137 58.0938 91.266 59.4068 91.266C60.9538 91.266 61.6688 92.111 61.6688 93.788V97.025H62.6958V98H60.4078V94.074C60.4078 93.151 60.2128 92.423 59.1598 92.423C57.8728 92.423 56.9628 93.515 56.9628 94.919V97.025H58.0028V98H54.6748ZM70.1816 94.503C70.1816 95.0837 70.1036 95.5993 69.9476 96.05C69.8002 96.492 69.5836 96.869 69.2976 97.181C69.0202 97.493 68.6779 97.7313 68.2706 97.896C67.8719 98.052 67.4256 98.13 66.9316 98.13C66.4722 98.13 66.0476 98.052 65.6576 97.896C65.2676 97.7313 64.9296 97.493 64.6436 97.181C64.3576 96.869 64.1322 96.492 63.9676 96.05C63.8116 95.5993 63.7336 95.0837 63.7336 94.503C63.7336 93.7317 63.8636 93.0817 64.1236 92.553C64.3836 92.0157 64.7562 91.6083 65.2416 91.331C65.7269 91.045 66.3032 90.902 66.9706 90.902C67.6032 90.902 68.1579 91.045 68.6346 91.331C69.1199 91.6083 69.4969 92.0157 69.7656 92.553C70.0429 93.0817 70.1816 93.7317 70.1816 94.503ZM64.9166 94.503C64.9166 95.049 64.9859 95.5257 65.1246 95.933C65.2719 96.3317 65.4972 96.6393 65.8006 96.856C66.1039 97.0727 66.4896 97.181 66.9576 97.181C67.4256 97.181 67.8112 97.0727 68.1146 96.856C68.4179 96.6393 68.6389 96.3317 68.7776 95.933C68.9249 95.5257 68.9986 95.049 68.9986 94.503C68.9986 93.9483 68.9249 93.476 68.7776 93.086C68.6302 92.696 68.4049 92.397 68.1016 92.189C67.8069 91.9723 67.4212 91.864 66.9446 91.864C66.2339 91.864 65.7182 92.098 65.3976 92.566C65.0769 93.034 64.9166 93.6797 64.9166 94.503ZM66.9186 100.288C66.7366 100.288 66.5762 100.227 66.4376 100.106C66.3076 99.9847 66.2426 99.8027 66.2426 99.56C66.2426 99.3087 66.3076 99.1223 66.4376 99.001C66.5762 98.8883 66.7366 98.832 66.9186 98.832C67.1006 98.832 67.2566 98.8883 67.3866 99.001C67.5252 99.1223 67.5946 99.3087 67.5946 99.56C67.5946 99.8027 67.5252 99.9847 67.3866 100.106C67.2566 100.227 67.1006 100.288 66.9186 100.288ZM71.5136 98V97.025H72.5406V92.683C72.5406 92.488 72.4366 92.397 72.2546 92.397H71.4486V91.422H72.9306C73.5026 91.422 73.7626 91.669 73.7626 92.15V92.488C73.7626 92.696 73.7236 92.865 73.7236 92.865H73.7496C73.8796 92.514 74.6466 91.266 76.3106 91.266C77.8186 91.266 78.4946 92.111 78.4946 93.788V97.025H79.5346V98H77.2336V94.074C77.2336 93.151 77.0516 92.423 75.9986 92.423C74.6726 92.423 73.8016 93.632 73.8016 94.945V97.025H74.8416V98H71.5136ZM83.6225 94.724C83.6225 92.709 85.1435 91.266 87.1065 91.266C88.0815 91.266 89.6805 91.63 89.6805 92.761V93.567H88.5625V93.112C88.5625 92.605 87.7305 92.358 87.1455 92.358C85.8195 92.358 84.9095 93.294 84.9095 94.698C84.9095 96.193 85.9625 97.064 87.2235 97.064C88.3415 97.064 89.0955 96.401 89.3295 96.219L89.8105 97.142C89.5115 97.415 88.5625 98.156 87.1715 98.156C85.2735 98.156 83.6225 96.843 83.6225 94.724ZM90.7041 98V97.025H91.7441V89.797H90.6391V88.822H92.9921V92.228C92.9921 92.54 92.9531 92.774 92.9531 92.774H92.9791C93.2651 92.137 94.1231 91.266 95.4361 91.266C96.9831 91.266 97.6981 92.111 97.6981 93.788V97.025H98.7251V98H96.4371V94.074C96.4371 93.151 96.2421 92.423 95.1891 92.423C93.9021 92.423 92.9921 93.515 92.9921 94.919V97.025H94.0321V98H90.7041ZM108.252 90.096C108.2 90.3993 108.122 90.694 108.018 90.98C107.923 91.266 107.788 91.526 107.615 91.76C107.45 91.9853 107.234 92.176 106.965 92.332C106.696 92.4793 106.367 92.5747 105.977 92.618V98H105.041L104.872 97.077H104.82C104.673 97.3197 104.482 97.519 104.248 97.675C104.023 97.831 103.771 97.9437 103.494 98.013C103.217 98.091 102.931 98.13 102.636 98.13C102.073 98.13 101.6 98.0433 101.219 97.87C100.838 97.688 100.552 97.4107 100.361 97.038C100.17 96.6653 100.075 96.1843 100.075 95.595V91.045H101.232V95.517C101.232 96.0717 101.358 96.4877 101.609 96.765C101.86 97.0423 102.25 97.181 102.779 97.181C103.55 97.181 104.083 96.9643 104.378 96.531C104.681 96.0977 104.833 95.4737 104.833 94.659V91.045H105.977V91.812C106.254 91.76 106.462 91.6517 106.601 91.487C106.74 91.3223 106.831 91.11 106.874 90.85C106.926 90.5813 106.952 90.2823 106.952 89.953H108.161L108.252 90.096ZM104.898 88.172C104.82 88.2933 104.707 88.4407 104.56 88.614C104.413 88.7873 104.248 88.9693 104.066 89.16C103.893 89.342 103.715 89.5197 103.533 89.693C103.36 89.8577 103.195 90.0007 103.039 90.122H102.285V89.966C102.415 89.8013 102.554 89.6063 102.701 89.381C102.857 89.1557 103.009 88.926 103.156 88.692C103.303 88.4493 103.425 88.2327 103.52 88.042H104.898V88.172ZM108.328 94.724C108.328 92.709 109.849 91.266 111.812 91.266C112.787 91.266 114.386 91.63 114.386 92.761V93.567H113.268V93.112C113.268 92.605 112.436 92.358 111.851 92.358C110.525 92.358 109.615 93.294 109.615 94.698C109.615 96.193 110.668 97.064 111.929 97.064C113.047 97.064 113.801 96.401 114.035 96.219L114.516 97.142C114.217 97.415 113.268 98.156 111.877 98.156C109.979 98.156 108.328 96.843 108.328 94.724ZM27.6894 114V113.025H28.7164V108.683C28.7164 108.488 28.6124 108.397 28.4304 108.397H27.6244V107.422H29.1064C29.6784 107.422 29.9384 107.669 29.9384 108.15V108.488C29.9384 108.696 29.8994 108.865 29.8994 108.865H29.9254C30.0554 108.514 30.8224 107.266 32.4864 107.266C33.9944 107.266 34.6704 108.111 34.6704 109.788V113.025H35.7104V114H33.4094V110.074C33.4094 109.151 33.2274 108.423 32.1744 108.423C30.8484 108.423 29.9774 109.632 29.9774 110.945V113.025H31.0174V114H27.6894ZM36.4573 112.167C36.4573 110.1 39.2003 109.957 40.2923 109.957H40.7083V109.71C40.7083 108.67 40.1103 108.306 39.3043 108.306C38.2643 108.306 37.4193 108.943 37.4193 108.943L36.9123 108.046C36.9123 108.046 37.8743 107.266 39.4083 107.266C41.0853 107.266 41.9693 108.137 41.9693 109.801V112.739C41.9693 112.934 42.0733 113.025 42.2553 113.025H42.9183V114H41.6053C41.0203 114 40.7863 113.714 40.7863 113.285V113.194C40.7863 112.934 40.8383 112.765 40.8383 112.765H40.8123C40.8123 112.765 40.2403 114.156 38.6413 114.156C37.5493 114.156 36.4573 113.519 36.4573 112.167ZM37.7313 112.063C37.7313 112.648 38.1603 113.181 38.9143 113.181C40.0323 113.181 40.7213 112.037 40.7213 111.049V110.776H40.3963C39.7983 110.776 37.7313 110.802 37.7313 112.063ZM39.4473 106.525C38.5373 106.525 37.7183 106.005 37.7183 105.004V104.822H38.6803V104.991C38.6803 105.524 39.0573 105.758 39.4473 105.758C39.8113 105.758 40.2013 105.524 40.2013 104.978V104.822H41.1633V105.004C41.1633 106.005 40.3443 106.525 39.4473 106.525ZM43.8633 114V113.025H44.8903V108.683C44.8903 108.488 44.7863 108.397 44.6043 108.397H43.7983V107.422H45.2803C45.8523 107.422 46.1123 107.669 46.1123 108.15V108.488C46.1123 108.696 46.0733 108.865 46.0733 108.865H46.0993C46.2293 108.514 46.9963 107.266 48.6603 107.266C50.1683 107.266 50.8443 108.111 50.8443 109.788V113.025H51.8843V114H49.5833V110.074C49.5833 109.151 49.4013 108.423 48.3483 108.423C47.0223 108.423 46.1513 109.632 46.1513 110.945V113.025H47.1913V114H43.8633ZM53.7751 115.222C53.7751 115.222 54.5941 115.664 55.5821 115.664C56.7261 115.664 57.6621 115.144 57.6621 113.792V113.272C57.6621 113.064 57.7011 112.856 57.7011 112.856H57.6751C57.2851 113.506 56.6611 113.922 55.6991 113.922C53.8791 113.922 52.7611 112.453 52.7611 110.555C52.7611 108.67 53.8141 107.266 55.6471 107.266C56.5051 107.266 57.4151 107.591 57.7791 108.345H57.8051C57.8051 108.345 57.7791 108.254 57.7791 108.085C57.7791 107.669 57.9871 107.422 58.5331 107.422H59.9371V108.397H59.2091C59.0401 108.397 58.9231 108.488 58.9231 108.657V113.727C58.9231 115.898 57.2721 116.73 55.6081 116.73C54.8151 116.73 54.0091 116.509 53.3591 116.184L53.7751 115.222ZM55.9461 112.83C56.8561 112.83 57.6881 112.284 57.6881 110.568C57.6881 108.852 56.8561 108.358 55.8291 108.358C54.6981 108.358 54.0481 109.19 54.0481 110.529C54.0481 111.894 54.7631 112.83 55.9461 112.83ZM64.2138 114V113.025H65.2408V108.683C65.2408 108.488 65.1368 108.397 64.9548 108.397H64.1488V107.422H65.6308C66.2028 107.422 66.4628 107.669 66.4628 108.15V108.488C66.4628 108.696 66.4238 108.865 66.4238 108.865H66.4498C66.5798 108.514 67.3468 107.266 69.0108 107.266C70.5188 107.266 71.1948 108.111 71.1948 109.788V113.025H72.2348V114H69.9338V110.074C69.9338 109.151 69.7518 108.423 68.6988 108.423C67.3728 108.423 66.5018 109.632 66.5018 110.945V113.025H67.5418V114H64.2138ZM77.0637 104.302C77.2024 104.493 77.3497 104.688 77.5057 104.887C77.6617 105.078 77.8177 105.264 77.9737 105.446C78.1384 105.628 78.2944 105.801 78.4417 105.966V106.122H77.8047C77.5881 105.975 77.3671 105.814 77.1417 105.641C76.9164 105.459 76.6911 105.268 76.4657 105.069C76.2404 105.268 76.0151 105.459 75.7897 105.641C75.5644 105.814 75.3434 105.975 75.1267 106.122H74.4897V105.966C74.6371 105.801 74.7887 105.628 74.9447 105.446C75.1094 105.264 75.2697 105.078 75.4257 104.887C75.5904 104.688 75.7377 104.493 75.8677 104.302H77.0637ZM78.2857 102.677C78.6844 102.677 78.9921 102.751 79.2087 102.898C79.4254 103.045 79.5337 103.271 79.5337 103.574C79.5337 103.825 79.4557 104.016 79.2997 104.146C79.1437 104.267 78.9531 104.354 78.7277 104.406L78.6887 104.913H78.1557L78.0907 104.094C78.3421 104.051 78.5327 103.999 78.6627 103.938C78.7927 103.869 78.8577 103.756 78.8577 103.6C78.8577 103.453 78.7971 103.353 78.6757 103.301C78.5631 103.24 78.4157 103.21 78.2337 103.21C78.1471 103.21 78.0604 103.214 77.9737 103.223C77.8957 103.223 77.8307 103.232 77.7787 103.249V102.716C77.8307 102.699 77.9001 102.69 77.9867 102.69C78.0734 102.681 78.1731 102.677 78.2857 102.677ZM79.7157 110.503C79.7157 111.084 79.6377 111.599 79.4817 112.05C79.3344 112.492 79.1177 112.869 78.8317 113.181C78.5544 113.493 78.2121 113.731 77.8047 113.896C77.4061 114.052 76.9597 114.13 76.4657 114.13C76.0064 114.13 75.5817 114.052 75.1917 113.896C74.8017 113.731 74.4637 113.493 74.1777 113.181C73.8917 112.869 73.6664 112.492 73.5017 112.05C73.3457 111.599 73.2677 111.084 73.2677 110.503C73.2677 109.732 73.3977 109.082 73.6577 108.553C73.9177 108.016 74.2904 107.608 74.7757 107.331C75.2611 107.045 75.8374 106.902 76.5047 106.902C77.1374 106.902 77.6921 107.045 78.1687 107.331C78.6541 107.608 79.0311 108.016 79.2997 108.553C79.5771 109.082 79.7157 109.732 79.7157 110.503ZM74.4507 110.503C74.4507 111.049 74.5201 111.526 74.6587 111.933C74.8061 112.332 75.0314 112.639 75.3347 112.856C75.6381 113.073 76.0237 113.181 76.4917 113.181C76.9597 113.181 77.3454 113.073 77.6487 112.856C77.9521 112.639 78.1731 112.332 78.3117 111.933C78.4591 111.526 78.5327 111.049 78.5327 110.503C78.5327 109.948 78.4591 109.476 78.3117 109.086C78.1644 108.696 77.9391 108.397 77.6357 108.189C77.3411 107.972 76.9554 107.864 76.4787 107.864C75.7681 107.864 75.2524 108.098 74.9317 108.566C74.6111 109.034 74.4507 109.68 74.4507 110.503ZM82.0488 106.109V104.822H83.3748V106.109H82.0488ZM81.0478 114V113.025H82.0748V108.397H80.9828V107.422H83.3358V113.025H84.3758V114H81.0478ZM89.146 114V105.797H88.041V104.822H90.407V107.864C90.407 108.176 90.368 108.41 90.368 108.41H90.394C90.394 108.41 90.979 107.266 92.513 107.266C94.294 107.266 95.412 108.67 95.412 110.711C95.412 112.804 94.151 114.156 92.409 114.156C90.888 114.156 90.329 112.96 90.329 112.96H90.303C90.303 112.96 90.342 113.194 90.342 113.48V114H89.146ZM90.368 110.737C90.368 111.907 90.979 113.064 92.24 113.064C93.267 113.064 94.125 112.219 94.125 110.724C94.125 109.294 93.358 108.371 92.266 108.371C91.291 108.371 90.368 109.06 90.368 110.737ZM99.7069 106.915C100.556 106.915 101.185 107.101 101.592 107.474C101.999 107.847 102.203 108.44 102.203 109.255V114H101.371L101.15 113.012H101.098C100.899 113.263 100.691 113.476 100.474 113.649C100.266 113.814 100.023 113.935 99.7459 114.013C99.4772 114.091 99.1479 114.13 98.7579 114.13C98.3419 114.13 97.9649 114.056 97.6269 113.909C97.2976 113.762 97.0376 113.536 96.8469 113.233C96.6562 112.921 96.5609 112.531 96.5609 112.063C96.5609 111.37 96.8339 110.837 97.3799 110.464C97.9259 110.083 98.7666 109.875 99.9019 109.84L101.085 109.801V109.385C101.085 108.804 100.959 108.401 100.708 108.176C100.457 107.951 100.101 107.838 99.6419 107.838C99.2779 107.838 98.9312 107.894 98.6019 108.007C98.2726 108.111 97.9649 108.232 97.6789 108.371L97.3279 107.513C97.6312 107.348 97.9909 107.21 98.4069 107.097C98.8229 106.976 99.2562 106.915 99.7069 106.915ZM100.045 110.633C99.1782 110.668 98.5759 110.806 98.2379 111.049C97.9086 111.292 97.7439 111.634 97.7439 112.076C97.7439 112.466 97.8609 112.752 98.0949 112.934C98.3376 113.116 98.6452 113.207 99.0179 113.207C99.6072 113.207 100.097 113.047 100.487 112.726C100.877 112.397 101.072 111.894 101.072 111.218V110.594L100.045 110.633ZM100.214 104.042C100.318 104.233 100.465 104.449 100.656 104.692C100.855 104.926 101.059 105.16 101.267 105.394C101.484 105.619 101.674 105.814 101.839 105.979V106.122H101.033C100.808 105.983 100.574 105.814 100.331 105.615C100.088 105.407 99.8499 105.186 99.6159 104.952C99.3819 105.186 99.1479 105.403 98.9139 105.602C98.6799 105.801 98.4502 105.975 98.2249 106.122H97.4449V105.979C97.6096 105.806 97.7916 105.606 97.9909 105.381C98.1989 105.156 98.3982 104.926 98.5889 104.692C98.7796 104.449 98.9312 104.233 99.0439 104.042H100.214ZM99.5249 116.288C99.3429 116.288 99.1826 116.227 99.0439 116.106C98.9139 115.985 98.8489 115.803 98.8489 115.56C98.8489 115.309 98.9139 115.122 99.0439 115.001C99.1826 114.888 99.3429 114.832 99.5249 114.832C99.7069 114.832 99.8629 114.888 99.9929 115.001C100.132 115.122 100.201 115.309 100.201 115.56C100.201 115.803 100.132 115.985 99.9929 116.106C99.8629 116.227 99.7069 116.288 99.5249 116.288ZM104.589 111.595V108.397H103.484V107.422H104.615V105.615H105.85V107.422H107.423V108.397H105.85V111.478C105.85 112.817 106.76 112.986 107.254 112.986C107.436 112.986 107.553 112.973 107.553 112.973V114.026C107.553 114.026 107.371 114.052 107.098 114.052C106.266 114.052 104.589 113.792 104.589 111.595Z" fill="white"/>
<defs>
<clipPath id="clip0_273_973">
<rect x="39" y="23" width="56" height="56" rx="20" fill="white"/>
</clipPath>
</defs>
</svg>
