<svg width="37" height="37" viewBox="0 0 37 37" fill="none" xmlns="http://www.w3.org/2000/svg">
<path d="M15.9568 21.0017L20.3739 25.4188C20.7695 25.8144 21.3775 25.9037 21.8701 25.6393L27.1636 22.7976C27.5551 22.5872 28.0283 22.5974 28.4105 22.8244L36.1339 27.4076C36.685 27.7345 36.9068 28.4185 36.6489 29.0049C35.9889 30.5068 34.7876 33.2596 34.3104 34.4768C34.21 34.733 34.0606 34.9678 33.8526 35.1477C28.7053 39.6095 18.4643 34.173 10.6255 26.3342C2.78551 18.495 -2.65098 8.25398 1.81079 3.10665C1.99112 2.89871 2.22586 2.74926 2.48172 2.64894C3.6985 2.17173 6.45167 0.970394 7.95355 0.310428C8.54001 0.0525337 9.22393 0.274282 9.55087 0.825404L14.1341 8.54883C14.3607 8.931 14.3709 9.40415 14.1609 9.79566L11.3192 15.0884C11.0548 15.581 11.1441 16.189 11.5397 16.5846L15.9568 21.0017Z" fill="#72BF00"/>
<path d="M36.7552 20.3069H33.1C33.1 11.2371 25.7214 3.8585 16.6516 3.8585V0.203308C27.7366 0.203308 36.7552 9.22189 36.7552 20.3069Z" fill="#C3C8CA"/>
<path d="M29.6479 20.3069H25.9927C25.9927 15.1563 21.8026 10.9658 16.6516 10.9658V7.31061C23.8178 7.31061 29.6479 13.1406 29.6479 20.3069Z" fill="#C3C8CA"/>
</svg>
