<svg width="31" height="31" viewBox="0 0 31 31" fill="none" xmlns="http://www.w3.org/2000/svg">
<path fill-rule="evenodd" clip-rule="evenodd" d="M18.3933 1.70704C18.5202 1.9535 18.5522 2.26996 18.615 2.90288C18.7345 4.09871 18.7943 4.69663 19.0452 5.02621C19.2014 5.23084 19.4091 5.39046 19.6471 5.48882C19.885 5.58718 20.1448 5.62078 20.4 5.58621C20.8083 5.53225 21.275 5.15163 22.2054 4.39038C22.6968 3.98642 22.9433 3.78517 23.2072 3.70058C23.5434 3.59316 23.9072 3.61129 24.231 3.75163C24.4862 3.86246 24.7122 4.08704 25.16 4.53621L26.4637 5.83996C26.9129 6.28913 27.1375 6.51371 27.2483 6.76892C27.3886 7.09275 27.4068 7.45648 27.2993 7.79267C27.2147 8.05663 27.0135 8.30308 26.611 8.79454C25.8483 9.72642 25.4677 10.1916 25.4123 10.6014C25.3781 10.8565 25.4121 11.116 25.5107 11.3537C25.6093 11.5914 25.769 11.7988 25.9737 11.9548C26.3018 12.2056 26.9012 12.2654 28.0985 12.385C28.73 12.4477 29.0464 12.4797 29.2943 12.6066C29.6071 12.7688 29.8505 13.0387 29.9798 13.3664C30.0833 13.6245 30.0833 13.9425 30.0833 14.5783V16.4216C30.0833 17.0575 30.0833 17.3754 29.9812 17.632C29.8516 17.9608 29.607 18.2313 29.2929 18.3933C29.0464 18.5202 28.73 18.5522 28.097 18.615C26.9012 18.7345 26.3033 18.7943 25.9737 19.0452C25.7691 19.2014 25.6095 19.4091 25.5111 19.6471C25.4127 19.885 25.3791 20.1448 25.4137 20.4C25.4691 20.8083 25.8497 21.275 26.611 22.2054C27.0135 22.6968 27.2147 22.9418 27.2993 23.2072C27.4068 23.5434 27.3886 23.9072 27.2483 24.231C27.1375 24.4862 26.9129 24.7108 26.4637 25.16L25.16 26.4622C24.7108 26.9129 24.4862 27.1375 24.231 27.2468C23.9072 27.3872 23.5434 27.4053 23.2072 27.2979C22.9433 27.2133 22.6968 27.012 22.2054 26.6095C21.2735 25.8483 20.8083 25.4677 20.4 25.4137C20.1448 25.3791 19.885 25.4127 19.6471 25.5111C19.4091 25.6095 19.2014 25.7691 19.0452 25.9737C18.7943 26.3018 18.7345 26.8997 18.615 28.097C18.5522 28.73 18.5202 29.0464 18.3933 29.2929C18.2317 29.6067 17.9617 29.8513 17.6335 29.9812C17.3754 30.0833 17.0575 30.0833 16.4216 30.0833H14.5783C13.9425 30.0833 13.6245 30.0833 13.3679 29.9812C13.0391 29.8516 12.7686 29.607 12.6066 29.2929C12.4797 29.0464 12.4477 28.73 12.385 28.097C12.2654 26.9012 12.2056 26.3033 11.9548 25.9737C11.7986 25.7693 11.5912 25.6098 11.3535 25.5115C11.1158 25.4131 10.8563 25.3794 10.6014 25.4137C10.1916 25.4677 9.72642 25.8483 8.79454 26.6095C8.30308 27.0135 8.05663 27.2147 7.79267 27.2993C7.45648 27.4068 7.09275 27.3886 6.76892 27.2483C6.51371 27.1375 6.28767 26.9129 5.83996 26.4637L4.53621 25.16C4.08704 24.7108 3.86246 24.4862 3.75163 24.231C3.61129 23.9072 3.59316 23.5434 3.70058 23.2072C3.78517 22.9433 3.98642 22.6968 4.38892 22.2054C5.15163 21.2735 5.53225 20.8083 5.58621 20.3985C5.62051 20.1436 5.58677 19.8841 5.48842 19.6464C5.39008 19.4088 5.23061 19.2013 5.02621 19.0452C4.69808 18.7943 4.09871 18.7345 2.90142 18.615C2.26996 18.5522 1.9535 18.5202 1.70558 18.3933C1.39284 18.2311 1.14937 17.9612 1.02017 17.6335C0.916626 17.3754 0.916626 17.0575 0.916626 16.4216V14.5783C0.916626 13.9425 0.916626 13.6245 1.01871 13.3679C1.14834 13.0391 1.39294 12.7686 1.70704 12.6066C1.9535 12.4797 2.26996 12.4477 2.90288 12.385C4.09871 12.2654 4.69808 12.2056 5.02621 11.9548C5.23088 11.7988 5.39062 11.5914 5.48923 11.3537C5.58784 11.116 5.6218 10.8565 5.58767 10.6014C5.53225 10.1916 5.15017 9.72642 4.38892 8.79308C3.98642 8.30163 3.78517 8.05663 3.70058 7.79121C3.59316 7.45503 3.61129 7.09129 3.75163 6.76746C3.86246 6.51371 4.08704 6.28767 4.53621 5.8385L5.83996 4.53621C6.28913 4.08704 6.51371 3.861 6.76892 3.75163C7.09275 3.61129 7.45648 3.59316 7.79267 3.70058C8.05663 3.78517 8.30308 3.98642 8.79454 4.38892C9.72642 5.15017 10.1916 5.53079 10.6 5.58621C10.8555 5.62088 11.1156 5.58719 11.3539 5.48856C11.5921 5.38993 11.8 5.22989 11.9562 5.02475C12.2041 4.69663 12.2654 4.09871 12.385 2.90142C12.4477 2.26996 12.4797 1.9535 12.6066 1.70558C12.7685 1.39229 13.0384 1.14827 13.3664 1.01871C13.6245 0.916626 13.9425 0.916626 14.5783 0.916626H16.4216C17.0575 0.916626 17.3754 0.916626 17.632 1.01871C17.9608 1.14834 18.2313 1.39294 18.3933 1.70704ZM15.5 21.3333C17.0471 21.3333 18.5308 20.7187 19.6247 19.6247C20.7187 18.5308 21.3333 17.0471 21.3333 15.5C21.3333 13.9529 20.7187 12.4691 19.6247 11.3752C18.5308 10.2812 17.0471 9.66663 15.5 9.66663C13.9529 9.66663 12.4691 10.2812 11.3752 11.3752C10.2812 12.4691 9.66663 13.9529 9.66663 15.5C9.66663 17.0471 10.2812 18.5308 11.3752 19.6247C12.4691 20.7187 13.9529 21.3333 15.5 21.3333Z" fill="white"/>
</svg>
