<svg width="65" height="65" viewBox="0 0 65 65" fill="none" xmlns="http://www.w3.org/2000/svg">
<path fill-rule="evenodd" clip-rule="evenodd" d="M35.3932 18.707C35.52 18.9535 35.5521 19.27 35.6148 19.9029C35.7344 21.0987 35.7942 21.6966 36.045 22.0262C36.2013 22.2308 36.409 22.3905 36.647 22.4888C36.8849 22.5872 37.1447 22.6208 37.3998 22.5862C37.8082 22.5323 38.2748 22.1516 39.2053 21.3904C39.6967 20.9864 39.9432 20.7852 40.2071 20.7006C40.5433 20.5932 40.907 20.6113 41.2309 20.7516C41.4861 20.8625 41.7121 21.087 42.1598 21.5362L43.4636 22.84C43.9128 23.2891 44.1373 23.5137 44.2482 23.7689C44.3885 24.0927 44.4066 24.4565 44.2992 24.7927C44.2146 25.0566 44.0134 25.3031 43.6109 25.7945C42.8482 26.7264 42.4675 27.1916 42.4121 27.6014C42.378 27.8565 42.4119 28.116 42.5106 28.3537C42.6092 28.5914 42.7689 28.7988 42.9736 28.9548C43.3017 29.2056 43.9011 29.2654 45.0984 29.385C45.7298 29.4477 46.0463 29.4797 46.2942 29.6066C46.607 29.7688 46.8504 30.0387 46.9796 30.3664C47.0832 30.6245 47.0832 30.9425 47.0832 31.5783V33.4216C47.0832 34.0575 47.0832 34.3754 46.9811 34.632C46.8515 34.9608 46.6069 35.2313 46.2928 35.3933C46.0463 35.5202 45.7298 35.5522 45.0969 35.615C43.9011 35.7345 43.3032 35.7943 42.9736 36.0452C42.7689 36.2014 42.6093 36.4091 42.511 36.6471C42.4126 36.885 42.379 37.1448 42.4136 37.4C42.469 37.8083 42.8496 38.275 43.6109 39.2054C44.0134 39.6968 44.2146 39.9418 44.2992 40.2072C44.4066 40.5434 44.3885 40.9072 44.2482 41.231C44.1373 41.4862 43.9128 41.7108 43.4636 42.16L42.1598 43.4622C41.7107 43.9129 41.4861 44.1375 41.2309 44.2468C40.907 44.3872 40.5433 44.4053 40.2071 44.2979C39.9432 44.2133 39.6967 44.012 39.2053 43.6095C38.2734 42.8483 37.8082 42.4677 37.3998 42.4137C37.1447 42.3791 36.8849 42.4127 36.647 42.5111C36.409 42.6095 36.2013 42.7691 36.045 42.9737C35.7942 43.3018 35.7344 43.8997 35.6148 45.097C35.5521 45.73 35.52 46.0464 35.3932 46.2929C35.2316 46.6067 34.9616 46.8513 34.6334 46.9812C34.3753 47.0833 34.0573 47.0833 33.4215 47.0833H31.5782C30.9423 47.0833 30.6244 47.0833 30.3678 46.9812C30.039 46.8516 29.7685 46.607 29.6065 46.2929C29.4796 46.0464 29.4475 45.73 29.3848 45.097C29.2653 43.9012 29.2055 43.3033 28.9546 42.9737C28.7985 42.7693 28.591 42.6098 28.3534 42.5115C28.1157 42.4131 27.8562 42.3794 27.6013 42.4137C27.1915 42.4677 26.7263 42.8483 25.7944 43.6095C25.303 44.0135 25.0565 44.2147 24.7925 44.2993C24.4564 44.4068 24.0926 44.3886 23.7688 44.2483C23.5136 44.1375 23.2875 43.9129 22.8398 43.4637L21.5361 42.16C21.0869 41.7108 20.8623 41.4862 20.7515 41.231C20.6112 40.9072 20.593 40.5434 20.7005 40.2072C20.785 39.9433 20.9863 39.6968 21.3888 39.2054C22.1515 38.2735 22.5321 37.8083 22.5861 37.3985C22.6204 37.1436 22.5867 36.8841 22.4883 36.6464C22.39 36.4088 22.2305 36.2013 22.0261 36.0452C21.698 35.7943 21.0986 35.7345 19.9013 35.615C19.2698 35.5522 18.9534 35.5202 18.7055 35.3933C18.3927 35.2311 18.1492 34.9612 18.02 34.6335C17.9165 34.3754 17.9165 34.0575 17.9165 33.4216V31.5783C17.9165 30.9425 17.9165 30.6245 18.0186 30.3679C18.1482 30.0391 18.3928 29.7686 18.7069 29.6066C18.9534 29.4797 19.2698 29.4477 19.9028 29.385C21.0986 29.2654 21.698 29.2056 22.0261 28.9548C22.2308 28.7988 22.3905 28.5914 22.4891 28.3537C22.5877 28.116 22.6217 27.8565 22.5875 27.6014C22.5321 27.1916 22.15 26.7264 21.3888 25.7931C20.9863 25.3016 20.785 25.0566 20.7005 24.7912C20.593 24.455 20.6112 24.0913 20.7515 23.7675C20.8623 23.5137 21.0869 23.2877 21.5361 22.8385L22.8398 21.5362C23.289 21.087 23.5136 20.861 23.7688 20.7516C24.0926 20.6113 24.4564 20.5932 24.7925 20.7006C25.0565 20.7852 25.303 20.9864 25.7944 21.3889C26.7263 22.1502 27.1915 22.5308 27.5998 22.5862C27.8554 22.6209 28.1155 22.5872 28.3538 22.4886C28.592 22.3899 28.7998 22.2299 28.9561 22.0248C29.204 21.6966 29.2653 21.0987 29.3848 19.9014C29.4475 19.27 29.4796 18.9535 29.6065 18.7056C29.7684 18.3923 30.0383 18.1483 30.3663 18.0187C30.6244 17.9166 30.9423 17.9166 31.5782 17.9166H33.4215C34.0573 17.9166 34.3753 17.9166 34.6319 18.0187C34.9607 18.1483 35.2312 18.3929 35.3932 18.707ZM32.4998 38.3333C34.0469 38.3333 35.5307 37.7187 36.6246 36.6247C37.7186 35.5308 38.3332 34.0471 38.3332 32.5C38.3332 30.9529 37.7186 29.4691 36.6246 28.3752C35.5307 27.2812 34.0469 26.6666 32.4998 26.6666C30.9527 26.6666 29.469 27.2812 28.375 28.3752C27.2811 29.4691 26.6665 30.9529 26.6665 32.5C26.6665 34.0471 27.2811 35.5308 28.375 36.6247C29.469 37.7187 30.9527 38.3333 32.4998 38.3333Z" fill="white"/>
</svg>
