<svg width="1385" height="361" viewBox="0 0 1385 361" fill="none" xmlns="http://www.w3.org/2000/svg">
<rect width="1385" height="361" rx="20" fill="white"/>
<g clip-path="url(#clip0_904_2900)">
<path fill-rule="evenodd" clip-rule="evenodd" d="M557.848 25.1241C559.847 25.2227 561.829 25.3793 563.792 25.5922V25.6903C561.836 25.4271 559.854 25.2373 557.848 25.1241ZM553.435 25.002C553.223 25.0007 553.01 25 552.797 25H552.334H440.714C422.647 25 408 37.963 408 53.9538V214.175H409.887L509.725 136.11C513.694 133.007 520.023 133.112 523.859 136.345C527.697 139.577 527.591 144.713 523.621 147.817L518.57 151.767H552.334H553.435V151.759C590.653 151.238 620.644 124.373 620.644 91.3088V85.458C620.644 52.3936 590.653 25.5286 553.435 25.0077V25.002ZM571.064 151.685C570.946 151.713 570.829 151.74 570.712 151.767H571.064V151.685ZM517.581 214.175L518.219 213.675V214.175H517.581Z" fill="url(#paint0_linear_904_2900)"/>
<path d="M476.965 192.692C476.965 173.133 494.53 157.114 516.621 156.529L560.611 155.363C574.937 154.982 588.564 149.791 598.723 140.842L606.362 149.46C613.353 157.347 617.5 166.915 618.262 176.918L618.325 177.749C618.704 182.707 618.15 187.687 616.686 192.484C611.053 210.954 592.827 224.244 571.266 225.601L520.745 228.781C497.086 230.271 476.965 213.685 476.965 192.692Z" fill="url(#paint1_linear_904_2900)"/>
</g>
<path d="M678.878 162.419V156.959H685.038V118.389H678.878V112.999H701.348C704.918 112.999 707.578 113.349 710.028 114.469C713.948 116.219 716.818 120.279 716.818 125.599C716.818 130.429 714.438 134.279 710.588 136.239V136.379C715.908 137.919 718.778 142.749 718.778 148.349C718.778 154.859 714.788 159.759 709.678 161.509C707.298 162.279 704.988 162.419 702.258 162.419H678.878ZM692.038 133.789H702.398C706.878 133.789 709.678 130.709 709.678 126.229C709.678 123.359 708.558 120.909 706.458 119.719C705.058 119.019 703.448 118.739 701.348 118.739H692.038V133.789ZM692.038 156.679H702.538C703.938 156.679 705.618 156.539 706.948 155.979C709.818 154.789 711.638 151.709 711.638 147.999C711.638 142.889 708.278 139.529 703.098 139.529H692.038V156.679ZM726.456 162.419V156.959H732.616V118.389H726.456V112.999H748.926C752.496 112.999 755.156 113.349 757.606 114.469C761.526 116.219 764.396 120.279 764.396 125.599C764.396 130.429 762.016 134.279 758.166 136.239V136.379C763.486 137.919 766.356 142.749 766.356 148.349C766.356 154.859 762.366 159.759 757.256 161.509C754.876 162.279 752.566 162.419 749.836 162.419H726.456ZM739.616 133.789H749.976C754.456 133.789 757.256 130.709 757.256 126.229C757.256 123.359 756.136 120.909 754.036 119.719C752.636 119.019 751.026 118.739 748.926 118.739H739.616V133.789ZM739.616 156.679H750.116C751.516 156.679 753.196 156.539 754.526 155.979C757.396 154.789 759.216 151.709 759.216 147.999C759.216 142.889 755.856 139.529 750.676 139.529H739.616V156.679ZM770.752 162.419V156.959H775.512L791.262 112.999H799.172L814.922 156.959H819.682V162.419H802.532V156.959H807.782L803.932 145.969H786.432L782.582 156.959H787.902V162.419H770.752ZM788.182 140.369H802.182L796.162 123.219C795.462 121.189 795.322 119.439 795.322 119.439H795.112C795.112 119.439 794.902 121.189 794.272 123.219L788.182 140.369ZM824.141 162.419V156.959H830.301V118.389H824.141V112.999H837.231L861.521 148.419C862.361 149.819 863.201 151.989 863.201 151.989H863.411C863.411 151.989 863.061 149.539 863.061 147.999V118.389H856.761V112.999H876.291V118.389H870.061V162.419H863.201L838.911 126.999C838.001 125.599 837.231 123.429 837.231 123.429H837.021C837.021 123.429 837.371 125.879 837.301 127.419V156.959H843.671V162.419H824.141ZM882.794 162.419V156.959H888.954V118.389H882.794V112.999H901.344V118.389H895.954V133.929H902.324L913.104 118.389H908.554V112.999H925.284V118.389H920.524L907.714 136.239V136.379C907.714 136.379 909.114 137.009 910.514 139.669L919.404 155.139C920.174 156.469 921.154 156.959 922.904 156.959H925.214V162.419H920.244C916.114 162.419 914.924 161.439 913.384 158.709L903.864 141.629C903.024 140.229 902.044 139.669 900.014 139.669H895.954V156.959H902.044V162.419H882.794Z" fill="url(#paint2_linear_904_2900)"/>
<path d="M149.461 314V309.32H154.801V276.56H144.841V283.16H139.621V271.64H175.981V283.16H170.761V276.56H160.801V309.32H166.141V314H149.461ZM180.605 292.52C180.605 280.34 190.085 270.92 202.385 270.92C214.625 270.92 224.165 280.34 224.165 292.52C224.165 305 214.625 314.72 202.385 314.72C190.085 314.72 180.605 305 180.605 292.52ZM186.785 292.52C186.785 302.06 193.745 309.38 202.385 309.38C210.965 309.38 217.925 302.06 217.925 292.52C217.925 283.28 210.965 276.2 202.385 276.2C193.745 276.2 186.785 283.28 186.785 292.52ZM226.843 314V309.32H230.923L244.423 271.64H251.203L264.703 309.32H268.783V314H254.083V309.32H258.583L255.283 299.9H240.283L236.983 309.32H241.543V314H226.843ZM241.783 295.1H253.783L248.623 280.4C248.023 278.66 247.903 277.16 247.903 277.16H247.723C247.723 277.16 247.543 278.66 247.003 280.4L241.783 295.1ZM245.863 268.7L238.423 261.08H245.143L251.323 268.7H245.863ZM272.662 314V309.32H277.942V276.26H272.662V271.64H283.882L304.702 302C305.422 303.2 306.142 305.06 306.142 305.06H306.322C306.322 305.06 306.022 302.96 306.022 301.64V276.26H300.622V271.64H317.362V276.26H312.022V314H306.142L285.322 283.64C284.542 282.44 283.882 280.58 283.882 280.58H283.702C283.702 280.58 284.002 282.68 283.942 284V309.32H289.402V314H272.662ZM337.936 314V309.32H343.216V276.26H337.936V271.64H355.996C359.536 271.64 362.176 271.82 364.996 272.66C373.096 275.18 378.376 282.5 378.376 292.82C378.376 303.08 373.276 310.22 364.996 312.86C362.236 313.76 359.416 314 356.056 314H337.936ZM349.216 309.08H355.696C358.456 309.08 360.736 308.84 362.896 308C368.596 306.02 372.136 300.56 372.136 292.82C372.136 285.02 368.596 279.56 362.956 277.52C360.616 276.68 358.456 276.56 355.696 276.56H349.216V309.08ZM384.284 314V309.32H389.564V276.26H384.284V271.64H400.904V276.26H395.564V309.32H400.904V314H384.284ZM433.774 314H409.834V271.16H433.774V275.9H415.234V289.28H432.694V293.96H415.234V309.26H433.774V314ZM421.954 324.56C421.114 324.56 420.374 324.28 419.734 323.72C419.134 323.16 418.834 322.32 418.834 321.2C418.834 320.04 419.134 319.18 419.734 318.62C420.374 318.1 421.114 317.84 421.954 317.84C422.794 317.84 423.514 318.1 424.114 318.62C424.754 319.18 425.074 320.04 425.074 321.2C425.074 322.32 424.754 323.16 424.114 323.72C423.514 324.28 422.794 324.56 421.954 324.56ZM425.074 257.36C425.554 258.24 426.234 259.24 427.114 260.36C428.034 261.44 428.974 262.52 429.934 263.6C430.934 264.64 431.814 265.54 432.574 266.3V266.96H428.854C427.814 266.32 426.734 265.54 425.614 264.62C424.494 263.66 423.394 262.64 422.314 261.56C421.234 262.64 420.154 263.64 419.074 264.56C417.994 265.48 416.934 266.28 415.894 266.96H412.294V266.3C413.054 265.5 413.894 264.58 414.814 263.54C415.774 262.5 416.694 261.44 417.574 260.36C418.454 259.24 419.154 258.24 419.674 257.36H425.074ZM440.534 314V309.32H445.814V276.26H440.534V271.64H451.754L472.574 302C473.294 303.2 474.014 305.06 474.014 305.06H474.194C474.194 305.06 473.894 302.96 473.894 301.64V276.26H468.494V271.64H485.234V276.26H479.894V314H474.014L453.194 283.64C452.414 282.44 451.754 280.58 451.754 280.58H451.574C451.574 280.58 451.874 282.68 451.814 284V309.32H457.274V314H440.534ZM508.147 299.48V294.32H525.667V299.48H508.147ZM549.342 314V309.32H554.622V276.26H549.342V271.64H569.082C571.662 271.64 574.242 271.82 576.342 272.78C580.722 274.64 583.542 279.14 583.542 284.78C583.542 290.72 580.422 295.52 575.562 297.2C573.582 297.92 571.542 298.1 569.202 298.1H560.622V309.32H565.962V314H549.342ZM560.622 293.18H568.482C570.402 293.18 571.902 292.88 573.222 292.34C575.922 291.14 577.482 288.44 577.482 284.78C577.482 281.36 576.102 278.84 573.702 277.58C572.382 276.86 570.582 276.56 568.542 276.56H560.622V293.18ZM588.541 314V309.32H593.821V276.26H588.541V271.64H605.161V276.26H599.821V290.36H621.781V276.26H616.441V271.64H633.061V276.26H627.781V309.32H633.061V314H616.441V309.32H621.781V295.28H599.821V309.32H605.161V314H588.541ZM674.621 298.88C674.621 301.84 674.021 304.52 672.821 306.92C671.621 309.28 669.781 311.16 667.301 312.56C664.861 313.92 661.741 314.6 657.941 314.6C652.621 314.6 648.561 313.16 645.761 310.28C643.001 307.36 641.621 303.52 641.621 298.76V271.16H647.021V298.94C647.021 302.42 647.941 305.12 649.781 307.04C651.661 308.96 654.481 309.92 658.241 309.92C660.841 309.92 662.941 309.46 664.541 308.54C666.181 307.58 667.381 306.28 668.141 304.64C668.901 302.96 669.281 301.04 669.281 298.88V271.16H674.621V298.88ZM658.001 324.56C657.161 324.56 656.421 324.28 655.781 323.72C655.181 323.16 654.881 322.32 654.881 321.2C654.881 320.04 655.181 319.18 655.781 318.62C656.421 318.1 657.161 317.84 658.001 317.84C658.841 317.84 659.561 318.1 660.161 318.62C660.801 319.18 661.121 320.04 661.121 321.2C661.121 322.32 660.801 323.16 660.161 323.72C659.561 324.28 658.841 324.56 658.001 324.56ZM683.287 314V309.32H688.567V276.26H683.287V271.64H694.507L715.327 302C716.047 303.2 716.767 305.06 716.767 305.06H716.947C716.947 305.06 716.647 302.96 716.647 301.64V276.26H711.247V271.64H727.987V276.26H722.647V314H716.767L695.947 283.64C695.167 282.44 694.507 280.58 694.507 280.58H694.327C694.327 280.58 694.627 282.68 694.567 284V309.32H700.027V314H683.287ZM733.028 292.7C733.028 280.16 742.028 270.92 755.228 270.92C762.668 270.92 771.488 273.92 771.488 279.26V284.48H765.968V281.36C765.968 277.82 760.388 276.08 755.408 276.08C745.508 276.08 739.268 282.8 739.268 292.52C739.268 302.3 745.628 309.5 755.588 309.5C759.368 309.5 766.928 308.36 766.928 304.22V298.64H758.648V293.96H772.448V305.84C772.448 312.38 761.528 314.72 755.168 314.72C742.148 314.72 733.028 305.24 733.028 292.7ZM794.205 301.28H799.725V304.4C799.725 307.52 803.745 309.38 808.185 309.38C813.045 309.38 816.585 307.1 816.585 302.9C816.585 297.98 811.605 296.36 806.385 294.32C800.805 292.22 795.105 289.82 795.105 282.32C795.105 274.34 801.525 270.92 808.665 270.92C815.025 270.92 821.505 273.32 821.505 277.94V282.92H815.925V279.98C815.925 277.52 812.145 276.2 808.665 276.2C804.525 276.2 801.225 278.12 801.225 282.02C801.225 286.52 805.485 288.02 810.225 289.82C816.465 292.16 822.645 294.56 822.645 302.42C822.645 310.52 816.045 314.72 808.185 314.72C801.585 314.72 794.205 311.78 794.205 305.72V301.28ZM864.113 276.98C865.433 276.78 866.413 276.3 867.053 275.54C867.733 274.78 868.193 273.8 868.433 272.6C868.673 271.36 868.793 269.96 868.793 268.4H874.373L874.793 269.06C874.553 270.5 874.193 271.86 873.713 273.14C873.233 274.38 872.593 275.52 871.793 276.56C870.993 277.56 869.973 278.42 868.733 279.14C867.493 279.86 865.953 280.38 864.113 280.7V298.88C864.113 301.84 863.553 304.52 862.433 306.92C861.313 309.28 859.553 311.16 857.153 312.56C854.793 313.92 851.693 314.6 847.853 314.6C842.413 314.6 838.253 313.16 835.373 310.28C832.533 307.36 831.113 303.52 831.113 298.76V271.16H836.513V299C836.513 302.44 837.453 305.12 839.333 307.04C841.253 308.96 844.133 309.92 847.973 309.92C850.573 309.92 852.653 309.46 854.213 308.54C855.813 307.58 856.973 306.28 857.693 304.64C858.413 302.96 858.773 301.06 858.773 298.94V271.16H864.113V276.98ZM847.853 324.56C847.013 324.56 846.273 324.28 845.633 323.72C845.033 323.16 844.733 322.32 844.733 321.2C844.733 320.04 845.033 319.18 845.633 318.62C846.273 318.1 847.013 317.84 847.853 317.84C848.693 317.84 849.413 318.1 850.013 318.62C850.653 319.18 850.973 320.04 850.973 321.2C850.973 322.32 850.653 323.16 850.013 323.72C849.413 324.28 848.693 324.56 847.853 324.56ZM893.049 299.48V294.32H910.569V299.48H893.049ZM934.244 301.28H939.764V304.4C939.764 307.52 943.784 309.38 948.224 309.38C953.084 309.38 956.624 307.1 956.624 302.9C956.624 297.98 951.644 296.36 946.424 294.32C940.844 292.22 935.144 289.82 935.144 282.32C935.144 274.34 941.564 270.92 948.704 270.92C955.064 270.92 961.544 273.32 961.544 277.94V282.92H955.964V279.98C955.964 277.52 952.184 276.2 948.704 276.2C944.564 276.2 941.264 278.12 941.264 282.02C941.264 286.52 945.524 288.02 950.264 289.82C956.504 292.16 962.684 294.56 962.684 302.42C962.684 310.52 956.084 314.72 948.224 314.72C941.624 314.72 934.244 311.78 934.244 305.72V301.28ZM966.119 314V309.32H970.199L983.699 271.64H990.479L1003.98 309.32H1008.06V314H993.359V309.32H997.859L994.559 299.9H979.559L976.259 309.32H980.819V314H966.119ZM981.059 295.1H993.059L987.899 280.4C987.299 278.66 987.179 277.16 987.179 277.16H986.999C986.999 277.16 986.819 278.66 986.279 280.4L981.059 295.1ZM983.399 268.7L989.639 261.08H996.299L988.859 268.7H983.399ZM1011.88 314V309.32H1017.16V276.26H1011.88V271.64H1023.1L1043.92 302C1044.64 303.2 1045.36 305.06 1045.36 305.06H1045.54C1045.54 305.06 1045.24 302.96 1045.24 301.64V276.26H1039.84V271.64H1056.58V276.26H1051.24V314H1045.36L1024.54 283.64C1023.76 282.44 1023.1 280.58 1023.1 280.58H1022.92C1022.92 280.58 1023.22 282.68 1023.16 284V309.32H1028.62V314H1011.88ZM1061.62 292.7C1061.62 280.16 1070.62 270.92 1083.82 270.92C1091.26 270.92 1100.08 273.92 1100.08 279.26V284.48H1094.56V281.36C1094.56 277.82 1088.98 276.08 1084 276.08C1074.1 276.08 1067.86 282.8 1067.86 292.52C1067.86 302.3 1074.22 309.5 1084.18 309.5C1087.96 309.5 1095.52 308.36 1095.52 304.22V298.64H1087.24V293.96H1101.04V305.84C1101.04 312.38 1090.12 314.72 1083.76 314.72C1070.74 314.72 1061.62 305.24 1061.62 292.7ZM1131.2 314V309.32H1136.54V276.56H1126.58V283.16H1121.36V271.64H1157.72V283.16H1152.5V276.56H1142.54V309.32H1147.88V314H1131.2ZM1192.16 314L1187 300.74H1170.02L1164.92 314H1159.46L1176.2 270.98H1181.06L1197.74 314H1192.16ZM1180.58 282.98C1180.46 282.66 1180.26 282.08 1179.98 281.24C1179.7 280.4 1179.42 279.54 1179.14 278.66C1178.9 277.74 1178.7 277.04 1178.54 276.56C1178.34 277.36 1178.12 278.18 1177.88 279.02C1177.68 279.82 1177.46 280.56 1177.22 281.24C1177.02 281.92 1176.84 282.5 1176.68 282.98L1171.82 295.94H1185.38L1180.58 282.98ZM1178.84 324.56C1178 324.56 1177.26 324.28 1176.62 323.72C1176.02 323.16 1175.72 322.32 1175.72 321.2C1175.72 320.04 1176.02 319.18 1176.62 318.62C1177.26 318.1 1178 317.84 1178.84 317.84C1179.68 317.84 1180.4 318.1 1181 318.62C1181.64 319.18 1181.96 320.04 1181.96 321.2C1181.96 322.32 1181.64 323.16 1181 323.72C1180.4 324.28 1179.68 324.56 1178.84 324.56ZM1200.66 292.52C1200.66 280.34 1210.14 270.92 1222.44 270.92C1234.68 270.92 1244.22 280.34 1244.22 292.52C1244.22 305 1234.68 314.72 1222.44 314.72C1210.14 314.72 1200.66 305 1200.66 292.52ZM1206.84 292.52C1206.84 302.06 1213.8 309.38 1222.44 309.38C1231.02 309.38 1237.98 302.06 1237.98 292.52C1237.98 283.28 1231.02 276.2 1222.44 276.2C1213.8 276.2 1206.84 283.28 1206.84 292.52Z" fill="url(#paint3_linear_904_2900)"/>
<defs>
<linearGradient id="paint0_linear_904_2900" x1="514.322" y1="25" x2="514.322" y2="214.175" gradientUnits="userSpaceOnUse">
<stop stop-color="#3F1882"/>
<stop offset="1" stop-color="#8F50F8"/>
</linearGradient>
<linearGradient id="paint1_linear_904_2900" x1="549.183" y1="169.837" x2="526.764" y2="212.82" gradientUnits="userSpaceOnUse">
<stop stop-color="#31E1E1"/>
<stop offset="1" stop-color="#047AEE"/>
</linearGradient>
<linearGradient id="paint2_linear_904_2900" x1="675.168" y1="136.955" x2="977.231" y2="136.955" gradientUnits="userSpaceOnUse">
<stop stop-color="#9747FF"/>
<stop offset="0.496344" stop-color="#6493F0"/>
<stop offset="1" stop-color="#31E1E1"/>
</linearGradient>
<linearGradient id="paint3_linear_904_2900" x1="102" y1="293.5" x2="1283" y2="293.5" gradientUnits="userSpaceOnUse">
<stop stop-color="#9747FF"/>
<stop offset="0.5" stop-color="#6493F0"/>
<stop offset="1" stop-color="#31E1E1"/>
</linearGradient>
<clipPath id="clip0_904_2900">
<rect x="408" y="25" width="212.644" height="206.537" rx="20" fill="white"/>
</clipPath>
</defs>
</svg>
