<svg width="1385" height="281" viewBox="0 0 1385 281" fill="none" xmlns="http://www.w3.org/2000/svg">
<rect width="1385" height="281" rx="20" fill="white"/>
<g clip-path="url(#clip0_917_2986)">
<path fill-rule="evenodd" clip-rule="evenodd" d="M557.848 37.1241C559.847 37.2227 561.829 37.3793 563.792 37.5922V37.6903C561.836 37.4271 559.854 37.2373 557.848 37.1241ZM553.435 37.002C553.223 37.0007 553.01 37 552.797 37H552.334H440.714C422.647 37 408 49.963 408 65.9538V226.175H409.887L509.725 148.11C513.694 145.007 520.023 145.112 523.859 148.345C527.697 151.577 527.591 156.713 523.621 159.817L518.57 163.767H552.334H553.435V163.759C590.653 163.238 620.644 136.373 620.644 103.309V97.458C620.644 64.3936 590.653 37.5286 553.435 37.0077V37.002ZM571.064 163.685C570.946 163.713 570.829 163.74 570.712 163.767H571.064V163.685ZM517.581 226.175L518.219 225.675V226.175H517.581Z" fill="url(#paint0_linear_917_2986)"/>
<path d="M476.965 204.692C476.965 185.133 494.53 169.114 516.621 168.529L560.611 167.363C574.937 166.982 588.564 161.791 598.723 152.842L606.362 161.46C613.353 169.347 617.5 178.915 618.262 188.918L618.325 189.749C618.704 194.707 618.15 199.687 616.686 204.484C611.053 222.954 592.827 236.244 571.266 237.601L520.745 240.781C497.086 242.271 476.965 225.685 476.965 204.692Z" fill="url(#paint1_linear_917_2986)"/>
</g>
<path d="M678.878 174.419V168.959H685.038V130.389H678.878V124.999H701.348C704.918 124.999 707.578 125.349 710.028 126.469C713.948 128.219 716.818 132.279 716.818 137.599C716.818 142.429 714.438 146.279 710.588 148.239V148.379C715.908 149.919 718.778 154.749 718.778 160.349C718.778 166.859 714.788 171.759 709.678 173.509C707.298 174.279 704.988 174.419 702.258 174.419H678.878ZM692.038 145.789H702.398C706.878 145.789 709.678 142.709 709.678 138.229C709.678 135.359 708.558 132.909 706.458 131.719C705.058 131.019 703.448 130.739 701.348 130.739H692.038V145.789ZM692.038 168.679H702.538C703.938 168.679 705.618 168.539 706.948 167.979C709.818 166.789 711.638 163.709 711.638 159.999C711.638 154.889 708.278 151.529 703.098 151.529H692.038V168.679ZM726.456 174.419V168.959H732.616V130.389H726.456V124.999H748.926C752.496 124.999 755.156 125.349 757.606 126.469C761.526 128.219 764.396 132.279 764.396 137.599C764.396 142.429 762.016 146.279 758.166 148.239V148.379C763.486 149.919 766.356 154.749 766.356 160.349C766.356 166.859 762.366 171.759 757.256 173.509C754.876 174.279 752.566 174.419 749.836 174.419H726.456ZM739.616 145.789H749.976C754.456 145.789 757.256 142.709 757.256 138.229C757.256 135.359 756.136 132.909 754.036 131.719C752.636 131.019 751.026 130.739 748.926 130.739H739.616V145.789ZM739.616 168.679H750.116C751.516 168.679 753.196 168.539 754.526 167.979C757.396 166.789 759.216 163.709 759.216 159.999C759.216 154.889 755.856 151.529 750.676 151.529H739.616V168.679ZM770.752 174.419V168.959H775.512L791.262 124.999H799.172L814.922 168.959H819.682V174.419H802.532V168.959H807.782L803.932 157.969H786.432L782.582 168.959H787.902V174.419H770.752ZM788.182 152.369H802.182L796.162 135.219C795.462 133.189 795.322 131.439 795.322 131.439H795.112C795.112 131.439 794.902 133.189 794.272 135.219L788.182 152.369ZM824.141 174.419V168.959H830.301V130.389H824.141V124.999H837.231L861.521 160.419C862.361 161.819 863.201 163.989 863.201 163.989H863.411C863.411 163.989 863.061 161.539 863.061 159.999V130.389H856.761V124.999H876.291V130.389H870.061V174.419H863.201L838.911 138.999C838.001 137.599 837.231 135.429 837.231 135.429H837.021C837.021 135.429 837.371 137.879 837.301 139.419V168.959H843.671V174.419H824.141ZM882.794 174.419V168.959H888.954V130.389H882.794V124.999H901.344V130.389H895.954V145.929H902.324L913.104 130.389H908.554V124.999H925.284V130.389H920.524L907.714 148.239V148.379C907.714 148.379 909.114 149.009 910.514 151.669L919.404 167.139C920.174 168.469 921.154 168.959 922.904 168.959H925.214V174.419H920.244C916.114 174.419 914.924 173.439 913.384 170.709L903.864 153.629C903.024 152.229 902.044 151.669 900.014 151.669H895.954V168.959H902.044V174.419H882.794Z" fill="url(#paint2_linear_917_2986)"/>
<defs>
<linearGradient id="paint0_linear_917_2986" x1="514.322" y1="37" x2="514.322" y2="226.175" gradientUnits="userSpaceOnUse">
<stop stop-color="#3F1882"/>
<stop offset="1" stop-color="#8F50F8"/>
</linearGradient>
<linearGradient id="paint1_linear_917_2986" x1="549.183" y1="181.837" x2="526.764" y2="224.82" gradientUnits="userSpaceOnUse">
<stop stop-color="#31E1E1"/>
<stop offset="1" stop-color="#047AEE"/>
</linearGradient>
<linearGradient id="paint2_linear_917_2986" x1="675.168" y1="148.955" x2="977.231" y2="148.955" gradientUnits="userSpaceOnUse">
<stop stop-color="#9747FF"/>
<stop offset="0.496344" stop-color="#6493F0"/>
<stop offset="1" stop-color="#31E1E1"/>
</linearGradient>
<clipPath id="clip0_917_2986">
<rect x="408" y="37" width="212.644" height="206.537" rx="20" fill="white"/>
</clipPath>
</defs>
</svg>
