<svg width="1385" height="281" viewBox="0 0 1385 281" fill="none" xmlns="http://www.w3.org/2000/svg">
<rect width="1385" height="281" rx="20" fill="white"/>
<path d="M58.9543 164V158.54H65.1843V120.32H53.5643V128.02H47.4743V114.58H89.8943V128.02H83.8043V120.32H72.1843V158.54H78.4143V164H58.9543ZM95.2887 138.94C95.2887 124.73 106.349 113.74 120.699 113.74C134.979 113.74 146.109 124.73 146.109 138.94C146.109 153.5 134.979 164.84 120.699 164.84C106.349 164.84 95.2887 153.5 95.2887 138.94ZM102.499 138.94C102.499 150.07 110.619 158.61 120.699 158.61C130.709 158.61 138.829 150.07 138.829 138.94C138.829 128.16 130.709 119.9 120.699 119.9C110.619 119.9 102.499 128.16 102.499 138.94ZM149.234 164V158.54H153.994L169.744 114.58H177.654L193.404 158.54H198.164V164H181.014V158.54H186.264L182.414 147.55H164.914L161.064 158.54H166.384V164H149.234ZM166.664 141.95H180.664L174.644 124.8C173.944 122.77 173.804 121.02 173.804 121.02H173.594C173.594 121.02 173.384 122.77 172.754 124.8L166.664 141.95ZM171.424 111.15L162.744 102.26H170.584L177.794 111.15H171.424ZM202.689 164V158.54H208.849V119.97H202.689V114.58H215.779L240.069 150C240.909 151.4 241.749 153.57 241.749 153.57H241.959C241.959 153.57 241.609 151.12 241.609 149.58V119.97H235.309V114.58H254.839V119.97H248.609V164H241.749L217.459 128.58C216.549 127.18 215.779 125.01 215.779 125.01H215.569C215.569 125.01 215.919 127.46 215.849 129V158.54H222.219V164H202.689ZM278.842 164V158.54H285.002V119.97H278.842V114.58H299.912C304.042 114.58 307.122 114.79 310.412 115.77C319.862 118.71 326.022 127.25 326.022 139.29C326.022 151.26 320.072 159.59 310.412 162.67C307.192 163.72 303.902 164 299.982 164H278.842ZM292.002 158.26H299.562C302.782 158.26 305.442 157.98 307.962 157C314.612 154.69 318.742 148.32 318.742 139.29C318.742 130.19 314.612 123.82 308.032 121.44C305.302 120.46 302.782 120.32 299.562 120.32H292.002V158.26ZM332.914 164V158.54H339.074V119.97H332.914V114.58H352.304V119.97H346.074V158.54H352.304V164H332.914ZM390.653 164H362.723V114.02H390.653V119.55H369.023V135.16H389.393V140.62H369.023V158.47H390.653V164ZM376.863 176.32C375.883 176.32 375.019 175.993 374.273 175.34C373.573 174.687 373.223 173.707 373.223 172.4C373.223 171.047 373.573 170.043 374.273 169.39C375.019 168.783 375.883 168.48 376.863 168.48C377.843 168.48 378.683 168.783 379.383 169.39C380.129 170.043 380.503 171.047 380.503 172.4C380.503 173.707 380.129 174.687 379.383 175.34C378.683 175.993 377.843 176.32 376.863 176.32ZM380.503 97.92C381.063 98.9467 381.856 100.113 382.883 101.42C383.956 102.68 385.053 103.94 386.173 105.2C387.339 106.413 388.366 107.463 389.253 108.35V109.12H384.913C383.699 108.373 382.439 107.463 381.133 106.39C379.826 105.27 378.543 104.08 377.283 102.82C376.023 104.08 374.763 105.247 373.503 106.32C372.243 107.393 371.006 108.327 369.793 109.12H365.593V108.35C366.479 107.417 367.459 106.343 368.533 105.13C369.653 103.917 370.726 102.68 371.753 101.42C372.779 100.113 373.596 98.9467 374.203 97.92H380.503ZM398.539 164V158.54H404.699V119.97H398.539V114.58H411.629L435.919 150C436.759 151.4 437.599 153.57 437.599 153.57H437.809C437.809 153.57 437.459 151.12 437.459 149.58V119.97H431.159V114.58H450.689V119.97H444.459V164H437.599L413.309 128.58C412.399 127.18 411.629 125.01 411.629 125.01H411.419C411.419 125.01 411.769 127.46 411.699 129V158.54H418.069V164H398.539ZM477.421 147.06V141.04H497.861V147.06H477.421ZM525.482 164V158.54H531.642V119.97H525.482V114.58H548.512C551.522 114.58 554.532 114.79 556.982 115.91C562.092 118.08 565.382 123.33 565.382 129.91C565.382 136.84 561.742 142.44 556.072 144.4C553.762 145.24 551.382 145.45 548.652 145.45H538.642V158.54H544.872V164H525.482ZM538.642 139.71H547.812C550.052 139.71 551.802 139.36 553.342 138.73C556.492 137.33 558.312 134.18 558.312 129.91C558.312 125.92 556.702 122.98 553.902 121.51C552.362 120.67 550.262 120.32 547.882 120.32H538.642V139.71ZM571.215 164V158.54H577.375V119.97H571.215V114.58H590.605V119.97H584.375V136.42H609.995V119.97H603.765V114.58H623.155V119.97H616.995V158.54H623.155V164H603.765V158.54H609.995V142.16H584.375V158.54H590.605V164H571.215ZM671.641 146.36C671.641 149.813 670.941 152.94 669.541 155.74C668.141 158.493 665.994 160.687 663.101 162.32C660.254 163.907 656.614 164.7 652.181 164.7C645.974 164.7 641.237 163.02 637.971 159.66C634.751 156.253 633.141 151.773 633.141 146.22V114.02H639.441V146.43C639.441 150.49 640.514 153.64 642.661 155.88C644.854 158.12 648.144 159.24 652.531 159.24C655.564 159.24 658.014 158.703 659.881 157.63C661.794 156.51 663.194 154.993 664.081 153.08C664.967 151.12 665.411 148.88 665.411 146.36V114.02H671.641V146.36ZM652.251 176.32C651.271 176.32 650.407 175.993 649.661 175.34C648.961 174.687 648.611 173.707 648.611 172.4C648.611 171.047 648.961 170.043 649.661 169.39C650.407 168.783 651.271 168.48 652.251 168.48C653.231 168.48 654.071 168.783 654.771 169.39C655.517 170.043 655.891 171.047 655.891 172.4C655.891 173.707 655.517 174.687 654.771 175.34C654.071 175.993 653.231 176.32 652.251 176.32ZM681.752 164V158.54H687.912V119.97H681.752V114.58H694.842L719.132 150C719.972 151.4 720.812 153.57 720.812 153.57H721.022C721.022 153.57 720.672 151.12 720.672 149.58V119.97H714.372V114.58H733.902V119.97H727.672V164H720.812L696.522 128.58C695.612 127.18 694.842 125.01 694.842 125.01H694.632C694.632 125.01 694.982 127.46 694.912 129V158.54H701.282V164H681.752ZM739.783 139.15C739.783 124.52 750.283 113.74 765.683 113.74C774.363 113.74 784.653 117.24 784.653 123.47V129.56H778.213V125.92C778.213 121.79 771.703 119.76 765.893 119.76C754.343 119.76 747.063 127.6 747.063 138.94C747.063 150.35 754.483 158.75 766.103 158.75C770.513 158.75 779.333 157.42 779.333 152.59V146.08H769.673V140.62H785.773V154.48C785.773 162.11 773.033 164.84 765.613 164.84C750.423 164.84 739.783 153.78 739.783 139.15ZM811.156 149.16H817.596V152.8C817.596 156.44 822.286 158.61 827.466 158.61C833.136 158.61 837.266 155.95 837.266 151.05C837.266 145.31 831.456 143.42 825.366 141.04C818.856 138.59 812.206 135.79 812.206 127.04C812.206 117.73 819.696 113.74 828.026 113.74C835.446 113.74 843.006 116.54 843.006 121.93V127.74H836.496V124.31C836.496 121.44 832.086 119.9 828.026 119.9C823.196 119.9 819.346 122.14 819.346 126.69C819.346 131.94 824.316 133.69 829.846 135.79C837.126 138.52 844.336 141.32 844.336 150.49C844.336 159.94 836.636 164.84 827.466 164.84C819.766 164.84 811.156 161.41 811.156 154.34V149.16ZM892.715 120.81C894.255 120.577 895.398 120.017 896.145 119.13C896.938 118.243 897.475 117.1 897.755 115.7C898.035 114.253 898.175 112.62 898.175 110.8H904.685L905.175 111.57C904.895 113.25 904.475 114.837 903.915 116.33C903.355 117.777 902.608 119.107 901.675 120.32C900.742 121.487 899.552 122.49 898.105 123.33C896.658 124.17 894.862 124.777 892.715 125.15V146.36C892.715 149.813 892.062 152.94 890.755 155.74C889.448 158.493 887.395 160.687 884.595 162.32C881.842 163.907 878.225 164.7 873.745 164.7C867.398 164.7 862.545 163.02 859.185 159.66C855.872 156.253 854.215 151.773 854.215 146.22V114.02H860.515V146.5C860.515 150.513 861.612 153.64 863.805 155.88C866.045 158.12 869.405 159.24 873.885 159.24C876.918 159.24 879.345 158.703 881.165 157.63C883.032 156.51 884.385 154.993 885.225 153.08C886.065 151.12 886.485 148.903 886.485 146.43V114.02H892.715V120.81ZM873.745 176.32C872.765 176.32 871.902 175.993 871.155 175.34C870.455 174.687 870.105 173.707 870.105 172.4C870.105 171.047 870.455 170.043 871.155 169.39C871.902 168.783 872.765 168.48 873.745 168.48C874.725 168.48 875.565 168.783 876.265 169.39C877.012 170.043 877.385 171.047 877.385 172.4C877.385 173.707 877.012 174.687 876.265 175.34C875.565 175.993 874.725 176.32 873.745 176.32ZM926.474 147.06V141.04H946.914V147.06H926.474ZM974.535 149.16H980.975V152.8C980.975 156.44 985.665 158.61 990.845 158.61C996.515 158.61 1000.65 155.95 1000.65 151.05C1000.65 145.31 994.835 143.42 988.745 141.04C982.235 138.59 975.585 135.79 975.585 127.04C975.585 117.73 983.075 113.74 991.405 113.74C998.825 113.74 1006.39 116.54 1006.39 121.93V127.74H999.875V124.31C999.875 121.44 995.465 119.9 991.405 119.9C986.575 119.9 982.725 122.14 982.725 126.69C982.725 131.94 987.695 133.69 993.225 135.79C1000.51 138.52 1007.72 141.32 1007.72 150.49C1007.72 159.94 1000.02 164.84 990.845 164.84C983.145 164.84 974.535 161.41 974.535 154.34V149.16ZM1011.72 164V158.54H1016.48L1032.23 114.58H1040.14L1055.89 158.54H1060.65V164H1043.5V158.54H1048.75L1044.9 147.55H1027.4L1023.55 158.54H1028.87V164H1011.72ZM1029.15 141.95H1043.15L1037.13 124.8C1036.43 122.77 1036.29 121.02 1036.29 121.02H1036.08C1036.08 121.02 1035.87 122.77 1035.24 124.8L1029.15 141.95ZM1031.88 111.15L1039.16 102.26H1046.93L1038.25 111.15H1031.88ZM1065.11 164V158.54H1071.27V119.97H1065.11V114.58H1078.2L1102.49 150C1103.33 151.4 1104.17 153.57 1104.17 153.57H1104.38C1104.38 153.57 1104.03 151.12 1104.03 149.58V119.97H1097.73V114.58H1117.26V119.97H1111.03V164H1104.17L1079.88 128.58C1078.97 127.18 1078.2 125.01 1078.2 125.01H1077.99C1077.99 125.01 1078.34 127.46 1078.27 129V158.54H1084.64V164H1065.11ZM1123.14 139.15C1123.14 124.52 1133.64 113.74 1149.04 113.74C1157.72 113.74 1168.01 117.24 1168.01 123.47V129.56H1161.57V125.92C1161.57 121.79 1155.06 119.76 1149.25 119.76C1137.7 119.76 1130.42 127.6 1130.42 138.94C1130.42 150.35 1137.84 158.75 1149.46 158.75C1153.87 158.75 1162.69 157.42 1162.69 152.59V146.08H1153.03V140.62H1169.13V154.48C1169.13 162.11 1156.39 164.84 1148.97 164.84C1133.78 164.84 1123.14 153.78 1123.14 139.15ZM1204.32 164V158.54H1210.55V120.32H1198.93V128.02H1192.84V114.58H1235.26V128.02H1229.17V120.32H1217.55V158.54H1223.78V164H1204.32ZM1275.44 164L1269.42 148.53H1249.61L1243.66 164H1237.29L1256.82 113.81H1262.49L1281.95 164H1275.44ZM1261.93 127.81C1261.79 127.437 1261.56 126.76 1261.23 125.78C1260.9 124.8 1260.58 123.797 1260.25 122.77C1259.97 121.697 1259.74 120.88 1259.55 120.32C1259.32 121.253 1259.06 122.21 1258.78 123.19C1258.55 124.123 1258.29 124.987 1258.01 125.78C1257.78 126.573 1257.57 127.25 1257.38 127.81L1251.71 142.93H1267.53L1261.93 127.81ZM1259.9 176.32C1258.92 176.32 1258.06 175.993 1257.31 175.34C1256.61 174.687 1256.26 173.707 1256.26 172.4C1256.26 171.047 1256.61 170.043 1257.31 169.39C1258.06 168.783 1258.92 168.48 1259.9 168.48C1260.88 168.48 1261.72 168.783 1262.42 169.39C1263.17 170.043 1263.54 171.047 1263.54 172.4C1263.54 173.707 1263.17 174.687 1262.42 175.34C1261.72 175.993 1260.88 176.32 1259.9 176.32ZM1285.36 138.94C1285.36 124.73 1296.42 113.74 1310.77 113.74C1325.05 113.74 1336.18 124.73 1336.18 138.94C1336.18 153.5 1325.05 164.84 1310.77 164.84C1296.42 164.84 1285.36 153.5 1285.36 138.94ZM1292.57 138.94C1292.57 150.07 1300.69 158.61 1310.77 158.61C1320.78 158.61 1328.9 150.07 1328.9 138.94C1328.9 128.16 1320.78 119.9 1310.77 119.9C1300.69 119.9 1292.57 128.16 1292.57 138.94Z" fill="url(#paint0_linear_917_2988)"/>
<defs>
<linearGradient id="paint0_linear_917_2988" x1="0" y1="140" x2="1385" y2="140" gradientUnits="userSpaceOnUse">
<stop stop-color="#9747FF"/>
<stop offset="0.5" stop-color="#6493F0"/>
<stop offset="1" stop-color="#31E1E1"/>
</linearGradient>
</defs>
</svg>
