<svg width="1385" height="361" viewBox="0 0 1385 361" fill="none" xmlns="http://www.w3.org/2000/svg">
<rect width="1385" height="361" rx="20" fill="white"/>
<path d="M198.765 218V209.42H208.445V148.81H198.765V140.34H234.075C239.685 140.34 243.865 140.89 247.715 142.65C253.875 145.4 258.385 151.78 258.385 160.14C258.385 167.73 254.645 173.78 248.595 176.86V177.08C256.955 179.5 261.465 187.09 261.465 195.89C261.465 206.12 255.195 213.82 247.165 216.57C243.425 217.78 239.795 218 235.505 218H198.765ZM219.445 173.01H235.725C242.765 173.01 247.165 168.17 247.165 161.13C247.165 156.62 245.405 152.77 242.105 150.9C239.905 149.8 237.375 149.36 234.075 149.36H219.445V173.01ZM219.445 208.98H235.945C238.145 208.98 240.785 208.76 242.875 207.88C247.385 206.01 250.245 201.17 250.245 195.34C250.245 187.31 244.965 182.03 236.825 182.03H219.445V208.98ZM272.441 218V209.75H280.581V170.59H272.221V162.34H291.251V209.75H299.281V218H272.441ZM282.341 154.31L268.701 140.34H281.021L292.351 154.31H282.341ZM308.107 218V209.75H316.797V173.01C316.797 171.36 315.917 170.59 314.377 170.59H307.557V162.34H320.097C324.937 162.34 327.137 164.43 327.137 168.5V171.36C327.137 173.12 326.807 174.55 326.807 174.55H327.027C328.127 171.58 334.617 161.02 348.697 161.02C361.457 161.02 367.177 168.17 367.177 182.36V209.75H375.977V218H356.507V184.78C356.507 176.97 354.967 170.81 346.057 170.81C334.837 170.81 327.467 181.04 327.467 192.15V209.75H336.267V218H308.107ZM382.187 218V209.75H390.987V148.59H381.637V140.34H401.547V169.16C401.547 171.8 401.217 173.78 401.217 173.78H401.437C403.857 168.39 411.117 161.02 422.227 161.02C435.317 161.02 441.367 168.17 441.367 182.36V209.75H450.057V218H430.697V184.78C430.697 176.97 429.047 170.81 420.137 170.81C409.247 170.81 401.547 180.05 401.547 191.93V209.75H410.347V218H382.187ZM486.118 218V209.42H495.798V183.68H487.548V174.66H495.798V148.81H486.118V140.34H521.758C545.518 140.34 561.138 154.53 561.138 179.06C561.138 203.7 545.518 218 521.758 218H486.118ZM506.798 208.98H520.988C538.258 208.98 549.698 198.53 549.698 179.06C549.698 159.81 538.148 149.36 520.988 149.36H506.798V174.66H523.848V183.68H506.798V208.98ZM627.48 188.41C627.48 193.323 626.82 197.687 625.5 201.5C624.253 205.24 622.42 208.43 620 211.07C617.653 213.71 614.757 215.727 611.31 217.12C607.937 218.44 604.16 219.1 599.98 219.1C596.093 219.1 592.5 218.44 589.2 217.12C585.9 215.727 583.04 213.71 580.62 211.07C578.2 208.43 576.293 205.24 574.9 201.5C573.58 197.687 572.92 193.323 572.92 188.41C572.92 181.883 574.02 176.383 576.22 171.91C578.42 167.363 581.573 163.917 585.68 161.57C589.787 159.15 594.663 157.94 600.31 157.94C605.663 157.94 610.357 159.15 614.39 161.57C618.497 163.917 621.687 167.363 623.96 171.91C626.307 176.383 627.48 181.883 627.48 188.41ZM582.93 188.41C582.93 193.03 583.517 197.063 584.69 200.51C585.937 203.883 587.843 206.487 590.41 208.32C592.977 210.153 596.24 211.07 600.2 211.07C604.16 211.07 607.423 210.153 609.99 208.32C612.557 206.487 614.427 203.883 615.6 200.51C616.847 197.063 617.47 193.03 617.47 188.41C617.47 183.717 616.847 179.72 615.6 176.42C614.353 173.12 612.447 170.59 609.88 168.83C607.387 166.997 604.123 166.08 600.09 166.08C594.077 166.08 589.713 168.06 587 172.02C584.287 175.98 582.93 181.443 582.93 188.41ZM599.87 237.36C598.33 237.36 596.973 236.847 595.8 235.82C594.7 234.793 594.15 233.253 594.15 231.2C594.15 229.073 594.7 227.497 595.8 226.47C596.973 225.517 598.33 225.04 599.87 225.04C601.41 225.04 602.73 225.517 603.83 226.47C605.003 227.497 605.59 229.073 605.59 231.2C605.59 233.253 605.003 234.793 603.83 235.82C602.73 236.847 601.41 237.36 599.87 237.36ZM605.26 133.74C606.14 135.353 607.387 137.187 609 139.24C610.687 141.22 612.41 143.2 614.17 145.18C616.003 147.087 617.617 148.737 619.01 150.13V151.34H612.19C610.283 150.167 608.303 148.737 606.25 147.05C604.197 145.29 602.18 143.42 600.2 141.44C598.22 143.42 596.24 145.253 594.26 146.94C592.28 148.627 590.337 150.093 588.43 151.34H581.83V150.13C583.223 148.663 584.763 146.977 586.45 145.07C588.21 143.163 589.897 141.22 591.51 139.24C593.123 137.187 594.407 135.353 595.36 133.74H605.26ZM666.802 218V209.42H676.482V148.81H666.802V140.34H697.272V148.81H687.482V174.66H727.742V148.81H717.952V140.34H748.422V148.81H738.742V209.42H748.422V218H717.952V209.42H727.742V183.68H687.482V209.42H697.272V218H666.802ZM763.938 197.98V170.59H754.588V162.34H774.608V195.78C774.608 203.48 776.148 209.64 785.058 209.64C796.168 209.64 803.098 198.97 803.098 187.97V170.59H793.748V162.34H813.768V207.44C813.768 208.98 814.648 209.86 816.188 209.86H822.018V218H810.468C805.628 218 803.428 215.8 803.428 211.84V209.42C803.428 207.55 803.648 206.12 803.648 206.12H803.428C802.328 209.09 796.058 219.32 782.198 219.32C770.208 219.32 763.938 212.72 763.938 197.98ZM831.83 229.55C831.83 229.55 835.02 232.19 839.75 232.19C844.48 232.19 848.11 228.89 849.98 224.49L852.29 218.99L832.82 170.59H825.78V162.34H851.19V170.59H843.82L856.25 203.7C857.02 206.12 857.24 208.54 857.24 208.54H857.57C857.57 208.54 858.01 206.12 858.89 203.7L871.21 170.59H864.06V162.34H888.7V170.59H881.77L859.77 226.8C856.03 236.26 848.77 241.1 840.19 241.1C833.04 241.1 828.2 237.58 828.2 237.58L831.83 229.55ZM938.403 218V209.42H948.193V149.36H929.933V161.46H920.363V140.34H987.023V161.46H977.453V149.36H959.193V209.42H968.983V218H938.403ZM990.753 190.06C990.753 173.23 1004.17 161.02 1020.78 161.02C1037.39 161.02 1050.81 173.23 1050.81 190.06C1050.81 207 1037.39 219.32 1020.78 219.32C1004.17 219.32 990.753 207 990.753 190.06ZM1001.64 190.06C1001.64 201.72 1010.22 210.08 1020.78 210.08C1031.23 210.08 1039.92 201.72 1039.92 190.06C1039.92 178.51 1031.23 170.26 1020.78 170.26C1010.22 170.26 1001.64 178.51 1001.64 190.06ZM1058.84 202.49C1058.84 185 1082.05 183.79 1091.29 183.79H1094.81V181.7C1094.81 172.9 1089.75 169.82 1082.93 169.82C1074.13 169.82 1066.98 175.21 1066.98 175.21L1062.69 167.62C1062.69 167.62 1070.83 161.02 1083.81 161.02C1098 161.02 1105.48 168.39 1105.48 182.47V207.33C1105.48 208.98 1106.36 209.75 1107.9 209.75H1113.51V218H1102.4C1097.45 218 1095.47 215.58 1095.47 211.95V211.18C1095.47 208.98 1095.91 207.55 1095.91 207.55H1095.69C1095.69 207.55 1090.85 219.32 1077.32 219.32C1068.08 219.32 1058.84 213.93 1058.84 202.49ZM1069.62 201.61C1069.62 206.56 1073.25 211.07 1079.63 211.07C1089.09 211.07 1094.92 201.39 1094.92 193.03V190.72H1092.17C1087.11 190.72 1069.62 190.94 1069.62 201.61ZM1080.62 154.31L1066.98 140.34H1079.3L1090.63 154.31H1080.62ZM1121.51 218V209.75H1130.2V173.01C1130.2 171.36 1129.32 170.59 1127.78 170.59H1120.96V162.34H1133.5C1138.34 162.34 1140.54 164.43 1140.54 168.5V171.36C1140.54 173.12 1140.21 174.55 1140.21 174.55H1140.43C1141.53 171.58 1148.02 161.02 1162.1 161.02C1174.86 161.02 1180.58 168.17 1180.58 182.36V209.75H1189.38V218H1169.91V184.78C1169.91 176.97 1168.37 170.81 1159.46 170.81C1148.24 170.81 1140.87 181.04 1140.87 192.15V209.75H1149.67V218H1121.51Z" fill="url(#paint0_linear_912_2940)"/>
<defs>
<linearGradient id="paint0_linear_912_2940" x1="102" y1="180.5" x2="1283" y2="180.5" gradientUnits="userSpaceOnUse">
<stop stop-color="#047AEE"/>
<stop offset="0.496344" stop-color="#9747FF" stop-opacity="0.5"/>
<stop offset="1" stop-color="#9747FF"/>
</linearGradient>
</defs>
</svg>
