<svg width="65" height="65" viewBox="0 0 65 65" fill="none" xmlns="http://www.w3.org/2000/svg">
<path d="M27.8159 33.0389C27.8474 34.163 28.3232 35.2287 29.1389 36.0027C29.9546 36.7768 31.0438 37.196 32.1679 37.1685C33.2918 37.1956 34.3807 36.7762 35.1961 36.0022C36.0115 35.2283 36.487 34.1627 36.5185 33.0389H45.3344V41.8223C45.3229 42.2635 45.1366 42.6822 44.8165 42.9861C44.4964 43.29 44.0686 43.4544 43.6273 43.4429H20.7071C20.2658 43.4544 19.8381 43.29 19.5179 42.9861C19.1978 42.6822 19.0115 42.2635 19 41.8223V33.0389H27.8159Z" fill="white"/>
<path d="M20.3162 30.2256V25.5151H44.017V30.2256" fill="white"/>
<path d="M22.2568 22.6633V20H42.0746V22.6633" fill="white"/>
</svg>
