<svg width="28" height="24" viewBox="0 0 28 24" fill="none" xmlns="http://www.w3.org/2000/svg">
<path d="M9.76416 13.1164C9.79568 14.2404 10.2714 15.3062 11.0871 16.0802C11.9028 16.8542 12.992 17.2734 14.1162 17.246C15.2401 17.273 16.3289 16.8537 17.1443 16.0797C17.9597 15.3057 18.4352 14.2402 18.4667 13.1164H27.2827V21.8997C27.2712 22.341 27.0849 22.7596 26.7647 23.0636C26.4446 23.3675 26.0169 23.5318 25.5756 23.5204H2.65533C2.21405 23.5318 1.78631 23.3675 1.46617 23.0636C1.14604 22.7596 0.959741 22.341 0.948242 21.8997V13.1164H9.76416Z" fill="white"/>
<path d="M2.26428 10.3029V5.59248H25.9651V10.3029" fill="white"/>
<path d="M4.2052 2.74073V0.0773926H24.0229V2.74073" fill="white"/>
</svg>
