<svg width="950" height="765" viewBox="0 0 950 765" fill="none" xmlns="http://www.w3.org/2000/svg">
<g clip-path="url(#clip0_32_199)">
<path d="M498.528 132.87C396.504 177.619 301.506 240.359 225.171 322.043C190.181 359.649 157.597 399.928 131.763 444.487C110.827 481.275 94.3089 522.533 95.6062 565.573C96.0874 591.437 103.611 617.375 118.117 638.887C134.328 662.956 159.302 679.794 185.865 690.572C218.508 703.702 253.804 709.996 288.954 709.441C325.664 709.295 362.082 703.643 398.166 697.305C450.811 687.505 503.762 676.304 553.112 654.923C545.574 656.457 538.533 659.816 530.995 661.407C476.251 677.516 417.366 679.167 361.805 666.095C281.577 647.664 208.857 598.214 162.641 529.923C188.548 529.353 214.499 529.879 240.406 529.66C283.443 574.481 341.963 604.508 403.764 611.577C399.084 607.268 393.719 603.822 388.689 599.981C356.601 576.205 324.512 552.443 292.409 528.696C276.27 516.487 259.621 504.92 243.803 492.331C277.262 492.243 310.75 492.2 344.209 492.346C375.262 533.209 406.111 574.262 437.529 614.834C468.612 573.97 499.636 533.048 530.806 492.243C564.221 492.346 597.636 492.127 631.051 492.36C627.552 495.617 623.456 498.129 619.694 501.05C573.624 535.166 527.54 569.268 481.47 603.384C478.015 605.939 474.356 608.291 471.411 611.46C532.963 604.508 591.148 574.423 634.142 529.967C655.121 529.339 676.217 529.777 697.255 529.762C728.221 487.643 748.354 437.623 755.556 385.835C763.881 326.745 755.6 265.392 731.53 210.771C709.793 160.853 674.861 116.951 631.634 83.9745C586.381 97.6735 541.813 113.753 498.528 132.87ZM796.786 -4.00305H808.989C818.727 -2.2359 828.393 0.933289 836.441 6.87732C851.589 17.5678 860.598 36.0133 860.321 54.5172C873.938 60.6073 887.089 67.895 898.737 77.2856C917.282 91.9194 931.905 111.548 940.229 133.703C949.049 156.734 951.324 181.854 949.326 206.302C946.804 234.693 938.975 262.398 928.231 288.73C906.639 340.692 875.017 388.011 838.73 430.773C846.807 416.87 856.735 404.149 865.001 390.348C884.493 358.335 903.534 325.708 916.582 290.424C925.738 265.421 931.904 238.957 931.525 212.202C931.89 183.709 925.504 154.558 910.123 130.329C896.346 109.021 875.6 92.7956 852.667 82.368C849.62 87.2167 846.296 91.9632 842.054 95.848C824.982 112.147 797.544 115.476 776.798 104.508C761.33 96.7388 750.264 81.5209 746.707 64.6381C712.738 66.157 679.264 72.8751 646.009 79.5493C658.154 90.1814 670.488 100.711 681.32 112.745C717.826 151.885 744.607 199.993 758.793 251.634C775.515 311.878 774.786 376.839 756.723 436.688C740.817 489.965 711.396 539.138 671.843 578.162C646.738 603.092 617.697 624.312 585.361 638.785C585.506 639.398 585.798 640.611 585.929 641.209C514.098 683.854 437.31 718.686 356.849 741.425C298.839 757.52 238.496 767.83 178.139 764.311C140.423 761.959 102.167 753.825 69.2626 734.518C44.1717 719.942 23.1779 697.758 11.8502 670.842C-1.8251 638.755 -2.64176 602.464 4.21039 568.625C10.7858 534.859 23.834 502.671 39.8562 472.367C64.116 427.005 95.2133 385.616 129.502 347.425C196.392 273.483 275.629 211.311 360.945 160.064C442.996 111.329 531.316 72.0426 624.359 49.9314C665.108 40.4238 706.819 34.4069 748.704 34.436C751.97 26.944 755.848 19.5833 761.65 13.7415C770.85 3.89801 783.65 -1.79773 796.786 -4.00305Z" fill="#4B63B7"/>
<path d="M237.621 73.0651C305.005 22.2268 392.217 -1.69539 476.003 8.79065C476.353 9.05353 477.067 9.55008 477.417 9.81296C376.603 49.9607 282.145 105.575 196.625 172.346C170.105 193.143 144.607 215.225 119.998 238.286C140.831 172.755 182.512 114.089 237.621 73.0651Z" fill="#4B63B7"/>
<path d="M348.728 85.2598C398.282 57.263 449.892 32.9465 503.149 12.8653C509.929 14.5156 516.693 16.3557 523.589 17.5241C521.781 20.299 517.787 20.0799 515.075 21.4966C419.757 56.2552 329.819 105.21 247.52 164.489C206.072 194.516 166.49 227.186 129.78 262.865C122.709 269.525 116.207 276.754 109.02 283.297C110.157 275.79 110.579 267.48 114.429 260.879C184.204 192.165 263.659 133.542 348.728 85.2598Z" fill="#4B63B7"/>
<path d="M374.125 98.988C427.09 69.9835 482.418 45.1996 539.641 25.8925C547.163 22.1537 554.322 28.8134 561.669 30.2008C560.955 32.9464 557.5 32.5959 555.386 33.6036C498.003 51.7716 442.661 76.0589 389.578 104.377C303.737 150.44 223.552 207.383 152.756 274.446C135.976 290.453 119.705 307.014 104.237 324.306C104.762 317.72 104.762 311.118 105.841 304.59C183.343 222.045 275.147 153.536 374.125 98.988Z" fill="#4B63B7"/>
<path d="M453.624 279.646C471.206 269.014 489.561 259.491 508.747 252.145C544.641 285.707 569.936 330.659 580.316 378.723C570.519 379.57 560.809 381.264 551.158 383.119C525.309 343.029 492.2 307.701 453.624 279.646Z" fill="#4B63B7"/>
<path d="M294.231 378.635C305.107 330.572 330.183 285.78 366.004 251.941C385.059 259.667 403.458 268.926 421.069 279.529C382.843 307.876 349.326 342.752 323.827 383.06C314.001 381.337 304.174 379.57 294.231 378.635Z" fill="#4B63B7"/>
<path d="M342.707 387.193C367.477 349.032 400.119 316.084 437.471 290.219C473.685 315.456 505.351 347.279 530.077 383.907C530.529 384.74 531.447 386.419 531.899 387.266C499.301 394.525 467.577 405.858 437.544 420.462C407.234 406.033 375.495 394.452 342.707 387.193Z" fill="#4B63B7"/>
<path d="M215.417 393.824C234.603 392.159 253.862 393.327 273.048 394.335C269.695 420.842 269.258 447.875 273.617 474.28C256.88 474.178 240.158 474.426 223.421 474.163C206.247 451.57 202.471 419.294 215.417 393.824Z" fill="#4B63B7"/>
<path d="M601.689 394.379C609.708 393.868 617.741 393.488 625.774 393.225C636.985 392.232 648.196 393.619 659.422 393.59C669.744 414.767 669.803 440.529 659.014 461.516C656.477 465.868 654.495 471.038 650.514 474.207C634.157 474.426 617.799 474.148 601.441 474.324C605.188 447.846 605.363 420.886 601.689 394.379Z" fill="#4B63B7"/>
<path d="M290.893 396.292C298.591 396.876 306.216 398.22 313.84 399.388C306.099 414.212 298.328 429.064 292.336 444.691C291.418 447.189 290.339 449.598 289.085 451.935C287.379 433.416 288.444 414.708 290.893 396.292Z" fill="#4B63B7"/>
<path d="M560.736 399.841C568.274 397.752 576.146 396.978 583.932 396.467C586.41 414.854 587.154 433.46 585.987 451.993C585.594 451.38 584.806 450.139 584.413 449.511C577.648 432.453 570.14 415.614 560.736 399.841Z" fill="#4B63B7"/>
<path d="M332.618 402.995C361.368 409.451 389.433 418.739 416.535 430.306C414.1 433.022 410.587 434.307 407.54 436.148C388.747 447.013 370.684 459.15 353.641 472.615C352.3 473.783 350.667 474.601 348.844 474.338C332.778 474.309 316.727 474.236 300.675 474.368C308.504 449.452 319.526 425.589 332.618 402.995Z" fill="#4B63B7"/>
<path d="M457.983 430.466C485.217 418.841 513.384 409.334 542.338 403.083C555.109 425.764 566.364 449.423 574.047 474.338C557.238 474.28 540.413 474.222 523.604 474.368C507.479 461.851 490.786 450.036 473.204 439.638C468.232 436.41 462.722 434.045 457.983 430.466Z" fill="#4B63B7"/>
</g>
<defs>
<clipPath id="clip0_32_199">
<rect width="950" height="769" fill="white" transform="translate(0 -4)"/>
</clipPath>
</defs>
</svg>
