<svg width="950" height="769" viewBox="0 0 950 769" fill="none" xmlns="http://www.w3.org/2000/svg">
<g clip-path="url(#clip0_923_2936)">
<path d="M498.528 136.87C396.504 181.619 301.506 244.36 225.171 326.043C190.181 363.649 157.597 403.928 131.763 448.487C110.827 485.275 94.3089 526.533 95.6062 569.573C96.0874 595.437 103.611 621.375 118.117 642.887C134.328 666.956 159.302 683.794 185.865 694.572C218.508 707.702 253.804 713.996 288.954 713.441C325.664 713.295 362.082 707.643 398.166 701.305C450.811 691.505 503.762 680.304 553.112 658.923C545.574 660.457 538.533 663.816 530.995 665.407C476.251 681.516 417.366 683.167 361.805 670.096C281.577 651.664 208.857 602.214 162.641 533.923C188.548 533.353 214.499 533.879 240.406 533.66C283.443 578.481 341.963 608.508 403.764 615.577C399.084 611.268 393.719 607.822 388.689 603.981C356.601 580.205 324.512 556.443 292.409 532.696C276.27 520.487 259.621 508.92 243.803 496.331C277.262 496.243 310.75 496.2 344.209 496.346C375.262 537.209 406.111 578.262 437.529 618.834C468.612 577.97 499.636 537.048 530.806 496.243C564.221 496.346 597.636 496.127 631.051 496.36C627.552 499.617 623.456 502.129 619.694 505.05C573.624 539.166 527.54 573.268 481.47 607.384C478.015 609.939 474.356 612.291 471.411 615.46C532.963 608.508 591.148 578.423 634.142 533.967C655.121 533.339 676.217 533.777 697.255 533.762C728.221 491.643 748.354 441.623 755.556 389.835C763.881 330.745 755.6 269.392 731.53 214.771C709.793 164.853 674.861 120.952 631.634 87.9745C586.381 101.674 541.813 117.753 498.528 136.87ZM796.786 -0.0029669H808.989C818.727 1.76418 828.393 4.93335 836.441 10.8774C851.589 21.5679 860.598 40.0134 860.321 58.5173C873.938 64.6074 887.089 71.895 898.737 81.2857C917.282 95.9194 931.905 115.548 940.229 137.703C949.049 160.734 951.324 185.854 949.326 210.302C946.804 238.693 938.975 266.398 928.231 292.73C906.639 344.692 875.017 392.011 838.73 434.773C846.807 420.87 856.735 408.149 865.001 394.348C884.493 362.335 903.534 329.708 916.582 294.424C925.738 269.421 931.905 242.958 931.525 216.202C931.89 187.709 925.504 158.558 910.123 134.329C896.346 113.021 875.6 96.7957 852.667 86.368C849.62 91.2167 846.296 95.9632 842.054 99.848C824.982 116.147 797.544 119.476 776.798 108.508C761.33 100.739 750.264 85.521 746.707 68.6382C712.738 70.1571 679.264 76.8751 646.009 83.5494C658.154 94.1815 670.488 104.711 681.32 116.745C717.826 155.885 744.608 203.993 758.793 255.634C775.515 315.878 774.786 380.839 756.723 440.688C740.817 493.965 711.396 543.138 671.843 582.162C646.738 607.092 617.697 628.312 585.361 642.785C585.506 643.398 585.798 644.611 585.929 645.209C514.098 687.854 437.31 722.686 356.849 745.425C298.839 761.52 238.496 771.83 178.139 768.311C140.423 765.959 102.167 757.825 69.2626 738.518C44.1717 723.942 23.1779 701.758 11.8502 674.842C-1.8251 642.755 -2.64176 606.464 4.21039 572.625C10.7858 538.859 23.834 506.671 39.8562 476.367C64.116 431.005 95.2133 389.616 129.502 351.425C196.392 277.483 275.629 215.311 360.945 164.064C442.996 115.329 531.316 76.0426 624.36 53.9314C665.108 44.4239 706.819 38.4069 748.704 38.4361C751.97 30.944 755.848 23.5833 761.65 17.7415C770.85 7.89807 783.65 2.20231 796.786 -0.0029669Z" fill="#4B63B7" fill-opacity="0.5"/>
<path d="M237.621 77.0651C305.005 26.2268 392.217 2.30461 476.003 12.7906C476.353 13.0535 477.067 13.5501 477.417 13.813C376.603 53.9607 282.145 109.575 196.625 176.346C170.105 197.143 144.607 219.225 119.998 242.286C140.831 176.755 182.512 118.089 237.621 77.0651Z" fill="#4B63B7" fill-opacity="0.5"/>
<path d="M348.728 89.2599C398.282 61.263 449.892 36.9465 503.149 16.8653C509.929 18.5156 516.693 20.3558 523.589 21.5242C521.781 24.299 517.787 24.08 515.075 25.4966C419.757 60.2553 329.819 109.21 247.52 168.489C206.072 198.516 166.49 231.186 129.78 266.865C122.709 273.525 116.207 280.754 109.02 287.297C110.157 279.79 110.579 271.48 114.429 264.879C184.204 196.165 263.659 137.542 348.728 89.2599Z" fill="#4B63B7" fill-opacity="0.5"/>
<path d="M374.125 102.988C427.09 73.9834 482.418 49.1996 539.641 29.8924C547.163 26.1537 554.322 32.8133 561.67 34.2007C560.955 36.9464 557.5 36.5958 555.386 37.6036C498.003 55.7716 442.661 80.0589 389.578 108.377C303.737 154.44 223.552 211.383 152.756 278.446C135.976 294.453 119.705 311.014 104.237 328.306C104.762 321.72 104.762 315.118 105.841 308.59C183.343 226.045 275.147 157.536 374.125 102.988Z" fill="#4B63B7" fill-opacity="0.5"/>
<path d="M453.624 283.646C471.206 273.014 489.561 263.492 508.747 256.145C544.641 289.707 569.936 334.659 580.316 382.723C570.519 383.57 560.809 385.264 551.158 387.119C525.309 347.029 492.2 311.701 453.624 283.646Z" fill="#4B63B7" fill-opacity="0.5"/>
<path d="M294.231 382.635C305.107 334.572 330.183 289.78 366.004 255.941C385.059 263.667 403.458 272.926 421.069 283.529C382.843 311.876 349.326 346.752 323.827 387.06C314.001 385.337 304.174 383.57 294.231 382.635Z" fill="#4B63B7" fill-opacity="0.5"/>
<path d="M342.707 391.193C367.477 353.032 400.119 320.084 437.471 294.219C473.685 319.456 505.351 351.279 530.077 387.907C530.529 388.74 531.447 390.419 531.899 391.266C499.301 398.525 467.577 409.858 437.544 424.462C407.234 410.033 375.495 398.452 342.707 391.193Z" fill="#4B63B7" fill-opacity="0.5"/>
<path d="M215.417 397.824C234.603 396.159 253.862 397.327 273.048 398.335C269.695 424.842 269.258 451.875 273.617 478.28C256.88 478.178 240.158 478.426 223.421 478.163C206.247 455.57 202.471 423.294 215.417 397.824Z" fill="#4B63B7" fill-opacity="0.5"/>
<path d="M601.689 398.379C609.708 397.868 617.741 397.488 625.774 397.225C636.985 396.232 648.196 397.619 659.422 397.59C669.744 418.767 669.803 444.529 659.014 465.516C656.477 469.868 654.495 475.038 650.514 478.207C634.157 478.426 617.799 478.148 601.441 478.324C605.188 451.846 605.363 424.886 601.689 398.379Z" fill="#4B63B7" fill-opacity="0.5"/>
<path d="M290.893 400.292C298.591 400.876 306.216 402.22 313.84 403.388C306.099 418.212 298.328 433.064 292.336 448.691C291.418 451.189 290.339 453.598 289.085 455.935C287.379 437.417 288.444 418.708 290.893 400.292Z" fill="#4B63B7" fill-opacity="0.5"/>
<path d="M560.736 403.841C568.274 401.752 576.146 400.978 583.932 400.467C586.41 418.854 587.154 437.46 585.987 455.993C585.594 455.38 584.806 454.139 584.413 453.511C577.648 436.453 570.14 419.614 560.736 403.841Z" fill="#4B63B7" fill-opacity="0.5"/>
<path d="M332.618 406.995C361.368 413.451 389.433 422.739 416.535 434.306C414.1 437.022 410.587 438.307 407.54 440.148C388.747 451.013 370.684 463.15 353.641 476.615C352.3 477.783 350.667 478.601 348.844 478.338C332.778 478.309 316.727 478.236 300.675 478.368C308.504 453.452 319.526 429.589 332.618 406.995Z" fill="#4B63B7" fill-opacity="0.5"/>
<path d="M457.983 434.466C485.217 422.841 513.384 413.334 542.338 407.083C555.109 429.764 566.364 453.423 574.047 478.338C557.238 478.28 540.413 478.222 523.604 478.368C507.479 465.851 490.786 454.036 473.204 443.638C468.232 440.41 462.722 438.045 457.983 434.466Z" fill="#4B63B7" fill-opacity="0.5"/>
</g>
<defs>
<clipPath id="clip0_923_2936">
<rect width="950" height="769" fill="white"/>
</clipPath>
</defs>
</svg>
